%TF.GenerationSoftware,KiCad,Pcbnew,10.0.5*%
%TF.CreationDate,2026-08-08T19:23:40+03:00*%
%TF.ProjectId,ESP32C5 Cold Wallet,45535033-3243-4352-9043-6f6c64205761,V1B*%
%TF.SameCoordinates,Original*%
%TF.FileFunction,Copper,L2,Bot*%
%TF.FilePolarity,Positive*%
%FSLAX46Y46*%
G04 Gerber Fmt 4.6, Leading zero omitted, Abs format (unit mm)*
G04 Created by KiCad (PCBNEW 10.0.5) date 2026-08-08 19:23:40*
%MOMM*%
%LPD*%
G01*
G04 APERTURE LIST*
G04 Aperture macros list*
%AMRoundRect*
0 Rectangle with rounded corners*
0 $1 Rounding radius*
0 $2 $3 $4 $5 $6 $7 $8 $9 X,Y pos of 4 corners*
0 Add a 4 corners polygon primitive as box body*
4,1,4,$2,$3,$4,$5,$6,$7,$8,$9,$2,$3,0*
0 Add four circle primitives for the rounded corners*
1,1,$1+$1,$2,$3*
1,1,$1+$1,$4,$5*
1,1,$1+$1,$6,$7*
1,1,$1+$1,$8,$9*
0 Add four rect primitives between the rounded corners*
20,1,$1+$1,$2,$3,$4,$5,0*
20,1,$1+$1,$4,$5,$6,$7,0*
20,1,$1+$1,$6,$7,$8,$9,0*
20,1,$1+$1,$8,$9,$2,$3,0*%
G04 Aperture macros list end*
%TA.AperFunction,ComponentPad*%
%ADD10R,1.350000X1.350000*%
%TD*%
%TA.AperFunction,ComponentPad*%
%ADD11C,1.350000*%
%TD*%
%TA.AperFunction,ComponentPad*%
%ADD12R,1.508000X1.508000*%
%TD*%
%TA.AperFunction,ComponentPad*%
%ADD13C,1.508000*%
%TD*%
%TA.AperFunction,SMDPad,CuDef*%
%ADD14C,1.000000*%
%TD*%
%TA.AperFunction,SMDPad,CuDef*%
%ADD15RoundRect,0.500000X0.875000X0.500000X-0.875000X0.500000X-0.875000X-0.500000X0.875000X-0.500000X0*%
%TD*%
%TA.AperFunction,SMDPad,CuDef*%
%ADD16C,1.700000*%
%TD*%
%TA.AperFunction,SMDPad,CuDef*%
%ADD17RoundRect,0.275000X-0.975000X-0.275000X0.975000X-0.275000X0.975000X0.275000X-0.975000X0.275000X0*%
%TD*%
%TA.AperFunction,SMDPad,CuDef*%
%ADD18RoundRect,0.275000X-0.275000X0.975000X-0.275000X-0.975000X0.275000X-0.975000X0.275000X0.975000X0*%
%TD*%
%TA.AperFunction,ComponentPad*%
%ADD19O,3.500000X2.200000*%
%TD*%
%TA.AperFunction,ComponentPad*%
%ADD20R,2.500000X1.500000*%
%TD*%
%TA.AperFunction,ComponentPad*%
%ADD21O,2.500000X1.500000*%
%TD*%
%TA.AperFunction,ViaPad*%
%ADD22C,0.600000*%
%TD*%
%TA.AperFunction,Conductor*%
%ADD23C,0.600000*%
%TD*%
%TA.AperFunction,Conductor*%
%ADD24C,0.200000*%
%TD*%
%TA.AperFunction,Conductor*%
%ADD25C,0.400000*%
%TD*%
G04 APERTURE END LIST*
D10*
%TO.P,D9,1*%
%TO.N,GND*%
X134104000Y-114903471D03*
D11*
%TO.P,D9,2*%
%TO.N,D9-SW6*%
X136104000Y-114903471D03*
%TD*%
D10*
%TO.P,REF\u002A\u002A,1*%
%TO.N,GND*%
X134504000Y-81103471D03*
D11*
%TO.P,REF\u002A\u002A,2*%
%TO.N,+3.3V*%
X134504000Y-83103471D03*
%TO.P,REF\u002A\u002A,3*%
%TO.N,VBUS*%
X134504000Y-85103471D03*
%TD*%
D10*
%TO.P,D8,1*%
%TO.N,GND*%
X134104000Y-118303471D03*
D11*
%TO.P,D8,2*%
%TO.N,D8-SW5*%
X136104000Y-118303471D03*
%TD*%
%TO.P,REF\u002A\u002A,1*%
%TO.N,D6*%
X138304000Y-81103471D03*
%TO.P,REF\u002A\u002A,2*%
%TO.N,D7*%
X138304000Y-83103471D03*
%TO.P,REF\u002A\u002A,3*%
%TO.N,D10*%
X138304000Y-85103471D03*
%TD*%
D10*
%TO.P,D3,1*%
%TO.N,GND*%
X134104000Y-121703471D03*
D11*
%TO.P,D3,2*%
%TO.N,D3-SW4*%
X136104000Y-121703471D03*
%TD*%
D12*
%TO.P,U2,1,GND_1*%
%TO.N,GND*%
X158563050Y-99003471D03*
D13*
%TO.P,U2,2,VCC_IN_2*%
%TO.N,+3.3V*%
X156023050Y-99003471D03*
%TO.P,U2,3,SCL_3*%
%TO.N,D5-SCL*%
X153483050Y-99003471D03*
%TO.P,U2,4,SDA_4*%
%TO.N,D4-SDA*%
X150943050Y-99003471D03*
%TD*%
D10*
%TO.P,D2,1*%
%TO.N,GND*%
X134104000Y-125103471D03*
D11*
%TO.P,D2,2*%
%TO.N,D2-SW3*%
X136104000Y-125103471D03*
%TD*%
D10*
%TO.P,D0,1*%
%TO.N,GND*%
X134104000Y-131903471D03*
D11*
%TO.P,D0,2*%
%TO.N,D0-SW1*%
X136104000Y-131903471D03*
%TD*%
D10*
%TO.P,D1,1*%
%TO.N,GND*%
X134104000Y-128503471D03*
D11*
%TO.P,D1,2*%
%TO.N,D1-SW2*%
X136104000Y-128503471D03*
%TD*%
D14*
%TO.P,DOWN,1,1_1*%
%TO.N,D1-SW2*%
X154658407Y-129065971D03*
%TD*%
%TO.P,RIGHT,1,1_1*%
%TO.N,D9-SW6*%
X166008407Y-119503471D03*
%TD*%
%TO.P,UP,1,1_1*%
%TO.N,D0-SW1*%
X154658407Y-109940971D03*
%TD*%
D15*
%TO.P,U3,1,D0_1*%
%TO.N,D0-SW1*%
X162748550Y-65364971D03*
%TO.P,U3,2,D1_2*%
%TO.N,D1-SW2*%
X162748550Y-67904971D03*
%TO.P,U3,3,D2_3*%
%TO.N,D2-SW3*%
X162748550Y-70444971D03*
%TO.P,U3,4,D3_4*%
%TO.N,D3-SW4*%
X162748550Y-72984971D03*
%TO.P,U3,5,D4_5*%
%TO.N,D4-SDA*%
X162748550Y-75524971D03*
%TO.P,U3,6,D5_6*%
%TO.N,D5-SCL*%
X162748550Y-78064971D03*
%TO.P,U3,7,D6_7*%
%TO.N,D6*%
X162748550Y-80604971D03*
%TO.P,U3,8,D7_8*%
%TO.N,D7*%
X146583550Y-80604971D03*
%TO.P,U3,9,D8_9*%
%TO.N,D8-SW5*%
X146583550Y-78064971D03*
%TO.P,U3,10,D9/BOOT_10*%
%TO.N,D9-SW6*%
X146583550Y-75524971D03*
%TO.P,U3,11,D10_11*%
%TO.N,D10*%
X146583550Y-72984971D03*
%TO.P,U3,12,3V3_OUT_12*%
%TO.N,+3.3V*%
X146583550Y-70444971D03*
%TO.P,U3,13,GND_13*%
%TO.N,GND*%
X146583550Y-67904971D03*
%TO.P,U3,14,VBUS_14*%
%TO.N,VBUS*%
X146583550Y-65364971D03*
D16*
%TO.P,U3,17,EN_17*%
%TO.N,EN*%
X155963550Y-66892971D03*
%TO.P,U3,18,GND_18*%
%TO.N,GND*%
X153423550Y-66892971D03*
D17*
%TO.P,U3,21,VBAT_21*%
%TO.N,VBAT*%
X159138550Y-72602971D03*
%TO.P,U3,22,GND_22*%
%TO.N,GND*%
X159138550Y-70697971D03*
%TD*%
D14*
%TO.P,SDA,1,1_1*%
%TO.N,D4-SDA*%
X150904000Y-102303471D03*
%TD*%
%TO.P,GND,1,1_1*%
%TO.N,GND*%
X138304000Y-94703471D03*
%TD*%
D15*
%TO.P,U1,1,D0_1*%
%TO.N,D0-SW1*%
X162748550Y-65304971D03*
%TO.P,U1,2,D1_2*%
%TO.N,D1-SW2*%
X162748550Y-67844971D03*
%TO.P,U1,3,D2_3*%
%TO.N,D2-SW3*%
X162748550Y-70384971D03*
%TO.P,U1,4,D3_4*%
%TO.N,D3-SW4*%
X162748550Y-72924971D03*
%TO.P,U1,5,D4_5*%
%TO.N,D4-SDA*%
X162748550Y-75464971D03*
%TO.P,U1,6,D5_6*%
%TO.N,D5-SCL*%
X162748550Y-78004971D03*
%TO.P,U1,7,D6_7*%
%TO.N,D6*%
X162748550Y-80544971D03*
%TO.P,U1,8,D7_8*%
%TO.N,D7*%
X146583550Y-80544971D03*
%TO.P,U1,9,D8_9*%
%TO.N,D8-SW5*%
X146583550Y-78004971D03*
%TO.P,U1,10,D9_10*%
%TO.N,D9-SW6*%
X146583550Y-75464971D03*
%TO.P,U1,11,D10_11*%
%TO.N,D10*%
X146583550Y-72924971D03*
%TO.P,U1,12,3V3_OUT_12*%
%TO.N,+3.3V*%
X146583550Y-70384971D03*
%TO.P,U1,13,GND_13*%
%TO.N,GND*%
X146583550Y-67844971D03*
%TO.P,U1,14,VBUS_14*%
%TO.N,VBUS*%
X146583550Y-65304971D03*
D16*
%TO.P,U1,17,EN_17*%
%TO.N,EN*%
X155966950Y-66823471D03*
%TO.P,U1,18,GND_18*%
%TO.N,GND*%
X153426950Y-66823471D03*
D18*
%TO.P,U1,23,VBAT_23*%
%TO.N,VBAT*%
X156274950Y-78456671D03*
%TO.P,U1,24,GND_24*%
%TO.N,GND*%
X153734950Y-78456671D03*
%TD*%
D14*
%TO.P,3V,1,1_1*%
%TO.N,+3.3V*%
X138304000Y-90703471D03*
%TD*%
%TO.P,LEFT,1,1_1*%
%TO.N,D8-SW5*%
X143283407Y-119503471D03*
%TD*%
%TO.P,SCL,1,1_1*%
%TO.N,D5-SCL*%
X153904000Y-102303471D03*
%TD*%
%TO.P,OK,1,1_1*%
%TO.N,D2-SW3*%
X154658407Y-119503471D03*
%TD*%
D11*
%TO.P,BT1,1,+_1*%
%TO.N,VBAT*%
X170704000Y-74503471D03*
D10*
%TO.P,BT1,2,-_2*%
%TO.N,GND*%
X170704000Y-76503471D03*
%TD*%
D19*
%TO.P,SW7,*%
%TO.N,*%
X175104000Y-71603471D03*
X175104000Y-79803471D03*
D20*
%TO.P,SW7,1,A_1*%
%TO.N,GND*%
X175104000Y-73703471D03*
D21*
%TO.P,SW7,2,B_2*%
%TO.N,EN*%
X175104000Y-75703471D03*
%TO.P,SW7,3,C_3*%
%TO.N,N/C*%
X175104000Y-77703471D03*
%TD*%
D14*
%TO.P,BACK,1,1_1*%
%TO.N,D3-SW4*%
X143283407Y-129065971D03*
%TD*%
D22*
%TO.N,GND*%
X155429000Y-117628471D03*
X166104000Y-117503471D03*
X154504000Y-103703471D03*
X170304000Y-117903471D03*
X146104000Y-116303471D03*
X160104000Y-117628471D03*
%TO.N,D9-SW6*%
X168904000Y-122903471D03*
X141904000Y-77503471D03*
X161104000Y-121503471D03*
X148304000Y-114903471D03*
X148304000Y-123303471D03*
%TO.N,D3-SW4*%
X164904000Y-72924971D03*
X146304000Y-129103471D03*
X144304000Y-129703471D03*
%TO.N,D8-SW5*%
X143304000Y-78303471D03*
X139304000Y-119903471D03*
%TO.N,D0-SW1*%
X165504000Y-65304971D03*
X159004000Y-110403471D03*
X155704000Y-110103471D03*
%TO.N,D6*%
X149704000Y-85303471D03*
X158304000Y-77703471D03*
X142904000Y-83903471D03*
%TO.N,D7*%
X144304000Y-81303471D03*
%TO.N,D10*%
X142904000Y-73903471D03*
%TO.N,D2-SW3*%
X152504000Y-119703471D03*
X165504000Y-70384971D03*
%TO.N,D1-SW2*%
X153304000Y-130503471D03*
X156104000Y-129903471D03*
X166904000Y-67903471D03*
%TO.N,D5-SCL*%
X165004000Y-76403471D03*
%TO.N,D4-SDA*%
X164804000Y-75003471D03*
%TD*%
%TO.N,GND*%
D23*
X146583550Y-67844971D02*
X144562500Y-67844971D01*
D24*
X155504000Y-117703471D02*
X159904000Y-117703471D01*
X145304000Y-103703471D02*
X154504000Y-103703471D01*
X170304000Y-123703471D02*
X170304000Y-117903471D01*
X135079000Y-132878471D02*
X161129000Y-132878471D01*
X146104000Y-116303471D02*
X136104000Y-116303471D01*
X169904000Y-117503471D02*
X170304000Y-117903471D01*
X138304000Y-94703471D02*
X147304000Y-103703471D01*
X134104000Y-114903471D02*
X134104000Y-131903471D01*
X155304000Y-74248119D02*
X158854148Y-70697971D01*
X148102500Y-67904971D02*
X146583550Y-67904971D01*
X155304000Y-76887621D02*
X155304000Y-74248119D01*
D23*
X144562500Y-67844971D02*
X134504000Y-77903471D01*
D24*
X158563050Y-99003471D02*
X170704000Y-86862521D01*
X147304000Y-103703471D02*
X154504000Y-103703471D01*
X153734950Y-94175371D02*
X153734950Y-78456671D01*
X153734950Y-78456671D02*
X150504000Y-75225721D01*
X161129000Y-132878471D02*
X170304000Y-123703471D01*
X152411550Y-67904971D02*
X146583550Y-67904971D01*
X173504000Y-73703471D02*
X170704000Y-76503471D01*
X158854148Y-70697971D02*
X159138550Y-70697971D01*
X134104000Y-114903471D02*
X145304000Y-103703471D01*
X170704000Y-86862521D02*
X170704000Y-76503471D01*
X158563050Y-99644421D02*
X158563050Y-99003471D01*
X136104000Y-116303471D02*
X134104000Y-118303471D01*
D23*
X134504000Y-77903471D02*
X134504000Y-81103471D01*
D24*
X153734950Y-78456671D02*
X155304000Y-76887621D01*
X153423550Y-66892971D02*
X152411550Y-67904971D01*
X175104000Y-73703471D02*
X173504000Y-73703471D01*
X150504000Y-70306471D02*
X148102500Y-67904971D01*
X150504000Y-75225721D02*
X150504000Y-70306471D01*
X134104000Y-131903471D02*
X135079000Y-132878471D01*
X166104000Y-117503471D02*
X169904000Y-117503471D01*
X154504000Y-103703471D02*
X158563050Y-99644421D01*
X155429000Y-117628471D02*
X155504000Y-117703471D01*
X158563050Y-99003471D02*
X153734950Y-94175371D01*
%TO.N,D9-SW6*%
D25*
X146583550Y-75464971D02*
X143942500Y-75464971D01*
D24*
X162704000Y-121503471D02*
X161104000Y-121503471D01*
X164704000Y-119503471D02*
X162704000Y-121503471D01*
D25*
X159304000Y-123303471D02*
X161104000Y-121503471D01*
D24*
X136104000Y-114903471D02*
X148304000Y-114903471D01*
D25*
X162504000Y-122903471D02*
X168904000Y-122903471D01*
X143942500Y-75464971D02*
X141904000Y-77503471D01*
X148304000Y-123303471D02*
X159304000Y-123303471D01*
D24*
X166008407Y-119503471D02*
X164704000Y-119503471D01*
D25*
X161104000Y-121503471D02*
X162504000Y-122903471D01*
%TO.N,D3-SW4*%
D24*
X135129000Y-125507330D02*
X139325141Y-129703471D01*
X144304000Y-129703471D02*
X145704000Y-129703471D01*
X136104000Y-121703471D02*
X135129000Y-122678471D01*
X143920907Y-129703471D02*
X143283407Y-129065971D01*
D25*
X162748550Y-72924971D02*
X164904000Y-72924971D01*
D24*
X144304000Y-129703471D02*
X143920907Y-129703471D01*
X145704000Y-129703471D02*
X146304000Y-129103471D01*
X135129000Y-122678471D02*
X135129000Y-125507330D01*
X139325141Y-129703471D02*
X144304000Y-129703471D01*
%TO.N,+3.3V*%
D23*
X135208000Y-82399471D02*
X134504000Y-83103471D01*
X140204000Y-83184421D02*
X142413525Y-85393946D01*
X140204000Y-82503471D02*
X140100000Y-82399471D01*
X137346299Y-82399471D02*
X135208000Y-82399471D01*
X144022500Y-70384971D02*
X140204000Y-74203471D01*
X137129000Y-80616770D02*
X137129000Y-81590172D01*
X137129000Y-81590172D02*
X137642299Y-82103471D01*
X137817299Y-79928471D02*
X137129000Y-80616770D01*
X137642299Y-82103471D02*
X137346299Y-82399471D01*
X139261701Y-82399471D02*
X138965701Y-82103471D01*
X146583550Y-70384971D02*
X144022500Y-70384971D01*
X140204000Y-74203471D02*
X140204000Y-83184421D01*
X140100000Y-82399471D02*
X139261701Y-82399471D01*
X138304000Y-89503471D02*
X138304000Y-90703471D01*
X139479000Y-81590172D02*
X139479000Y-80616770D01*
X142413525Y-85393946D02*
X138304000Y-89503471D01*
X138790701Y-79928471D02*
X137817299Y-79928471D01*
X139479000Y-80616770D02*
X138790701Y-79928471D01*
X142413525Y-85393946D02*
X156023050Y-99003471D01*
X140204000Y-74203471D02*
X140204000Y-82503471D01*
X138965701Y-82103471D02*
X139479000Y-81590172D01*
%TO.N,VBUS*%
X132904000Y-77503471D02*
X132904000Y-83503471D01*
X146583550Y-65304971D02*
X145102500Y-65304971D01*
X145102500Y-65304971D02*
X132904000Y-77503471D01*
X132904000Y-83503471D02*
X134504000Y-85103471D01*
%TO.N,D8-SW5*%
D25*
X143602500Y-78004971D02*
X143304000Y-78303471D01*
D24*
X139304000Y-119903471D02*
X139704000Y-119503471D01*
X136104000Y-118303471D02*
X137704000Y-119903471D01*
D25*
X146583550Y-78004971D02*
X143602500Y-78004971D01*
D24*
X137704000Y-119903471D02*
X139304000Y-119903471D01*
X139704000Y-119503471D02*
X143283407Y-119503471D01*
%TO.N,D0-SW1*%
X169504000Y-123152000D02*
X169504000Y-121752000D01*
X168952529Y-123703471D02*
X169504000Y-123152000D01*
X167904000Y-123703471D02*
X168952529Y-123703471D01*
X169504000Y-121752000D02*
X159004000Y-111252000D01*
X155704000Y-110103471D02*
X158704000Y-110103471D01*
X159704000Y-131903471D02*
X167904000Y-123703471D01*
X165702500Y-65304971D02*
X165704000Y-65303471D01*
X155704000Y-110103471D02*
X154820907Y-110103471D01*
D25*
X165504000Y-65304971D02*
X165702500Y-65304971D01*
D24*
X159004000Y-111252000D02*
X159004000Y-110403471D01*
X158704000Y-110103471D02*
X159004000Y-110403471D01*
X154820907Y-110103471D02*
X154658407Y-109940971D01*
D25*
X162748550Y-65304971D02*
X165504000Y-65304971D01*
D24*
X159004000Y-110403471D02*
X159104000Y-110503471D01*
X136104000Y-131903471D02*
X159704000Y-131903471D01*
%TO.N,D6*%
D25*
X161205500Y-80604971D02*
X158304000Y-77703471D01*
X162748550Y-80604971D02*
X161205500Y-80604971D01*
X144304000Y-85303471D02*
X149704000Y-85303471D01*
X142904000Y-83903471D02*
X144304000Y-85303471D01*
%TO.N,D7*%
X145062500Y-80544971D02*
X146583550Y-80544971D01*
X144304000Y-81303471D02*
X145062500Y-80544971D01*
%TO.N,D10*%
X143882500Y-72924971D02*
X142904000Y-73903471D01*
X146583550Y-72924971D02*
X143882500Y-72924971D01*
%TO.N,D2-SW3*%
D24*
X151904000Y-120303471D02*
X140904000Y-120303471D01*
X140904000Y-120303471D02*
X136104000Y-125103471D01*
X154658407Y-119503471D02*
X152704000Y-119503471D01*
X152504000Y-119703471D02*
X151904000Y-120303471D01*
D25*
X162748550Y-70384971D02*
X165504000Y-70384971D01*
D24*
X152704000Y-119503471D02*
X152504000Y-119703471D01*
%TO.N,D1-SW2*%
X155266500Y-129065971D02*
X156104000Y-129903471D01*
X154658407Y-129065971D02*
X155266500Y-129065971D01*
D25*
X166504000Y-67903471D02*
X166904000Y-67903471D01*
X166502500Y-67904971D02*
X166504000Y-67903471D01*
D24*
X136104000Y-128503471D02*
X138104000Y-130503471D01*
D25*
X162748550Y-67904971D02*
X166502500Y-67904971D01*
D24*
X155504000Y-130503471D02*
X156104000Y-129903471D01*
X153304000Y-130503471D02*
X155504000Y-130503471D01*
X138104000Y-130503471D02*
X153304000Y-130503471D01*
%TO.N,D5-SCL*%
D25*
X163402500Y-78004971D02*
X165004000Y-76403471D01*
D24*
X153504000Y-99024421D02*
X153483050Y-99003471D01*
X162748550Y-78004971D02*
X163402500Y-78004971D01*
X153504000Y-101903471D02*
X153504000Y-99024421D01*
X153904000Y-102303471D02*
X153504000Y-101903471D01*
%TO.N,D4-SDA*%
D25*
X162748550Y-75464971D02*
X164342500Y-75464971D01*
X164342500Y-75464971D02*
X164804000Y-75003471D01*
D24*
X150904000Y-99042521D02*
X150943050Y-99003471D01*
X150904000Y-102303471D02*
X150904000Y-99042521D01*
%TO.N,EN*%
D25*
X159286950Y-63503471D02*
X155966950Y-66823471D01*
D24*
X175104000Y-75703471D02*
X175704000Y-75703471D01*
D25*
X175704000Y-75703471D02*
X177504000Y-73903471D01*
X177504000Y-70503471D02*
X175904000Y-68903471D01*
X166904000Y-63503471D02*
X159286950Y-63503471D01*
X172304000Y-68903471D02*
X166904000Y-63503471D01*
X175904000Y-68903471D02*
X172304000Y-68903471D01*
X177504000Y-73903471D02*
X177504000Y-70503471D01*
%TO.N,VBAT*%
D23*
X158104000Y-84703471D02*
X156274950Y-82874421D01*
X156274950Y-78456671D02*
X156274950Y-75466571D01*
X168104000Y-75303471D02*
X168104000Y-82703471D01*
X156274950Y-75466571D02*
X159138550Y-72602971D01*
X169104000Y-74303471D02*
X168104000Y-75303471D01*
X166104000Y-84703471D02*
X158104000Y-84703471D01*
X156274950Y-82874421D02*
X156274950Y-78456671D01*
X168104000Y-82703471D02*
X166104000Y-84703471D01*
X170504000Y-74303471D02*
X169104000Y-74303471D01*
X170704000Y-74503471D02*
X170504000Y-74303471D01*
%TD*%
%TA.AperFunction,Conductor*%
%TO.N,+3.3V*%
G36*
X148408620Y-69213404D02*
G01*
X148429478Y-69230118D01*
X148991522Y-69790125D01*
X149025118Y-69851387D01*
X149028000Y-69877965D01*
X149028000Y-71203859D01*
X149008315Y-71270898D01*
X148991681Y-71291540D01*
X148588069Y-71695152D01*
X148526746Y-71728637D01*
X148500388Y-71731471D01*
X148235402Y-71731471D01*
X148168363Y-71711786D01*
X148157041Y-71703573D01*
X148011959Y-71585275D01*
X148011960Y-71585275D01*
X148011957Y-71585273D01*
X147831599Y-71491062D01*
X147831598Y-71491061D01*
X147831595Y-71491060D01*
X147714379Y-71457521D01*
X147635968Y-71435085D01*
X147635965Y-71435084D01*
X147635963Y-71435084D01*
X147569652Y-71429188D01*
X147516587Y-71424471D01*
X147516582Y-71424471D01*
X145650521Y-71424471D01*
X145650515Y-71424471D01*
X145650514Y-71424472D01*
X145638866Y-71425507D01*
X145531134Y-71435084D01*
X145335504Y-71491060D01*
X145245322Y-71538167D01*
X145155143Y-71585273D01*
X145155141Y-71585274D01*
X145155140Y-71585275D01*
X145010059Y-71703573D01*
X144945662Y-71730682D01*
X144931698Y-71731471D01*
X143948000Y-71731471D01*
X139376000Y-75795471D01*
X139376000Y-78696859D01*
X139356315Y-78763898D01*
X139339681Y-78784540D01*
X138809069Y-79315152D01*
X138747746Y-79348637D01*
X138721388Y-79351471D01*
X136962999Y-79351471D01*
X136328000Y-79986470D01*
X136328000Y-81840109D01*
X136308315Y-81907148D01*
X136291681Y-81927790D01*
X135820000Y-82399470D01*
X135820000Y-83491109D01*
X135800315Y-83558148D01*
X135783681Y-83578790D01*
X135475319Y-83887152D01*
X135413996Y-83920637D01*
X135387638Y-83923471D01*
X134507440Y-83923471D01*
X134440401Y-83903786D01*
X134419759Y-83887152D01*
X133740819Y-83208212D01*
X133707334Y-83146889D01*
X133704500Y-83120531D01*
X133704500Y-82523471D01*
X133724185Y-82456432D01*
X133776989Y-82410677D01*
X133828500Y-82399471D01*
X135183521Y-82399471D01*
X135183522Y-82399471D01*
X135306536Y-82276932D01*
X135350705Y-82248608D01*
X135421331Y-82222267D01*
X135441926Y-82206850D01*
X135459447Y-82193732D01*
X135536546Y-82136017D01*
X135622796Y-82020802D01*
X135648284Y-81952463D01*
X135676950Y-81907952D01*
X135820490Y-81764969D01*
X135836048Y-77754378D01*
X135855992Y-77687418D01*
X135872357Y-77667191D01*
X144294889Y-69244658D01*
X144356208Y-69211176D01*
X144382107Y-69208343D01*
X145062966Y-69205871D01*
X145130072Y-69225311D01*
X145141775Y-69233769D01*
X145155140Y-69244668D01*
X145249022Y-69293707D01*
X145335501Y-69338880D01*
X145531132Y-69394857D01*
X145650513Y-69405471D01*
X147516586Y-69405470D01*
X147635968Y-69394857D01*
X147831599Y-69338880D01*
X148011957Y-69244669D01*
X148038928Y-69222676D01*
X148103321Y-69195567D01*
X148116820Y-69194780D01*
X148341513Y-69193964D01*
X148408620Y-69213404D01*
G37*
%TD.AperFunction*%
%TD*%
%TA.AperFunction,Conductor*%
%TO.N,VBUS*%
G36*
X148009490Y-64116492D02*
G01*
X148034734Y-64123905D01*
X148087480Y-64155201D01*
X148471073Y-64538794D01*
X148492223Y-64567046D01*
X148504831Y-64590135D01*
X148520000Y-64649564D01*
X148520000Y-65947278D01*
X148514976Y-65982215D01*
X148507564Y-66007456D01*
X148476269Y-66060200D01*
X148101587Y-66434881D01*
X148073331Y-66456033D01*
X148059610Y-66463525D01*
X147991341Y-66478376D01*
X147981286Y-66477657D01*
X147932719Y-66463882D01*
X147835569Y-66413136D01*
X147832386Y-66411324D01*
X147831592Y-66411059D01*
X147714379Y-66377521D01*
X147638531Y-66355818D01*
X147636375Y-66355150D01*
X147633897Y-66354748D01*
X147630486Y-66354597D01*
X147621178Y-66353769D01*
X147569652Y-66349188D01*
X147569651Y-66349187D01*
X147516589Y-66344471D01*
X147516587Y-66344471D01*
X147516582Y-66344471D01*
X145650521Y-66344471D01*
X145650515Y-66344471D01*
X145638447Y-66344471D01*
X145631592Y-66346153D01*
X145531132Y-66355084D01*
X145335500Y-66411061D01*
X145275678Y-66442310D01*
X145167073Y-66499040D01*
X145145959Y-66507700D01*
X145126062Y-66513791D01*
X145056197Y-66514592D01*
X144996989Y-66477494D01*
X144968752Y-66422274D01*
X144966985Y-66414371D01*
X144964000Y-66387326D01*
X144964000Y-66238721D01*
X144963999Y-66238720D01*
X144896646Y-66210821D01*
X132772000Y-78335469D01*
X132772000Y-78335470D01*
X132772000Y-78335471D01*
X132772000Y-83796471D01*
X133407000Y-84431471D01*
X134766558Y-84431471D01*
X134801490Y-84436492D01*
X134826734Y-84443905D01*
X134879480Y-84475201D01*
X135263073Y-84858794D01*
X135284223Y-84887046D01*
X135296831Y-84910135D01*
X135312000Y-84969564D01*
X135312000Y-86005342D01*
X135306976Y-86040279D01*
X135299564Y-86065520D01*
X135268269Y-86118264D01*
X134971989Y-86414544D01*
X134943738Y-86435693D01*
X134920650Y-86448301D01*
X134861220Y-86463471D01*
X132616957Y-86463471D01*
X132582021Y-86458448D01*
X132556779Y-86451036D01*
X132504034Y-86419740D01*
X131819251Y-85734957D01*
X131798099Y-85706701D01*
X131785492Y-85683612D01*
X131770325Y-85624187D01*
X131770325Y-77882337D01*
X131775347Y-77847404D01*
X131782759Y-77822159D01*
X131814053Y-77769417D01*
X145423076Y-64160394D01*
X145451326Y-64139246D01*
X145474418Y-64126638D01*
X145533843Y-64111471D01*
X147974558Y-64111471D01*
X148009490Y-64116492D01*
G37*
%TD.AperFunction*%
%TD*%
%TA.AperFunction,Conductor*%
%TO.N,GND*%
G36*
X149501740Y-63100492D02*
G01*
X149526984Y-63107905D01*
X149579730Y-63139201D01*
X150044000Y-63603471D01*
X157879101Y-63603471D01*
X157914028Y-63608492D01*
X157924881Y-63611678D01*
X157983662Y-63649448D01*
X158012691Y-63713002D01*
X158002752Y-63782161D01*
X158002751Y-63782163D01*
X157999566Y-63789138D01*
X157974450Y-63825313D01*
X156349406Y-65450355D01*
X156321154Y-65471505D01*
X156301605Y-65482180D01*
X156245709Y-65497298D01*
X156241245Y-65497425D01*
X156218320Y-65495949D01*
X156073242Y-65472971D01*
X156073237Y-65472971D01*
X155860663Y-65472971D01*
X155860659Y-65472971D01*
X155821726Y-65479137D01*
X155811992Y-65480679D01*
X155774604Y-65486600D01*
X155650713Y-65506223D01*
X155448532Y-65571916D01*
X155259132Y-65668420D01*
X155087160Y-65793363D01*
X154936842Y-65943681D01*
X154880691Y-66020968D01*
X154819297Y-66105471D01*
X154811899Y-66115653D01*
X154715395Y-66305051D01*
X154649702Y-66507230D01*
X154616450Y-66717178D01*
X154616450Y-66750579D01*
X154616068Y-66760310D01*
X154615305Y-66770003D01*
X154614161Y-66779666D01*
X154613050Y-66786681D01*
X154613050Y-66999262D01*
X154623084Y-67062614D01*
X154623084Y-67062615D01*
X154645549Y-67204456D01*
X154646302Y-67209207D01*
X154646303Y-67209210D01*
X154646304Y-67209214D01*
X154669850Y-67281682D01*
X154671558Y-67286938D01*
X154711995Y-67411389D01*
X154805082Y-67594082D01*
X154808501Y-67600791D01*
X154933440Y-67772757D01*
X154933442Y-67772759D01*
X155083766Y-67923083D01*
X155255733Y-68048023D01*
X155256021Y-68048168D01*
X155445138Y-68144528D01*
X155647307Y-68210217D01*
X155857263Y-68243471D01*
X155857264Y-68243471D01*
X156069836Y-68243471D01*
X156069837Y-68243471D01*
X156279793Y-68210217D01*
X156481962Y-68144528D01*
X156671366Y-68048022D01*
X156761805Y-67982315D01*
X156843336Y-67923080D01*
X156843338Y-67923077D01*
X156843342Y-67923075D01*
X156843345Y-67923071D01*
X156843399Y-67923032D01*
X156844155Y-67922261D01*
X156992840Y-67773576D01*
X156993615Y-67772816D01*
X156993674Y-67772736D01*
X157118598Y-67600791D01*
X157118597Y-67600791D01*
X157118601Y-67600787D01*
X157118603Y-67600781D01*
X157138995Y-67572715D01*
X157147280Y-67544500D01*
X157215107Y-67411383D01*
X157280796Y-67209214D01*
X157314050Y-66999258D01*
X157314050Y-66965859D01*
X157314432Y-66956133D01*
X157315195Y-66946435D01*
X157316337Y-66936780D01*
X157317450Y-66929757D01*
X157317450Y-66717184D01*
X157295454Y-66578307D01*
X157294949Y-66543023D01*
X157297804Y-66520926D01*
X157318420Y-66466834D01*
X157320947Y-66463138D01*
X157335612Y-66445463D01*
X159528183Y-64252894D01*
X159556433Y-64231746D01*
X159579525Y-64219138D01*
X159638950Y-64203971D01*
X160836213Y-64203971D01*
X160871145Y-64208992D01*
X160884464Y-64212903D01*
X160943242Y-64250677D01*
X160972267Y-64314229D01*
X160972695Y-64317205D01*
X160967957Y-64372965D01*
X160967169Y-64375405D01*
X160959078Y-64394710D01*
X160939639Y-64431921D01*
X160939639Y-64431923D01*
X160930141Y-64465120D01*
X160910079Y-64535235D01*
X160892289Y-64597413D01*
X160888444Y-64610850D01*
X160888442Y-64610857D01*
X160884400Y-64624981D01*
X160883786Y-64626964D01*
X160883663Y-64627551D01*
X160876200Y-64711507D01*
X160874333Y-64732507D01*
X160873050Y-64746936D01*
X160873050Y-65924303D01*
X160873446Y-65927462D01*
X160874671Y-65941228D01*
X160874672Y-65941240D01*
X160883663Y-66042387D01*
X160939638Y-66238013D01*
X160939639Y-66238016D01*
X161033855Y-66418383D01*
X161033856Y-66418384D01*
X161110837Y-66512795D01*
X161129019Y-66543041D01*
X161135084Y-66557447D01*
X161142954Y-66626872D01*
X161142953Y-66626879D01*
X161141668Y-66634242D01*
X161115616Y-66691284D01*
X161033855Y-66791556D01*
X160982671Y-66889544D01*
X160939639Y-66971925D01*
X160922735Y-67031005D01*
X160884398Y-67164987D01*
X160883786Y-67166963D01*
X160883663Y-67167552D01*
X160873050Y-67286938D01*
X160873050Y-68463005D01*
X160873385Y-68467060D01*
X160873471Y-68467731D01*
X160883663Y-68582387D01*
X160894702Y-68620965D01*
X160939639Y-68778016D01*
X160939737Y-68778356D01*
X160941091Y-68780796D01*
X161030030Y-68951062D01*
X161033855Y-68958383D01*
X161074111Y-69007753D01*
X161110837Y-69052795D01*
X161129019Y-69083041D01*
X161135084Y-69097447D01*
X161142954Y-69166872D01*
X161142953Y-69166879D01*
X161141668Y-69174242D01*
X161115616Y-69231284D01*
X161033855Y-69331556D01*
X160939638Y-69511927D01*
X160895900Y-69664789D01*
X160892813Y-69675578D01*
X160892811Y-69675586D01*
X160884400Y-69704979D01*
X160883786Y-69706961D01*
X160883663Y-69707552D01*
X160873050Y-69826938D01*
X160873050Y-71004298D01*
X160873449Y-71007482D01*
X160883663Y-71122387D01*
X160906974Y-71203856D01*
X160939639Y-71318016D01*
X161033855Y-71498383D01*
X161033856Y-71498384D01*
X161110837Y-71592795D01*
X161129019Y-71623041D01*
X161135084Y-71637447D01*
X161142954Y-71706872D01*
X161142953Y-71706879D01*
X161141668Y-71714242D01*
X161115616Y-71771284D01*
X161033860Y-71871550D01*
X161033854Y-71871558D01*
X161033850Y-71871565D01*
X161009910Y-71917395D01*
X160989286Y-71946031D01*
X160979658Y-71956021D01*
X160918963Y-71990631D01*
X160849215Y-71986942D01*
X160847831Y-71986455D01*
X160798586Y-71954356D01*
X160794966Y-71950500D01*
X160780376Y-71931600D01*
X160742654Y-71871565D01*
X160742653Y-71871564D01*
X160723697Y-71841395D01*
X160600126Y-71717824D01*
X160472206Y-71637447D01*
X160463983Y-71632280D01*
X160457375Y-71627010D01*
X160437501Y-71618778D01*
X160432267Y-71617889D01*
X160287208Y-71567130D01*
X160287206Y-71567129D01*
X160287202Y-71567128D01*
X160287179Y-71567125D01*
X160157114Y-71552471D01*
X160157108Y-71552471D01*
X160157102Y-71552471D01*
X158119998Y-71552471D01*
X158119991Y-71552471D01*
X158119984Y-71552471D01*
X157989919Y-71567125D01*
X157989896Y-71567128D01*
X157989892Y-71567129D01*
X157989890Y-71567130D01*
X157824946Y-71624847D01*
X157676972Y-71717824D01*
X157553403Y-71841393D01*
X157460426Y-71989367D01*
X157402709Y-72154311D01*
X157402708Y-72154313D01*
X157402707Y-72154317D01*
X157402704Y-72154340D01*
X157388050Y-72284405D01*
X157388050Y-72921533D01*
X157401928Y-73044702D01*
X157402124Y-73048195D01*
X157402707Y-73051629D01*
X157411291Y-73076159D01*
X157418088Y-73110790D01*
X157418920Y-73127086D01*
X157403302Y-73193941D01*
X157396209Y-73206622D01*
X157375669Y-73233771D01*
X156156472Y-74452971D01*
X155764660Y-74844783D01*
X155720620Y-74888822D01*
X155653159Y-74956282D01*
X155653156Y-74956285D01*
X155565563Y-75087378D01*
X155565553Y-75087395D01*
X155565548Y-75087404D01*
X155505214Y-75233067D01*
X155505207Y-75233098D01*
X155474450Y-75387721D01*
X155474450Y-76841256D01*
X155469426Y-76876193D01*
X155462014Y-76901434D01*
X155430718Y-76954179D01*
X155389805Y-76995090D01*
X155296826Y-77143067D01*
X155239109Y-77308011D01*
X155239108Y-77308013D01*
X155239107Y-77308017D01*
X155239104Y-77308040D01*
X155224450Y-77438104D01*
X155224450Y-79475235D01*
X155239104Y-79605300D01*
X155239107Y-79605323D01*
X155239108Y-79605327D01*
X155239109Y-79605328D01*
X155239109Y-79605329D01*
X155296827Y-79770275D01*
X155389803Y-79918247D01*
X155425523Y-79953967D01*
X155446673Y-79982219D01*
X155459281Y-80005308D01*
X155474450Y-80064737D01*
X155474450Y-82953267D01*
X155474450Y-82953269D01*
X155474449Y-82953269D01*
X155505207Y-83107892D01*
X155505214Y-83107923D01*
X155565548Y-83253586D01*
X155565553Y-83253595D01*
X155565563Y-83253612D01*
X155653161Y-83384711D01*
X155653167Y-83384717D01*
X157476830Y-85208378D01*
X157476963Y-85208514D01*
X157593701Y-85325252D01*
X157593707Y-85325257D01*
X157593711Y-85325260D01*
X157724814Y-85412861D01*
X157724827Y-85412868D01*
X157869489Y-85472788D01*
X157869501Y-85472793D01*
X157870503Y-85473208D01*
X157932363Y-85485513D01*
X158025151Y-85503971D01*
X166182844Y-85503971D01*
X166186964Y-85503971D01*
X166194814Y-85501589D01*
X166337497Y-85473208D01*
X166483179Y-85412865D01*
X166614289Y-85325260D01*
X168725789Y-83213760D01*
X168732998Y-83202971D01*
X168813394Y-83082650D01*
X168873737Y-82936968D01*
X168904500Y-82782313D01*
X168904500Y-75704240D01*
X168909522Y-75669307D01*
X168909539Y-75669249D01*
X168916934Y-75644062D01*
X168948228Y-75591320D01*
X169386654Y-75152894D01*
X169414904Y-75131746D01*
X169437996Y-75119138D01*
X169497421Y-75103971D01*
X169606280Y-75103971D01*
X169641216Y-75108994D01*
X169662586Y-75115269D01*
X169712781Y-75144086D01*
X169716031Y-75147156D01*
X169731213Y-75164425D01*
X169807379Y-75269258D01*
X169938213Y-75400092D01*
X170087904Y-75508849D01*
X170168763Y-75550048D01*
X170252764Y-75592850D01*
X170252767Y-75592851D01*
X170252816Y-75592867D01*
X170252834Y-75592873D01*
X170262130Y-75595893D01*
X170290323Y-75605053D01*
X170290324Y-75605054D01*
X170290325Y-75605054D01*
X170428736Y-75650026D01*
X170611486Y-75678971D01*
X170611487Y-75678971D01*
X170796513Y-75678971D01*
X170796514Y-75678971D01*
X170979264Y-75650026D01*
X171155235Y-75592850D01*
X171320096Y-75508849D01*
X171469787Y-75400092D01*
X171600621Y-75269258D01*
X171709378Y-75119567D01*
X171793379Y-74954706D01*
X171850555Y-74778735D01*
X171879500Y-74595985D01*
X171879500Y-74410957D01*
X171850555Y-74228207D01*
X171794886Y-74056874D01*
X171793824Y-74053109D01*
X171790659Y-74046898D01*
X171727827Y-73923583D01*
X171709378Y-73887375D01*
X171600621Y-73737684D01*
X171469787Y-73606850D01*
X171369150Y-73533733D01*
X171320091Y-73498089D01*
X171300523Y-73488119D01*
X171300519Y-73488118D01*
X171155235Y-73414091D01*
X171155232Y-73414090D01*
X171155229Y-73414089D01*
X171155227Y-73414088D01*
X171155208Y-73414081D01*
X170979267Y-73356916D01*
X170979268Y-73356916D01*
X170887889Y-73342443D01*
X170796519Y-73327971D01*
X170796514Y-73327971D01*
X170611486Y-73327971D01*
X170611483Y-73327971D01*
X170565798Y-73335207D01*
X170550569Y-73337619D01*
X170428730Y-73356916D01*
X170252790Y-73414081D01*
X170252768Y-73414089D01*
X170117932Y-73482792D01*
X170090589Y-73492880D01*
X170069836Y-73497862D01*
X170062833Y-73499544D01*
X170033884Y-73502971D01*
X169025148Y-73502971D01*
X168870535Y-73533725D01*
X168870502Y-73533733D01*
X168724818Y-73594077D01*
X168724816Y-73594078D01*
X168593708Y-73681682D01*
X168593707Y-73681683D01*
X168593702Y-73681687D01*
X167916041Y-74359352D01*
X167822422Y-74452971D01*
X167593711Y-74681682D01*
X167537960Y-74737433D01*
X167490405Y-74784987D01*
X167482205Y-74793187D01*
X167394613Y-74924278D01*
X167394603Y-74924295D01*
X167394598Y-74924304D01*
X167334264Y-75069967D01*
X167334257Y-75069998D01*
X167303500Y-75224621D01*
X167303500Y-82302701D01*
X167298476Y-82337638D01*
X167291064Y-82362879D01*
X167259769Y-82415623D01*
X165821348Y-83854044D01*
X165793097Y-83875193D01*
X165770009Y-83887801D01*
X165710579Y-83902971D01*
X158504769Y-83902971D01*
X158469833Y-83897948D01*
X158444591Y-83890536D01*
X158391846Y-83859240D01*
X157124376Y-82591769D01*
X157103224Y-82563513D01*
X157090617Y-82540424D01*
X157075450Y-82480999D01*
X157075450Y-80072085D01*
X157080472Y-80037152D01*
X157087884Y-80011907D01*
X157119179Y-79959164D01*
X157160097Y-79918247D01*
X157253072Y-79770277D01*
X157310791Y-79605328D01*
X157325450Y-79475223D01*
X157325450Y-78074068D01*
X157330471Y-78039141D01*
X157333005Y-78030509D01*
X157370775Y-77971728D01*
X157434329Y-77942699D01*
X157503488Y-77952638D01*
X157552558Y-77992904D01*
X157555555Y-77997061D01*
X157569540Y-78022137D01*
X157594596Y-78082629D01*
X157594604Y-78082647D01*
X157594613Y-78082662D01*
X157682211Y-78213761D01*
X157682212Y-78213762D01*
X157682217Y-78213768D01*
X157793701Y-78325252D01*
X157793707Y-78325257D01*
X157793711Y-78325260D01*
X157924814Y-78412861D01*
X157924827Y-78412868D01*
X158057914Y-78467993D01*
X158079333Y-78479443D01*
X158099263Y-78492759D01*
X158118048Y-78508176D01*
X160758953Y-81149082D01*
X160758954Y-81149083D01*
X160758957Y-81149085D01*
X160814769Y-81186377D01*
X160841022Y-81209960D01*
X160857828Y-81230070D01*
X160882539Y-81280537D01*
X160883089Y-81280380D01*
X160883141Y-81280562D01*
X160883203Y-81280547D01*
X160883660Y-81282376D01*
X160883664Y-81282389D01*
X160906100Y-81360800D01*
X160938905Y-81475452D01*
X160939640Y-81478019D01*
X160939903Y-81478807D01*
X160941711Y-81481984D01*
X161028121Y-81647407D01*
X161033853Y-81658379D01*
X161033855Y-81658383D01*
X161059693Y-81690071D01*
X161059697Y-81690075D01*
X161059699Y-81690077D01*
X161162440Y-81816080D01*
X161210359Y-81855152D01*
X161320143Y-81944669D01*
X161500501Y-82038880D01*
X161696132Y-82094857D01*
X161815513Y-82105471D01*
X163681586Y-82105470D01*
X163800968Y-82094857D01*
X163996599Y-82038880D01*
X164176957Y-81944669D01*
X164334659Y-81816080D01*
X164463248Y-81658378D01*
X164557459Y-81478020D01*
X164613436Y-81282389D01*
X164624050Y-81163008D01*
X164624050Y-80594077D01*
X164624049Y-79986935D01*
X164613436Y-79867553D01*
X164557459Y-79671922D01*
X164463248Y-79491564D01*
X164463245Y-79491561D01*
X164463244Y-79491558D01*
X164386261Y-79397145D01*
X164368079Y-79366901D01*
X164367029Y-79364408D01*
X164362014Y-79352495D01*
X164354144Y-79283073D01*
X164355432Y-79275692D01*
X164381483Y-79218654D01*
X164386286Y-79212764D01*
X164463248Y-79118378D01*
X164557459Y-78938020D01*
X164613436Y-78742389D01*
X164624050Y-78623008D01*
X164624050Y-78047585D01*
X164624049Y-77843265D01*
X164629072Y-77808331D01*
X164630961Y-77801898D01*
X164636482Y-77783092D01*
X164667776Y-77730349D01*
X165189954Y-77208171D01*
X165208740Y-77192755D01*
X165228654Y-77179449D01*
X165250087Y-77167991D01*
X165337164Y-77131925D01*
X165379125Y-77114545D01*
X165382280Y-77113366D01*
X165382911Y-77113044D01*
X165383179Y-77112865D01*
X165514289Y-77025260D01*
X165625789Y-76913760D01*
X165713394Y-76782650D01*
X165773737Y-76636968D01*
X165804500Y-76482313D01*
X165804500Y-76324629D01*
X165804500Y-76324626D01*
X165804500Y-76324442D01*
X165804064Y-76322437D01*
X165773739Y-76169981D01*
X165773736Y-76169972D01*
X165737715Y-76083008D01*
X165713397Y-76024298D01*
X165713390Y-76024285D01*
X165625789Y-75893182D01*
X165625786Y-75893178D01*
X165625781Y-75893172D01*
X165514294Y-75781685D01*
X165441082Y-75732766D01*
X165414827Y-75709182D01*
X165410697Y-75704240D01*
X165405927Y-75698531D01*
X165378042Y-75634471D01*
X165389217Y-75565502D01*
X165393969Y-75555569D01*
X165418146Y-75521402D01*
X165425787Y-75513762D01*
X165425789Y-75513760D01*
X165513394Y-75382650D01*
X165573737Y-75236968D01*
X165604500Y-75082313D01*
X165604500Y-74924629D01*
X165604500Y-74924626D01*
X165604500Y-74924625D01*
X165604500Y-74924443D01*
X165604066Y-74922448D01*
X165597377Y-74888821D01*
X165597377Y-74888820D01*
X165577234Y-74787557D01*
X165573737Y-74769974D01*
X165546398Y-74703971D01*
X165513397Y-74624298D01*
X165513390Y-74624285D01*
X165425789Y-74493182D01*
X165425786Y-74493178D01*
X165425781Y-74493172D01*
X165314297Y-74381688D01*
X165314291Y-74381683D01*
X165314290Y-74381682D01*
X165183191Y-74294084D01*
X165183190Y-74294083D01*
X165183185Y-74294080D01*
X165183172Y-74294073D01*
X165183165Y-74294069D01*
X165037502Y-74233735D01*
X165037471Y-74233728D01*
X164882847Y-74202971D01*
X164882845Y-74202971D01*
X164882842Y-74202971D01*
X164725158Y-74202971D01*
X164725152Y-74202971D01*
X164693824Y-74209202D01*
X164607374Y-74226398D01*
X164572131Y-74228287D01*
X164560867Y-74227279D01*
X164495848Y-74201698D01*
X164454982Y-74145026D01*
X164451243Y-74075259D01*
X164453670Y-74064988D01*
X164464432Y-74036109D01*
X164557459Y-73858020D01*
X164571443Y-73809144D01*
X164585882Y-73776943D01*
X164594243Y-73763734D01*
X164646727Y-73717619D01*
X164650821Y-73715715D01*
X164706004Y-73704184D01*
X164709004Y-73704254D01*
X164730301Y-73706603D01*
X164825152Y-73725471D01*
X164982844Y-73725471D01*
X164986964Y-73725471D01*
X164994814Y-73723089D01*
X165137497Y-73694708D01*
X165250166Y-73648038D01*
X165276634Y-73637075D01*
X165279425Y-73636102D01*
X165280868Y-73635435D01*
X165285528Y-73633392D01*
X165294787Y-73629556D01*
X165303671Y-73620672D01*
X165414289Y-73546760D01*
X165525789Y-73435260D01*
X165613394Y-73304150D01*
X165622701Y-73281682D01*
X165647578Y-73221621D01*
X165673737Y-73158468D01*
X165704500Y-73003813D01*
X165704500Y-72846129D01*
X165704500Y-72846126D01*
X165704500Y-72845944D01*
X165704065Y-72843943D01*
X165700154Y-72824281D01*
X165674395Y-72694786D01*
X165673983Y-72692374D01*
X165673737Y-72691475D01*
X165654951Y-72646120D01*
X165613402Y-72545811D01*
X165613397Y-72545798D01*
X165613390Y-72545785D01*
X165525789Y-72414682D01*
X165525786Y-72414678D01*
X165525781Y-72414672D01*
X165414297Y-72303188D01*
X165414291Y-72303183D01*
X165414290Y-72303182D01*
X165283191Y-72215584D01*
X165283190Y-72215583D01*
X165283185Y-72215580D01*
X165283172Y-72215573D01*
X165283165Y-72215569D01*
X165137502Y-72155235D01*
X165137471Y-72155228D01*
X164982847Y-72124471D01*
X164982845Y-72124471D01*
X164982842Y-72124471D01*
X164825158Y-72124471D01*
X164825153Y-72124471D01*
X164825148Y-72124471D01*
X164720997Y-72145188D01*
X164685757Y-72147078D01*
X164670186Y-72145685D01*
X164605167Y-72120105D01*
X164601601Y-72117335D01*
X164566106Y-72073534D01*
X164565027Y-72071310D01*
X164560424Y-72058631D01*
X164560061Y-72058770D01*
X164559319Y-72056817D01*
X164559051Y-72056012D01*
X164557652Y-72052418D01*
X164557467Y-72051939D01*
X164557459Y-72051925D01*
X164557459Y-72051922D01*
X164463248Y-71871564D01*
X164463245Y-71871561D01*
X164463244Y-71871558D01*
X164386261Y-71777145D01*
X164368079Y-71746901D01*
X164365105Y-71739837D01*
X164362014Y-71732495D01*
X164354144Y-71663073D01*
X164354146Y-71663062D01*
X164355432Y-71655694D01*
X164381483Y-71598653D01*
X164463248Y-71498378D01*
X164557459Y-71318020D01*
X164593374Y-71192497D01*
X164607813Y-71160294D01*
X164616173Y-71147085D01*
X164668655Y-71100970D01*
X164677125Y-71097031D01*
X164729405Y-71085471D01*
X165066472Y-71085471D01*
X165090656Y-71087852D01*
X165114165Y-71092528D01*
X165137411Y-71099580D01*
X165177830Y-71116322D01*
X165270503Y-71154708D01*
X165270505Y-71154708D01*
X165270510Y-71154710D01*
X165396630Y-71179796D01*
X165417513Y-71183950D01*
X165420247Y-71184674D01*
X165425155Y-71185471D01*
X165582844Y-71185471D01*
X165586964Y-71185471D01*
X165594814Y-71183089D01*
X165737497Y-71154708D01*
X165867238Y-71100968D01*
X165883172Y-71094368D01*
X165883172Y-71094367D01*
X165883179Y-71094365D01*
X166014289Y-71006760D01*
X166125789Y-70895260D01*
X166213394Y-70764150D01*
X166273737Y-70618468D01*
X166304500Y-70463813D01*
X166304500Y-70306129D01*
X166304500Y-70306126D01*
X166304500Y-70305944D01*
X166304065Y-70303942D01*
X166290272Y-70234600D01*
X166273738Y-70151481D01*
X166273737Y-70151474D01*
X166273735Y-70151469D01*
X166213397Y-70005798D01*
X166213390Y-70005785D01*
X166125789Y-69874682D01*
X166125786Y-69874678D01*
X166125781Y-69874672D01*
X166014296Y-69763187D01*
X166014284Y-69763178D01*
X166014180Y-69763109D01*
X165984146Y-69743041D01*
X165883185Y-69675580D01*
X165883172Y-69675573D01*
X165883165Y-69675569D01*
X165737502Y-69615235D01*
X165737471Y-69615228D01*
X165582847Y-69584471D01*
X165582845Y-69584471D01*
X165582842Y-69584471D01*
X165425158Y-69584471D01*
X165425155Y-69584471D01*
X165425153Y-69584471D01*
X165270527Y-69615228D01*
X165270496Y-69615235D01*
X165137417Y-69670358D01*
X165114161Y-69677413D01*
X165090668Y-69682087D01*
X165066472Y-69684471D01*
X164718157Y-69684471D01*
X164683216Y-69679446D01*
X164668217Y-69675041D01*
X164609452Y-69637276D01*
X164603343Y-69630227D01*
X164577834Y-69583130D01*
X164560819Y-69523664D01*
X164557460Y-69511925D01*
X164557459Y-69511924D01*
X164557459Y-69511922D01*
X164463248Y-69331564D01*
X164463245Y-69331561D01*
X164463244Y-69331558D01*
X164386261Y-69237145D01*
X164368079Y-69206901D01*
X164365105Y-69199837D01*
X164362014Y-69192495D01*
X164354144Y-69123073D01*
X164354146Y-69123062D01*
X164355432Y-69115694D01*
X164381483Y-69058653D01*
X164463248Y-68958378D01*
X164557459Y-68778020D01*
X164576206Y-68712498D01*
X164590645Y-68680294D01*
X164599008Y-68667081D01*
X164651490Y-68620968D01*
X164659960Y-68617029D01*
X164712237Y-68605471D01*
X166470092Y-68605471D01*
X166494279Y-68607853D01*
X166517776Y-68612526D01*
X166541038Y-68619581D01*
X166670503Y-68673208D01*
X166781858Y-68695358D01*
X166781863Y-68695359D01*
X166817512Y-68702450D01*
X166820247Y-68703174D01*
X166825155Y-68703971D01*
X166982844Y-68703971D01*
X166986964Y-68703971D01*
X166994814Y-68701589D01*
X167137497Y-68673208D01*
X167283179Y-68612865D01*
X167414289Y-68525260D01*
X167525789Y-68413760D01*
X167613394Y-68282650D01*
X167673737Y-68136968D01*
X167692127Y-68044512D01*
X167704500Y-67982315D01*
X167704500Y-67824444D01*
X167704065Y-67822443D01*
X167674395Y-67673286D01*
X167673983Y-67670874D01*
X167673737Y-67669975D01*
X167645079Y-67600787D01*
X167613397Y-67524298D01*
X167613390Y-67524285D01*
X167525789Y-67393182D01*
X167525786Y-67393178D01*
X167525781Y-67393172D01*
X167414297Y-67281688D01*
X167414290Y-67281682D01*
X167414288Y-67281681D01*
X167283191Y-67194084D01*
X167283190Y-67194083D01*
X167283185Y-67194080D01*
X167283172Y-67194073D01*
X167283165Y-67194069D01*
X167137502Y-67133735D01*
X167137471Y-67133728D01*
X166982847Y-67102971D01*
X166982845Y-67102971D01*
X166982842Y-67102971D01*
X166825158Y-67102971D01*
X166825155Y-67102971D01*
X166825153Y-67102971D01*
X166670527Y-67133728D01*
X166670496Y-67133735D01*
X166537417Y-67188858D01*
X166514156Y-67195914D01*
X166495947Y-67199536D01*
X166479892Y-67198099D01*
X166428898Y-67203126D01*
X166421318Y-67203873D01*
X166409156Y-67204471D01*
X164735325Y-67204471D01*
X164700384Y-67199446D01*
X164685385Y-67195041D01*
X164626620Y-67157276D01*
X164620511Y-67150227D01*
X164595001Y-67103128D01*
X164571004Y-67019262D01*
X164560306Y-66981871D01*
X164557460Y-66971925D01*
X164557459Y-66971924D01*
X164557459Y-66971922D01*
X164463248Y-66791564D01*
X164463245Y-66791560D01*
X164463244Y-66791558D01*
X164386261Y-66697145D01*
X164368079Y-66666901D01*
X164365105Y-66659837D01*
X164362014Y-66652495D01*
X164354144Y-66583073D01*
X164354146Y-66583062D01*
X164355432Y-66575694D01*
X164381483Y-66518653D01*
X164463248Y-66418378D01*
X164557459Y-66238020D01*
X164593374Y-66112497D01*
X164607813Y-66080294D01*
X164616173Y-66067085D01*
X164668655Y-66020970D01*
X164677125Y-66017031D01*
X164729405Y-66005471D01*
X165066472Y-66005471D01*
X165090656Y-66007852D01*
X165114165Y-66012528D01*
X165137418Y-66019583D01*
X165155986Y-66027274D01*
X165270503Y-66074708D01*
X165270505Y-66074708D01*
X165270510Y-66074710D01*
X165396630Y-66099796D01*
X165417513Y-66103950D01*
X165420247Y-66104674D01*
X165425155Y-66105471D01*
X165582844Y-66105471D01*
X165586964Y-66105471D01*
X165594814Y-66103089D01*
X165737497Y-66074708D01*
X165883179Y-66014365D01*
X165970422Y-65956069D01*
X165980835Y-65949827D01*
X165991541Y-65944105D01*
X166002526Y-65938911D01*
X166011451Y-65935213D01*
X166034311Y-65925746D01*
X166149042Y-65849085D01*
X166246614Y-65751513D01*
X166323275Y-65636782D01*
X166376080Y-65509299D01*
X166400195Y-65388067D01*
X166403000Y-65373966D01*
X166403000Y-65235975D01*
X166403000Y-65235972D01*
X166375841Y-65099440D01*
X166373754Y-65095028D01*
X166343448Y-65021861D01*
X166323278Y-64973166D01*
X166323271Y-64973153D01*
X166246614Y-64858429D01*
X166246611Y-64858425D01*
X166246606Y-64858419D01*
X166149047Y-64760860D01*
X166034317Y-64684199D01*
X166034309Y-64684194D01*
X166034306Y-64684193D01*
X166002535Y-64671033D01*
X165991535Y-64665831D01*
X165980841Y-64660115D01*
X165970403Y-64653858D01*
X165883181Y-64595578D01*
X165883175Y-64595575D01*
X165883172Y-64595573D01*
X165883168Y-64595571D01*
X165883160Y-64595567D01*
X165737502Y-64535235D01*
X165737471Y-64535228D01*
X165582847Y-64504471D01*
X165582845Y-64504471D01*
X165582842Y-64504471D01*
X165425158Y-64504471D01*
X165425155Y-64504471D01*
X165425153Y-64504471D01*
X165270527Y-64535228D01*
X165270496Y-64535235D01*
X165137417Y-64590358D01*
X165114161Y-64597413D01*
X165090668Y-64602087D01*
X165066472Y-64604471D01*
X164718157Y-64604471D01*
X164683216Y-64599446D01*
X164668217Y-64595041D01*
X164609452Y-64557276D01*
X164603343Y-64550227D01*
X164577833Y-64503129D01*
X164569725Y-64474790D01*
X164557459Y-64431922D01*
X164541401Y-64401182D01*
X164529680Y-64367896D01*
X164526980Y-64354282D01*
X164533247Y-64284693D01*
X164576137Y-64229544D01*
X164578620Y-64227756D01*
X164630164Y-64206175D01*
X164632692Y-64205743D01*
X164653579Y-64203971D01*
X166287859Y-64203971D01*
X166322791Y-64208992D01*
X166347465Y-64216238D01*
X166402679Y-64250073D01*
X171077457Y-69199837D01*
X172855923Y-71082919D01*
X172876258Y-71111765D01*
X172884441Y-71127825D01*
X172897700Y-71192079D01*
X172896921Y-71204190D01*
X172893754Y-71225165D01*
X172892910Y-71228680D01*
X172853500Y-71477509D01*
X172853500Y-71729431D01*
X172892910Y-71978257D01*
X172892910Y-71978260D01*
X172950413Y-72155232D01*
X172970760Y-72217854D01*
X173085132Y-72442319D01*
X173233201Y-72646120D01*
X173233205Y-72646125D01*
X173233210Y-72646131D01*
X173411338Y-72824259D01*
X173411342Y-72824262D01*
X173411345Y-72824265D01*
X173411350Y-72824269D01*
X173545210Y-72921523D01*
X173615155Y-72972341D01*
X173758184Y-73045218D01*
X173758183Y-73045218D01*
X173770760Y-73051626D01*
X173833173Y-73083427D01*
X173834766Y-73084360D01*
X173838487Y-73086163D01*
X173840477Y-73087152D01*
X173844240Y-73088213D01*
X173968049Y-73128441D01*
X174079214Y-73164561D01*
X174114681Y-73170178D01*
X174305792Y-73200447D01*
X174339507Y-73210872D01*
X174353634Y-73217569D01*
X174405774Y-73264066D01*
X174409258Y-73269661D01*
X174428000Y-73335209D01*
X174428000Y-74341522D01*
X174422975Y-74376466D01*
X174418570Y-74391464D01*
X174380801Y-74450230D01*
X174375817Y-74454549D01*
X174315870Y-74482449D01*
X174315913Y-74482624D01*
X174315049Y-74482831D01*
X174314019Y-74483311D01*
X174311175Y-74483761D01*
X174123969Y-74544589D01*
X173948601Y-74633943D01*
X173948588Y-74633951D01*
X173882891Y-74681682D01*
X173882892Y-74681683D01*
X173801225Y-74741018D01*
X173793844Y-74745151D01*
X173645679Y-74893316D01*
X173641547Y-74900695D01*
X173624161Y-74924625D01*
X173624161Y-74924626D01*
X173534476Y-75048065D01*
X173534473Y-75048069D01*
X173534472Y-75048072D01*
X173505990Y-75103971D01*
X173445117Y-75223441D01*
X173384290Y-75410644D01*
X173384289Y-75410647D01*
X173384289Y-75410649D01*
X173353500Y-75605042D01*
X173353500Y-75801898D01*
X173367958Y-75893179D01*
X173384290Y-75996297D01*
X173445117Y-76183500D01*
X173454741Y-76202387D01*
X173515909Y-76322437D01*
X173517024Y-76324624D01*
X173517027Y-76324629D01*
X173534477Y-76358877D01*
X173534478Y-76358880D01*
X173562913Y-76398016D01*
X173650172Y-76518117D01*
X173650173Y-76518118D01*
X173735237Y-76603182D01*
X173756389Y-76631438D01*
X173763881Y-76645159D01*
X173778733Y-76713419D01*
X173778604Y-76715225D01*
X173759236Y-76773427D01*
X173755057Y-76779930D01*
X173738421Y-76800574D01*
X173645680Y-76893314D01*
X173641549Y-76900692D01*
X173623072Y-76926125D01*
X173604594Y-76951558D01*
X173572963Y-76995094D01*
X173534476Y-77048064D01*
X173491747Y-77131925D01*
X173445117Y-77223441D01*
X173384290Y-77410644D01*
X173384289Y-77410647D01*
X173384289Y-77410649D01*
X173353500Y-77605042D01*
X173353500Y-77801898D01*
X173374344Y-77933501D01*
X173384290Y-77996297D01*
X173413344Y-78085713D01*
X173445118Y-78183504D01*
X173528257Y-78346671D01*
X173539642Y-78380083D01*
X173542527Y-78395448D01*
X173535556Y-78464960D01*
X173533078Y-78471066D01*
X173491066Y-78524754D01*
X173411341Y-78582679D01*
X173233212Y-78760807D01*
X173233210Y-78760809D01*
X173233188Y-78760838D01*
X173085134Y-78964618D01*
X173085132Y-78964622D01*
X172970760Y-79189087D01*
X172970759Y-79189089D01*
X172970759Y-79189090D01*
X172892910Y-79428680D01*
X172892910Y-79428683D01*
X172882951Y-79491564D01*
X172853500Y-79677509D01*
X172853500Y-79929437D01*
X172873270Y-80054255D01*
X172873270Y-80054256D01*
X172892910Y-80178257D01*
X172892910Y-80178260D01*
X172956172Y-80372957D01*
X172970760Y-80417854D01*
X173085132Y-80642319D01*
X173233201Y-80846120D01*
X173233205Y-80846125D01*
X173233210Y-80846131D01*
X173411338Y-81024259D01*
X173411342Y-81024262D01*
X173411345Y-81024265D01*
X173411350Y-81024269D01*
X173583142Y-81149082D01*
X173615155Y-81172341D01*
X173724137Y-81227870D01*
X173833172Y-81283427D01*
X173834771Y-81284363D01*
X173838487Y-81286163D01*
X173840477Y-81287152D01*
X173844240Y-81288213D01*
X173968049Y-81328441D01*
X174079214Y-81364561D01*
X174114681Y-81370178D01*
X174305792Y-81400447D01*
X174339507Y-81410872D01*
X174353634Y-81417569D01*
X174405774Y-81464066D01*
X174409258Y-81469661D01*
X174428000Y-81535209D01*
X174428000Y-109806802D01*
X174423907Y-109827378D01*
X174424021Y-109827492D01*
X174431600Y-109835791D01*
X176927844Y-112831285D01*
X176946348Y-112861333D01*
X176957763Y-112887655D01*
X176968000Y-112936990D01*
X176968000Y-122970279D01*
X176962976Y-123005216D01*
X176955564Y-123030457D01*
X176924269Y-123083201D01*
X159744926Y-140262544D01*
X159716675Y-140283693D01*
X159693587Y-140296301D01*
X159634157Y-140311471D01*
X139191192Y-140311471D01*
X139156256Y-140306448D01*
X139131014Y-140299036D01*
X139078269Y-140267740D01*
X138408926Y-139598397D01*
X138387774Y-139570141D01*
X138375167Y-139547052D01*
X138360000Y-139487627D01*
X138360000Y-137263471D01*
X135312000Y-134215471D01*
X133095192Y-134215471D01*
X133060256Y-134210448D01*
X133035014Y-134203036D01*
X132982269Y-134171740D01*
X132312926Y-133502397D01*
X132291774Y-133474141D01*
X132279167Y-133451052D01*
X132264000Y-133391627D01*
X132264000Y-125564376D01*
X134522600Y-125564376D01*
X134569423Y-125739116D01*
X134589663Y-125774172D01*
X134598798Y-125796759D01*
X134610422Y-125810128D01*
X134648467Y-125876025D01*
X134648477Y-125876041D01*
X134648481Y-125876047D01*
X134648485Y-125876052D01*
X134769314Y-125996881D01*
X134769359Y-125996924D01*
X135903556Y-127131121D01*
X135924704Y-127159370D01*
X135930911Y-127170736D01*
X135945766Y-127239008D01*
X135921353Y-127304474D01*
X135870351Y-127344388D01*
X135861818Y-127347994D01*
X135832955Y-127356246D01*
X135828739Y-127356913D01*
X135828731Y-127356915D01*
X135652794Y-127414080D01*
X135652770Y-127414088D01*
X135487902Y-127498093D01*
X135402499Y-127560143D01*
X135350084Y-127598225D01*
X135342703Y-127602358D01*
X135202887Y-127742174D01*
X135198754Y-127749555D01*
X135160672Y-127801970D01*
X135098622Y-127887373D01*
X135014617Y-128052241D01*
X135014617Y-128052242D01*
X135014610Y-128052261D01*
X134957445Y-128228201D01*
X134928500Y-128410951D01*
X134928500Y-128595989D01*
X134957445Y-128778739D01*
X135014610Y-128954679D01*
X135014618Y-128954702D01*
X135014620Y-128954706D01*
X135079518Y-129082073D01*
X135079519Y-129082075D01*
X135098620Y-129119565D01*
X135131276Y-129164512D01*
X135207379Y-129269258D01*
X135338213Y-129400092D01*
X135487904Y-129508849D01*
X135568763Y-129550048D01*
X135652764Y-129592850D01*
X135652767Y-129592851D01*
X135652787Y-129592857D01*
X135652797Y-129592861D01*
X135665514Y-129596992D01*
X135717120Y-129613760D01*
X135828736Y-129650026D01*
X136011486Y-129678971D01*
X136011487Y-129678971D01*
X136196513Y-129678971D01*
X136196514Y-129678971D01*
X136318292Y-129659682D01*
X136353574Y-129659178D01*
X136375671Y-129662033D01*
X136429771Y-129682654D01*
X136433458Y-129685175D01*
X136451143Y-129699849D01*
X137618085Y-130866791D01*
X137618106Y-130866813D01*
X137619149Y-130867856D01*
X137623479Y-130872186D01*
X137623480Y-130872187D01*
X137735284Y-130983991D01*
X137774881Y-131006852D01*
X137815051Y-131030043D01*
X137815064Y-131030051D01*
X137869535Y-131061502D01*
X137885336Y-131072334D01*
X137896386Y-131081238D01*
X137936236Y-131138629D01*
X137938732Y-131208454D01*
X137903082Y-131268544D01*
X137847117Y-131298464D01*
X137842131Y-131299643D01*
X137813597Y-131302971D01*
X137201720Y-131302971D01*
X137166781Y-131297947D01*
X137145410Y-131291671D01*
X137095219Y-131262855D01*
X137091975Y-131259792D01*
X137076787Y-131242517D01*
X137000623Y-131137687D01*
X137000618Y-131137681D01*
X136869789Y-131006852D01*
X136869787Y-131006850D01*
X136720096Y-130898093D01*
X136660753Y-130867856D01*
X136555235Y-130814091D01*
X136555232Y-130814090D01*
X136555229Y-130814089D01*
X136555227Y-130814088D01*
X136555208Y-130814081D01*
X136379267Y-130756916D01*
X136379268Y-130756916D01*
X136260112Y-130738044D01*
X136257429Y-130737619D01*
X136196514Y-130727971D01*
X136196513Y-130727971D01*
X136011483Y-130727971D01*
X135965798Y-130735207D01*
X135950569Y-130737619D01*
X135828730Y-130756916D01*
X135652790Y-130814081D01*
X135652771Y-130814088D01*
X135652770Y-130814088D01*
X135487902Y-130898093D01*
X135402499Y-130960143D01*
X135350084Y-130998225D01*
X135342703Y-131002358D01*
X135202885Y-131142176D01*
X135198754Y-131149553D01*
X135098626Y-131287368D01*
X135098618Y-131287381D01*
X135014617Y-131452241D01*
X135014617Y-131452242D01*
X135014610Y-131452261D01*
X134957445Y-131628201D01*
X134928500Y-131810951D01*
X134928500Y-131995989D01*
X134957445Y-132178739D01*
X135014610Y-132354679D01*
X135014617Y-132354698D01*
X135014619Y-132354703D01*
X135014620Y-132354706D01*
X135069824Y-132463048D01*
X135098622Y-132519567D01*
X135207379Y-132669258D01*
X135338213Y-132800092D01*
X135487904Y-132908849D01*
X135568763Y-132950048D01*
X135652764Y-132992850D01*
X135652767Y-132992851D01*
X135652803Y-132992862D01*
X135652839Y-132992875D01*
X135740749Y-133021438D01*
X135740750Y-133021438D01*
X135828736Y-133050026D01*
X136011486Y-133078971D01*
X136011487Y-133078971D01*
X136196513Y-133078971D01*
X136196514Y-133078971D01*
X136379264Y-133050026D01*
X136555235Y-132992850D01*
X136720096Y-132908849D01*
X136869787Y-132800092D01*
X137000621Y-132669258D01*
X137073096Y-132569504D01*
X137097684Y-132544203D01*
X137115332Y-132530594D01*
X137168182Y-132506920D01*
X137172570Y-132506096D01*
X137195431Y-132503971D01*
X159615380Y-132503971D01*
X159615443Y-132503972D01*
X159617347Y-132503972D01*
X159624943Y-132503972D01*
X159783054Y-132503972D01*
X159783057Y-132503972D01*
X159935785Y-132463048D01*
X159985904Y-132434110D01*
X160072716Y-132383991D01*
X160184520Y-132272187D01*
X160184520Y-132272185D01*
X160194728Y-132261978D01*
X160194728Y-132261976D01*
X160195233Y-132261472D01*
X160195243Y-132261463D01*
X160204926Y-132251781D01*
X160204937Y-132251766D01*
X168103811Y-124352894D01*
X168132061Y-124331746D01*
X168155153Y-124319138D01*
X168214578Y-124303971D01*
X168863909Y-124303971D01*
X168863972Y-124303972D01*
X168865876Y-124303972D01*
X168873472Y-124303972D01*
X169031583Y-124303972D01*
X169031586Y-124303972D01*
X169184314Y-124263048D01*
X169234433Y-124234110D01*
X169321245Y-124183991D01*
X169433049Y-124072187D01*
X169433050Y-124072185D01*
X169984520Y-123520716D01*
X170063577Y-123383784D01*
X170104501Y-123231057D01*
X170104501Y-123072942D01*
X170104501Y-123065347D01*
X170104501Y-123063663D01*
X170104500Y-123063589D01*
X170104500Y-121672945D01*
X170104500Y-121672943D01*
X170063577Y-121520216D01*
X170010455Y-121428205D01*
X169986370Y-121386487D01*
X169984953Y-121383855D01*
X169984572Y-121383336D01*
X169867363Y-121266127D01*
X169867320Y-121266085D01*
X159665976Y-111064741D01*
X159644824Y-111036485D01*
X159637332Y-111022764D01*
X159622481Y-110954492D01*
X159623005Y-110947166D01*
X159643588Y-110887121D01*
X159713391Y-110782656D01*
X159713391Y-110782653D01*
X159713394Y-110782650D01*
X159714276Y-110780522D01*
X159727067Y-110749637D01*
X159737327Y-110724869D01*
X159743902Y-110708994D01*
X159773737Y-110636968D01*
X159804500Y-110482313D01*
X159804500Y-110324629D01*
X159804500Y-110324626D01*
X159804500Y-110324444D01*
X159804065Y-110322443D01*
X159774397Y-110173295D01*
X159773994Y-110170938D01*
X159773738Y-110169979D01*
X159773737Y-110169977D01*
X159773737Y-110169974D01*
X159773735Y-110169969D01*
X159713397Y-110024298D01*
X159713390Y-110024285D01*
X159625789Y-109893182D01*
X159625786Y-109893178D01*
X159625781Y-109893172D01*
X159514297Y-109781688D01*
X159514291Y-109781683D01*
X159514290Y-109781682D01*
X159383191Y-109694084D01*
X159383190Y-109694083D01*
X159383185Y-109694080D01*
X159383172Y-109694073D01*
X159383165Y-109694069D01*
X159237502Y-109633735D01*
X159237471Y-109633728D01*
X159082847Y-109602970D01*
X159076785Y-109602374D01*
X159076866Y-109601549D01*
X159055564Y-109598745D01*
X159025098Y-109590581D01*
X158995196Y-109578195D01*
X158984909Y-109572256D01*
X158984907Y-109572254D01*
X158984907Y-109572255D01*
X158935785Y-109543894D01*
X158783057Y-109502970D01*
X158783054Y-109502970D01*
X158615443Y-109502970D01*
X158615380Y-109502971D01*
X156301596Y-109502971D01*
X156266661Y-109497948D01*
X156234852Y-109488608D01*
X156200898Y-109472734D01*
X156083185Y-109394080D01*
X156083172Y-109394073D01*
X156083165Y-109394069D01*
X155937502Y-109333735D01*
X155937471Y-109333728D01*
X155782847Y-109302971D01*
X155782845Y-109302971D01*
X155782842Y-109302971D01*
X155625158Y-109302971D01*
X155625155Y-109302971D01*
X155625152Y-109302971D01*
X155549315Y-109318056D01*
X155514073Y-109319946D01*
X155493174Y-109318076D01*
X155436258Y-109298282D01*
X155430638Y-109294599D01*
X155410924Y-109278567D01*
X155296186Y-109163829D01*
X155132333Y-109054346D01*
X155132332Y-109054345D01*
X155132327Y-109054342D01*
X155132314Y-109054335D01*
X155132307Y-109054331D01*
X154950268Y-108978929D01*
X154950254Y-108978924D01*
X154950246Y-108978921D01*
X154950236Y-108978918D01*
X154950233Y-108978917D01*
X154950229Y-108978916D01*
X154756953Y-108940471D01*
X154756950Y-108940471D01*
X154756948Y-108940471D01*
X154559866Y-108940471D01*
X154559864Y-108940471D01*
X154559860Y-108940471D01*
X154366583Y-108978916D01*
X154366577Y-108978918D01*
X154366567Y-108978921D01*
X154366562Y-108978922D01*
X154366544Y-108978929D01*
X154184505Y-109054331D01*
X154184496Y-109054336D01*
X154184479Y-109054346D01*
X154020625Y-109163831D01*
X154020621Y-109163833D01*
X154020615Y-109163838D01*
X153881274Y-109303179D01*
X153881269Y-109303185D01*
X153881268Y-109303186D01*
X153771782Y-109467043D01*
X153771772Y-109467060D01*
X153771767Y-109467069D01*
X153696365Y-109649108D01*
X153696352Y-109649147D01*
X153657907Y-109842422D01*
X153657907Y-109995145D01*
X153652644Y-110013065D01*
X153696352Y-110232793D01*
X153696353Y-110232797D01*
X153696354Y-110232800D01*
X153696357Y-110232810D01*
X153696360Y-110232818D01*
X153696365Y-110232832D01*
X153771767Y-110414871D01*
X153771772Y-110414880D01*
X153771782Y-110414897D01*
X153881268Y-110578754D01*
X153881269Y-110578755D01*
X153881274Y-110578761D01*
X154020615Y-110718102D01*
X154020621Y-110718107D01*
X154020625Y-110718110D01*
X154184486Y-110827599D01*
X154184499Y-110827606D01*
X154294596Y-110873209D01*
X154360960Y-110900697D01*
X154365369Y-110902783D01*
X154559860Y-110941471D01*
X154756950Y-110941471D01*
X154756952Y-110941471D01*
X154812673Y-110930386D01*
X154896259Y-110913760D01*
X154950242Y-110903022D01*
X155132321Y-110827603D01*
X155155886Y-110811856D01*
X155187715Y-110796626D01*
X155202640Y-110791952D01*
X155272489Y-110790704D01*
X155285625Y-110794307D01*
X155321708Y-110810785D01*
X155324821Y-110812865D01*
X155324823Y-110812866D01*
X155324825Y-110812867D01*
X155360409Y-110827606D01*
X155470503Y-110873208D01*
X155617513Y-110902450D01*
X155620247Y-110903174D01*
X155625155Y-110903971D01*
X155782844Y-110903971D01*
X155786964Y-110903971D01*
X155794814Y-110901589D01*
X155937497Y-110873208D01*
X156083179Y-110812865D01*
X156128390Y-110782656D01*
X156200053Y-110734772D01*
X156231885Y-110719542D01*
X156251574Y-110713377D01*
X156263529Y-110709635D01*
X156300578Y-110703971D01*
X158161332Y-110703971D01*
X158196268Y-110708994D01*
X158211266Y-110713398D01*
X158270040Y-110751169D01*
X158280379Y-110763100D01*
X158289783Y-110775433D01*
X158291014Y-110777276D01*
X158372696Y-110899520D01*
X158387928Y-110931357D01*
X158397834Y-110962992D01*
X158403500Y-111000046D01*
X158403500Y-111163590D01*
X158403499Y-111163664D01*
X158403499Y-111288960D01*
X158397600Y-111309046D01*
X158444423Y-111483786D01*
X158464663Y-111518842D01*
X158473798Y-111541429D01*
X158485422Y-111554798D01*
X158523467Y-111620695D01*
X158523477Y-111620711D01*
X158523481Y-111620717D01*
X158523485Y-111620722D01*
X158644314Y-111741551D01*
X158644359Y-111741594D01*
X165406119Y-118503354D01*
X165409384Y-118509334D01*
X165414983Y-118513221D01*
X165427270Y-118531607D01*
X165433922Y-118543789D01*
X165437712Y-118561212D01*
X165439604Y-118564677D01*
X165439322Y-118568614D01*
X165448774Y-118612062D01*
X165424358Y-118677527D01*
X165424352Y-118677534D01*
X165417753Y-118686348D01*
X165387386Y-118715130D01*
X165370625Y-118726330D01*
X165370623Y-118726331D01*
X165370623Y-118726332D01*
X165370621Y-118726334D01*
X165303761Y-118793193D01*
X165242908Y-118854047D01*
X165214656Y-118875196D01*
X165191571Y-118887802D01*
X165132142Y-118902971D01*
X164624943Y-118902971D01*
X164474021Y-118943410D01*
X164472300Y-118943843D01*
X164471334Y-118944401D01*
X164422096Y-118972830D01*
X164422095Y-118972831D01*
X164378689Y-118997891D01*
X164378688Y-118997890D01*
X164335290Y-119022946D01*
X164335281Y-119022952D01*
X164223477Y-119134757D01*
X162504191Y-120854044D01*
X162475940Y-120875193D01*
X162452852Y-120887801D01*
X162393422Y-120902971D01*
X161701596Y-120902971D01*
X161666661Y-120897948D01*
X161634852Y-120888608D01*
X161600898Y-120872734D01*
X161483185Y-120794080D01*
X161483172Y-120794073D01*
X161483165Y-120794069D01*
X161337502Y-120733735D01*
X161337471Y-120733728D01*
X161182847Y-120702971D01*
X161182845Y-120702971D01*
X161182842Y-120702971D01*
X161025158Y-120702971D01*
X161025155Y-120702971D01*
X161025153Y-120702971D01*
X160870527Y-120733728D01*
X160870496Y-120733735D01*
X160724833Y-120794069D01*
X160724824Y-120794074D01*
X160724807Y-120794084D01*
X160593708Y-120881682D01*
X160593707Y-120881683D01*
X160593701Y-120881688D01*
X160482217Y-120993172D01*
X160482212Y-120993178D01*
X160482211Y-120993179D01*
X160394607Y-121124287D01*
X160394606Y-121124289D01*
X160339482Y-121257370D01*
X160328023Y-121278808D01*
X160314710Y-121298732D01*
X160299289Y-121317522D01*
X159062769Y-122554044D01*
X159034518Y-122575193D01*
X159011430Y-122587801D01*
X158952000Y-122602971D01*
X148741528Y-122602971D01*
X148717339Y-122600588D01*
X148693839Y-122595914D01*
X148670582Y-122588858D01*
X148537502Y-122533735D01*
X148537471Y-122533728D01*
X148382847Y-122502971D01*
X148382845Y-122502971D01*
X148382842Y-122502971D01*
X148225158Y-122502971D01*
X148225155Y-122502971D01*
X148225153Y-122502971D01*
X148070527Y-122533728D01*
X148070496Y-122533735D01*
X147924833Y-122594069D01*
X147924824Y-122594074D01*
X147924807Y-122594084D01*
X147793708Y-122681682D01*
X147793707Y-122681683D01*
X147793701Y-122681688D01*
X147682217Y-122793172D01*
X147682212Y-122793178D01*
X147682211Y-122793179D01*
X147594613Y-122924278D01*
X147594603Y-122924295D01*
X147594598Y-122924304D01*
X147534264Y-123069967D01*
X147534257Y-123069998D01*
X147503500Y-123224621D01*
X147503500Y-123224624D01*
X147503500Y-123382317D01*
X147503500Y-123382319D01*
X147503499Y-123382319D01*
X147534257Y-123536942D01*
X147534264Y-123536973D01*
X147594598Y-123682636D01*
X147594603Y-123682645D01*
X147594613Y-123682662D01*
X147682211Y-123813761D01*
X147682212Y-123813762D01*
X147682217Y-123813768D01*
X147793701Y-123925252D01*
X147793707Y-123925257D01*
X147793711Y-123925260D01*
X147924814Y-124012861D01*
X147924827Y-124012868D01*
X148050974Y-124065119D01*
X148070503Y-124073208D01*
X148070507Y-124073208D01*
X148070510Y-124073210D01*
X148196630Y-124098296D01*
X148217513Y-124102450D01*
X148220247Y-124103174D01*
X148225155Y-124103971D01*
X148382844Y-124103971D01*
X148386964Y-124103971D01*
X148394814Y-124101589D01*
X148537497Y-124073208D01*
X148612963Y-124041949D01*
X148670594Y-124018078D01*
X148693834Y-124011028D01*
X148717342Y-124006352D01*
X148741528Y-124003971D01*
X159372997Y-124003971D01*
X159388170Y-124000952D01*
X159464040Y-123985860D01*
X159464041Y-123985860D01*
X159472945Y-123984088D01*
X159508328Y-123977051D01*
X159576677Y-123948740D01*
X159631751Y-123925927D01*
X159635241Y-123924625D01*
X159635696Y-123924322D01*
X159635698Y-123924321D01*
X159635809Y-123924246D01*
X159635811Y-123924246D01*
X159750543Y-123847585D01*
X161003713Y-122594411D01*
X161031964Y-122573263D01*
X161045690Y-122565768D01*
X161113949Y-122550919D01*
X161115760Y-122551049D01*
X161173954Y-122570416D01*
X161180467Y-122574602D01*
X161201106Y-122591234D01*
X162057453Y-123447582D01*
X162057454Y-123447583D01*
X162172192Y-123524248D01*
X162294072Y-123574731D01*
X162298498Y-123576825D01*
X162299229Y-123576966D01*
X162299971Y-123577111D01*
X162435000Y-123603971D01*
X162435003Y-123603971D01*
X162435006Y-123603971D01*
X162435007Y-123603971D01*
X166837073Y-123603971D01*
X166872000Y-123608992D01*
X166882853Y-123612178D01*
X166941634Y-123649948D01*
X166970663Y-123713502D01*
X166960724Y-123782661D01*
X166960723Y-123782663D01*
X166957538Y-123789638D01*
X166932422Y-123825813D01*
X159504191Y-131254044D01*
X159475940Y-131275193D01*
X159452852Y-131287801D01*
X159393422Y-131302971D01*
X155797780Y-131302971D01*
X155762844Y-131297948D01*
X155754211Y-131295413D01*
X155695433Y-131257638D01*
X155666409Y-131194081D01*
X155676353Y-131124923D01*
X155716602Y-131075871D01*
X155720776Y-131072861D01*
X155745840Y-131058879D01*
X155753014Y-131055905D01*
X155760821Y-131048592D01*
X155785904Y-131034110D01*
X155872716Y-130983991D01*
X155984520Y-130872187D01*
X155984520Y-130872186D01*
X156001960Y-130854746D01*
X156001961Y-130854743D01*
X156042615Y-130814090D01*
X156106061Y-130750643D01*
X156134299Y-130729504D01*
X156163406Y-130713610D01*
X156198631Y-130700830D01*
X156337497Y-130673208D01*
X156483179Y-130612865D01*
X156614289Y-130525260D01*
X156725789Y-130413760D01*
X156813394Y-130282650D01*
X156873737Y-130136968D01*
X156904500Y-129982313D01*
X156904500Y-129824629D01*
X156904500Y-129824626D01*
X156904500Y-129824442D01*
X156904064Y-129822437D01*
X156880456Y-129703753D01*
X156873737Y-129669974D01*
X156841792Y-129592851D01*
X156813397Y-129524298D01*
X156813390Y-129524285D01*
X156725789Y-129393182D01*
X156725786Y-129393178D01*
X156725781Y-129393172D01*
X156614297Y-129281688D01*
X156614291Y-129281683D01*
X156614290Y-129281682D01*
X156483191Y-129194084D01*
X156483190Y-129194083D01*
X156483185Y-129194080D01*
X156483172Y-129194073D01*
X156483165Y-129194069D01*
X156337523Y-129133743D01*
X156337509Y-129133738D01*
X156337501Y-129133735D01*
X156337491Y-129133732D01*
X156337486Y-129133731D01*
X156337483Y-129133730D01*
X156199636Y-129106310D01*
X156166354Y-129094569D01*
X156136980Y-129079204D01*
X156106773Y-129057009D01*
X155758428Y-128708664D01*
X155758419Y-128708654D01*
X155747019Y-128697254D01*
X155635217Y-128585452D01*
X155635216Y-128585451D01*
X155635215Y-128585450D01*
X155635212Y-128585448D01*
X155569297Y-128547392D01*
X155555930Y-128535769D01*
X155533340Y-128526634D01*
X155518601Y-128518124D01*
X155495840Y-128501242D01*
X155475563Y-128482250D01*
X155457228Y-128460639D01*
X155435543Y-128428185D01*
X155435537Y-128428178D01*
X155296197Y-128288838D01*
X155296191Y-128288833D01*
X155296190Y-128288832D01*
X155132333Y-128179346D01*
X155132332Y-128179345D01*
X155132327Y-128179342D01*
X155132314Y-128179335D01*
X155132307Y-128179331D01*
X154950268Y-128103929D01*
X154950254Y-128103924D01*
X154950246Y-128103921D01*
X154950236Y-128103918D01*
X154950233Y-128103917D01*
X154950229Y-128103916D01*
X154756953Y-128065471D01*
X154756950Y-128065471D01*
X154756948Y-128065471D01*
X154559866Y-128065471D01*
X154559864Y-128065471D01*
X154559860Y-128065471D01*
X154366583Y-128103916D01*
X154366577Y-128103918D01*
X154366567Y-128103921D01*
X154366562Y-128103922D01*
X154366544Y-128103929D01*
X154184505Y-128179331D01*
X154184496Y-128179336D01*
X154184479Y-128179346D01*
X154020622Y-128288832D01*
X154020621Y-128288833D01*
X154020615Y-128288838D01*
X153881274Y-128428179D01*
X153881269Y-128428185D01*
X153881268Y-128428186D01*
X153771782Y-128592043D01*
X153771772Y-128592060D01*
X153771767Y-128592069D01*
X153696365Y-128774108D01*
X153696352Y-128774147D01*
X153657907Y-128967422D01*
X153657907Y-129120145D01*
X153652644Y-129138065D01*
X153696352Y-129357793D01*
X153696353Y-129357797D01*
X153696354Y-129357800D01*
X153696357Y-129357810D01*
X153696360Y-129357818D01*
X153696365Y-129357832D01*
X153771769Y-129539874D01*
X153771771Y-129539879D01*
X153771774Y-129539884D01*
X153771777Y-129539889D01*
X153803515Y-129587389D01*
X153818748Y-129619231D01*
X153822127Y-129630025D01*
X153823369Y-129699884D01*
X153786646Y-129759324D01*
X153723618Y-129789474D01*
X153721312Y-129789848D01*
X153654035Y-129782004D01*
X153537502Y-129733735D01*
X153537471Y-129733728D01*
X153382847Y-129702971D01*
X153382845Y-129702971D01*
X153382842Y-129702971D01*
X153225158Y-129702971D01*
X153225155Y-129702971D01*
X153225153Y-129702971D01*
X153070527Y-129733728D01*
X153070496Y-129733735D01*
X152924833Y-129794069D01*
X152924824Y-129794074D01*
X152924797Y-129794090D01*
X152807949Y-129872166D01*
X152776115Y-129887398D01*
X152744478Y-129897305D01*
X152707422Y-129902971D01*
X146953771Y-129902971D01*
X146918836Y-129897948D01*
X146907982Y-129894761D01*
X146849204Y-129856987D01*
X146820179Y-129793431D01*
X146830122Y-129724274D01*
X146833312Y-129717291D01*
X146858421Y-129681129D01*
X146925787Y-129613763D01*
X146925791Y-129613758D01*
X147013390Y-129482656D01*
X147013390Y-129482655D01*
X147013394Y-129482650D01*
X147073737Y-129336968D01*
X147104500Y-129182313D01*
X147104500Y-129024629D01*
X147104500Y-129024626D01*
X147104500Y-129024444D01*
X147104065Y-129022443D01*
X147093121Y-128967427D01*
X147086419Y-128933732D01*
X147073737Y-128869974D01*
X147046063Y-128803162D01*
X147013397Y-128724298D01*
X147013390Y-128724285D01*
X146925789Y-128593182D01*
X146925786Y-128593178D01*
X146925781Y-128593172D01*
X146814297Y-128481688D01*
X146814291Y-128481683D01*
X146814290Y-128481682D01*
X146683191Y-128394084D01*
X146683190Y-128394083D01*
X146683185Y-128394080D01*
X146683172Y-128394073D01*
X146683165Y-128394069D01*
X146537502Y-128333735D01*
X146537471Y-128333728D01*
X146382847Y-128302971D01*
X146382845Y-128302971D01*
X146382842Y-128302971D01*
X146225158Y-128302971D01*
X146225155Y-128302971D01*
X146225153Y-128302971D01*
X146070527Y-128333728D01*
X146070496Y-128333735D01*
X145924833Y-128394069D01*
X145924824Y-128394074D01*
X145924807Y-128394084D01*
X145793708Y-128481682D01*
X145793707Y-128481683D01*
X145793701Y-128481688D01*
X145682217Y-128593172D01*
X145682212Y-128593178D01*
X145682211Y-128593179D01*
X145594613Y-128724278D01*
X145594603Y-128724295D01*
X145594598Y-128724304D01*
X145534272Y-128869946D01*
X145534264Y-128869970D01*
X145534259Y-128869984D01*
X145511247Y-128985675D01*
X145499505Y-129018959D01*
X145492258Y-129032813D01*
X145443755Y-129083084D01*
X145437375Y-129086718D01*
X145376003Y-129102971D01*
X144901596Y-129102971D01*
X144866661Y-129097948D01*
X144834852Y-129088608D01*
X144800898Y-129072734D01*
X144683185Y-128994080D01*
X144683172Y-128994073D01*
X144683165Y-128994069D01*
X144537502Y-128933735D01*
X144537471Y-128933728D01*
X144382847Y-128902970D01*
X144379405Y-128902632D01*
X144356615Y-128898204D01*
X144340738Y-128893541D01*
X144281977Y-128855780D01*
X144277165Y-128850228D01*
X144249251Y-128793207D01*
X144246638Y-128780072D01*
X144246621Y-128779952D01*
X144245458Y-128774137D01*
X144245456Y-128774132D01*
X144224814Y-128724298D01*
X144213613Y-128697255D01*
X144170042Y-128592063D01*
X144170035Y-128592050D01*
X144060546Y-128428189D01*
X144060544Y-128428186D01*
X144060543Y-128428185D01*
X144060538Y-128428179D01*
X143921197Y-128288838D01*
X143921191Y-128288833D01*
X143921190Y-128288832D01*
X143757333Y-128179346D01*
X143757332Y-128179345D01*
X143757327Y-128179342D01*
X143757314Y-128179335D01*
X143757307Y-128179331D01*
X143575268Y-128103929D01*
X143575254Y-128103924D01*
X143575246Y-128103921D01*
X143575236Y-128103918D01*
X143575233Y-128103917D01*
X143575229Y-128103916D01*
X143381953Y-128065471D01*
X143381950Y-128065471D01*
X143381948Y-128065471D01*
X143184866Y-128065471D01*
X143184864Y-128065471D01*
X143184860Y-128065471D01*
X142991583Y-128103916D01*
X142991577Y-128103918D01*
X142991567Y-128103921D01*
X142991562Y-128103922D01*
X142991544Y-128103929D01*
X142809505Y-128179331D01*
X142809496Y-128179336D01*
X142809479Y-128179346D01*
X142645622Y-128288832D01*
X142645621Y-128288833D01*
X142645615Y-128288838D01*
X142506274Y-128428179D01*
X142506269Y-128428185D01*
X142506268Y-128428186D01*
X142396782Y-128592043D01*
X142396772Y-128592060D01*
X142396767Y-128592069D01*
X142321365Y-128774108D01*
X142321352Y-128774147D01*
X142282905Y-128967428D01*
X142282337Y-128973203D01*
X142277911Y-128995981D01*
X142273478Y-129011077D01*
X142235734Y-129069826D01*
X142234365Y-129071013D01*
X142179504Y-129098489D01*
X142171946Y-129100134D01*
X142145575Y-129102971D01*
X139643069Y-129102971D01*
X139608133Y-129097948D01*
X139582891Y-129090536D01*
X139530146Y-129059240D01*
X136754079Y-126283174D01*
X136732930Y-126254924D01*
X136726275Y-126242736D01*
X136711424Y-126174466D01*
X136735838Y-126109005D01*
X136743648Y-126098572D01*
X136770020Y-126072575D01*
X136869787Y-126000092D01*
X137000621Y-125869258D01*
X137109378Y-125719567D01*
X137193379Y-125554706D01*
X137250555Y-125378735D01*
X137279500Y-125195985D01*
X137279500Y-125010957D01*
X137260211Y-124889177D01*
X137259707Y-124853894D01*
X137262562Y-124831797D01*
X137283183Y-124777698D01*
X137285708Y-124774005D01*
X137300371Y-124756333D01*
X139199686Y-122857020D01*
X141103811Y-120952894D01*
X141132061Y-120931746D01*
X141155153Y-120919138D01*
X141214578Y-120903971D01*
X151815380Y-120903971D01*
X151815443Y-120903972D01*
X151817347Y-120903972D01*
X151824943Y-120903972D01*
X151983054Y-120903972D01*
X151983057Y-120903972D01*
X152135785Y-120863048D01*
X152193214Y-120829891D01*
X152272716Y-120783991D01*
X152384520Y-120672187D01*
X152384520Y-120672186D01*
X152401959Y-120654747D01*
X152401961Y-120654744D01*
X152443844Y-120612861D01*
X152506061Y-120550643D01*
X152534299Y-120529504D01*
X152563406Y-120513610D01*
X152598631Y-120500830D01*
X152737497Y-120473208D01*
X152883179Y-120412865D01*
X153014289Y-120325260D01*
X153058942Y-120280607D01*
X153125783Y-120213767D01*
X153125784Y-120213764D01*
X153125789Y-120213760D01*
X153152423Y-120173898D01*
X153176001Y-120147651D01*
X153192104Y-120134192D01*
X153246360Y-120107940D01*
X153249068Y-120107376D01*
X153252942Y-120106571D01*
X153278200Y-120103971D01*
X153774793Y-120103971D01*
X153809725Y-120108992D01*
X153834969Y-120116405D01*
X153887713Y-120147699D01*
X154020621Y-120280607D01*
X154020625Y-120280610D01*
X154184486Y-120390099D01*
X154184499Y-120390106D01*
X154360590Y-120463044D01*
X154360595Y-120463046D01*
X154360649Y-120463089D01*
X154360657Y-120463072D01*
X154361021Y-120463223D01*
X154365376Y-120465284D01*
X154559860Y-120503971D01*
X154756950Y-120503971D01*
X154756952Y-120503971D01*
X154911612Y-120473206D01*
X154950242Y-120465522D01*
X155132321Y-120390103D01*
X155296189Y-120280610D01*
X155435546Y-120141253D01*
X155545039Y-119977385D01*
X155620458Y-119795306D01*
X155639486Y-119699648D01*
X155646363Y-119665074D01*
X155658907Y-119602016D01*
X155658907Y-119404924D01*
X155620219Y-119210433D01*
X155618132Y-119206021D01*
X155613181Y-119194069D01*
X155588194Y-119133743D01*
X155588190Y-119133733D01*
X155545047Y-119029576D01*
X155545042Y-119029563D01*
X155545035Y-119029550D01*
X155435546Y-118865689D01*
X155435543Y-118865685D01*
X155435538Y-118865679D01*
X155296194Y-118726335D01*
X155296191Y-118726333D01*
X155296178Y-118726324D01*
X155132333Y-118616846D01*
X155132332Y-118616845D01*
X155132327Y-118616842D01*
X155132314Y-118616835D01*
X155132307Y-118616831D01*
X154950268Y-118541429D01*
X154950254Y-118541424D01*
X154950246Y-118541421D01*
X154950236Y-118541418D01*
X154950233Y-118541417D01*
X154950229Y-118541416D01*
X154756953Y-118502971D01*
X154756950Y-118502971D01*
X154756948Y-118502971D01*
X154559866Y-118502971D01*
X154559864Y-118502971D01*
X154559860Y-118502971D01*
X154366583Y-118541416D01*
X154366577Y-118541418D01*
X154366567Y-118541421D01*
X154366562Y-118541422D01*
X154366544Y-118541429D01*
X154184505Y-118616831D01*
X154184496Y-118616836D01*
X154184479Y-118616846D01*
X154020635Y-118726324D01*
X154020621Y-118726333D01*
X153892908Y-118854046D01*
X153864656Y-118875196D01*
X153841571Y-118887802D01*
X153782142Y-118902971D01*
X152792621Y-118902971D01*
X152792558Y-118902970D01*
X152790654Y-118902970D01*
X152783058Y-118902970D01*
X152624943Y-118902970D01*
X152624939Y-118902970D01*
X152624938Y-118902970D01*
X152622584Y-118903124D01*
X152610433Y-118903322D01*
X152559542Y-118901656D01*
X152541921Y-118902971D01*
X152425153Y-118902971D01*
X152270527Y-118933728D01*
X152270496Y-118933735D01*
X152124833Y-118994069D01*
X152124824Y-118994074D01*
X152124807Y-118994084D01*
X151993708Y-119081682D01*
X151993707Y-119081683D01*
X151993701Y-119081688D01*
X151882217Y-119193172D01*
X151882212Y-119193178D01*
X151882211Y-119193179D01*
X151794613Y-119324278D01*
X151794603Y-119324295D01*
X151794598Y-119324304D01*
X151734272Y-119469946D01*
X151734264Y-119469970D01*
X151734259Y-119469984D01*
X151711247Y-119585675D01*
X151699505Y-119618959D01*
X151692258Y-119632813D01*
X151643755Y-119683084D01*
X151637375Y-119686718D01*
X151576003Y-119702971D01*
X144425737Y-119702971D01*
X144390796Y-119697946D01*
X144375797Y-119693541D01*
X144317051Y-119655798D01*
X144315864Y-119654429D01*
X144288384Y-119599554D01*
X144286739Y-119591992D01*
X144283907Y-119565639D01*
X144283907Y-119404924D01*
X144245219Y-119210433D01*
X144243132Y-119206021D01*
X144238181Y-119194069D01*
X144213194Y-119133743D01*
X144213190Y-119133733D01*
X144170047Y-119029576D01*
X144170042Y-119029563D01*
X144170035Y-119029550D01*
X144060546Y-118865689D01*
X144060543Y-118865685D01*
X144060538Y-118865679D01*
X143921194Y-118726335D01*
X143921191Y-118726333D01*
X143921178Y-118726324D01*
X143757333Y-118616846D01*
X143757332Y-118616845D01*
X143757327Y-118616842D01*
X143757314Y-118616835D01*
X143757307Y-118616831D01*
X143575268Y-118541429D01*
X143575254Y-118541424D01*
X143575246Y-118541421D01*
X143575236Y-118541418D01*
X143575233Y-118541417D01*
X143575229Y-118541416D01*
X143381953Y-118502971D01*
X143381950Y-118502971D01*
X143381948Y-118502971D01*
X143184866Y-118502971D01*
X143184864Y-118502971D01*
X143184860Y-118502971D01*
X142991583Y-118541416D01*
X142991577Y-118541418D01*
X142991567Y-118541421D01*
X142991562Y-118541422D01*
X142991544Y-118541429D01*
X142809505Y-118616831D01*
X142809496Y-118616836D01*
X142809479Y-118616846D01*
X142645635Y-118726324D01*
X142645621Y-118726333D01*
X142517908Y-118854046D01*
X142489656Y-118875196D01*
X142466571Y-118887802D01*
X142407142Y-118902971D01*
X139624934Y-118902971D01*
X139543367Y-118924826D01*
X139543361Y-118924830D01*
X139472217Y-118943893D01*
X139472215Y-118943893D01*
X139472214Y-118943894D01*
X139472212Y-118943894D01*
X139472143Y-118943924D01*
X139471334Y-118944401D01*
X139335298Y-119022941D01*
X139335294Y-119022943D01*
X139335290Y-119022946D01*
X139335285Y-119022950D01*
X139335278Y-119022955D01*
X139335276Y-119022956D01*
X139301944Y-119056289D01*
X139273689Y-119077440D01*
X139244592Y-119093328D01*
X139209357Y-119106113D01*
X139070514Y-119133730D01*
X139070508Y-119133732D01*
X139070498Y-119133735D01*
X139070493Y-119133736D01*
X139070475Y-119133743D01*
X138924833Y-119194069D01*
X138924824Y-119194074D01*
X138924797Y-119194090D01*
X138807949Y-119272166D01*
X138776115Y-119287398D01*
X138744478Y-119297305D01*
X138707422Y-119302971D01*
X138021928Y-119302971D01*
X137986992Y-119297948D01*
X137961750Y-119290536D01*
X137909005Y-119259240D01*
X137304822Y-118655057D01*
X137283672Y-118626805D01*
X137278232Y-118616842D01*
X137272996Y-118607253D01*
X137257879Y-118551363D01*
X137257751Y-118546884D01*
X137259227Y-118523978D01*
X137279500Y-118395984D01*
X137279500Y-118210957D01*
X137250555Y-118028207D01*
X137194877Y-117856848D01*
X137193821Y-117853101D01*
X137109378Y-117687375D01*
X137047327Y-117601970D01*
X137000621Y-117537684D01*
X136869787Y-117406850D01*
X136720096Y-117298093D01*
X136555235Y-117214091D01*
X136555232Y-117214090D01*
X136555231Y-117214089D01*
X136555228Y-117214088D01*
X136555208Y-117214081D01*
X136379267Y-117156916D01*
X136379268Y-117156916D01*
X136287889Y-117142443D01*
X136196519Y-117127971D01*
X136196514Y-117127971D01*
X136011486Y-117127971D01*
X136011483Y-117127971D01*
X135965798Y-117135207D01*
X135950569Y-117137619D01*
X135828730Y-117156916D01*
X135652790Y-117214081D01*
X135652771Y-117214088D01*
X135652770Y-117214088D01*
X135487902Y-117298093D01*
X135402499Y-117360143D01*
X135350084Y-117398225D01*
X135342703Y-117402358D01*
X135202887Y-117542174D01*
X135198754Y-117549555D01*
X135160672Y-117601970D01*
X135098622Y-117687373D01*
X135014617Y-117852241D01*
X135014617Y-117852242D01*
X135014610Y-117852261D01*
X134957445Y-118028201D01*
X134928500Y-118210951D01*
X134928500Y-118395989D01*
X134957445Y-118578739D01*
X135014610Y-118754679D01*
X135014617Y-118754698D01*
X135014617Y-118754699D01*
X135014618Y-118754702D01*
X135014619Y-118754703D01*
X135014620Y-118754706D01*
X135090165Y-118902970D01*
X135098622Y-118919567D01*
X135098624Y-118919570D01*
X135178524Y-119029543D01*
X135207379Y-119069258D01*
X135338213Y-119200092D01*
X135487904Y-119308849D01*
X135568763Y-119350048D01*
X135652764Y-119392850D01*
X135652767Y-119392851D01*
X135652803Y-119392862D01*
X135652839Y-119392875D01*
X135740749Y-119421438D01*
X135740750Y-119421438D01*
X135828736Y-119450026D01*
X136011486Y-119478971D01*
X136011487Y-119478971D01*
X136196513Y-119478971D01*
X136196514Y-119478971D01*
X136318291Y-119459682D01*
X136353575Y-119459178D01*
X136375666Y-119462032D01*
X136429772Y-119482655D01*
X136433457Y-119485175D01*
X136451142Y-119499849D01*
X137335336Y-120384043D01*
X137335852Y-120384423D01*
X137338475Y-120385834D01*
X137472209Y-120463044D01*
X137472216Y-120463048D01*
X137624943Y-120503972D01*
X137624945Y-120503972D01*
X137790654Y-120503972D01*
X137792558Y-120503972D01*
X137792621Y-120503971D01*
X138706404Y-120503971D01*
X138741336Y-120508992D01*
X138773150Y-120518334D01*
X138807098Y-120534206D01*
X138924814Y-120612861D01*
X138924827Y-120612868D01*
X139043384Y-120661975D01*
X139070503Y-120673208D01*
X139195603Y-120698092D01*
X139217512Y-120702450D01*
X139220247Y-120703174D01*
X139225155Y-120703971D01*
X139225156Y-120703971D01*
X139337073Y-120703971D01*
X139372000Y-120708992D01*
X139382853Y-120712178D01*
X139441634Y-120749948D01*
X139470663Y-120813502D01*
X139460724Y-120882661D01*
X139460723Y-120882663D01*
X139457538Y-120889638D01*
X139432422Y-120925813D01*
X136455586Y-123902647D01*
X136427334Y-123923797D01*
X136407785Y-123934472D01*
X136351889Y-123949590D01*
X136347425Y-123949717D01*
X136324500Y-123948241D01*
X136196518Y-123927971D01*
X136196514Y-123927971D01*
X136011486Y-123927971D01*
X136011481Y-123927971D01*
X135969746Y-123934581D01*
X135890505Y-123947131D01*
X135855221Y-123947636D01*
X135841458Y-123945858D01*
X135777493Y-123917746D01*
X135738880Y-123859516D01*
X135735030Y-123847064D01*
X135729500Y-123810442D01*
X135729500Y-122997322D01*
X135734522Y-122962389D01*
X135738433Y-122949070D01*
X135776206Y-122890293D01*
X135839758Y-122861268D01*
X135845192Y-122860486D01*
X135852649Y-122859415D01*
X135889690Y-122859679D01*
X136011486Y-122878971D01*
X136011487Y-122878971D01*
X136196513Y-122878971D01*
X136196514Y-122878971D01*
X136379264Y-122850026D01*
X136555235Y-122792850D01*
X136720096Y-122708849D01*
X136869787Y-122600092D01*
X137000621Y-122469258D01*
X137109378Y-122319567D01*
X137193379Y-122154706D01*
X137250555Y-121978735D01*
X137279500Y-121795985D01*
X137279500Y-121610957D01*
X137250555Y-121428207D01*
X137199631Y-121271478D01*
X137193380Y-121252238D01*
X137193379Y-121252235D01*
X137150577Y-121168234D01*
X137109378Y-121087375D01*
X137000621Y-120937684D01*
X136869787Y-120806850D01*
X136720096Y-120698093D01*
X136555235Y-120614091D01*
X136555232Y-120614090D01*
X136555231Y-120614089D01*
X136555228Y-120614088D01*
X136555208Y-120614081D01*
X136379267Y-120556916D01*
X136379268Y-120556916D01*
X136260112Y-120538044D01*
X136257429Y-120537619D01*
X136196514Y-120527971D01*
X136196513Y-120527971D01*
X136011483Y-120527971D01*
X135965798Y-120535207D01*
X135950569Y-120537619D01*
X135828730Y-120556916D01*
X135652790Y-120614081D01*
X135652771Y-120614088D01*
X135652770Y-120614088D01*
X135487903Y-120698092D01*
X135438851Y-120733732D01*
X135438850Y-120733732D01*
X135350083Y-120798225D01*
X135342704Y-120802357D01*
X135202885Y-120942176D01*
X135198754Y-120949553D01*
X135098626Y-121087368D01*
X135098622Y-121087374D01*
X135098620Y-121087376D01*
X135098618Y-121087381D01*
X135014617Y-121252241D01*
X135014617Y-121252242D01*
X135014610Y-121252261D01*
X134957445Y-121428201D01*
X134928500Y-121610951D01*
X134928500Y-121750237D01*
X134923792Y-121766270D01*
X134947786Y-121917762D01*
X134948291Y-121953050D01*
X134945437Y-121975138D01*
X134924818Y-122029238D01*
X134922299Y-122032922D01*
X134907621Y-122050613D01*
X134648481Y-122309752D01*
X134648481Y-122309753D01*
X134648462Y-122309782D01*
X134619844Y-122359354D01*
X134619843Y-122359356D01*
X134569423Y-122446685D01*
X134569422Y-122446685D01*
X134569423Y-122446686D01*
X134528499Y-122599414D01*
X134528499Y-122599416D01*
X134528499Y-122769871D01*
X134528500Y-122769922D01*
X134528500Y-125418920D01*
X134528499Y-125418994D01*
X134528499Y-125544290D01*
X134522600Y-125564376D01*
X132264000Y-125564376D01*
X132264000Y-114810951D01*
X134928500Y-114810951D01*
X134928500Y-114995989D01*
X134957445Y-115178739D01*
X135014610Y-115354679D01*
X135014620Y-115354707D01*
X135044711Y-115413763D01*
X135090675Y-115503971D01*
X135092177Y-115506919D01*
X135098621Y-115519566D01*
X135166404Y-115612861D01*
X135207379Y-115669258D01*
X135338213Y-115800092D01*
X135487904Y-115908849D01*
X135568763Y-115950048D01*
X135652764Y-115992850D01*
X135652767Y-115992851D01*
X135652803Y-115992862D01*
X135652839Y-115992875D01*
X135740749Y-116021438D01*
X135740750Y-116021438D01*
X135828736Y-116050026D01*
X136011486Y-116078971D01*
X136011487Y-116078971D01*
X136196513Y-116078971D01*
X136196514Y-116078971D01*
X136379264Y-116050026D01*
X136555235Y-115992850D01*
X136720096Y-115908849D01*
X136869787Y-115800092D01*
X137000621Y-115669258D01*
X137073096Y-115569504D01*
X137097684Y-115544203D01*
X137115332Y-115530594D01*
X137168182Y-115506920D01*
X137172570Y-115506096D01*
X137195431Y-115503971D01*
X147706404Y-115503971D01*
X147741336Y-115508992D01*
X147773150Y-115518334D01*
X147807098Y-115534206D01*
X147924814Y-115612861D01*
X147924827Y-115612868D01*
X148070498Y-115673206D01*
X148070503Y-115673208D01*
X148217513Y-115702450D01*
X148220247Y-115703174D01*
X148225155Y-115703971D01*
X148382844Y-115703971D01*
X148386964Y-115703971D01*
X148394814Y-115701589D01*
X148537497Y-115673208D01*
X148683179Y-115612865D01*
X148814289Y-115525260D01*
X148925789Y-115413760D01*
X149013394Y-115282650D01*
X149073737Y-115136968D01*
X149104500Y-114982313D01*
X149104500Y-114824629D01*
X149104500Y-114824626D01*
X149104500Y-114824444D01*
X149104065Y-114822443D01*
X149074398Y-114673301D01*
X149073983Y-114670874D01*
X149073737Y-114669975D01*
X149056436Y-114628205D01*
X149013402Y-114524311D01*
X149013397Y-114524298D01*
X149013390Y-114524285D01*
X148925789Y-114393182D01*
X148925786Y-114393178D01*
X148925781Y-114393172D01*
X148814297Y-114281688D01*
X148814291Y-114281683D01*
X148814290Y-114281682D01*
X148683191Y-114194084D01*
X148683190Y-114194083D01*
X148683185Y-114194080D01*
X148683172Y-114194073D01*
X148683165Y-114194069D01*
X148537502Y-114133735D01*
X148537471Y-114133728D01*
X148382847Y-114102971D01*
X148382845Y-114102971D01*
X148382842Y-114102971D01*
X148225158Y-114102971D01*
X148225155Y-114102971D01*
X148225153Y-114102971D01*
X148070527Y-114133728D01*
X148070496Y-114133735D01*
X147924833Y-114194069D01*
X147924824Y-114194074D01*
X147924797Y-114194090D01*
X147807949Y-114272166D01*
X147776115Y-114287398D01*
X147744478Y-114297305D01*
X147707422Y-114302971D01*
X137201720Y-114302971D01*
X137166781Y-114297947D01*
X137145410Y-114291671D01*
X137095219Y-114262855D01*
X137091975Y-114259792D01*
X137076787Y-114242517D01*
X137000623Y-114137687D01*
X137000618Y-114137681D01*
X136869789Y-114006852D01*
X136869787Y-114006850D01*
X136720096Y-113898093D01*
X136555235Y-113814091D01*
X136555232Y-113814090D01*
X136555231Y-113814089D01*
X136555228Y-113814088D01*
X136555208Y-113814081D01*
X136379267Y-113756916D01*
X136379268Y-113756916D01*
X136287889Y-113742443D01*
X136196519Y-113727971D01*
X136196514Y-113727971D01*
X136011486Y-113727971D01*
X136011483Y-113727971D01*
X135965798Y-113735207D01*
X135950569Y-113737619D01*
X135828730Y-113756916D01*
X135652790Y-113814081D01*
X135652771Y-113814088D01*
X135652770Y-113814088D01*
X135487902Y-113898093D01*
X135402499Y-113960143D01*
X135350084Y-113998225D01*
X135342703Y-114002358D01*
X135202885Y-114142176D01*
X135198754Y-114149553D01*
X135098626Y-114287368D01*
X135098618Y-114287381D01*
X135014617Y-114452241D01*
X135014617Y-114452242D01*
X135014610Y-114452261D01*
X134957445Y-114628201D01*
X134928500Y-114810951D01*
X132264000Y-114810951D01*
X132264000Y-113456662D01*
X132269022Y-113421729D01*
X132276434Y-113396484D01*
X132307728Y-113343742D01*
X132806490Y-112844981D01*
X135312000Y-110339471D01*
X135312000Y-95549662D01*
X135317022Y-95514729D01*
X135324434Y-95489484D01*
X135355728Y-95436742D01*
X138692076Y-92100394D01*
X138720326Y-92079246D01*
X138743418Y-92066638D01*
X138802843Y-92051471D01*
X146456250Y-92051471D01*
X147097325Y-91410395D01*
X147125575Y-91389247D01*
X147139299Y-91381753D01*
X147207557Y-91366902D01*
X147209367Y-91367031D01*
X147267564Y-91386397D01*
X147274082Y-91390586D01*
X147294717Y-91407216D01*
X153417303Y-97529802D01*
X153438455Y-97558058D01*
X153444661Y-97569424D01*
X153459512Y-97637698D01*
X153435094Y-97703161D01*
X153384089Y-97743072D01*
X153375552Y-97746679D01*
X153346689Y-97754929D01*
X153189289Y-97779859D01*
X153001493Y-97840878D01*
X152825546Y-97930528D01*
X152825544Y-97930529D01*
X152665804Y-98046585D01*
X152665801Y-98046587D01*
X152526166Y-98186222D01*
X152526164Y-98186225D01*
X152410108Y-98345965D01*
X152410104Y-98345972D01*
X152331627Y-98499989D01*
X152311297Y-98528829D01*
X152302407Y-98538243D01*
X152242068Y-98573469D01*
X152172262Y-98570481D01*
X152118535Y-98534304D01*
X152112465Y-98527298D01*
X152095699Y-98502396D01*
X152015995Y-98345971D01*
X152015994Y-98345970D01*
X152008536Y-98335704D01*
X152008535Y-98335704D01*
X151899934Y-98186224D01*
X151760296Y-98046586D01*
X151608442Y-97936260D01*
X151608103Y-97935970D01*
X151600544Y-97930521D01*
X151600180Y-97930338D01*
X151424611Y-97840880D01*
X151424608Y-97840879D01*
X151236813Y-97779860D01*
X151236807Y-97779859D01*
X151041791Y-97748971D01*
X151041786Y-97748971D01*
X151041781Y-97748971D01*
X150844319Y-97748971D01*
X150844314Y-97748971D01*
X150844309Y-97748971D01*
X150649289Y-97779859D01*
X150461493Y-97840878D01*
X150285546Y-97930528D01*
X150285544Y-97930529D01*
X150125804Y-98046585D01*
X150125801Y-98046587D01*
X149986166Y-98186222D01*
X149986164Y-98186225D01*
X149870108Y-98345965D01*
X149870107Y-98345967D01*
X149780457Y-98521914D01*
X149719438Y-98709710D01*
X149688550Y-98904728D01*
X149688550Y-99102212D01*
X149719438Y-99297230D01*
X149719438Y-99297231D01*
X149760457Y-99423475D01*
X149760458Y-99423475D01*
X149760458Y-99423476D01*
X149780459Y-99485032D01*
X149870106Y-99660972D01*
X149870108Y-99660975D01*
X149986165Y-99820717D01*
X150125801Y-99960353D01*
X150210689Y-100022026D01*
X150237962Y-100041840D01*
X150263271Y-100066437D01*
X150276874Y-100084078D01*
X150300544Y-100136898D01*
X150301367Y-100141278D01*
X150303500Y-100164177D01*
X150303500Y-101419857D01*
X150298476Y-101454796D01*
X150291064Y-101480036D01*
X150259769Y-101532778D01*
X150126867Y-101665679D01*
X150126862Y-101665685D01*
X150126861Y-101665686D01*
X150017375Y-101829543D01*
X150017365Y-101829560D01*
X150017360Y-101829569D01*
X149941958Y-102011608D01*
X149941945Y-102011647D01*
X149903500Y-102204922D01*
X149903500Y-102357645D01*
X149898237Y-102375565D01*
X149941945Y-102595293D01*
X149941946Y-102595297D01*
X149941947Y-102595300D01*
X149941950Y-102595310D01*
X149941953Y-102595318D01*
X149941958Y-102595332D01*
X150017360Y-102777371D01*
X150017365Y-102777380D01*
X150017375Y-102777397D01*
X150126861Y-102941254D01*
X150126862Y-102941255D01*
X150126867Y-102941261D01*
X150266208Y-103080602D01*
X150266214Y-103080607D01*
X150266218Y-103080610D01*
X150430079Y-103190099D01*
X150430092Y-103190106D01*
X150606573Y-103263206D01*
X150610992Y-103265296D01*
X150611728Y-103265438D01*
X150612469Y-103265583D01*
X150805453Y-103303971D01*
X151002543Y-103303971D01*
X151002544Y-103303971D01*
X151024216Y-103299659D01*
X151132582Y-103278103D01*
X151132583Y-103278103D01*
X151145301Y-103275573D01*
X151195835Y-103265522D01*
X151377914Y-103190103D01*
X151541782Y-103080610D01*
X151681139Y-102941253D01*
X151790632Y-102777385D01*
X151866051Y-102595306D01*
X151904500Y-102402012D01*
X151904500Y-102204930D01*
X151904500Y-102204927D01*
X151904500Y-102204924D01*
X151865812Y-102010434D01*
X151863725Y-102006021D01*
X151853993Y-101982526D01*
X151853993Y-101982525D01*
X151790638Y-101829569D01*
X151790633Y-101829560D01*
X151790628Y-101829550D01*
X151681139Y-101665689D01*
X151681136Y-101665685D01*
X151681131Y-101665679D01*
X151553426Y-101537974D01*
X151532275Y-101509720D01*
X151519668Y-101486632D01*
X151504500Y-101427205D01*
X151504500Y-100219172D01*
X151509522Y-100184239D01*
X151514332Y-100167857D01*
X151550113Y-100110845D01*
X151559991Y-100101908D01*
X151586886Y-100083377D01*
X151600551Y-100076415D01*
X151690242Y-100011250D01*
X151760296Y-99960355D01*
X151760298Y-99960352D01*
X151760302Y-99960350D01*
X151760305Y-99960346D01*
X151760356Y-99960310D01*
X151761101Y-99959550D01*
X151899115Y-99821536D01*
X151899889Y-99820777D01*
X151899932Y-99820717D01*
X151899934Y-99820717D01*
X152013869Y-99663897D01*
X152015149Y-99662239D01*
X152015991Y-99660976D01*
X152015992Y-99660975D01*
X152015994Y-99660972D01*
X152094476Y-99506943D01*
X152114804Y-99478106D01*
X152123703Y-99468684D01*
X152184044Y-99433468D01*
X152253849Y-99436463D01*
X152307559Y-99472630D01*
X152313628Y-99479634D01*
X152330399Y-99504541D01*
X152406853Y-99654589D01*
X152410107Y-99660975D01*
X152410109Y-99660979D01*
X152526161Y-99820713D01*
X152526165Y-99820717D01*
X152665803Y-99960355D01*
X152825546Y-100076414D01*
X152825551Y-100076416D01*
X152825553Y-100076418D01*
X152827997Y-100077916D01*
X152848347Y-100093491D01*
X152861162Y-100105594D01*
X152895718Y-100163357D01*
X152899196Y-100176211D01*
X152903500Y-100208598D01*
X152903500Y-101815061D01*
X152903499Y-101815135D01*
X152903499Y-101940431D01*
X152897600Y-101960518D01*
X152917713Y-102035575D01*
X152921873Y-102063614D01*
X152922782Y-102091389D01*
X152920465Y-102119637D01*
X152903500Y-102204924D01*
X152903500Y-102357645D01*
X152898237Y-102375565D01*
X152941945Y-102595293D01*
X152941946Y-102595297D01*
X152941947Y-102595300D01*
X152941950Y-102595310D01*
X152941953Y-102595318D01*
X152941958Y-102595332D01*
X153017360Y-102777371D01*
X153017365Y-102777380D01*
X153017375Y-102777397D01*
X153126861Y-102941254D01*
X153126862Y-102941255D01*
X153126867Y-102941261D01*
X153266208Y-103080602D01*
X153266214Y-103080607D01*
X153266218Y-103080610D01*
X153430079Y-103190099D01*
X153430092Y-103190106D01*
X153606573Y-103263206D01*
X153610992Y-103265296D01*
X153611728Y-103265438D01*
X153612469Y-103265583D01*
X153805453Y-103303971D01*
X154002543Y-103303971D01*
X154002544Y-103303971D01*
X154024216Y-103299659D01*
X154132582Y-103278103D01*
X154132583Y-103278103D01*
X154145301Y-103275573D01*
X154195835Y-103265522D01*
X154377914Y-103190103D01*
X154541782Y-103080610D01*
X154681139Y-102941253D01*
X154790632Y-102777385D01*
X154866051Y-102595306D01*
X154904500Y-102402012D01*
X154904500Y-102204930D01*
X154904500Y-102204927D01*
X154904500Y-102204924D01*
X154865812Y-102010434D01*
X154863725Y-102006021D01*
X154853993Y-101982526D01*
X154853993Y-101982525D01*
X154790638Y-101829569D01*
X154790633Y-101829560D01*
X154790628Y-101829550D01*
X154681139Y-101665689D01*
X154681136Y-101665685D01*
X154681131Y-101665679D01*
X154541790Y-101526338D01*
X154541784Y-101526333D01*
X154541783Y-101526332D01*
X154377926Y-101416846D01*
X154377925Y-101416845D01*
X154377920Y-101416842D01*
X154377907Y-101416835D01*
X154377903Y-101416833D01*
X154201733Y-101343861D01*
X154181219Y-101333014D01*
X154178905Y-101331497D01*
X154164517Y-101322068D01*
X154119237Y-101268860D01*
X154119231Y-101268846D01*
X154115245Y-101259905D01*
X154104500Y-101209415D01*
X154104500Y-100183618D01*
X154109522Y-100148685D01*
X154112983Y-100136898D01*
X154115798Y-100127309D01*
X154144625Y-100077105D01*
X154147692Y-100073857D01*
X154164945Y-100058690D01*
X154300302Y-99960350D01*
X154439163Y-99821489D01*
X154439891Y-99820775D01*
X154439937Y-99820713D01*
X154553869Y-99663897D01*
X154555149Y-99662239D01*
X154555991Y-99660976D01*
X154555992Y-99660975D01*
X154555994Y-99660972D01*
X154634476Y-99506943D01*
X154654804Y-99478106D01*
X154663703Y-99468684D01*
X154724044Y-99433468D01*
X154793849Y-99436463D01*
X154847559Y-99472630D01*
X154853628Y-99479634D01*
X154870399Y-99504541D01*
X154946853Y-99654589D01*
X154950107Y-99660975D01*
X154950109Y-99660979D01*
X155066161Y-99820713D01*
X155205804Y-99960356D01*
X155275851Y-100011247D01*
X155332383Y-100052319D01*
X155365549Y-100076415D01*
X155541489Y-100166062D01*
X155541492Y-100166063D01*
X155541498Y-100166066D01*
X155621687Y-100192120D01*
X155621688Y-100192120D01*
X155729286Y-100227081D01*
X155924314Y-100257971D01*
X155924319Y-100257971D01*
X156121785Y-100257971D01*
X156121786Y-100257971D01*
X156316813Y-100227081D01*
X156316816Y-100227080D01*
X156316817Y-100227080D01*
X156373698Y-100208598D01*
X156504611Y-100166062D01*
X156680551Y-100076415D01*
X156770242Y-100011250D01*
X156840296Y-99960355D01*
X156840298Y-99960352D01*
X156840302Y-99960350D01*
X156840305Y-99960346D01*
X156840356Y-99960310D01*
X156841101Y-99959550D01*
X156979129Y-99821522D01*
X156979890Y-99820776D01*
X156979931Y-99820718D01*
X156979934Y-99820717D01*
X157011147Y-99777754D01*
X157030829Y-99750664D01*
X157053439Y-99719542D01*
X157095994Y-99660972D01*
X157185641Y-99485032D01*
X157246660Y-99297234D01*
X157277550Y-99102207D01*
X157277550Y-98904734D01*
X157246660Y-98709707D01*
X157198318Y-98560927D01*
X157185641Y-98521910D01*
X157185640Y-98521909D01*
X157185640Y-98521907D01*
X157185636Y-98521899D01*
X157095995Y-98345971D01*
X157095994Y-98345970D01*
X157088536Y-98335704D01*
X157088535Y-98335704D01*
X156979934Y-98186224D01*
X156840296Y-98046586D01*
X156688442Y-97936260D01*
X156688103Y-97935970D01*
X156680544Y-97930521D01*
X156680180Y-97930338D01*
X156504611Y-97840880D01*
X156504608Y-97840879D01*
X156316813Y-97779860D01*
X156316807Y-97779859D01*
X156121791Y-97748971D01*
X156121786Y-97748971D01*
X156121781Y-97748971D01*
X155969820Y-97748971D01*
X155934884Y-97743948D01*
X155909642Y-97736536D01*
X155856897Y-97705240D01*
X148429977Y-90278320D01*
X148408825Y-90250064D01*
X148401333Y-90236343D01*
X148386481Y-90168083D01*
X148386610Y-90166274D01*
X148405976Y-90108079D01*
X148410169Y-90101555D01*
X148426790Y-90080930D01*
X149028000Y-89479721D01*
X149028000Y-86145800D01*
X149032672Y-86129886D01*
X149032334Y-86113302D01*
X149033023Y-86110864D01*
X149035048Y-86103970D01*
X149037427Y-86095865D01*
X149047069Y-86080857D01*
X149047685Y-86078761D01*
X149049334Y-86077331D01*
X149075172Y-86037115D01*
X149076541Y-86035928D01*
X149131420Y-86008448D01*
X149138979Y-86006804D01*
X149165332Y-86003971D01*
X149266472Y-86003971D01*
X149290656Y-86006352D01*
X149314165Y-86011028D01*
X149337414Y-86018081D01*
X149440866Y-86060932D01*
X149440867Y-86060933D01*
X149470498Y-86073206D01*
X149470503Y-86073208D01*
X149617513Y-86102450D01*
X149620247Y-86103174D01*
X149625155Y-86103971D01*
X149782844Y-86103971D01*
X149786964Y-86103971D01*
X149794814Y-86101589D01*
X149937497Y-86073208D01*
X150083179Y-86012865D01*
X150214289Y-85925260D01*
X150325789Y-85813760D01*
X150413394Y-85682650D01*
X150473737Y-85536968D01*
X150504500Y-85382313D01*
X150504500Y-85224629D01*
X150504500Y-85224626D01*
X150504500Y-85224444D01*
X150504065Y-85222443D01*
X150474398Y-85073301D01*
X150473984Y-85070877D01*
X150473736Y-85069972D01*
X150449292Y-85010958D01*
X150449292Y-85010957D01*
X150413400Y-84924304D01*
X150413395Y-84924295D01*
X150413390Y-84924285D01*
X150325789Y-84793182D01*
X150325786Y-84793178D01*
X150325781Y-84793172D01*
X150214297Y-84681688D01*
X150214291Y-84681683D01*
X150214290Y-84681682D01*
X150083191Y-84594084D01*
X150083190Y-84594083D01*
X150083185Y-84594080D01*
X150083172Y-84594073D01*
X150083165Y-84594069D01*
X149937502Y-84533735D01*
X149937471Y-84533728D01*
X149782847Y-84502971D01*
X149782845Y-84502971D01*
X149782842Y-84502971D01*
X149625158Y-84502971D01*
X149625155Y-84502971D01*
X149625153Y-84502971D01*
X149470527Y-84533728D01*
X149470496Y-84533735D01*
X149337417Y-84588858D01*
X149314161Y-84595913D01*
X149290668Y-84600587D01*
X149266472Y-84602971D01*
X149169830Y-84602971D01*
X149134889Y-84597946D01*
X149119890Y-84593541D01*
X149061144Y-84555798D01*
X149059957Y-84554429D01*
X149032477Y-84499554D01*
X149030832Y-84491992D01*
X149028000Y-84465639D01*
X149028000Y-72021467D01*
X149047685Y-71954428D01*
X149064319Y-71933786D01*
X149156712Y-71841393D01*
X149349123Y-71648982D01*
X149385288Y-71608721D01*
X149401922Y-71588079D01*
X149433567Y-71544195D01*
X149493338Y-71413318D01*
X149513023Y-71346279D01*
X149513024Y-71346275D01*
X149533500Y-71203859D01*
X149533500Y-69877965D01*
X149533500Y-69877953D01*
X149530554Y-69823473D01*
X149530553Y-69823464D01*
X149527673Y-69796902D01*
X149527672Y-69796892D01*
X149518870Y-69743039D01*
X149468345Y-69608322D01*
X149434749Y-69547060D01*
X149427817Y-69534420D01*
X149419965Y-69527386D01*
X149348320Y-69432040D01*
X149348317Y-69432036D01*
X149089585Y-69174242D01*
X148786271Y-68872027D01*
X148745580Y-68835644D01*
X148724722Y-68818930D01*
X148724716Y-68818925D01*
X148680370Y-68787162D01*
X148549276Y-68727866D01*
X148549269Y-68727864D01*
X148482166Y-68708425D01*
X148473832Y-68707242D01*
X148473606Y-68707227D01*
X148450354Y-68703970D01*
X148339677Y-68688467D01*
X148339675Y-68688467D01*
X148339674Y-68688467D01*
X148115006Y-68689282D01*
X148087389Y-68690137D01*
X148075279Y-68690843D01*
X148073900Y-68690924D01*
X148073897Y-68690924D01*
X148073884Y-68690925D01*
X148046380Y-68693284D01*
X147907180Y-68729670D01*
X147842800Y-68756774D01*
X147842779Y-68756784D01*
X147770512Y-68800228D01*
X147764035Y-68803862D01*
X147654294Y-68861185D01*
X147630995Y-68870492D01*
X147588750Y-68882580D01*
X147543662Y-68886877D01*
X147516595Y-68884471D01*
X147516587Y-68884471D01*
X147516582Y-68884471D01*
X145650521Y-68884471D01*
X145650515Y-68884471D01*
X145638441Y-68884471D01*
X145631585Y-68886153D01*
X145623436Y-68886877D01*
X145578351Y-68882580D01*
X145536107Y-68870493D01*
X145512808Y-68861187D01*
X145482094Y-68845144D01*
X145482094Y-68845143D01*
X145482077Y-68845135D01*
X145434572Y-68820320D01*
X145422306Y-68812984D01*
X145401819Y-68799067D01*
X145401816Y-68799065D01*
X145270736Y-68739776D01*
X145270730Y-68739774D01*
X145204804Y-68720676D01*
X145203694Y-68720343D01*
X145100153Y-68705840D01*
X145061131Y-68700374D01*
X145061129Y-68700374D01*
X145061128Y-68700374D01*
X144933469Y-68700837D01*
X144380272Y-68702846D01*
X144343438Y-68704921D01*
X144327152Y-68705839D01*
X144327146Y-68705839D01*
X144327140Y-68705840D01*
X144303499Y-68708426D01*
X144301232Y-68708674D01*
X144248765Y-68717225D01*
X144248759Y-68717227D01*
X144113951Y-68767507D01*
X144113944Y-68767510D01*
X144054587Y-68799921D01*
X144053113Y-68800691D01*
X144052630Y-68800989D01*
X143937448Y-68887214D01*
X143937436Y-68887225D01*
X135514930Y-77309732D01*
X135514918Y-77309744D01*
X135479381Y-77349229D01*
X135479374Y-77349236D01*
X135463009Y-77369463D01*
X135462995Y-77369481D01*
X135431804Y-77412472D01*
X135431801Y-77412477D01*
X135371526Y-77543114D01*
X135351854Y-77609161D01*
X135351587Y-77610030D01*
X135330552Y-77752408D01*
X135330551Y-77752417D01*
X135321883Y-79986935D01*
X135316153Y-81464147D01*
X135316109Y-81475452D01*
X135296165Y-81542415D01*
X135243184Y-81587964D01*
X135192110Y-81598971D01*
X135129152Y-81598971D01*
X134974526Y-81629728D01*
X134974492Y-81629736D01*
X134870604Y-81672767D01*
X134870599Y-81672771D01*
X134828821Y-81690076D01*
X134828819Y-81690077D01*
X134745336Y-81745858D01*
X134745333Y-81745862D01*
X134704185Y-81773355D01*
X134701744Y-81774773D01*
X134697710Y-81777680D01*
X134661636Y-81813757D01*
X134661634Y-81813758D01*
X134661631Y-81813762D01*
X134632844Y-81842547D01*
X134604598Y-81863692D01*
X134581511Y-81876300D01*
X134522079Y-81891471D01*
X134333442Y-81891471D01*
X134298506Y-81886448D01*
X134273264Y-81879036D01*
X134220519Y-81847740D01*
X133836926Y-81464147D01*
X133815774Y-81435891D01*
X133803167Y-81412802D01*
X133788000Y-81353377D01*
X133788000Y-78085713D01*
X133807685Y-78018674D01*
X133824314Y-77998037D01*
X144791347Y-67031003D01*
X144852668Y-66997520D01*
X144912603Y-66999318D01*
X144919341Y-67001212D01*
X144919351Y-67001217D01*
X145061992Y-67020059D01*
X145131159Y-67019265D01*
X145131799Y-67019262D01*
X145131845Y-67019258D01*
X145131857Y-67019258D01*
X145131859Y-67019258D01*
X145247871Y-67001218D01*
X145274019Y-66997152D01*
X145274019Y-66997151D01*
X145274031Y-66997150D01*
X145293928Y-66991059D01*
X145320923Y-66981413D01*
X145337771Y-66975394D01*
X145337775Y-66975392D01*
X145337784Y-66975389D01*
X145358898Y-66966729D01*
X145401116Y-66947096D01*
X145509721Y-66890366D01*
X145509726Y-66890363D01*
X145512781Y-66888766D01*
X145536094Y-66879449D01*
X145578345Y-66867359D01*
X145623432Y-66863063D01*
X145650513Y-66865471D01*
X147516586Y-66865470D01*
X147543661Y-66863062D01*
X147588744Y-66867358D01*
X147630995Y-66879447D01*
X147654280Y-66888747D01*
X147698678Y-66911939D01*
X147743426Y-66929753D01*
X147794779Y-66950197D01*
X147794782Y-66950197D01*
X147794785Y-66950199D01*
X147843352Y-66963974D01*
X147945231Y-66981870D01*
X147945238Y-66981870D01*
X147945244Y-66981871D01*
X147955279Y-66982589D01*
X147955286Y-66982589D01*
X147955287Y-66982589D01*
X147965552Y-66981854D01*
X148098793Y-66972324D01*
X148100628Y-66971925D01*
X148167062Y-66957473D01*
X148170655Y-66956133D01*
X148301865Y-66907195D01*
X148315586Y-66899703D01*
X148376264Y-66860708D01*
X148404520Y-66839556D01*
X148459029Y-66792324D01*
X148833711Y-66417643D01*
X148911004Y-66318145D01*
X148942299Y-66265401D01*
X148992585Y-66149882D01*
X148999997Y-66124641D01*
X149015329Y-66054167D01*
X149020353Y-66019230D01*
X149025500Y-65947278D01*
X149025500Y-64649564D01*
X149009797Y-64524546D01*
X148994628Y-64465117D01*
X148948494Y-64347868D01*
X148935886Y-64324779D01*
X148896891Y-64264104D01*
X148875741Y-64235852D01*
X148828515Y-64181352D01*
X148828498Y-64181335D01*
X148444933Y-63797769D01*
X148444917Y-63797755D01*
X148345428Y-63720468D01*
X148345418Y-63720461D01*
X148292679Y-63689169D01*
X148292674Y-63689167D01*
X148177164Y-63638885D01*
X148159018Y-63633557D01*
X148151918Y-63631472D01*
X148151914Y-63631471D01*
X148151907Y-63631469D01*
X148151893Y-63631465D01*
X148081435Y-63616139D01*
X148081422Y-63616136D01*
X148081413Y-63616134D01*
X148081410Y-63616134D01*
X148046478Y-63611113D01*
X148046469Y-63611112D01*
X148046470Y-63611112D01*
X147974563Y-63605971D01*
X147974558Y-63605971D01*
X147812513Y-63605971D01*
X147799945Y-63603471D01*
X147781813Y-63603471D01*
X145636442Y-63603471D01*
X145627424Y-63600823D01*
X145618114Y-63602109D01*
X145601506Y-63598448D01*
X145576264Y-63591036D01*
X145523519Y-63559740D01*
X145520925Y-63557146D01*
X145512327Y-63545660D01*
X145512101Y-63545854D01*
X145508778Y-63541976D01*
X145507585Y-63539326D01*
X145504779Y-63535578D01*
X145502144Y-63533518D01*
X145498133Y-63525887D01*
X145497426Y-63524592D01*
X145497446Y-63524580D01*
X145489736Y-63509912D01*
X145489141Y-63510181D01*
X145485227Y-63501485D01*
X145485766Y-63501242D01*
X145474303Y-63468313D01*
X145473790Y-63465327D01*
X145472000Y-63444331D01*
X145472000Y-63291662D01*
X145477022Y-63256729D01*
X145484434Y-63231484D01*
X145515728Y-63178742D01*
X145550139Y-63144332D01*
X145550807Y-63143831D01*
X145550796Y-63143820D01*
X145551183Y-63143436D01*
X145561432Y-63135881D01*
X145578438Y-63123157D01*
X145578757Y-63122983D01*
X145578807Y-63123075D01*
X145580290Y-63121982D01*
X145593925Y-63114729D01*
X145597201Y-63112939D01*
X145601420Y-63110637D01*
X145622738Y-63105196D01*
X145637016Y-63097782D01*
X145647859Y-63098784D01*
X145660844Y-63095471D01*
X149466808Y-63095471D01*
X149501740Y-63100492D01*
G37*
%TD.AperFunction*%
%TD*%
M02*
