%TF.GenerationSoftware,KiCad,Pcbnew,10.0.5*%
%TF.CreationDate,2026-08-08T19:23:40+03:00*%
%TF.ProjectId,ESP32C5 Cold Wallet,45535033-3243-4352-9043-6f6c64205761,V1B*%
%TF.SameCoordinates,Original*%
%TF.FileFunction,Copper,L1,Top*%
%TF.FilePolarity,Positive*%
%FSLAX46Y46*%
G04 Gerber Fmt 4.6, Leading zero omitted, Abs format (unit mm)*
G04 Created by KiCad (PCBNEW 10.0.5) date 2026-08-08 19:23:40*
%MOMM*%
%LPD*%
G01*
G04 APERTURE LIST*
%TA.AperFunction,ComponentPad*%
%ADD10R,1.350000X1.350000*%
%TD*%
%TA.AperFunction,ComponentPad*%
%ADD11C,1.350000*%
%TD*%
%TA.AperFunction,SMDPad,CuDef*%
%ADD12R,1.000000X0.750000*%
%TD*%
%TA.AperFunction,ComponentPad*%
%ADD13R,1.508000X1.508000*%
%TD*%
%TA.AperFunction,ComponentPad*%
%ADD14C,1.508000*%
%TD*%
%TA.AperFunction,ComponentPad*%
%ADD15O,3.500000X2.200000*%
%TD*%
%TA.AperFunction,ComponentPad*%
%ADD16R,2.500000X1.500000*%
%TD*%
%TA.AperFunction,ComponentPad*%
%ADD17O,2.500000X1.500000*%
%TD*%
%TA.AperFunction,ViaPad*%
%ADD18C,0.600000*%
%TD*%
%TA.AperFunction,Conductor*%
%ADD19C,0.200000*%
%TD*%
%TA.AperFunction,Conductor*%
%ADD20C,0.400000*%
%TD*%
G04 APERTURE END LIST*
D10*
%TO.P,D9,1*%
%TO.N,GND*%
X134104000Y-114903471D03*
D11*
%TO.P,D9,2*%
%TO.N,D9-SW6*%
X136104000Y-114903471D03*
%TD*%
D12*
%TO.P,SW4,1,1_1*%
%TO.N,GND*%
X140283407Y-127190971D03*
X146283407Y-127190971D03*
%TO.P,SW4,2,2_2*%
%TO.N,D3-SW4*%
X140283407Y-130940971D03*
X146283407Y-130940971D03*
%TD*%
D10*
%TO.P,REF\u002A\u002A,1*%
%TO.N,GND*%
X134504000Y-81103471D03*
D11*
%TO.P,REF\u002A\u002A,2*%
%TO.N,+3.3V*%
X134504000Y-83103471D03*
%TO.P,REF\u002A\u002A,3*%
%TO.N,VBUS*%
X134504000Y-85103471D03*
%TD*%
D10*
%TO.P,D8,1*%
%TO.N,GND*%
X134104000Y-118303471D03*
D11*
%TO.P,D8,2*%
%TO.N,D8-SW5*%
X136104000Y-118303471D03*
%TD*%
D12*
%TO.P,SW1,1,1_1*%
%TO.N,GND*%
X151658407Y-108065971D03*
X157658407Y-108065971D03*
%TO.P,SW1,2,2_2*%
%TO.N,D0-SW1*%
X151658407Y-111815971D03*
X157658407Y-111815971D03*
%TD*%
%TO.P,SW5,1,1_1*%
%TO.N,GND*%
X140283407Y-117628471D03*
X146283407Y-117628471D03*
%TO.P,SW5,2,2_2*%
%TO.N,D8-SW5*%
X140283407Y-121378471D03*
X146283407Y-121378471D03*
%TD*%
D11*
%TO.P,REF\u002A\u002A,1*%
%TO.N,D6*%
X138304000Y-81103471D03*
%TO.P,REF\u002A\u002A,2*%
%TO.N,D7*%
X138304000Y-83103471D03*
%TO.P,REF\u002A\u002A,3*%
%TO.N,D10*%
X138304000Y-85103471D03*
%TD*%
D12*
%TO.P,SW3,1,1_1*%
%TO.N,GND*%
X151658407Y-117628471D03*
X157658407Y-117628471D03*
%TO.P,SW3,2,2_2*%
%TO.N,D2-SW3*%
X151658407Y-121378471D03*
X157658407Y-121378471D03*
%TD*%
%TO.P,SW6,1,1_1*%
%TO.N,GND*%
X163008407Y-117628471D03*
X169008407Y-117628471D03*
%TO.P,SW6,2,2_2*%
%TO.N,D9-SW6*%
X163008407Y-121378471D03*
X169008407Y-121378471D03*
%TD*%
%TO.P,SW2,1,1_1*%
%TO.N,GND*%
X151658407Y-127190971D03*
X157658407Y-127190971D03*
%TO.P,SW2,2,2_2*%
%TO.N,D1-SW2*%
X151658407Y-130940971D03*
X157658407Y-130940971D03*
%TD*%
D10*
%TO.P,D3,1*%
%TO.N,GND*%
X134104000Y-121703471D03*
D11*
%TO.P,D3,2*%
%TO.N,D3-SW4*%
X136104000Y-121703471D03*
%TD*%
D13*
%TO.P,U2,1,GND_1*%
%TO.N,GND*%
X158563050Y-99003471D03*
D14*
%TO.P,U2,2,VCC_IN_2*%
%TO.N,+3.3V*%
X156023050Y-99003471D03*
%TO.P,U2,3,SCL_3*%
%TO.N,D5-SCL*%
X153483050Y-99003471D03*
%TO.P,U2,4,SDA_4*%
%TO.N,D4-SDA*%
X150943050Y-99003471D03*
%TD*%
D10*
%TO.P,D2,1*%
%TO.N,GND*%
X134104000Y-125103471D03*
D11*
%TO.P,D2,2*%
%TO.N,D2-SW3*%
X136104000Y-125103471D03*
%TD*%
D10*
%TO.P,D0,1*%
%TO.N,GND*%
X134104000Y-131903471D03*
D11*
%TO.P,D0,2*%
%TO.N,D0-SW1*%
X136104000Y-131903471D03*
%TD*%
D10*
%TO.P,D1,1*%
%TO.N,GND*%
X134104000Y-128503471D03*
D11*
%TO.P,D1,2*%
%TO.N,D1-SW2*%
X136104000Y-128503471D03*
%TD*%
%TO.P,BT1,1,+_1*%
%TO.N,VBAT*%
X170704000Y-74503471D03*
D10*
%TO.P,BT1,2,-_2*%
%TO.N,GND*%
X170704000Y-76503471D03*
%TD*%
D15*
%TO.P,SW7,*%
%TO.N,*%
X175104000Y-71603471D03*
X175104000Y-79803471D03*
D16*
%TO.P,SW7,1,A_1*%
%TO.N,GND*%
X175104000Y-73703471D03*
D17*
%TO.P,SW7,2,B_2*%
%TO.N,EN*%
X175104000Y-75703471D03*
%TO.P,SW7,3,C_3*%
%TO.N,N/C*%
X175104000Y-77703471D03*
%TD*%
D18*
%TO.N,GND*%
X155429000Y-117628471D03*
X166104000Y-117503471D03*
X154504000Y-103703471D03*
X170304000Y-117903471D03*
X146104000Y-116303471D03*
X160104000Y-117628471D03*
%TO.N,D9-SW6*%
X168904000Y-122903471D03*
X141904000Y-77503471D03*
X161104000Y-121503471D03*
X148304000Y-114903471D03*
X148304000Y-123303471D03*
%TO.N,D3-SW4*%
X164904000Y-72924971D03*
X146304000Y-129103471D03*
X144304000Y-129703471D03*
%TO.N,D8-SW5*%
X143304000Y-78303471D03*
X139304000Y-119903471D03*
%TO.N,D0-SW1*%
X165504000Y-65304971D03*
X159004000Y-110403471D03*
X155704000Y-110103471D03*
%TO.N,D6*%
X149704000Y-85303471D03*
X158304000Y-77703471D03*
X142904000Y-83903471D03*
%TO.N,D7*%
X144304000Y-81303471D03*
%TO.N,D10*%
X142904000Y-73903471D03*
%TO.N,D2-SW3*%
X152504000Y-119703471D03*
X165504000Y-70384971D03*
%TO.N,D1-SW2*%
X153304000Y-130503471D03*
X156104000Y-129903471D03*
X166904000Y-67903471D03*
%TO.N,D5-SCL*%
X165004000Y-76403471D03*
%TO.N,D4-SDA*%
X164804000Y-75003471D03*
%TD*%
%TO.N,GND*%
D19*
X151658407Y-117628471D02*
X150858407Y-118428471D01*
X146283407Y-116482878D02*
X146104000Y-116303471D01*
X145483407Y-131615971D02*
X145483407Y-127990971D01*
X165979000Y-117628471D02*
X166104000Y-117503471D01*
X156083407Y-131615971D02*
X151658407Y-127190971D01*
X151658407Y-106549064D02*
X154504000Y-103703471D01*
X150858407Y-118428471D02*
X150858407Y-126390971D01*
X169008407Y-117628471D02*
X168208407Y-118428471D01*
X150504000Y-116474064D02*
X150504000Y-109220378D01*
X140283407Y-117628471D02*
X138104000Y-119807878D01*
X157658407Y-122978471D02*
X157658407Y-127190971D01*
X146104000Y-116303471D02*
X135504000Y-116303471D01*
X170029000Y-117628471D02*
X170304000Y-117903471D01*
X168208407Y-121865971D02*
X158458407Y-131615971D01*
X151658407Y-117628471D02*
X155429000Y-117628471D01*
X163008407Y-117628471D02*
X157658407Y-122978471D01*
X135504000Y-116303471D02*
X134104000Y-114903471D01*
X146283407Y-117628471D02*
X140283407Y-117628471D01*
X147233407Y-131615971D02*
X145483407Y-131615971D01*
X169008407Y-117628471D02*
X170029000Y-117628471D01*
X138104000Y-125011564D02*
X140283407Y-127190971D01*
X163008407Y-117628471D02*
X160104000Y-117628471D01*
X146283407Y-117628471D02*
X146283407Y-116482878D01*
X145483407Y-127990971D02*
X146283407Y-127190971D01*
X151658407Y-127190971D02*
X157658407Y-127190971D01*
X157658407Y-108065971D02*
X151658407Y-108065971D01*
X150504000Y-109220378D02*
X151658407Y-108065971D01*
X160104000Y-117628471D02*
X157658407Y-117628471D01*
X151658407Y-127190971D02*
X147233407Y-131615971D01*
X138104000Y-119807878D02*
X138104000Y-125011564D01*
X151658407Y-108065971D02*
X151658407Y-106549064D01*
X150858407Y-126390971D02*
X151658407Y-127190971D01*
X146283407Y-127190971D02*
X140283407Y-127190971D01*
X158458407Y-131615971D02*
X156083407Y-131615971D01*
X163008407Y-117628471D02*
X165979000Y-117628471D01*
X168208407Y-118428471D02*
X168208407Y-121865971D01*
X151658407Y-117628471D02*
X150504000Y-116474064D01*
%TO.N,D9-SW6*%
D20*
X169304000Y-122503471D02*
X169304000Y-121674064D01*
X141904000Y-77503471D02*
X143493950Y-77503471D01*
X143493950Y-77503471D02*
X148304000Y-82313521D01*
X168904000Y-122903471D02*
X169304000Y-122503471D01*
X161104000Y-121503471D02*
X162883407Y-121503471D01*
X169304000Y-121674064D02*
X169008407Y-121378471D01*
X162883407Y-121503471D02*
X163008407Y-121378471D01*
X148304000Y-82313521D02*
X148304000Y-123303471D01*
%TO.N,D3-SW4*%
D19*
X140283407Y-130940971D02*
X143066500Y-130940971D01*
X143066500Y-130940971D02*
X144304000Y-129703471D01*
D20*
X164904000Y-72924971D02*
X149789050Y-88039921D01*
X146812453Y-130411924D02*
X146283407Y-130940971D01*
X149789050Y-88039921D02*
X149789050Y-127435328D01*
D19*
X146304000Y-129103471D02*
X146812453Y-129611924D01*
X146812453Y-129611924D02*
X146812453Y-130411924D01*
D20*
X149789050Y-127435328D02*
X146812453Y-130411924D01*
%TO.N,D8-SW5*%
D19*
X139958407Y-121357878D02*
X140304000Y-121357878D01*
D20*
X146283407Y-121378471D02*
X140283407Y-121378471D01*
D19*
X140304000Y-121357878D02*
X140283407Y-121378471D01*
X139304000Y-119903471D02*
X139304000Y-120703471D01*
D20*
X143304000Y-78303471D02*
X147183407Y-82182878D01*
D19*
X139304000Y-120703471D02*
X139958407Y-121357878D01*
D20*
X147183407Y-82182878D02*
X147183407Y-120478471D01*
X147183407Y-120478471D02*
X146283407Y-121378471D01*
%TO.N,D0-SW1*%
X166204000Y-67613521D02*
X166204000Y-68193421D01*
X166604000Y-68593421D02*
X166604000Y-102870378D01*
X166204000Y-68193421D02*
X166604000Y-68593421D01*
X165504000Y-65304971D02*
X166604000Y-66404971D01*
D19*
X153991500Y-111815971D02*
X155704000Y-110103471D01*
D20*
X166604000Y-67213521D02*
X166204000Y-67613521D01*
X166604000Y-102870378D02*
X157658407Y-111815971D01*
D19*
X151658407Y-111815971D02*
X153991500Y-111815971D01*
D20*
X166604000Y-66404971D02*
X166604000Y-67213521D01*
%TO.N,D6*%
X136304000Y-85703471D02*
X136304000Y-82903471D01*
X139104000Y-86903471D02*
X137504000Y-86903471D01*
X142797597Y-83797068D02*
X142210403Y-83797068D01*
X158304000Y-77703471D02*
X157304000Y-77703471D01*
X157304000Y-77703471D02*
X149704000Y-85303471D01*
X142210403Y-83797068D02*
X139104000Y-86903471D01*
X136304000Y-82903471D02*
X138304000Y-80903471D01*
X137504000Y-86903471D02*
X136304000Y-85703471D01*
X142904000Y-83903471D02*
X142797597Y-83797068D01*
%TO.N,D7*%
X138855472Y-86303471D02*
X137752528Y-86303471D01*
X144304000Y-81303471D02*
X142752528Y-81303471D01*
X136904000Y-85454943D02*
X136904000Y-84303471D01*
X139504000Y-84551999D02*
X139504000Y-85654943D01*
X142752528Y-81303471D02*
X139504000Y-84551999D01*
X137752528Y-86303471D02*
X136904000Y-85454943D01*
X136904000Y-84303471D02*
X138304000Y-82903471D01*
X139504000Y-85654943D02*
X138855472Y-86303471D01*
%TO.N,D10*%
X140958931Y-75848540D02*
X140958931Y-82248540D01*
X140958931Y-82248540D02*
X138304000Y-84903471D01*
X142904000Y-73903471D02*
X140958931Y-75848540D01*
%TO.N,D2-SW3*%
X165704000Y-102095378D02*
X156758407Y-111040971D01*
X165504000Y-70384971D02*
X165704000Y-70584971D01*
X156758407Y-120478471D02*
X157658407Y-121378471D01*
D19*
X151658407Y-121378471D02*
X157658407Y-121378471D01*
X151658407Y-120549064D02*
X151658407Y-121378471D01*
D20*
X165704000Y-70584971D02*
X165704000Y-102095378D01*
D19*
X152504000Y-119703471D02*
X151658407Y-120549064D01*
D20*
X156758407Y-111040971D02*
X156758407Y-120478471D01*
%TO.N,D1-SW2*%
D19*
X151658407Y-130940971D02*
X152866500Y-130940971D01*
D20*
X166904000Y-67903471D02*
X167704000Y-68703471D01*
D19*
X156104000Y-129903471D02*
X156620907Y-129903471D01*
D20*
X167704000Y-68703471D02*
X167704000Y-120895378D01*
X167704000Y-120895378D02*
X157658407Y-130940971D01*
D19*
X152866500Y-130940971D02*
X153304000Y-130503471D01*
X156620907Y-129903471D02*
X157658407Y-130940971D01*
%TO.N,D5-SCL*%
D20*
X153483050Y-87924421D02*
X153483050Y-99003471D01*
X165004000Y-76403471D02*
X153483050Y-87924421D01*
%TO.N,D4-SDA*%
X150943050Y-88864421D02*
X150943050Y-99003471D01*
X164804000Y-75003471D02*
X150943050Y-88864421D01*
%TD*%
%TA.AperFunction,Conductor*%
%TO.N,GND*%
G36*
X173141927Y-92071156D02*
G01*
X173162569Y-92087790D01*
X174391681Y-93316902D01*
X174425166Y-93378225D01*
X174428000Y-93404583D01*
X174428000Y-109831470D01*
X174427999Y-109831470D01*
X174646601Y-110093792D01*
X176939259Y-112844982D01*
X176967055Y-112909084D01*
X176968000Y-112924364D01*
X176968000Y-122988109D01*
X176948315Y-123055148D01*
X176931681Y-123075790D01*
X159732319Y-140275152D01*
X159670996Y-140308637D01*
X159644638Y-140311471D01*
X149206362Y-140311471D01*
X149139323Y-140291786D01*
X149118681Y-140275152D01*
X148556319Y-139712790D01*
X148522834Y-139651467D01*
X148520000Y-139625109D01*
X148520000Y-137771471D01*
X144456000Y-133707471D01*
X134347362Y-133707471D01*
X134280323Y-133687786D01*
X134259681Y-133671152D01*
X133316319Y-132727790D01*
X133282834Y-132666467D01*
X133280000Y-132640109D01*
X133280000Y-131810957D01*
X134928500Y-131810957D01*
X134928500Y-131995984D01*
X134957445Y-132178736D01*
X135014619Y-132354703D01*
X135014620Y-132354706D01*
X135098622Y-132519567D01*
X135207379Y-132669258D01*
X135338213Y-132800092D01*
X135487904Y-132908849D01*
X135568763Y-132950048D01*
X135652764Y-132992850D01*
X135652767Y-132992851D01*
X135740750Y-133021438D01*
X135828736Y-133050026D01*
X136011486Y-133078971D01*
X136011487Y-133078971D01*
X136196513Y-133078971D01*
X136196514Y-133078971D01*
X136379264Y-133050026D01*
X136555235Y-132992850D01*
X136720096Y-132908849D01*
X136869787Y-132800092D01*
X137000621Y-132669258D01*
X137109378Y-132519567D01*
X137193379Y-132354706D01*
X137250555Y-132178735D01*
X137279500Y-131995985D01*
X137279500Y-131810957D01*
X137250555Y-131628207D01*
X137221967Y-131540221D01*
X137193380Y-131452238D01*
X137193379Y-131452235D01*
X137148336Y-131363835D01*
X137109378Y-131287375D01*
X137000621Y-131137684D01*
X136869787Y-131006850D01*
X136720096Y-130898093D01*
X136713647Y-130894807D01*
X136555235Y-130814091D01*
X136555232Y-130814090D01*
X136379265Y-130756916D01*
X136287889Y-130742443D01*
X136196514Y-130727971D01*
X136011486Y-130727971D01*
X135954732Y-130736960D01*
X135828734Y-130756916D01*
X135652767Y-130814090D01*
X135652764Y-130814091D01*
X135487903Y-130898093D01*
X135442435Y-130931128D01*
X135338213Y-131006850D01*
X135338211Y-131006852D01*
X135338210Y-131006852D01*
X135207381Y-131137681D01*
X135207381Y-131137682D01*
X135207379Y-131137684D01*
X135160672Y-131201970D01*
X135098622Y-131287374D01*
X135014620Y-131452235D01*
X135014619Y-131452238D01*
X134957445Y-131628205D01*
X134928500Y-131810957D01*
X133280000Y-131810957D01*
X133280000Y-130518106D01*
X139282907Y-130518106D01*
X139282907Y-131363841D01*
X139282908Y-131363847D01*
X139289315Y-131423454D01*
X139339609Y-131558299D01*
X139339613Y-131558306D01*
X139425859Y-131673515D01*
X139425862Y-131673518D01*
X139541071Y-131759764D01*
X139541078Y-131759768D01*
X139675924Y-131810062D01*
X139675923Y-131810062D01*
X139682851Y-131810806D01*
X139735534Y-131816471D01*
X140831279Y-131816470D01*
X140890890Y-131810062D01*
X141025738Y-131759767D01*
X141140953Y-131673517D01*
X141202606Y-131591159D01*
X141258539Y-131549289D01*
X141301872Y-131541471D01*
X142979831Y-131541471D01*
X142979847Y-131541472D01*
X142987443Y-131541472D01*
X143145554Y-131541472D01*
X143145557Y-131541472D01*
X143298285Y-131500548D01*
X143348404Y-131471610D01*
X143435216Y-131421491D01*
X143547020Y-131309687D01*
X143547020Y-131309685D01*
X143557228Y-131299478D01*
X143557229Y-131299475D01*
X144318662Y-130538043D01*
X144379983Y-130504560D01*
X144382150Y-130504109D01*
X144440085Y-130492584D01*
X144537497Y-130473208D01*
X144683179Y-130412865D01*
X144814289Y-130325260D01*
X144925789Y-130213760D01*
X145013394Y-130082650D01*
X145017856Y-130071879D01*
X145045664Y-130004743D01*
X145073737Y-129936968D01*
X145104500Y-129782313D01*
X145104500Y-129624629D01*
X145104500Y-129624626D01*
X145104499Y-129624624D01*
X145084543Y-129524298D01*
X145073737Y-129469974D01*
X145041929Y-129393182D01*
X145013397Y-129324298D01*
X145013390Y-129324285D01*
X144925789Y-129193182D01*
X144925786Y-129193178D01*
X144814292Y-129081684D01*
X144814288Y-129081681D01*
X144683185Y-128994080D01*
X144683172Y-128994073D01*
X144537501Y-128933735D01*
X144537489Y-128933732D01*
X144382845Y-128902971D01*
X144382842Y-128902971D01*
X144225158Y-128902971D01*
X144225155Y-128902971D01*
X144070510Y-128933732D01*
X144070498Y-128933735D01*
X143924827Y-128994073D01*
X143924814Y-128994080D01*
X143793711Y-129081681D01*
X143793707Y-129081684D01*
X143682213Y-129193178D01*
X143682210Y-129193182D01*
X143594609Y-129324285D01*
X143594602Y-129324298D01*
X143534264Y-129469969D01*
X143534261Y-129469979D01*
X143503361Y-129625321D01*
X143470976Y-129687232D01*
X143469425Y-129688810D01*
X142854084Y-130304152D01*
X142792761Y-130337637D01*
X142766403Y-130340471D01*
X141301872Y-130340471D01*
X141234833Y-130320786D01*
X141202605Y-130290782D01*
X141196522Y-130282656D01*
X141140953Y-130208425D01*
X141118116Y-130191329D01*
X141025742Y-130122177D01*
X141025735Y-130122173D01*
X140890889Y-130071879D01*
X140890890Y-130071879D01*
X140831290Y-130065472D01*
X140831288Y-130065471D01*
X140831280Y-130065471D01*
X140831271Y-130065471D01*
X139735536Y-130065471D01*
X139735530Y-130065472D01*
X139675923Y-130071879D01*
X139541078Y-130122173D01*
X139541071Y-130122177D01*
X139425862Y-130208423D01*
X139425859Y-130208426D01*
X139339613Y-130323635D01*
X139339609Y-130323642D01*
X139289315Y-130458488D01*
X139282908Y-130518087D01*
X139282907Y-130518106D01*
X133280000Y-130518106D01*
X133280000Y-128410957D01*
X134928500Y-128410957D01*
X134928500Y-128595984D01*
X134957445Y-128778736D01*
X135014619Y-128954703D01*
X135014620Y-128954706D01*
X135084565Y-129091978D01*
X135098622Y-129119567D01*
X135207379Y-129269258D01*
X135338213Y-129400092D01*
X135487904Y-129508849D01*
X135552619Y-129541823D01*
X135652764Y-129592850D01*
X135652767Y-129592851D01*
X135717120Y-129613760D01*
X135828736Y-129650026D01*
X136011486Y-129678971D01*
X136011487Y-129678971D01*
X136196513Y-129678971D01*
X136196514Y-129678971D01*
X136379264Y-129650026D01*
X136555235Y-129592850D01*
X136720096Y-129508849D01*
X136869787Y-129400092D01*
X137000621Y-129269258D01*
X137109378Y-129119567D01*
X137193379Y-128954706D01*
X137250555Y-128778735D01*
X137279500Y-128595985D01*
X137279500Y-128410957D01*
X137250555Y-128228207D01*
X137193379Y-128052236D01*
X137193379Y-128052235D01*
X137109377Y-127887374D01*
X137105381Y-127881874D01*
X137000621Y-127737684D01*
X136869787Y-127606850D01*
X136720096Y-127498093D01*
X136555235Y-127414091D01*
X136555232Y-127414090D01*
X136379265Y-127356916D01*
X136287889Y-127342443D01*
X136196514Y-127327971D01*
X136011486Y-127327971D01*
X135950569Y-127337619D01*
X135828734Y-127356916D01*
X135652767Y-127414090D01*
X135652764Y-127414091D01*
X135487903Y-127498093D01*
X135402499Y-127560143D01*
X135338213Y-127606850D01*
X135338211Y-127606852D01*
X135338210Y-127606852D01*
X135207381Y-127737681D01*
X135207381Y-127737682D01*
X135207379Y-127737684D01*
X135185980Y-127767137D01*
X135098622Y-127887374D01*
X135014620Y-128052235D01*
X135014619Y-128052238D01*
X134957445Y-128228205D01*
X134928500Y-128410957D01*
X133280000Y-128410957D01*
X133280000Y-125010957D01*
X134928500Y-125010957D01*
X134928500Y-125195984D01*
X134957445Y-125378736D01*
X135014619Y-125554703D01*
X135014620Y-125554706D01*
X135098622Y-125719567D01*
X135207379Y-125869258D01*
X135338213Y-126000092D01*
X135487904Y-126108849D01*
X135568763Y-126150048D01*
X135652764Y-126192850D01*
X135652767Y-126192851D01*
X135740750Y-126221438D01*
X135828736Y-126250026D01*
X136011486Y-126278971D01*
X136011487Y-126278971D01*
X136196513Y-126278971D01*
X136196514Y-126278971D01*
X136379264Y-126250026D01*
X136555235Y-126192850D01*
X136720096Y-126108849D01*
X136869787Y-126000092D01*
X137000621Y-125869258D01*
X137109378Y-125719567D01*
X137193379Y-125554706D01*
X137250555Y-125378735D01*
X137279500Y-125195985D01*
X137279500Y-125010957D01*
X137250555Y-124828207D01*
X137193379Y-124652236D01*
X137193379Y-124652235D01*
X137109377Y-124487374D01*
X137000621Y-124337684D01*
X136869787Y-124206850D01*
X136720096Y-124098093D01*
X136555235Y-124014091D01*
X136555232Y-124014090D01*
X136379265Y-123956916D01*
X136282033Y-123941516D01*
X136196514Y-123927971D01*
X136011486Y-123927971D01*
X135950569Y-123937619D01*
X135828734Y-123956916D01*
X135652767Y-124014090D01*
X135652764Y-124014091D01*
X135487903Y-124098093D01*
X135402499Y-124160143D01*
X135338213Y-124206850D01*
X135338211Y-124206852D01*
X135338210Y-124206852D01*
X135207381Y-124337681D01*
X135207381Y-124337682D01*
X135207379Y-124337684D01*
X135160672Y-124401970D01*
X135098622Y-124487374D01*
X135014620Y-124652235D01*
X135014619Y-124652238D01*
X134957445Y-124828205D01*
X134928500Y-125010957D01*
X133280000Y-125010957D01*
X133280000Y-121610957D01*
X134928500Y-121610957D01*
X134928500Y-121795985D01*
X134935841Y-121842333D01*
X134957445Y-121978736D01*
X135014619Y-122154703D01*
X135014620Y-122154706D01*
X135090675Y-122303970D01*
X135098622Y-122319567D01*
X135207379Y-122469258D01*
X135338213Y-122600092D01*
X135487904Y-122708849D01*
X135568763Y-122750048D01*
X135652764Y-122792850D01*
X135652767Y-122792851D01*
X135740750Y-122821438D01*
X135828736Y-122850026D01*
X136011486Y-122878971D01*
X136011487Y-122878971D01*
X136196513Y-122878971D01*
X136196514Y-122878971D01*
X136379264Y-122850026D01*
X136555235Y-122792850D01*
X136720096Y-122708849D01*
X136869787Y-122600092D01*
X137000621Y-122469258D01*
X137109378Y-122319567D01*
X137193379Y-122154706D01*
X137250555Y-121978735D01*
X137279500Y-121795985D01*
X137279500Y-121610957D01*
X137250555Y-121428207D01*
X137219395Y-121332307D01*
X137193380Y-121252238D01*
X137193379Y-121252235D01*
X137128188Y-121124292D01*
X137109378Y-121087375D01*
X137000621Y-120937684D01*
X136869787Y-120806850D01*
X136720096Y-120698093D01*
X136690080Y-120682799D01*
X136555235Y-120614091D01*
X136555232Y-120614090D01*
X136379265Y-120556916D01*
X136229509Y-120533197D01*
X136196514Y-120527971D01*
X136011486Y-120527971D01*
X135978491Y-120533197D01*
X135828734Y-120556916D01*
X135652767Y-120614090D01*
X135652764Y-120614091D01*
X135487903Y-120698093D01*
X135438851Y-120733732D01*
X135338213Y-120806850D01*
X135338211Y-120806852D01*
X135338210Y-120806852D01*
X135207381Y-120937681D01*
X135207381Y-120937682D01*
X135207379Y-120937684D01*
X135167060Y-120993178D01*
X135098622Y-121087374D01*
X135014620Y-121252235D01*
X135014619Y-121252238D01*
X134957445Y-121428205D01*
X134957445Y-121428207D01*
X134928500Y-121610957D01*
X133280000Y-121610957D01*
X133280000Y-118210957D01*
X134928500Y-118210957D01*
X134928500Y-118395984D01*
X134957445Y-118578736D01*
X135014619Y-118754703D01*
X135014620Y-118754706D01*
X135090166Y-118902971D01*
X135098622Y-118919567D01*
X135207379Y-119069258D01*
X135338213Y-119200092D01*
X135487904Y-119308849D01*
X135568763Y-119350048D01*
X135652764Y-119392850D01*
X135652767Y-119392851D01*
X135740750Y-119421438D01*
X135828736Y-119450026D01*
X136011486Y-119478971D01*
X136011487Y-119478971D01*
X136196513Y-119478971D01*
X136196514Y-119478971D01*
X136379264Y-119450026D01*
X136555235Y-119392850D01*
X136720096Y-119308849D01*
X136869787Y-119200092D01*
X137000621Y-119069258D01*
X137109378Y-118919567D01*
X137193379Y-118754706D01*
X137250555Y-118578735D01*
X137279500Y-118395985D01*
X137279500Y-118210957D01*
X137250555Y-118028207D01*
X137193379Y-117852236D01*
X137193379Y-117852235D01*
X137109377Y-117687374D01*
X137000621Y-117537684D01*
X136869787Y-117406850D01*
X136720096Y-117298093D01*
X136555235Y-117214091D01*
X136555232Y-117214090D01*
X136379265Y-117156916D01*
X136287889Y-117142443D01*
X136196514Y-117127971D01*
X136011486Y-117127971D01*
X135950569Y-117137619D01*
X135828734Y-117156916D01*
X135652767Y-117214090D01*
X135652764Y-117214091D01*
X135487903Y-117298093D01*
X135402499Y-117360143D01*
X135338213Y-117406850D01*
X135338211Y-117406852D01*
X135338210Y-117406852D01*
X135207381Y-117537681D01*
X135207381Y-117537682D01*
X135207379Y-117537684D01*
X135160672Y-117601970D01*
X135098622Y-117687374D01*
X135014620Y-117852235D01*
X135014619Y-117852238D01*
X134957445Y-118028205D01*
X134928500Y-118210957D01*
X133280000Y-118210957D01*
X133280000Y-114810957D01*
X134928500Y-114810957D01*
X134928500Y-114995984D01*
X134957445Y-115178736D01*
X135014619Y-115354703D01*
X135014620Y-115354706D01*
X135098622Y-115519567D01*
X135207379Y-115669258D01*
X135338213Y-115800092D01*
X135487904Y-115908849D01*
X135568763Y-115950048D01*
X135652764Y-115992850D01*
X135652767Y-115992851D01*
X135740750Y-116021438D01*
X135828736Y-116050026D01*
X136011486Y-116078971D01*
X136011487Y-116078971D01*
X136196513Y-116078971D01*
X136196514Y-116078971D01*
X136379264Y-116050026D01*
X136555235Y-115992850D01*
X136720096Y-115908849D01*
X136869787Y-115800092D01*
X137000621Y-115669258D01*
X137109378Y-115519567D01*
X137193379Y-115354706D01*
X137250555Y-115178735D01*
X137279500Y-114995985D01*
X137279500Y-114810957D01*
X137250555Y-114628207D01*
X137193379Y-114452236D01*
X137193379Y-114452235D01*
X137109377Y-114287374D01*
X137000621Y-114137684D01*
X136869787Y-114006850D01*
X136720096Y-113898093D01*
X136555235Y-113814091D01*
X136555232Y-113814090D01*
X136379265Y-113756916D01*
X136287889Y-113742443D01*
X136196514Y-113727971D01*
X136011486Y-113727971D01*
X135950569Y-113737619D01*
X135828734Y-113756916D01*
X135652767Y-113814090D01*
X135652764Y-113814091D01*
X135487903Y-113898093D01*
X135402499Y-113960143D01*
X135338213Y-114006850D01*
X135338211Y-114006852D01*
X135338210Y-114006852D01*
X135207381Y-114137681D01*
X135207381Y-114137682D01*
X135207379Y-114137684D01*
X135160672Y-114201970D01*
X135098622Y-114287374D01*
X135014620Y-114452235D01*
X135014619Y-114452238D01*
X134957445Y-114628205D01*
X134928500Y-114810957D01*
X133280000Y-114810957D01*
X133280000Y-113438833D01*
X133299685Y-113371794D01*
X133316319Y-113351152D01*
X134897663Y-111769808D01*
X136836000Y-109831471D01*
X136836000Y-95658833D01*
X136855685Y-95591794D01*
X136872319Y-95571152D01*
X138831681Y-93611790D01*
X138893004Y-93578305D01*
X138919362Y-93575471D01*
X146358907Y-93575471D01*
X146425946Y-93595156D01*
X146471701Y-93647960D01*
X146482907Y-93699471D01*
X146482907Y-120136951D01*
X146463222Y-120203990D01*
X146446588Y-120224632D01*
X146204567Y-120466652D01*
X146143244Y-120500137D01*
X146116886Y-120502971D01*
X145735537Y-120502971D01*
X145735530Y-120502972D01*
X145675923Y-120509379D01*
X145541078Y-120559673D01*
X145541071Y-120559677D01*
X145418762Y-120651239D01*
X145416967Y-120648841D01*
X145368811Y-120675137D01*
X145342453Y-120677971D01*
X141224361Y-120677971D01*
X141157322Y-120658286D01*
X141148249Y-120650975D01*
X141148052Y-120651239D01*
X141025742Y-120559677D01*
X141025735Y-120559673D01*
X140890889Y-120509379D01*
X140890890Y-120509379D01*
X140831290Y-120502972D01*
X140831288Y-120502971D01*
X140831280Y-120502971D01*
X140831272Y-120502971D01*
X140098168Y-120502971D01*
X140031129Y-120483286D01*
X139985374Y-120430482D01*
X139975430Y-120361324D01*
X139995067Y-120310079D01*
X140013389Y-120282658D01*
X140013390Y-120282655D01*
X140013394Y-120282650D01*
X140073737Y-120136968D01*
X140104500Y-119982313D01*
X140104500Y-119824629D01*
X140104500Y-119824626D01*
X140104499Y-119824624D01*
X140073737Y-119669974D01*
X140054955Y-119624629D01*
X140013397Y-119524298D01*
X140013390Y-119524285D01*
X139925789Y-119393182D01*
X139925786Y-119393178D01*
X139814292Y-119281684D01*
X139814288Y-119281681D01*
X139683185Y-119194080D01*
X139683172Y-119194073D01*
X139537501Y-119133735D01*
X139537489Y-119133732D01*
X139382845Y-119102971D01*
X139382842Y-119102971D01*
X139225158Y-119102971D01*
X139225155Y-119102971D01*
X139070510Y-119133732D01*
X139070498Y-119133735D01*
X138924827Y-119194073D01*
X138924814Y-119194080D01*
X138793711Y-119281681D01*
X138793707Y-119281684D01*
X138682213Y-119393178D01*
X138682210Y-119393182D01*
X138594609Y-119524285D01*
X138594602Y-119524298D01*
X138534264Y-119669969D01*
X138534261Y-119669981D01*
X138503500Y-119824624D01*
X138503500Y-119982317D01*
X138534261Y-120136960D01*
X138534264Y-120136972D01*
X138594602Y-120282643D01*
X138594609Y-120282656D01*
X138682602Y-120414345D01*
X138703480Y-120481022D01*
X138703500Y-120483236D01*
X138703500Y-120616801D01*
X138703499Y-120616819D01*
X138703499Y-120782525D01*
X138703498Y-120782525D01*
X138710016Y-120806850D01*
X138744423Y-120935256D01*
X138756165Y-120955594D01*
X138773358Y-120985371D01*
X138773359Y-120985375D01*
X138773360Y-120985375D01*
X138810113Y-121049035D01*
X138823479Y-121072185D01*
X138823481Y-121072188D01*
X138942349Y-121191056D01*
X138942355Y-121191061D01*
X139246588Y-121495294D01*
X139280073Y-121556617D01*
X139282907Y-121582974D01*
X139282907Y-121801340D01*
X139282908Y-121801347D01*
X139289315Y-121860954D01*
X139339609Y-121995799D01*
X139339613Y-121995806D01*
X139425859Y-122111015D01*
X139425862Y-122111018D01*
X139541071Y-122197264D01*
X139541078Y-122197268D01*
X139675924Y-122247562D01*
X139675923Y-122247562D01*
X139682851Y-122248306D01*
X139735534Y-122253971D01*
X140831279Y-122253970D01*
X140890890Y-122247562D01*
X141025738Y-122197267D01*
X141140953Y-122111017D01*
X141140952Y-122111017D01*
X141148052Y-122105703D01*
X141149846Y-122108100D01*
X141198003Y-122081805D01*
X141224361Y-122078971D01*
X145342453Y-122078971D01*
X145409492Y-122098656D01*
X145418564Y-122105966D01*
X145418762Y-122105703D01*
X145541071Y-122197264D01*
X145541078Y-122197268D01*
X145675924Y-122247562D01*
X145675923Y-122247562D01*
X145682851Y-122248306D01*
X145735534Y-122253971D01*
X146831279Y-122253970D01*
X146890890Y-122247562D01*
X147025738Y-122197267D01*
X147140953Y-122111017D01*
X147227203Y-121995802D01*
X147277498Y-121860954D01*
X147283907Y-121801344D01*
X147283906Y-121419988D01*
X147303590Y-121352950D01*
X147320216Y-121332317D01*
X147391821Y-121260712D01*
X147453143Y-121227230D01*
X147522834Y-121232215D01*
X147578768Y-121274086D01*
X147603184Y-121339551D01*
X147603500Y-121348396D01*
X147603500Y-122878155D01*
X147594061Y-122925607D01*
X147534264Y-123069969D01*
X147534261Y-123069981D01*
X147503500Y-123224624D01*
X147503500Y-123382317D01*
X147534261Y-123536960D01*
X147534264Y-123536972D01*
X147594602Y-123682643D01*
X147594609Y-123682656D01*
X147682210Y-123813759D01*
X147682213Y-123813763D01*
X147793707Y-123925257D01*
X147793711Y-123925260D01*
X147924814Y-124012861D01*
X147924827Y-124012868D01*
X148070498Y-124073206D01*
X148070503Y-124073208D01*
X148225153Y-124103970D01*
X148225156Y-124103971D01*
X148225158Y-124103971D01*
X148382844Y-124103971D01*
X148382845Y-124103970D01*
X148537497Y-124073208D01*
X148683179Y-124012865D01*
X148814289Y-123925260D01*
X148814292Y-123925257D01*
X148876869Y-123862681D01*
X148938192Y-123829196D01*
X149007884Y-123834180D01*
X149063817Y-123876052D01*
X149088234Y-123941516D01*
X149088550Y-123950362D01*
X149088550Y-127093808D01*
X149068865Y-127160847D01*
X149052231Y-127181489D01*
X147285892Y-128947827D01*
X147224569Y-128981312D01*
X147154877Y-128976328D01*
X147098944Y-128934456D01*
X147076593Y-128884334D01*
X147073737Y-128869976D01*
X147073737Y-128869974D01*
X147073735Y-128869969D01*
X147013397Y-128724298D01*
X147013390Y-128724285D01*
X146925789Y-128593182D01*
X146925786Y-128593178D01*
X146814292Y-128481684D01*
X146814288Y-128481681D01*
X146683185Y-128394080D01*
X146683172Y-128394073D01*
X146537501Y-128333735D01*
X146537489Y-128333732D01*
X146382845Y-128302971D01*
X146382842Y-128302971D01*
X146225158Y-128302971D01*
X146225155Y-128302971D01*
X146070510Y-128333732D01*
X146070498Y-128333735D01*
X145924827Y-128394073D01*
X145924814Y-128394080D01*
X145793711Y-128481681D01*
X145793707Y-128481684D01*
X145682213Y-128593178D01*
X145682210Y-128593182D01*
X145594609Y-128724285D01*
X145594602Y-128724298D01*
X145534264Y-128869969D01*
X145534261Y-128869981D01*
X145503500Y-129024624D01*
X145503500Y-129182317D01*
X145534261Y-129336960D01*
X145534264Y-129336972D01*
X145594602Y-129482643D01*
X145594609Y-129482656D01*
X145682210Y-129613759D01*
X145682213Y-129613763D01*
X145793707Y-129725257D01*
X145793711Y-129725260D01*
X145924814Y-129812861D01*
X145924821Y-129812865D01*
X145958729Y-129826910D01*
X146013132Y-129870749D01*
X146035198Y-129937043D01*
X146017920Y-130004743D01*
X145966783Y-130052354D01*
X145911278Y-130065471D01*
X145735537Y-130065471D01*
X145735530Y-130065472D01*
X145675923Y-130071879D01*
X145541078Y-130122173D01*
X145541071Y-130122177D01*
X145425862Y-130208423D01*
X145425859Y-130208426D01*
X145339613Y-130323635D01*
X145339609Y-130323642D01*
X145289315Y-130458488D01*
X145282908Y-130518087D01*
X145282907Y-130518106D01*
X145282907Y-131363841D01*
X145282908Y-131363847D01*
X145289315Y-131423454D01*
X145339609Y-131558299D01*
X145339613Y-131558306D01*
X145425859Y-131673515D01*
X145425862Y-131673518D01*
X145541071Y-131759764D01*
X145541078Y-131759768D01*
X145675924Y-131810062D01*
X145675923Y-131810062D01*
X145682851Y-131810806D01*
X145735534Y-131816471D01*
X146831279Y-131816470D01*
X146890890Y-131810062D01*
X147025738Y-131759767D01*
X147140953Y-131673517D01*
X147227203Y-131558302D01*
X147277498Y-131423454D01*
X147283907Y-131363844D01*
X147283906Y-130982487D01*
X147303590Y-130915449D01*
X147320220Y-130894812D01*
X147696926Y-130518106D01*
X150657907Y-130518106D01*
X150657907Y-131363841D01*
X150657908Y-131363847D01*
X150664315Y-131423454D01*
X150714609Y-131558299D01*
X150714613Y-131558306D01*
X150800859Y-131673515D01*
X150800862Y-131673518D01*
X150916071Y-131759764D01*
X150916078Y-131759768D01*
X151050924Y-131810062D01*
X151050923Y-131810062D01*
X151057851Y-131810806D01*
X151110534Y-131816471D01*
X152206279Y-131816470D01*
X152265890Y-131810062D01*
X152400738Y-131759767D01*
X152515953Y-131673517D01*
X152577606Y-131591159D01*
X152633539Y-131549289D01*
X152676872Y-131541471D01*
X152779831Y-131541471D01*
X152779847Y-131541472D01*
X152787443Y-131541472D01*
X152945554Y-131541472D01*
X152945557Y-131541472D01*
X153098285Y-131500548D01*
X153148404Y-131471610D01*
X153235216Y-131421491D01*
X153324005Y-131332701D01*
X153329943Y-131328057D01*
X153355680Y-131317829D01*
X153379984Y-131304559D01*
X153382152Y-131304108D01*
X153382841Y-131303971D01*
X153382842Y-131303971D01*
X153537497Y-131273208D01*
X153683179Y-131212865D01*
X153814289Y-131125260D01*
X153925789Y-131013760D01*
X154013394Y-130882650D01*
X154073737Y-130736968D01*
X154104500Y-130582313D01*
X154104500Y-130424629D01*
X154104500Y-130424626D01*
X154104499Y-130424624D01*
X154084734Y-130325260D01*
X154073737Y-130269974D01*
X154026382Y-130155648D01*
X154013397Y-130124298D01*
X154013390Y-130124285D01*
X153925789Y-129993182D01*
X153925786Y-129993178D01*
X153814292Y-129881684D01*
X153814288Y-129881681D01*
X153683185Y-129794080D01*
X153683172Y-129794073D01*
X153537501Y-129733735D01*
X153537489Y-129733732D01*
X153382845Y-129702971D01*
X153382842Y-129702971D01*
X153225158Y-129702971D01*
X153225155Y-129702971D01*
X153070510Y-129733732D01*
X153070498Y-129733735D01*
X152924827Y-129794073D01*
X152924814Y-129794080D01*
X152793711Y-129881681D01*
X152793707Y-129881684D01*
X152682213Y-129993178D01*
X152682210Y-129993182D01*
X152603591Y-130110843D01*
X152549978Y-130155648D01*
X152480653Y-130164355D01*
X152426179Y-130141219D01*
X152400742Y-130122177D01*
X152400735Y-130122173D01*
X152265889Y-130071879D01*
X152265890Y-130071879D01*
X152206290Y-130065472D01*
X152206288Y-130065471D01*
X152206280Y-130065471D01*
X152206271Y-130065471D01*
X151110536Y-130065471D01*
X151110530Y-130065472D01*
X151050923Y-130071879D01*
X150916078Y-130122173D01*
X150916071Y-130122177D01*
X150800862Y-130208423D01*
X150800859Y-130208426D01*
X150714613Y-130323635D01*
X150714609Y-130323642D01*
X150664315Y-130458488D01*
X150657908Y-130518087D01*
X150657907Y-130518106D01*
X147696926Y-130518106D01*
X150333164Y-127881871D01*
X150409825Y-127767139D01*
X150462630Y-127639657D01*
X150469155Y-127606852D01*
X150469927Y-127602973D01*
X150469927Y-127602971D01*
X150489550Y-127504321D01*
X150489550Y-122067716D01*
X150509235Y-122000677D01*
X150562039Y-121954922D01*
X150631197Y-121944978D01*
X150694753Y-121974003D01*
X150712817Y-121993405D01*
X150714610Y-121995800D01*
X150714611Y-121995802D01*
X150800861Y-122111017D01*
X150847050Y-122145594D01*
X150916071Y-122197264D01*
X150916078Y-122197268D01*
X151050924Y-122247562D01*
X151050923Y-122247562D01*
X151057851Y-122248306D01*
X151110534Y-122253971D01*
X152206279Y-122253970D01*
X152265890Y-122247562D01*
X152400738Y-122197267D01*
X152515953Y-122111017D01*
X152577606Y-122028659D01*
X152633539Y-121986789D01*
X152676872Y-121978971D01*
X156639942Y-121978971D01*
X156706981Y-121998656D01*
X156739207Y-122028658D01*
X156800861Y-122111017D01*
X156847050Y-122145594D01*
X156916071Y-122197264D01*
X156916078Y-122197268D01*
X157050924Y-122247562D01*
X157050923Y-122247562D01*
X157057851Y-122248306D01*
X157110534Y-122253971D01*
X158206279Y-122253970D01*
X158265890Y-122247562D01*
X158400738Y-122197267D01*
X158515953Y-122111017D01*
X158602203Y-121995802D01*
X158652498Y-121860954D01*
X158658907Y-121801344D01*
X158658906Y-121424624D01*
X160303500Y-121424624D01*
X160303500Y-121582317D01*
X160334261Y-121736960D01*
X160334264Y-121736972D01*
X160394602Y-121882643D01*
X160394609Y-121882656D01*
X160482210Y-122013759D01*
X160482213Y-122013763D01*
X160593707Y-122125257D01*
X160593711Y-122125260D01*
X160724814Y-122212861D01*
X160724827Y-122212868D01*
X160824060Y-122253971D01*
X160870503Y-122273208D01*
X161025153Y-122303970D01*
X161025156Y-122303971D01*
X161025158Y-122303971D01*
X161182844Y-122303971D01*
X161182845Y-122303970D01*
X161337497Y-122273208D01*
X161412963Y-122241949D01*
X161481864Y-122213410D01*
X161529316Y-122203971D01*
X162261678Y-122203971D01*
X162305011Y-122211789D01*
X162400924Y-122247562D01*
X162400923Y-122247562D01*
X162407851Y-122248306D01*
X162460534Y-122253971D01*
X163556279Y-122253970D01*
X163615890Y-122247562D01*
X163750738Y-122197267D01*
X163865953Y-122111017D01*
X163952203Y-121995802D01*
X164002498Y-121860954D01*
X164008907Y-121801344D01*
X164008906Y-120955599D01*
X164002498Y-120895988D01*
X163997162Y-120881682D01*
X163952204Y-120761142D01*
X163952200Y-120761135D01*
X163865954Y-120645926D01*
X163865951Y-120645923D01*
X163750742Y-120559677D01*
X163750735Y-120559673D01*
X163615889Y-120509379D01*
X163615890Y-120509379D01*
X163556290Y-120502972D01*
X163556288Y-120502971D01*
X163556280Y-120502971D01*
X163556271Y-120502971D01*
X162460536Y-120502971D01*
X162460530Y-120502972D01*
X162400923Y-120509379D01*
X162266078Y-120559673D01*
X162266071Y-120559677D01*
X162150863Y-120645923D01*
X162150862Y-120645924D01*
X162150861Y-120645925D01*
X162070494Y-120753282D01*
X162014560Y-120795153D01*
X161971227Y-120802971D01*
X161529316Y-120802971D01*
X161481864Y-120793532D01*
X161337501Y-120733735D01*
X161337489Y-120733732D01*
X161182845Y-120702971D01*
X161182842Y-120702971D01*
X161025158Y-120702971D01*
X161025155Y-120702971D01*
X160870510Y-120733732D01*
X160870498Y-120733735D01*
X160724827Y-120794073D01*
X160724814Y-120794080D01*
X160593711Y-120881681D01*
X160593707Y-120881684D01*
X160482213Y-120993178D01*
X160482210Y-120993182D01*
X160394609Y-121124285D01*
X160394602Y-121124298D01*
X160334264Y-121269969D01*
X160334261Y-121269981D01*
X160303500Y-121424624D01*
X158658906Y-121424624D01*
X158658906Y-121368628D01*
X158658906Y-120955600D01*
X158658905Y-120955594D01*
X158652498Y-120895987D01*
X158602204Y-120761142D01*
X158602200Y-120761135D01*
X158515954Y-120645926D01*
X158515951Y-120645923D01*
X158400742Y-120559677D01*
X158400735Y-120559673D01*
X158265889Y-120509379D01*
X158265890Y-120509379D01*
X158206290Y-120502972D01*
X158206288Y-120502971D01*
X158206280Y-120502971D01*
X158206272Y-120502971D01*
X157824926Y-120502971D01*
X157757887Y-120483286D01*
X157737245Y-120466652D01*
X157495226Y-120224633D01*
X157461741Y-120163310D01*
X157458907Y-120136952D01*
X157458907Y-112815470D01*
X157478592Y-112748431D01*
X157531396Y-112702676D01*
X157582907Y-112691470D01*
X158206278Y-112691470D01*
X158206279Y-112691470D01*
X158265890Y-112685062D01*
X158400738Y-112634767D01*
X158515953Y-112548517D01*
X158602203Y-112433302D01*
X158652498Y-112298454D01*
X158658907Y-112238844D01*
X158658906Y-111857488D01*
X158678590Y-111790450D01*
X158695220Y-111769813D01*
X159312803Y-111152230D01*
X159353027Y-111125353D01*
X159383179Y-111112865D01*
X159514289Y-111025260D01*
X159625789Y-110913760D01*
X159713394Y-110782650D01*
X159725882Y-110752498D01*
X159752759Y-110712274D01*
X166791821Y-103673213D01*
X166853142Y-103639730D01*
X166922834Y-103644714D01*
X166978767Y-103686586D01*
X167003184Y-103752050D01*
X167003500Y-103760896D01*
X167003500Y-120553858D01*
X166983815Y-120620897D01*
X166967181Y-120641539D01*
X157675376Y-129933343D01*
X157614053Y-129966828D01*
X157544361Y-129961844D01*
X157500016Y-129933344D01*
X157108496Y-129541825D01*
X157108495Y-129541823D01*
X156989624Y-129422952D01*
X156989623Y-129422951D01*
X156902811Y-129372831D01*
X156902811Y-129372830D01*
X156902807Y-129372829D01*
X156852692Y-129343894D01*
X156699964Y-129302970D01*
X156699961Y-129302970D01*
X156683764Y-129302970D01*
X156616725Y-129283285D01*
X156614873Y-129282072D01*
X156483185Y-129194080D01*
X156483172Y-129194073D01*
X156337501Y-129133735D01*
X156337489Y-129133732D01*
X156182845Y-129102971D01*
X156182842Y-129102971D01*
X156025158Y-129102971D01*
X156025155Y-129102971D01*
X155870510Y-129133732D01*
X155870498Y-129133735D01*
X155724827Y-129194073D01*
X155724814Y-129194080D01*
X155593711Y-129281681D01*
X155593707Y-129281684D01*
X155482213Y-129393178D01*
X155482210Y-129393182D01*
X155394609Y-129524285D01*
X155394602Y-129524298D01*
X155334264Y-129669969D01*
X155334261Y-129669981D01*
X155303500Y-129824624D01*
X155303500Y-129982317D01*
X155334261Y-130136960D01*
X155334264Y-130136972D01*
X155394602Y-130282643D01*
X155394609Y-130282656D01*
X155482210Y-130413759D01*
X155482213Y-130413763D01*
X155593707Y-130525257D01*
X155593711Y-130525260D01*
X155724814Y-130612861D01*
X155724827Y-130612868D01*
X155870498Y-130673206D01*
X155870503Y-130673208D01*
X156025153Y-130703970D01*
X156025156Y-130703971D01*
X156025158Y-130703971D01*
X156182844Y-130703971D01*
X156182845Y-130703970D01*
X156337497Y-130673208D01*
X156405137Y-130645189D01*
X156474606Y-130637721D01*
X156537085Y-130668996D01*
X156540271Y-130672070D01*
X156621588Y-130753387D01*
X156655073Y-130814710D01*
X156657907Y-130841068D01*
X156657907Y-131363841D01*
X156657908Y-131363847D01*
X156664315Y-131423454D01*
X156714609Y-131558299D01*
X156714613Y-131558306D01*
X156800859Y-131673515D01*
X156800862Y-131673518D01*
X156916071Y-131759764D01*
X156916078Y-131759768D01*
X157050924Y-131810062D01*
X157050923Y-131810062D01*
X157057851Y-131810806D01*
X157110534Y-131816471D01*
X158206279Y-131816470D01*
X158265890Y-131810062D01*
X158400738Y-131759767D01*
X158515953Y-131673517D01*
X158602203Y-131558302D01*
X158652498Y-131423454D01*
X158658907Y-131363844D01*
X158658906Y-130982488D01*
X158678590Y-130915450D01*
X158695220Y-130894813D01*
X167803362Y-121786671D01*
X167864683Y-121753188D01*
X167934375Y-121758172D01*
X167990308Y-121800044D01*
X168011409Y-121853668D01*
X168012531Y-121853403D01*
X168014314Y-121860950D01*
X168064609Y-121995799D01*
X168064613Y-121995806D01*
X168150859Y-122111015D01*
X168150860Y-122111015D01*
X168150861Y-122111017D01*
X168204520Y-122151186D01*
X168272785Y-122202290D01*
X168314655Y-122258224D01*
X168319639Y-122327916D01*
X168286160Y-122389232D01*
X168282211Y-122393180D01*
X168282210Y-122393182D01*
X168194609Y-122524285D01*
X168194602Y-122524298D01*
X168134264Y-122669969D01*
X168134261Y-122669981D01*
X168103500Y-122824624D01*
X168103500Y-122982317D01*
X168134261Y-123136960D01*
X168134264Y-123136972D01*
X168194602Y-123282643D01*
X168194609Y-123282656D01*
X168282210Y-123413759D01*
X168282213Y-123413763D01*
X168393707Y-123525257D01*
X168393711Y-123525260D01*
X168524814Y-123612861D01*
X168524827Y-123612868D01*
X168670498Y-123673206D01*
X168670503Y-123673208D01*
X168825153Y-123703970D01*
X168825156Y-123703971D01*
X168825158Y-123703971D01*
X168982844Y-123703971D01*
X168982845Y-123703970D01*
X169137497Y-123673208D01*
X169283179Y-123612865D01*
X169414289Y-123525260D01*
X169525789Y-123413760D01*
X169613394Y-123282650D01*
X169673193Y-123138279D01*
X169700066Y-123098060D01*
X169848113Y-122950014D01*
X169924774Y-122835283D01*
X169924775Y-122835282D01*
X169977580Y-122707799D01*
X169986389Y-122663512D01*
X170004500Y-122572466D01*
X170004500Y-121848976D01*
X170005211Y-121835720D01*
X170008906Y-121801352D01*
X170008907Y-121801344D01*
X170008906Y-120955599D01*
X170002498Y-120895988D01*
X169997162Y-120881682D01*
X169952204Y-120761142D01*
X169952200Y-120761135D01*
X169865954Y-120645926D01*
X169865951Y-120645923D01*
X169750742Y-120559677D01*
X169750735Y-120559673D01*
X169615889Y-120509379D01*
X169615890Y-120509379D01*
X169556290Y-120502972D01*
X169556288Y-120502971D01*
X169556280Y-120502971D01*
X169556272Y-120502971D01*
X168528500Y-120502971D01*
X168461461Y-120483286D01*
X168415706Y-120430482D01*
X168404500Y-120378971D01*
X168404500Y-93699471D01*
X168424185Y-93632432D01*
X168476989Y-93586677D01*
X168528500Y-93575471D01*
X168554250Y-93575471D01*
X168840000Y-93289721D01*
X168840000Y-92483833D01*
X168859685Y-92416794D01*
X168876319Y-92396152D01*
X169184681Y-92087790D01*
X169246004Y-92054305D01*
X169272362Y-92051471D01*
X173074888Y-92051471D01*
X173141927Y-92071156D01*
G37*
%TD.AperFunction*%
%TA.AperFunction,Conductor*%
G36*
X155979307Y-110884961D02*
G01*
X156034485Y-110927824D01*
X156057729Y-110993714D01*
X156057907Y-111000351D01*
X156057907Y-120547469D01*
X156074280Y-120629780D01*
X156068053Y-120699371D01*
X156025190Y-120754548D01*
X155959300Y-120777793D01*
X155952663Y-120777971D01*
X152676872Y-120777971D01*
X152609833Y-120758286D01*
X152577605Y-120728281D01*
X152550060Y-120691485D01*
X152525643Y-120626021D01*
X152540495Y-120557748D01*
X152589900Y-120508343D01*
X152625135Y-120495558D01*
X152737497Y-120473208D01*
X152883179Y-120412865D01*
X153014289Y-120325260D01*
X153125789Y-120213760D01*
X153213394Y-120082650D01*
X153273737Y-119936968D01*
X153304500Y-119782313D01*
X153304500Y-119624629D01*
X153304500Y-119624626D01*
X153304499Y-119624624D01*
X153284543Y-119524298D01*
X153273737Y-119469974D01*
X153241929Y-119393182D01*
X153213397Y-119324298D01*
X153213390Y-119324285D01*
X153125789Y-119193182D01*
X153125786Y-119193178D01*
X153014292Y-119081684D01*
X153014288Y-119081681D01*
X152883185Y-118994080D01*
X152883172Y-118994073D01*
X152737501Y-118933735D01*
X152737489Y-118933732D01*
X152582845Y-118902971D01*
X152582842Y-118902971D01*
X152425158Y-118902971D01*
X152425155Y-118902971D01*
X152270510Y-118933732D01*
X152270498Y-118933735D01*
X152124827Y-118994073D01*
X152124814Y-118994080D01*
X151993711Y-119081681D01*
X151993707Y-119081684D01*
X151882213Y-119193178D01*
X151882210Y-119193182D01*
X151794609Y-119324285D01*
X151794602Y-119324298D01*
X151734264Y-119469969D01*
X151734261Y-119469979D01*
X151703361Y-119625321D01*
X151670976Y-119687232D01*
X151669425Y-119688810D01*
X151177888Y-120180346D01*
X151177886Y-120180348D01*
X151160597Y-120210294D01*
X151153290Y-120222952D01*
X151098830Y-120317279D01*
X151073217Y-120412868D01*
X151063506Y-120449109D01*
X151027140Y-120508769D01*
X150987065Y-120533197D01*
X150916077Y-120559674D01*
X150916071Y-120559677D01*
X150800862Y-120645923D01*
X150712816Y-120763537D01*
X150656882Y-120805407D01*
X150587190Y-120810391D01*
X150525868Y-120776905D01*
X150492383Y-120715582D01*
X150489550Y-120689225D01*
X150489550Y-112505216D01*
X150509235Y-112438177D01*
X150562039Y-112392422D01*
X150631197Y-112382478D01*
X150694753Y-112411503D01*
X150712817Y-112430905D01*
X150714610Y-112433300D01*
X150714611Y-112433302D01*
X150800861Y-112548517D01*
X150847050Y-112583094D01*
X150916071Y-112634764D01*
X150916078Y-112634768D01*
X151050924Y-112685062D01*
X151050923Y-112685062D01*
X151057851Y-112685806D01*
X151110534Y-112691471D01*
X152206279Y-112691470D01*
X152265890Y-112685062D01*
X152400738Y-112634767D01*
X152515953Y-112548517D01*
X152577606Y-112466159D01*
X152633539Y-112424289D01*
X152676872Y-112416471D01*
X153904831Y-112416471D01*
X153904847Y-112416472D01*
X153912443Y-112416472D01*
X154070554Y-112416472D01*
X154070557Y-112416472D01*
X154223285Y-112375548D01*
X154280659Y-112342423D01*
X154280660Y-112342423D01*
X154360209Y-112296495D01*
X154360208Y-112296495D01*
X154360216Y-112296491D01*
X154472020Y-112184687D01*
X154472020Y-112184685D01*
X154482224Y-112174482D01*
X154482227Y-112174477D01*
X155718664Y-110938042D01*
X155779985Y-110904559D01*
X155782152Y-110904108D01*
X155782841Y-110903971D01*
X155782842Y-110903971D01*
X155909716Y-110878734D01*
X155979307Y-110884961D01*
G37*
%TD.AperFunction*%
%TA.AperFunction,Conductor*%
G36*
X164946539Y-93595156D02*
G01*
X164992294Y-93647960D01*
X165003500Y-93699471D01*
X165003500Y-101753858D01*
X164983815Y-101820897D01*
X164967181Y-101841539D01*
X156714927Y-110093792D01*
X156653604Y-110127277D01*
X156583912Y-110122293D01*
X156527979Y-110080421D01*
X156505629Y-110030302D01*
X156475912Y-109880908D01*
X156473737Y-109869974D01*
X156457788Y-109831470D01*
X156413397Y-109724298D01*
X156413390Y-109724285D01*
X156325789Y-109593182D01*
X156325786Y-109593178D01*
X156214292Y-109481684D01*
X156214288Y-109481681D01*
X156083185Y-109394080D01*
X156083172Y-109394073D01*
X155937501Y-109333735D01*
X155937489Y-109333732D01*
X155782845Y-109302971D01*
X155782842Y-109302971D01*
X155625158Y-109302971D01*
X155625155Y-109302971D01*
X155470510Y-109333732D01*
X155470498Y-109333735D01*
X155324827Y-109394073D01*
X155324814Y-109394080D01*
X155193711Y-109481681D01*
X155193707Y-109481684D01*
X155082213Y-109593178D01*
X155082210Y-109593182D01*
X154994609Y-109724285D01*
X154994602Y-109724298D01*
X154934264Y-109869969D01*
X154934261Y-109869979D01*
X154903362Y-110025319D01*
X154870977Y-110087230D01*
X154869426Y-110088808D01*
X153779084Y-111179152D01*
X153717761Y-111212637D01*
X153691403Y-111215471D01*
X152676872Y-111215471D01*
X152609833Y-111195786D01*
X152577605Y-111165782D01*
X152568098Y-111153082D01*
X152515953Y-111083425D01*
X152438255Y-111025260D01*
X152400742Y-110997177D01*
X152400735Y-110997173D01*
X152265889Y-110946879D01*
X152265890Y-110946879D01*
X152206290Y-110940472D01*
X152206288Y-110940471D01*
X152206280Y-110940471D01*
X152206271Y-110940471D01*
X151110536Y-110940471D01*
X151110530Y-110940472D01*
X151050923Y-110946879D01*
X150916078Y-110997173D01*
X150916071Y-110997177D01*
X150800862Y-111083423D01*
X150712816Y-111201037D01*
X150656882Y-111242907D01*
X150587190Y-111247891D01*
X150525868Y-111214405D01*
X150492383Y-111153082D01*
X150489550Y-111126725D01*
X150489550Y-100345850D01*
X150509235Y-100278811D01*
X150562039Y-100233056D01*
X150631197Y-100223112D01*
X150644489Y-100226203D01*
X150644552Y-100225944D01*
X150649278Y-100227078D01*
X150649287Y-100227081D01*
X150722424Y-100238664D01*
X150844314Y-100257971D01*
X150844319Y-100257971D01*
X151041786Y-100257971D01*
X151236813Y-100227081D01*
X151249028Y-100223112D01*
X151424611Y-100166062D01*
X151600551Y-100076415D01*
X151690242Y-100011250D01*
X151760296Y-99960355D01*
X151760298Y-99960352D01*
X151760302Y-99960350D01*
X151899929Y-99820723D01*
X151899931Y-99820719D01*
X151899934Y-99820717D01*
X152015991Y-99660976D01*
X152015992Y-99660975D01*
X152015994Y-99660972D01*
X152102567Y-99491064D01*
X152150540Y-99440271D01*
X152218361Y-99423476D01*
X152284496Y-99446013D01*
X152323532Y-99491064D01*
X152406854Y-99654590D01*
X152410108Y-99660976D01*
X152526165Y-99820717D01*
X152665803Y-99960355D01*
X152815284Y-100068957D01*
X152825549Y-100076415D01*
X153001489Y-100166062D01*
X153126687Y-100206741D01*
X153189286Y-100227081D01*
X153384314Y-100257971D01*
X153384319Y-100257971D01*
X153581786Y-100257971D01*
X153776813Y-100227081D01*
X153789028Y-100223112D01*
X153964611Y-100166062D01*
X154140551Y-100076415D01*
X154230242Y-100011250D01*
X154300296Y-99960355D01*
X154300298Y-99960352D01*
X154300302Y-99960350D01*
X154439929Y-99820723D01*
X154439931Y-99820719D01*
X154439934Y-99820717D01*
X154555991Y-99660976D01*
X154555992Y-99660975D01*
X154555994Y-99660972D01*
X154642567Y-99491064D01*
X154690540Y-99440271D01*
X154758361Y-99423476D01*
X154824496Y-99446013D01*
X154863532Y-99491064D01*
X154946854Y-99654590D01*
X154950108Y-99660976D01*
X155066165Y-99820717D01*
X155205803Y-99960355D01*
X155355284Y-100068957D01*
X155365549Y-100076415D01*
X155541489Y-100166062D01*
X155666687Y-100206741D01*
X155729286Y-100227081D01*
X155924314Y-100257971D01*
X155924319Y-100257971D01*
X156121786Y-100257971D01*
X156316813Y-100227081D01*
X156329028Y-100223112D01*
X156504611Y-100166062D01*
X156680551Y-100076415D01*
X156770242Y-100011250D01*
X156840296Y-99960355D01*
X156840298Y-99960352D01*
X156840302Y-99960350D01*
X156979929Y-99820723D01*
X156979931Y-99820719D01*
X156979934Y-99820717D01*
X157030829Y-99750663D01*
X157095994Y-99660972D01*
X157185641Y-99485032D01*
X157246660Y-99297234D01*
X157277550Y-99102207D01*
X157277550Y-98904734D01*
X157246660Y-98709707D01*
X157198318Y-98560927D01*
X157185641Y-98521910D01*
X157095994Y-98345970D01*
X157088536Y-98335705D01*
X156979934Y-98186224D01*
X156840296Y-98046586D01*
X156680554Y-97930529D01*
X156680553Y-97930528D01*
X156680551Y-97930527D01*
X156504611Y-97840880D01*
X156504608Y-97840879D01*
X156316813Y-97779860D01*
X156121786Y-97748971D01*
X156121781Y-97748971D01*
X155924319Y-97748971D01*
X155924314Y-97748971D01*
X155729286Y-97779860D01*
X155541491Y-97840879D01*
X155365545Y-97930529D01*
X155205803Y-98046586D01*
X155066165Y-98186224D01*
X154950108Y-98345966D01*
X154863535Y-98515874D01*
X154815560Y-98566670D01*
X154747739Y-98583465D01*
X154681604Y-98560927D01*
X154642565Y-98515874D01*
X154555994Y-98345970D01*
X154548536Y-98335705D01*
X154439934Y-98186224D01*
X154300300Y-98046590D01*
X154300295Y-98046586D01*
X154234665Y-97998903D01*
X154191999Y-97943573D01*
X154183550Y-97898585D01*
X154183550Y-93699471D01*
X154203235Y-93632432D01*
X154256039Y-93586677D01*
X154307550Y-93575471D01*
X164879500Y-93575471D01*
X164946539Y-93595156D01*
G37*
%TD.AperFunction*%
%TD*%
M02*
