%TF.GenerationSoftware,KiCad,Pcbnew,10.0.5*%
%TF.CreationDate,2026-08-08T19:23:41+03:00*%
%TF.ProjectId,ESP32C5 Cold Wallet,45535033-3243-4352-9043-6f6c64205761,V1B*%
%TF.SameCoordinates,Original*%
%TF.FileFunction,Legend,Bot*%
%TF.FilePolarity,Positive*%
%FSLAX46Y46*%
G04 Gerber Fmt 4.6, Leading zero omitted, Abs format (unit mm)*
G04 Created by KiCad (PCBNEW 10.0.5) date 2026-08-08 19:23:41*
%MOMM*%
%LPD*%
G01*
G04 APERTURE LIST*
%ADD10C,0.100000*%
%ADD11C,0.150000*%
%ADD12C,0.120000*%
G04 APERTURE END LIST*
D10*
X168895353Y-73975890D02*
X168276306Y-73975890D01*
X168276306Y-73975890D02*
X168609639Y-74356842D01*
X168609639Y-74356842D02*
X168466782Y-74356842D01*
X168466782Y-74356842D02*
X168371544Y-74404461D01*
X168371544Y-74404461D02*
X168323925Y-74452080D01*
X168323925Y-74452080D02*
X168276306Y-74547318D01*
X168276306Y-74547318D02*
X168276306Y-74785413D01*
X168276306Y-74785413D02*
X168323925Y-74880651D01*
X168323925Y-74880651D02*
X168371544Y-74928271D01*
X168371544Y-74928271D02*
X168466782Y-74975890D01*
X168466782Y-74975890D02*
X168752496Y-74975890D01*
X168752496Y-74975890D02*
X168847734Y-74928271D01*
X168847734Y-74928271D02*
X168895353Y-74880651D01*
X167990591Y-73975890D02*
X167657258Y-74975890D01*
X167657258Y-74975890D02*
X167323925Y-73975890D01*
X166990591Y-74594937D02*
X166228687Y-74594937D01*
X166609639Y-74975890D02*
X166609639Y-74213985D01*
X168276306Y-76023509D02*
X168371544Y-75975890D01*
X168371544Y-75975890D02*
X168514401Y-75975890D01*
X168514401Y-75975890D02*
X168657258Y-76023509D01*
X168657258Y-76023509D02*
X168752496Y-76118747D01*
X168752496Y-76118747D02*
X168800115Y-76213985D01*
X168800115Y-76213985D02*
X168847734Y-76404461D01*
X168847734Y-76404461D02*
X168847734Y-76547318D01*
X168847734Y-76547318D02*
X168800115Y-76737794D01*
X168800115Y-76737794D02*
X168752496Y-76833032D01*
X168752496Y-76833032D02*
X168657258Y-76928271D01*
X168657258Y-76928271D02*
X168514401Y-76975890D01*
X168514401Y-76975890D02*
X168419163Y-76975890D01*
X168419163Y-76975890D02*
X168276306Y-76928271D01*
X168276306Y-76928271D02*
X168228687Y-76880651D01*
X168228687Y-76880651D02*
X168228687Y-76547318D01*
X168228687Y-76547318D02*
X168419163Y-76547318D01*
X167800115Y-76975890D02*
X167800115Y-75975890D01*
X167800115Y-75975890D02*
X167228687Y-76975890D01*
X167228687Y-76975890D02*
X167228687Y-75975890D01*
X166752496Y-76975890D02*
X166752496Y-75975890D01*
X166752496Y-75975890D02*
X166514401Y-75975890D01*
X166514401Y-75975890D02*
X166371544Y-76023509D01*
X166371544Y-76023509D02*
X166276306Y-76118747D01*
X166276306Y-76118747D02*
X166228687Y-76213985D01*
X166228687Y-76213985D02*
X166181068Y-76404461D01*
X166181068Y-76404461D02*
X166181068Y-76547318D01*
X166181068Y-76547318D02*
X166228687Y-76737794D01*
X166228687Y-76737794D02*
X166276306Y-76833032D01*
X166276306Y-76833032D02*
X166371544Y-76928271D01*
X166371544Y-76928271D02*
X166514401Y-76975890D01*
X166514401Y-76975890D02*
X166752496Y-76975890D01*
X170431580Y-93199586D02*
X171098247Y-93199586D01*
X171003009Y-93199586D02*
X171050628Y-93151967D01*
X171050628Y-93151967D02*
X171098247Y-93056729D01*
X171098247Y-93056729D02*
X171098247Y-92913872D01*
X171098247Y-92913872D02*
X171050628Y-92818634D01*
X171050628Y-92818634D02*
X170955390Y-92771015D01*
X170955390Y-92771015D02*
X170431580Y-92771015D01*
X170955390Y-92771015D02*
X171050628Y-92723396D01*
X171050628Y-92723396D02*
X171098247Y-92628158D01*
X171098247Y-92628158D02*
X171098247Y-92485301D01*
X171098247Y-92485301D02*
X171050628Y-92390062D01*
X171050628Y-92390062D02*
X170955390Y-92342443D01*
X170955390Y-92342443D02*
X170431580Y-92342443D01*
X171098247Y-91437682D02*
X170431580Y-91437682D01*
X171098247Y-91866253D02*
X170574438Y-91866253D01*
X170574438Y-91866253D02*
X170479200Y-91818634D01*
X170479200Y-91818634D02*
X170431580Y-91723396D01*
X170431580Y-91723396D02*
X170431580Y-91580539D01*
X170431580Y-91580539D02*
X170479200Y-91485301D01*
X170479200Y-91485301D02*
X170526819Y-91437682D01*
X170431580Y-90961491D02*
X171098247Y-90961491D01*
X170907771Y-90961491D02*
X171003009Y-90913872D01*
X171003009Y-90913872D02*
X171050628Y-90866253D01*
X171050628Y-90866253D02*
X171098247Y-90771015D01*
X171098247Y-90771015D02*
X171098247Y-90675777D01*
X171098247Y-89913872D02*
X170431580Y-89913872D01*
X171098247Y-90342443D02*
X170574438Y-90342443D01*
X170574438Y-90342443D02*
X170479200Y-90294824D01*
X170479200Y-90294824D02*
X170431580Y-90199586D01*
X170431580Y-90199586D02*
X170431580Y-90056729D01*
X170431580Y-90056729D02*
X170479200Y-89961491D01*
X170479200Y-89961491D02*
X170526819Y-89913872D01*
X170526819Y-89437681D02*
X170479200Y-89390062D01*
X170479200Y-89390062D02*
X170431580Y-89437681D01*
X170431580Y-89437681D02*
X170479200Y-89485300D01*
X170479200Y-89485300D02*
X170526819Y-89437681D01*
X170526819Y-89437681D02*
X170431580Y-89437681D01*
X171098247Y-88532920D02*
X170288723Y-88532920D01*
X170288723Y-88532920D02*
X170193485Y-88580539D01*
X170193485Y-88580539D02*
X170145866Y-88628158D01*
X170145866Y-88628158D02*
X170098247Y-88723396D01*
X170098247Y-88723396D02*
X170098247Y-88866253D01*
X170098247Y-88866253D02*
X170145866Y-88961491D01*
X170479200Y-88532920D02*
X170431580Y-88628158D01*
X170431580Y-88628158D02*
X170431580Y-88818634D01*
X170431580Y-88818634D02*
X170479200Y-88913872D01*
X170479200Y-88913872D02*
X170526819Y-88961491D01*
X170526819Y-88961491D02*
X170622057Y-89009110D01*
X170622057Y-89009110D02*
X170907771Y-89009110D01*
X170907771Y-89009110D02*
X171003009Y-88961491D01*
X171003009Y-88961491D02*
X171050628Y-88913872D01*
X171050628Y-88913872D02*
X171098247Y-88818634D01*
X171098247Y-88818634D02*
X171098247Y-88628158D01*
X171098247Y-88628158D02*
X171050628Y-88532920D01*
X170431580Y-87913872D02*
X170479200Y-88009110D01*
X170479200Y-88009110D02*
X170574438Y-88056729D01*
X170574438Y-88056729D02*
X171431580Y-88056729D01*
X170431580Y-87390062D02*
X170479200Y-87485300D01*
X170479200Y-87485300D02*
X170526819Y-87532919D01*
X170526819Y-87532919D02*
X170622057Y-87580538D01*
X170622057Y-87580538D02*
X170907771Y-87580538D01*
X170907771Y-87580538D02*
X171003009Y-87532919D01*
X171003009Y-87532919D02*
X171050628Y-87485300D01*
X171050628Y-87485300D02*
X171098247Y-87390062D01*
X171098247Y-87390062D02*
X171098247Y-87247205D01*
X171098247Y-87247205D02*
X171050628Y-87151967D01*
X171050628Y-87151967D02*
X171003009Y-87104348D01*
X171003009Y-87104348D02*
X170907771Y-87056729D01*
X170907771Y-87056729D02*
X170622057Y-87056729D01*
X170622057Y-87056729D02*
X170526819Y-87104348D01*
X170526819Y-87104348D02*
X170479200Y-87151967D01*
X170479200Y-87151967D02*
X170431580Y-87247205D01*
X170431580Y-87247205D02*
X170431580Y-87390062D01*
X170431580Y-86628157D02*
X171431580Y-86628157D01*
X171050628Y-86628157D02*
X171098247Y-86532919D01*
X171098247Y-86532919D02*
X171098247Y-86342443D01*
X171098247Y-86342443D02*
X171050628Y-86247205D01*
X171050628Y-86247205D02*
X171003009Y-86199586D01*
X171003009Y-86199586D02*
X170907771Y-86151967D01*
X170907771Y-86151967D02*
X170622057Y-86151967D01*
X170622057Y-86151967D02*
X170526819Y-86199586D01*
X170526819Y-86199586D02*
X170479200Y-86247205D01*
X170479200Y-86247205D02*
X170431580Y-86342443D01*
X170431580Y-86342443D02*
X170431580Y-86532919D01*
X170431580Y-86532919D02*
X170479200Y-86628157D01*
X170431580Y-85294824D02*
X170955390Y-85294824D01*
X170955390Y-85294824D02*
X171050628Y-85342443D01*
X171050628Y-85342443D02*
X171098247Y-85437681D01*
X171098247Y-85437681D02*
X171098247Y-85628157D01*
X171098247Y-85628157D02*
X171050628Y-85723395D01*
X170479200Y-85294824D02*
X170431580Y-85390062D01*
X170431580Y-85390062D02*
X170431580Y-85628157D01*
X170431580Y-85628157D02*
X170479200Y-85723395D01*
X170479200Y-85723395D02*
X170574438Y-85771014D01*
X170574438Y-85771014D02*
X170669676Y-85771014D01*
X170669676Y-85771014D02*
X170764914Y-85723395D01*
X170764914Y-85723395D02*
X170812533Y-85628157D01*
X170812533Y-85628157D02*
X170812533Y-85390062D01*
X170812533Y-85390062D02*
X170860152Y-85294824D01*
X170431580Y-84675776D02*
X170479200Y-84771014D01*
X170479200Y-84771014D02*
X170574438Y-84818633D01*
X170574438Y-84818633D02*
X171431580Y-84818633D01*
X173431580Y-116818640D02*
X173431580Y-116247212D01*
X172431580Y-116532926D02*
X173431580Y-116532926D01*
X172431580Y-115913878D02*
X173431580Y-115913878D01*
X172431580Y-115485307D02*
X172955390Y-115485307D01*
X172955390Y-115485307D02*
X173050628Y-115532926D01*
X173050628Y-115532926D02*
X173098247Y-115628164D01*
X173098247Y-115628164D02*
X173098247Y-115771021D01*
X173098247Y-115771021D02*
X173050628Y-115866259D01*
X173050628Y-115866259D02*
X173003009Y-115913878D01*
X172479200Y-114628164D02*
X172431580Y-114723402D01*
X172431580Y-114723402D02*
X172431580Y-114913878D01*
X172431580Y-114913878D02*
X172479200Y-115009116D01*
X172479200Y-115009116D02*
X172574438Y-115056735D01*
X172574438Y-115056735D02*
X172955390Y-115056735D01*
X172955390Y-115056735D02*
X173050628Y-115009116D01*
X173050628Y-115009116D02*
X173098247Y-114913878D01*
X173098247Y-114913878D02*
X173098247Y-114723402D01*
X173098247Y-114723402D02*
X173050628Y-114628164D01*
X173050628Y-114628164D02*
X172955390Y-114580545D01*
X172955390Y-114580545D02*
X172860152Y-114580545D01*
X172860152Y-114580545D02*
X172764914Y-115056735D01*
X172479200Y-113437687D02*
X172431580Y-113342449D01*
X172431580Y-113342449D02*
X172431580Y-113151973D01*
X172431580Y-113151973D02*
X172479200Y-113056735D01*
X172479200Y-113056735D02*
X172574438Y-113009116D01*
X172574438Y-113009116D02*
X172622057Y-113009116D01*
X172622057Y-113009116D02*
X172717295Y-113056735D01*
X172717295Y-113056735D02*
X172764914Y-113151973D01*
X172764914Y-113151973D02*
X172764914Y-113294830D01*
X172764914Y-113294830D02*
X172812533Y-113390068D01*
X172812533Y-113390068D02*
X172907771Y-113437687D01*
X172907771Y-113437687D02*
X172955390Y-113437687D01*
X172955390Y-113437687D02*
X173050628Y-113390068D01*
X173050628Y-113390068D02*
X173098247Y-113294830D01*
X173098247Y-113294830D02*
X173098247Y-113151973D01*
X173098247Y-113151973D02*
X173050628Y-113056735D01*
X172431580Y-112580544D02*
X173431580Y-112580544D01*
X172431580Y-112151973D02*
X172955390Y-112151973D01*
X172955390Y-112151973D02*
X173050628Y-112199592D01*
X173050628Y-112199592D02*
X173098247Y-112294830D01*
X173098247Y-112294830D02*
X173098247Y-112437687D01*
X173098247Y-112437687D02*
X173050628Y-112532925D01*
X173050628Y-112532925D02*
X173003009Y-112580544D01*
X172431580Y-111532925D02*
X172479200Y-111628163D01*
X172479200Y-111628163D02*
X172526819Y-111675782D01*
X172526819Y-111675782D02*
X172622057Y-111723401D01*
X172622057Y-111723401D02*
X172907771Y-111723401D01*
X172907771Y-111723401D02*
X173003009Y-111675782D01*
X173003009Y-111675782D02*
X173050628Y-111628163D01*
X173050628Y-111628163D02*
X173098247Y-111532925D01*
X173098247Y-111532925D02*
X173098247Y-111390068D01*
X173098247Y-111390068D02*
X173050628Y-111294830D01*
X173050628Y-111294830D02*
X173003009Y-111247211D01*
X173003009Y-111247211D02*
X172907771Y-111199592D01*
X172907771Y-111199592D02*
X172622057Y-111199592D01*
X172622057Y-111199592D02*
X172526819Y-111247211D01*
X172526819Y-111247211D02*
X172479200Y-111294830D01*
X172479200Y-111294830D02*
X172431580Y-111390068D01*
X172431580Y-111390068D02*
X172431580Y-111532925D01*
X172431580Y-110771020D02*
X173098247Y-110771020D01*
X172907771Y-110771020D02*
X173003009Y-110723401D01*
X173003009Y-110723401D02*
X173050628Y-110675782D01*
X173050628Y-110675782D02*
X173098247Y-110580544D01*
X173098247Y-110580544D02*
X173098247Y-110485306D01*
X173098247Y-110294829D02*
X173098247Y-109913877D01*
X173431580Y-110151972D02*
X172574438Y-110151972D01*
X172574438Y-110151972D02*
X172479200Y-110104353D01*
X172479200Y-110104353D02*
X172431580Y-110009115D01*
X172431580Y-110009115D02*
X172431580Y-109913877D01*
X172479200Y-109199591D02*
X172431580Y-109294829D01*
X172431580Y-109294829D02*
X172431580Y-109485305D01*
X172431580Y-109485305D02*
X172479200Y-109580543D01*
X172479200Y-109580543D02*
X172574438Y-109628162D01*
X172574438Y-109628162D02*
X172955390Y-109628162D01*
X172955390Y-109628162D02*
X173050628Y-109580543D01*
X173050628Y-109580543D02*
X173098247Y-109485305D01*
X173098247Y-109485305D02*
X173098247Y-109294829D01*
X173098247Y-109294829D02*
X173050628Y-109199591D01*
X173050628Y-109199591D02*
X172955390Y-109151972D01*
X172955390Y-109151972D02*
X172860152Y-109151972D01*
X172860152Y-109151972D02*
X172764914Y-109628162D01*
X172479200Y-108771019D02*
X172431580Y-108675781D01*
X172431580Y-108675781D02*
X172431580Y-108485305D01*
X172431580Y-108485305D02*
X172479200Y-108390067D01*
X172479200Y-108390067D02*
X172574438Y-108342448D01*
X172574438Y-108342448D02*
X172622057Y-108342448D01*
X172622057Y-108342448D02*
X172717295Y-108390067D01*
X172717295Y-108390067D02*
X172764914Y-108485305D01*
X172764914Y-108485305D02*
X172764914Y-108628162D01*
X172764914Y-108628162D02*
X172812533Y-108723400D01*
X172812533Y-108723400D02*
X172907771Y-108771019D01*
X172907771Y-108771019D02*
X172955390Y-108771019D01*
X172955390Y-108771019D02*
X173050628Y-108723400D01*
X173050628Y-108723400D02*
X173098247Y-108628162D01*
X173098247Y-108628162D02*
X173098247Y-108485305D01*
X173098247Y-108485305D02*
X173050628Y-108390067D01*
X173098247Y-108056733D02*
X173098247Y-107675781D01*
X173431580Y-107913876D02*
X172574438Y-107913876D01*
X172574438Y-107913876D02*
X172479200Y-107866257D01*
X172479200Y-107866257D02*
X172431580Y-107771019D01*
X172431580Y-107771019D02*
X172431580Y-107675781D01*
X173098247Y-106675780D02*
X172431580Y-106485304D01*
X172431580Y-106485304D02*
X172907771Y-106294828D01*
X172907771Y-106294828D02*
X172431580Y-106104352D01*
X172431580Y-106104352D02*
X173098247Y-105913876D01*
X172431580Y-105390066D02*
X172479200Y-105485304D01*
X172479200Y-105485304D02*
X172526819Y-105532923D01*
X172526819Y-105532923D02*
X172622057Y-105580542D01*
X172622057Y-105580542D02*
X172907771Y-105580542D01*
X172907771Y-105580542D02*
X173003009Y-105532923D01*
X173003009Y-105532923D02*
X173050628Y-105485304D01*
X173050628Y-105485304D02*
X173098247Y-105390066D01*
X173098247Y-105390066D02*
X173098247Y-105247209D01*
X173098247Y-105247209D02*
X173050628Y-105151971D01*
X173050628Y-105151971D02*
X173003009Y-105104352D01*
X173003009Y-105104352D02*
X172907771Y-105056733D01*
X172907771Y-105056733D02*
X172622057Y-105056733D01*
X172622057Y-105056733D02*
X172526819Y-105104352D01*
X172526819Y-105104352D02*
X172479200Y-105151971D01*
X172479200Y-105151971D02*
X172431580Y-105247209D01*
X172431580Y-105247209D02*
X172431580Y-105390066D01*
X172431580Y-104628161D02*
X173098247Y-104628161D01*
X172907771Y-104628161D02*
X173003009Y-104580542D01*
X173003009Y-104580542D02*
X173050628Y-104532923D01*
X173050628Y-104532923D02*
X173098247Y-104437685D01*
X173098247Y-104437685D02*
X173098247Y-104342447D01*
X172431580Y-104009113D02*
X173098247Y-104009113D01*
X173003009Y-104009113D02*
X173050628Y-103961494D01*
X173050628Y-103961494D02*
X173098247Y-103866256D01*
X173098247Y-103866256D02*
X173098247Y-103723399D01*
X173098247Y-103723399D02*
X173050628Y-103628161D01*
X173050628Y-103628161D02*
X172955390Y-103580542D01*
X172955390Y-103580542D02*
X172431580Y-103580542D01*
X172955390Y-103580542D02*
X173050628Y-103532923D01*
X173050628Y-103532923D02*
X173098247Y-103437685D01*
X173098247Y-103437685D02*
X173098247Y-103294828D01*
X173098247Y-103294828D02*
X173050628Y-103199589D01*
X173050628Y-103199589D02*
X172955390Y-103151970D01*
X172955390Y-103151970D02*
X172431580Y-103151970D01*
X172479200Y-101961494D02*
X172431580Y-101866256D01*
X172431580Y-101866256D02*
X172431580Y-101675780D01*
X172431580Y-101675780D02*
X172479200Y-101580542D01*
X172479200Y-101580542D02*
X172574438Y-101532923D01*
X172574438Y-101532923D02*
X172622057Y-101532923D01*
X172622057Y-101532923D02*
X172717295Y-101580542D01*
X172717295Y-101580542D02*
X172764914Y-101675780D01*
X172764914Y-101675780D02*
X172764914Y-101818637D01*
X172764914Y-101818637D02*
X172812533Y-101913875D01*
X172812533Y-101913875D02*
X172907771Y-101961494D01*
X172907771Y-101961494D02*
X172955390Y-101961494D01*
X172955390Y-101961494D02*
X173050628Y-101913875D01*
X173050628Y-101913875D02*
X173098247Y-101818637D01*
X173098247Y-101818637D02*
X173098247Y-101675780D01*
X173098247Y-101675780D02*
X173050628Y-101580542D01*
X172479200Y-100723399D02*
X172431580Y-100818637D01*
X172431580Y-100818637D02*
X172431580Y-101009113D01*
X172431580Y-101009113D02*
X172479200Y-101104351D01*
X172479200Y-101104351D02*
X172574438Y-101151970D01*
X172574438Y-101151970D02*
X172955390Y-101151970D01*
X172955390Y-101151970D02*
X173050628Y-101104351D01*
X173050628Y-101104351D02*
X173098247Y-101009113D01*
X173098247Y-101009113D02*
X173098247Y-100818637D01*
X173098247Y-100818637D02*
X173050628Y-100723399D01*
X173050628Y-100723399D02*
X172955390Y-100675780D01*
X172955390Y-100675780D02*
X172860152Y-100675780D01*
X172860152Y-100675780D02*
X172764914Y-101151970D01*
X172479200Y-99866256D02*
X172431580Y-99961494D01*
X172431580Y-99961494D02*
X172431580Y-100151970D01*
X172431580Y-100151970D02*
X172479200Y-100247208D01*
X172479200Y-100247208D02*
X172574438Y-100294827D01*
X172574438Y-100294827D02*
X172955390Y-100294827D01*
X172955390Y-100294827D02*
X173050628Y-100247208D01*
X173050628Y-100247208D02*
X173098247Y-100151970D01*
X173098247Y-100151970D02*
X173098247Y-99961494D01*
X173098247Y-99961494D02*
X173050628Y-99866256D01*
X173050628Y-99866256D02*
X172955390Y-99818637D01*
X172955390Y-99818637D02*
X172860152Y-99818637D01*
X172860152Y-99818637D02*
X172764914Y-100294827D01*
X172479200Y-99437684D02*
X172431580Y-99342446D01*
X172431580Y-99342446D02*
X172431580Y-99151970D01*
X172431580Y-99151970D02*
X172479200Y-99056732D01*
X172479200Y-99056732D02*
X172574438Y-99009113D01*
X172574438Y-99009113D02*
X172622057Y-99009113D01*
X172622057Y-99009113D02*
X172717295Y-99056732D01*
X172717295Y-99056732D02*
X172764914Y-99151970D01*
X172764914Y-99151970D02*
X172764914Y-99294827D01*
X172764914Y-99294827D02*
X172812533Y-99390065D01*
X172812533Y-99390065D02*
X172907771Y-99437684D01*
X172907771Y-99437684D02*
X172955390Y-99437684D01*
X172955390Y-99437684D02*
X173050628Y-99390065D01*
X173050628Y-99390065D02*
X173098247Y-99294827D01*
X173098247Y-99294827D02*
X173098247Y-99151970D01*
X173098247Y-99151970D02*
X173050628Y-99056732D01*
X173098247Y-97961493D02*
X173098247Y-97580541D01*
X173431580Y-97818636D02*
X172574438Y-97818636D01*
X172574438Y-97818636D02*
X172479200Y-97771017D01*
X172479200Y-97771017D02*
X172431580Y-97675779D01*
X172431580Y-97675779D02*
X172431580Y-97580541D01*
X172431580Y-97247207D02*
X173431580Y-97247207D01*
X172431580Y-96818636D02*
X172955390Y-96818636D01*
X172955390Y-96818636D02*
X173050628Y-96866255D01*
X173050628Y-96866255D02*
X173098247Y-96961493D01*
X173098247Y-96961493D02*
X173098247Y-97104350D01*
X173098247Y-97104350D02*
X173050628Y-97199588D01*
X173050628Y-97199588D02*
X173003009Y-97247207D01*
X172479200Y-95961493D02*
X172431580Y-96056731D01*
X172431580Y-96056731D02*
X172431580Y-96247207D01*
X172431580Y-96247207D02*
X172479200Y-96342445D01*
X172479200Y-96342445D02*
X172574438Y-96390064D01*
X172574438Y-96390064D02*
X172955390Y-96390064D01*
X172955390Y-96390064D02*
X173050628Y-96342445D01*
X173050628Y-96342445D02*
X173098247Y-96247207D01*
X173098247Y-96247207D02*
X173098247Y-96056731D01*
X173098247Y-96056731D02*
X173050628Y-95961493D01*
X173050628Y-95961493D02*
X172955390Y-95913874D01*
X172955390Y-95913874D02*
X172860152Y-95913874D01*
X172860152Y-95913874D02*
X172764914Y-96390064D01*
X172431580Y-94580540D02*
X172479200Y-94675778D01*
X172479200Y-94675778D02*
X172574438Y-94723397D01*
X172574438Y-94723397D02*
X173431580Y-94723397D01*
X172479200Y-93818635D02*
X172431580Y-93913873D01*
X172431580Y-93913873D02*
X172431580Y-94104349D01*
X172431580Y-94104349D02*
X172479200Y-94199587D01*
X172479200Y-94199587D02*
X172574438Y-94247206D01*
X172574438Y-94247206D02*
X172955390Y-94247206D01*
X172955390Y-94247206D02*
X173050628Y-94199587D01*
X173050628Y-94199587D02*
X173098247Y-94104349D01*
X173098247Y-94104349D02*
X173098247Y-93913873D01*
X173098247Y-93913873D02*
X173050628Y-93818635D01*
X173050628Y-93818635D02*
X172955390Y-93771016D01*
X172955390Y-93771016D02*
X172860152Y-93771016D01*
X172860152Y-93771016D02*
X172764914Y-94247206D01*
X172431580Y-92913873D02*
X172955390Y-92913873D01*
X172955390Y-92913873D02*
X173050628Y-92961492D01*
X173050628Y-92961492D02*
X173098247Y-93056730D01*
X173098247Y-93056730D02*
X173098247Y-93247206D01*
X173098247Y-93247206D02*
X173050628Y-93342444D01*
X172479200Y-92913873D02*
X172431580Y-93009111D01*
X172431580Y-93009111D02*
X172431580Y-93247206D01*
X172431580Y-93247206D02*
X172479200Y-93342444D01*
X172479200Y-93342444D02*
X172574438Y-93390063D01*
X172574438Y-93390063D02*
X172669676Y-93390063D01*
X172669676Y-93390063D02*
X172764914Y-93342444D01*
X172764914Y-93342444D02*
X172812533Y-93247206D01*
X172812533Y-93247206D02*
X172812533Y-93009111D01*
X172812533Y-93009111D02*
X172860152Y-92913873D01*
X172479200Y-92485301D02*
X172431580Y-92390063D01*
X172431580Y-92390063D02*
X172431580Y-92199587D01*
X172431580Y-92199587D02*
X172479200Y-92104349D01*
X172479200Y-92104349D02*
X172574438Y-92056730D01*
X172574438Y-92056730D02*
X172622057Y-92056730D01*
X172622057Y-92056730D02*
X172717295Y-92104349D01*
X172717295Y-92104349D02*
X172764914Y-92199587D01*
X172764914Y-92199587D02*
X172764914Y-92342444D01*
X172764914Y-92342444D02*
X172812533Y-92437682D01*
X172812533Y-92437682D02*
X172907771Y-92485301D01*
X172907771Y-92485301D02*
X172955390Y-92485301D01*
X172955390Y-92485301D02*
X173050628Y-92437682D01*
X173050628Y-92437682D02*
X173098247Y-92342444D01*
X173098247Y-92342444D02*
X173098247Y-92199587D01*
X173098247Y-92199587D02*
X173050628Y-92104349D01*
X173098247Y-91771015D02*
X173098247Y-91390063D01*
X173431580Y-91628158D02*
X172574438Y-91628158D01*
X172574438Y-91628158D02*
X172479200Y-91580539D01*
X172479200Y-91580539D02*
X172431580Y-91485301D01*
X172431580Y-91485301D02*
X172431580Y-91390063D01*
X172479200Y-90342443D02*
X172431580Y-90247205D01*
X172431580Y-90247205D02*
X172431580Y-90056729D01*
X172431580Y-90056729D02*
X172479200Y-89961491D01*
X172479200Y-89961491D02*
X172574438Y-89913872D01*
X172574438Y-89913872D02*
X172622057Y-89913872D01*
X172622057Y-89913872D02*
X172717295Y-89961491D01*
X172717295Y-89961491D02*
X172764914Y-90056729D01*
X172764914Y-90056729D02*
X172764914Y-90199586D01*
X172764914Y-90199586D02*
X172812533Y-90294824D01*
X172812533Y-90294824D02*
X172907771Y-90342443D01*
X172907771Y-90342443D02*
X172955390Y-90342443D01*
X172955390Y-90342443D02*
X173050628Y-90294824D01*
X173050628Y-90294824D02*
X173098247Y-90199586D01*
X173098247Y-90199586D02*
X173098247Y-90056729D01*
X173098247Y-90056729D02*
X173050628Y-89961491D01*
X173098247Y-89056729D02*
X172431580Y-89056729D01*
X173098247Y-89485300D02*
X172574438Y-89485300D01*
X172574438Y-89485300D02*
X172479200Y-89437681D01*
X172479200Y-89437681D02*
X172431580Y-89342443D01*
X172431580Y-89342443D02*
X172431580Y-89199586D01*
X172431580Y-89199586D02*
X172479200Y-89104348D01*
X172479200Y-89104348D02*
X172526819Y-89056729D01*
X173098247Y-88580538D02*
X172431580Y-88580538D01*
X173003009Y-88580538D02*
X173050628Y-88532919D01*
X173050628Y-88532919D02*
X173098247Y-88437681D01*
X173098247Y-88437681D02*
X173098247Y-88294824D01*
X173098247Y-88294824D02*
X173050628Y-88199586D01*
X173050628Y-88199586D02*
X172955390Y-88151967D01*
X172955390Y-88151967D02*
X172431580Y-88151967D01*
X172431580Y-87532919D02*
X172479200Y-87628157D01*
X172479200Y-87628157D02*
X172574438Y-87675776D01*
X172574438Y-87675776D02*
X173431580Y-87675776D01*
X172431580Y-87151966D02*
X173098247Y-87151966D01*
X173431580Y-87151966D02*
X173383961Y-87199585D01*
X173383961Y-87199585D02*
X173336342Y-87151966D01*
X173336342Y-87151966D02*
X173383961Y-87104347D01*
X173383961Y-87104347D02*
X173431580Y-87151966D01*
X173431580Y-87151966D02*
X173336342Y-87151966D01*
X173098247Y-86247205D02*
X172288723Y-86247205D01*
X172288723Y-86247205D02*
X172193485Y-86294824D01*
X172193485Y-86294824D02*
X172145866Y-86342443D01*
X172145866Y-86342443D02*
X172098247Y-86437681D01*
X172098247Y-86437681D02*
X172098247Y-86580538D01*
X172098247Y-86580538D02*
X172145866Y-86675776D01*
X172479200Y-86247205D02*
X172431580Y-86342443D01*
X172431580Y-86342443D02*
X172431580Y-86532919D01*
X172431580Y-86532919D02*
X172479200Y-86628157D01*
X172479200Y-86628157D02*
X172526819Y-86675776D01*
X172526819Y-86675776D02*
X172622057Y-86723395D01*
X172622057Y-86723395D02*
X172907771Y-86723395D01*
X172907771Y-86723395D02*
X173003009Y-86675776D01*
X173003009Y-86675776D02*
X173050628Y-86628157D01*
X173050628Y-86628157D02*
X173098247Y-86532919D01*
X173098247Y-86532919D02*
X173098247Y-86342443D01*
X173098247Y-86342443D02*
X173050628Y-86247205D01*
X172431580Y-85771014D02*
X173431580Y-85771014D01*
X172431580Y-85342443D02*
X172955390Y-85342443D01*
X172955390Y-85342443D02*
X173050628Y-85390062D01*
X173050628Y-85390062D02*
X173098247Y-85485300D01*
X173098247Y-85485300D02*
X173098247Y-85628157D01*
X173098247Y-85628157D02*
X173050628Y-85723395D01*
X173050628Y-85723395D02*
X173003009Y-85771014D01*
X173098247Y-85009109D02*
X173098247Y-84628157D01*
X173431580Y-84866252D02*
X172574438Y-84866252D01*
X172574438Y-84866252D02*
X172479200Y-84818633D01*
X172479200Y-84818633D02*
X172431580Y-84723395D01*
X172431580Y-84723395D02*
X172431580Y-84628157D01*
D11*
X156539358Y-128072790D02*
X156539358Y-127072790D01*
X156539358Y-127072790D02*
X156301263Y-127072790D01*
X156301263Y-127072790D02*
X156158406Y-127120409D01*
X156158406Y-127120409D02*
X156063168Y-127215647D01*
X156063168Y-127215647D02*
X156015549Y-127310885D01*
X156015549Y-127310885D02*
X155967930Y-127501361D01*
X155967930Y-127501361D02*
X155967930Y-127644218D01*
X155967930Y-127644218D02*
X156015549Y-127834694D01*
X156015549Y-127834694D02*
X156063168Y-127929932D01*
X156063168Y-127929932D02*
X156158406Y-128025171D01*
X156158406Y-128025171D02*
X156301263Y-128072790D01*
X156301263Y-128072790D02*
X156539358Y-128072790D01*
X155348882Y-127072790D02*
X155158406Y-127072790D01*
X155158406Y-127072790D02*
X155063168Y-127120409D01*
X155063168Y-127120409D02*
X154967930Y-127215647D01*
X154967930Y-127215647D02*
X154920311Y-127406123D01*
X154920311Y-127406123D02*
X154920311Y-127739456D01*
X154920311Y-127739456D02*
X154967930Y-127929932D01*
X154967930Y-127929932D02*
X155063168Y-128025171D01*
X155063168Y-128025171D02*
X155158406Y-128072790D01*
X155158406Y-128072790D02*
X155348882Y-128072790D01*
X155348882Y-128072790D02*
X155444120Y-128025171D01*
X155444120Y-128025171D02*
X155539358Y-127929932D01*
X155539358Y-127929932D02*
X155586977Y-127739456D01*
X155586977Y-127739456D02*
X155586977Y-127406123D01*
X155586977Y-127406123D02*
X155539358Y-127215647D01*
X155539358Y-127215647D02*
X155444120Y-127120409D01*
X155444120Y-127120409D02*
X155348882Y-127072790D01*
X154586977Y-127072790D02*
X154348882Y-128072790D01*
X154348882Y-128072790D02*
X154158406Y-127358504D01*
X154158406Y-127358504D02*
X153967930Y-128072790D01*
X153967930Y-128072790D02*
X153729835Y-127072790D01*
X153348882Y-128072790D02*
X153348882Y-127072790D01*
X153348882Y-127072790D02*
X152777454Y-128072790D01*
X152777454Y-128072790D02*
X152777454Y-127072790D01*
X167341740Y-118510290D02*
X167675073Y-118034099D01*
X167913168Y-118510290D02*
X167913168Y-117510290D01*
X167913168Y-117510290D02*
X167532216Y-117510290D01*
X167532216Y-117510290D02*
X167436978Y-117557909D01*
X167436978Y-117557909D02*
X167389359Y-117605528D01*
X167389359Y-117605528D02*
X167341740Y-117700766D01*
X167341740Y-117700766D02*
X167341740Y-117843623D01*
X167341740Y-117843623D02*
X167389359Y-117938861D01*
X167389359Y-117938861D02*
X167436978Y-117986480D01*
X167436978Y-117986480D02*
X167532216Y-118034099D01*
X167532216Y-118034099D02*
X167913168Y-118034099D01*
X166913168Y-118510290D02*
X166913168Y-117510290D01*
X165913169Y-117557909D02*
X166008407Y-117510290D01*
X166008407Y-117510290D02*
X166151264Y-117510290D01*
X166151264Y-117510290D02*
X166294121Y-117557909D01*
X166294121Y-117557909D02*
X166389359Y-117653147D01*
X166389359Y-117653147D02*
X166436978Y-117748385D01*
X166436978Y-117748385D02*
X166484597Y-117938861D01*
X166484597Y-117938861D02*
X166484597Y-118081718D01*
X166484597Y-118081718D02*
X166436978Y-118272194D01*
X166436978Y-118272194D02*
X166389359Y-118367432D01*
X166389359Y-118367432D02*
X166294121Y-118462671D01*
X166294121Y-118462671D02*
X166151264Y-118510290D01*
X166151264Y-118510290D02*
X166056026Y-118510290D01*
X166056026Y-118510290D02*
X165913169Y-118462671D01*
X165913169Y-118462671D02*
X165865550Y-118415051D01*
X165865550Y-118415051D02*
X165865550Y-118081718D01*
X165865550Y-118081718D02*
X166056026Y-118081718D01*
X165436978Y-118510290D02*
X165436978Y-117510290D01*
X165436978Y-117986480D02*
X164865550Y-117986480D01*
X164865550Y-118510290D02*
X164865550Y-117510290D01*
X164532216Y-117510290D02*
X163960788Y-117510290D01*
X164246502Y-118510290D02*
X164246502Y-117510290D01*
X155444120Y-107947790D02*
X155444120Y-108757313D01*
X155444120Y-108757313D02*
X155396501Y-108852551D01*
X155396501Y-108852551D02*
X155348882Y-108900171D01*
X155348882Y-108900171D02*
X155253644Y-108947790D01*
X155253644Y-108947790D02*
X155063168Y-108947790D01*
X155063168Y-108947790D02*
X154967930Y-108900171D01*
X154967930Y-108900171D02*
X154920311Y-108852551D01*
X154920311Y-108852551D02*
X154872692Y-108757313D01*
X154872692Y-108757313D02*
X154872692Y-107947790D01*
X154396501Y-108947790D02*
X154396501Y-107947790D01*
X154396501Y-107947790D02*
X154015549Y-107947790D01*
X154015549Y-107947790D02*
X153920311Y-107995409D01*
X153920311Y-107995409D02*
X153872692Y-108043028D01*
X153872692Y-108043028D02*
X153825073Y-108138266D01*
X153825073Y-108138266D02*
X153825073Y-108281123D01*
X153825073Y-108281123D02*
X153872692Y-108376361D01*
X153872692Y-108376361D02*
X153920311Y-108423980D01*
X153920311Y-108423980D02*
X154015549Y-108471599D01*
X154015549Y-108471599D02*
X154396501Y-108471599D01*
X149226285Y-102618671D02*
X149083428Y-102666290D01*
X149083428Y-102666290D02*
X148845333Y-102666290D01*
X148845333Y-102666290D02*
X148750095Y-102618671D01*
X148750095Y-102618671D02*
X148702476Y-102571051D01*
X148702476Y-102571051D02*
X148654857Y-102475813D01*
X148654857Y-102475813D02*
X148654857Y-102380575D01*
X148654857Y-102380575D02*
X148702476Y-102285337D01*
X148702476Y-102285337D02*
X148750095Y-102237718D01*
X148750095Y-102237718D02*
X148845333Y-102190099D01*
X148845333Y-102190099D02*
X149035809Y-102142480D01*
X149035809Y-102142480D02*
X149131047Y-102094861D01*
X149131047Y-102094861D02*
X149178666Y-102047242D01*
X149178666Y-102047242D02*
X149226285Y-101952004D01*
X149226285Y-101952004D02*
X149226285Y-101856766D01*
X149226285Y-101856766D02*
X149178666Y-101761528D01*
X149178666Y-101761528D02*
X149131047Y-101713909D01*
X149131047Y-101713909D02*
X149035809Y-101666290D01*
X149035809Y-101666290D02*
X148797714Y-101666290D01*
X148797714Y-101666290D02*
X148654857Y-101713909D01*
X148226285Y-102666290D02*
X148226285Y-101666290D01*
X148226285Y-101666290D02*
X147988190Y-101666290D01*
X147988190Y-101666290D02*
X147845333Y-101713909D01*
X147845333Y-101713909D02*
X147750095Y-101809147D01*
X147750095Y-101809147D02*
X147702476Y-101904385D01*
X147702476Y-101904385D02*
X147654857Y-102094861D01*
X147654857Y-102094861D02*
X147654857Y-102237718D01*
X147654857Y-102237718D02*
X147702476Y-102428194D01*
X147702476Y-102428194D02*
X147750095Y-102523432D01*
X147750095Y-102523432D02*
X147845333Y-102618671D01*
X147845333Y-102618671D02*
X147988190Y-102666290D01*
X147988190Y-102666290D02*
X148226285Y-102666290D01*
X147273904Y-102380575D02*
X146797714Y-102380575D01*
X147369142Y-102666290D02*
X147035809Y-101666290D01*
X147035809Y-101666290D02*
X146702476Y-102666290D01*
X141665904Y-94205909D02*
X141761142Y-94158290D01*
X141761142Y-94158290D02*
X141903999Y-94158290D01*
X141903999Y-94158290D02*
X142046856Y-94205909D01*
X142046856Y-94205909D02*
X142142094Y-94301147D01*
X142142094Y-94301147D02*
X142189713Y-94396385D01*
X142189713Y-94396385D02*
X142237332Y-94586861D01*
X142237332Y-94586861D02*
X142237332Y-94729718D01*
X142237332Y-94729718D02*
X142189713Y-94920194D01*
X142189713Y-94920194D02*
X142142094Y-95015432D01*
X142142094Y-95015432D02*
X142046856Y-95110671D01*
X142046856Y-95110671D02*
X141903999Y-95158290D01*
X141903999Y-95158290D02*
X141808761Y-95158290D01*
X141808761Y-95158290D02*
X141665904Y-95110671D01*
X141665904Y-95110671D02*
X141618285Y-95063051D01*
X141618285Y-95063051D02*
X141618285Y-94729718D01*
X141618285Y-94729718D02*
X141808761Y-94729718D01*
X141189713Y-95158290D02*
X141189713Y-94158290D01*
X141189713Y-94158290D02*
X140618285Y-95158290D01*
X140618285Y-95158290D02*
X140618285Y-94158290D01*
X140142094Y-95158290D02*
X140142094Y-94158290D01*
X140142094Y-94158290D02*
X139903999Y-94158290D01*
X139903999Y-94158290D02*
X139761142Y-94205909D01*
X139761142Y-94205909D02*
X139665904Y-94301147D01*
X139665904Y-94301147D02*
X139618285Y-94396385D01*
X139618285Y-94396385D02*
X139570666Y-94586861D01*
X139570666Y-94586861D02*
X139570666Y-94729718D01*
X139570666Y-94729718D02*
X139618285Y-94920194D01*
X139618285Y-94920194D02*
X139665904Y-95015432D01*
X139665904Y-95015432D02*
X139761142Y-95110671D01*
X139761142Y-95110671D02*
X139903999Y-95158290D01*
X139903999Y-95158290D02*
X140142094Y-95158290D01*
X141065904Y-90158290D02*
X140446857Y-90158290D01*
X140446857Y-90158290D02*
X140780190Y-90539242D01*
X140780190Y-90539242D02*
X140637333Y-90539242D01*
X140637333Y-90539242D02*
X140542095Y-90586861D01*
X140542095Y-90586861D02*
X140494476Y-90634480D01*
X140494476Y-90634480D02*
X140446857Y-90729718D01*
X140446857Y-90729718D02*
X140446857Y-90967813D01*
X140446857Y-90967813D02*
X140494476Y-91063051D01*
X140494476Y-91063051D02*
X140542095Y-91110671D01*
X140542095Y-91110671D02*
X140637333Y-91158290D01*
X140637333Y-91158290D02*
X140923047Y-91158290D01*
X140923047Y-91158290D02*
X141018285Y-91110671D01*
X141018285Y-91110671D02*
X141065904Y-91063051D01*
X140161142Y-90158290D02*
X139827809Y-91158290D01*
X139827809Y-91158290D02*
X139494476Y-90158290D01*
X144235788Y-118510290D02*
X144711978Y-118510290D01*
X144711978Y-118510290D02*
X144711978Y-117510290D01*
X143902454Y-117986480D02*
X143569121Y-117986480D01*
X143426264Y-118510290D02*
X143902454Y-118510290D01*
X143902454Y-118510290D02*
X143902454Y-117510290D01*
X143902454Y-117510290D02*
X143426264Y-117510290D01*
X142664359Y-117986480D02*
X142997692Y-117986480D01*
X142997692Y-118510290D02*
X142997692Y-117510290D01*
X142997692Y-117510290D02*
X142521502Y-117510290D01*
X142283406Y-117510290D02*
X141711978Y-117510290D01*
X141997692Y-118510290D02*
X141997692Y-117510290D01*
X157838475Y-102618671D02*
X157695618Y-102666290D01*
X157695618Y-102666290D02*
X157457523Y-102666290D01*
X157457523Y-102666290D02*
X157362285Y-102618671D01*
X157362285Y-102618671D02*
X157314666Y-102571051D01*
X157314666Y-102571051D02*
X157267047Y-102475813D01*
X157267047Y-102475813D02*
X157267047Y-102380575D01*
X157267047Y-102380575D02*
X157314666Y-102285337D01*
X157314666Y-102285337D02*
X157362285Y-102237718D01*
X157362285Y-102237718D02*
X157457523Y-102190099D01*
X157457523Y-102190099D02*
X157647999Y-102142480D01*
X157647999Y-102142480D02*
X157743237Y-102094861D01*
X157743237Y-102094861D02*
X157790856Y-102047242D01*
X157790856Y-102047242D02*
X157838475Y-101952004D01*
X157838475Y-101952004D02*
X157838475Y-101856766D01*
X157838475Y-101856766D02*
X157790856Y-101761528D01*
X157790856Y-101761528D02*
X157743237Y-101713909D01*
X157743237Y-101713909D02*
X157647999Y-101666290D01*
X157647999Y-101666290D02*
X157409904Y-101666290D01*
X157409904Y-101666290D02*
X157267047Y-101713909D01*
X156267047Y-102571051D02*
X156314666Y-102618671D01*
X156314666Y-102618671D02*
X156457523Y-102666290D01*
X156457523Y-102666290D02*
X156552761Y-102666290D01*
X156552761Y-102666290D02*
X156695618Y-102618671D01*
X156695618Y-102618671D02*
X156790856Y-102523432D01*
X156790856Y-102523432D02*
X156838475Y-102428194D01*
X156838475Y-102428194D02*
X156886094Y-102237718D01*
X156886094Y-102237718D02*
X156886094Y-102094861D01*
X156886094Y-102094861D02*
X156838475Y-101904385D01*
X156838475Y-101904385D02*
X156790856Y-101809147D01*
X156790856Y-101809147D02*
X156695618Y-101713909D01*
X156695618Y-101713909D02*
X156552761Y-101666290D01*
X156552761Y-101666290D02*
X156457523Y-101666290D01*
X156457523Y-101666290D02*
X156314666Y-101713909D01*
X156314666Y-101713909D02*
X156267047Y-101761528D01*
X155362285Y-102666290D02*
X155838475Y-102666290D01*
X155838475Y-102666290D02*
X155838475Y-101666290D01*
X155253644Y-117510290D02*
X155063168Y-117510290D01*
X155063168Y-117510290D02*
X154967930Y-117557909D01*
X154967930Y-117557909D02*
X154872692Y-117653147D01*
X154872692Y-117653147D02*
X154825073Y-117843623D01*
X154825073Y-117843623D02*
X154825073Y-118176956D01*
X154825073Y-118176956D02*
X154872692Y-118367432D01*
X154872692Y-118367432D02*
X154967930Y-118462671D01*
X154967930Y-118462671D02*
X155063168Y-118510290D01*
X155063168Y-118510290D02*
X155253644Y-118510290D01*
X155253644Y-118510290D02*
X155348882Y-118462671D01*
X155348882Y-118462671D02*
X155444120Y-118367432D01*
X155444120Y-118367432D02*
X155491739Y-118176956D01*
X155491739Y-118176956D02*
X155491739Y-117843623D01*
X155491739Y-117843623D02*
X155444120Y-117653147D01*
X155444120Y-117653147D02*
X155348882Y-117557909D01*
X155348882Y-117557909D02*
X155253644Y-117510290D01*
X154396501Y-118510290D02*
X154396501Y-117510290D01*
X153825073Y-118510290D02*
X154253644Y-117938861D01*
X153825073Y-117510290D02*
X154396501Y-118081718D01*
X171489714Y-72324480D02*
X171346857Y-72372099D01*
X171346857Y-72372099D02*
X171299238Y-72419718D01*
X171299238Y-72419718D02*
X171251619Y-72514956D01*
X171251619Y-72514956D02*
X171251619Y-72657813D01*
X171251619Y-72657813D02*
X171299238Y-72753051D01*
X171299238Y-72753051D02*
X171346857Y-72800671D01*
X171346857Y-72800671D02*
X171442095Y-72848290D01*
X171442095Y-72848290D02*
X171823047Y-72848290D01*
X171823047Y-72848290D02*
X171823047Y-71848290D01*
X171823047Y-71848290D02*
X171489714Y-71848290D01*
X171489714Y-71848290D02*
X171394476Y-71895909D01*
X171394476Y-71895909D02*
X171346857Y-71943528D01*
X171346857Y-71943528D02*
X171299238Y-72038766D01*
X171299238Y-72038766D02*
X171299238Y-72134004D01*
X171299238Y-72134004D02*
X171346857Y-72229242D01*
X171346857Y-72229242D02*
X171394476Y-72276861D01*
X171394476Y-72276861D02*
X171489714Y-72324480D01*
X171489714Y-72324480D02*
X171823047Y-72324480D01*
X170965904Y-71848290D02*
X170394476Y-71848290D01*
X170680190Y-72848290D02*
X170680190Y-71848290D01*
X169537333Y-72848290D02*
X170108761Y-72848290D01*
X169823047Y-72848290D02*
X169823047Y-71848290D01*
X169823047Y-71848290D02*
X169918285Y-71991147D01*
X169918285Y-71991147D02*
X170013523Y-72086385D01*
X170013523Y-72086385D02*
X170108761Y-72134004D01*
X177375200Y-74462138D02*
X177422819Y-74604995D01*
X177422819Y-74604995D02*
X177422819Y-74843090D01*
X177422819Y-74843090D02*
X177375200Y-74938328D01*
X177375200Y-74938328D02*
X177327580Y-74985947D01*
X177327580Y-74985947D02*
X177232342Y-75033566D01*
X177232342Y-75033566D02*
X177137104Y-75033566D01*
X177137104Y-75033566D02*
X177041866Y-74985947D01*
X177041866Y-74985947D02*
X176994247Y-74938328D01*
X176994247Y-74938328D02*
X176946628Y-74843090D01*
X176946628Y-74843090D02*
X176899009Y-74652614D01*
X176899009Y-74652614D02*
X176851390Y-74557376D01*
X176851390Y-74557376D02*
X176803771Y-74509757D01*
X176803771Y-74509757D02*
X176708533Y-74462138D01*
X176708533Y-74462138D02*
X176613295Y-74462138D01*
X176613295Y-74462138D02*
X176518057Y-74509757D01*
X176518057Y-74509757D02*
X176470438Y-74557376D01*
X176470438Y-74557376D02*
X176422819Y-74652614D01*
X176422819Y-74652614D02*
X176422819Y-74890709D01*
X176422819Y-74890709D02*
X176470438Y-75033566D01*
X176422819Y-75366900D02*
X177422819Y-75604995D01*
X177422819Y-75604995D02*
X176708533Y-75795471D01*
X176708533Y-75795471D02*
X177422819Y-75985947D01*
X177422819Y-75985947D02*
X176422819Y-76224043D01*
X176422819Y-76509757D02*
X176422819Y-77176423D01*
X176422819Y-77176423D02*
X177422819Y-76747852D01*
X144640549Y-127548980D02*
X144497692Y-127596599D01*
X144497692Y-127596599D02*
X144450073Y-127644218D01*
X144450073Y-127644218D02*
X144402454Y-127739456D01*
X144402454Y-127739456D02*
X144402454Y-127882313D01*
X144402454Y-127882313D02*
X144450073Y-127977551D01*
X144450073Y-127977551D02*
X144497692Y-128025171D01*
X144497692Y-128025171D02*
X144592930Y-128072790D01*
X144592930Y-128072790D02*
X144973882Y-128072790D01*
X144973882Y-128072790D02*
X144973882Y-127072790D01*
X144973882Y-127072790D02*
X144640549Y-127072790D01*
X144640549Y-127072790D02*
X144545311Y-127120409D01*
X144545311Y-127120409D02*
X144497692Y-127168028D01*
X144497692Y-127168028D02*
X144450073Y-127263266D01*
X144450073Y-127263266D02*
X144450073Y-127358504D01*
X144450073Y-127358504D02*
X144497692Y-127453742D01*
X144497692Y-127453742D02*
X144545311Y-127501361D01*
X144545311Y-127501361D02*
X144640549Y-127548980D01*
X144640549Y-127548980D02*
X144973882Y-127548980D01*
X144021501Y-127787075D02*
X143545311Y-127787075D01*
X144116739Y-128072790D02*
X143783406Y-127072790D01*
X143783406Y-127072790D02*
X143450073Y-128072790D01*
X142545311Y-127977551D02*
X142592930Y-128025171D01*
X142592930Y-128025171D02*
X142735787Y-128072790D01*
X142735787Y-128072790D02*
X142831025Y-128072790D01*
X142831025Y-128072790D02*
X142973882Y-128025171D01*
X142973882Y-128025171D02*
X143069120Y-127929932D01*
X143069120Y-127929932D02*
X143116739Y-127834694D01*
X143116739Y-127834694D02*
X143164358Y-127644218D01*
X143164358Y-127644218D02*
X143164358Y-127501361D01*
X143164358Y-127501361D02*
X143116739Y-127310885D01*
X143116739Y-127310885D02*
X143069120Y-127215647D01*
X143069120Y-127215647D02*
X142973882Y-127120409D01*
X142973882Y-127120409D02*
X142831025Y-127072790D01*
X142831025Y-127072790D02*
X142735787Y-127072790D01*
X142735787Y-127072790D02*
X142592930Y-127120409D01*
X142592930Y-127120409D02*
X142545311Y-127168028D01*
X142116739Y-128072790D02*
X142116739Y-127072790D01*
X141545311Y-128072790D02*
X141973882Y-127501361D01*
X141545311Y-127072790D02*
X142116739Y-127644218D01*
%TO.C,DOWN*%
D12*
X155358407Y-129065971D02*
G75*
G02*
X153958407Y-129065971I-700000J0D01*
G01*
X153958407Y-129065971D02*
G75*
G02*
X155358407Y-129065971I700000J0D01*
G01*
%TO.C,RIGHT*%
X166708407Y-119503471D02*
G75*
G02*
X165308407Y-119503471I-700000J0D01*
G01*
X165308407Y-119503471D02*
G75*
G02*
X166708407Y-119503471I700000J0D01*
G01*
%TO.C,UP*%
X155358407Y-109940971D02*
G75*
G02*
X153958407Y-109940971I-700000J0D01*
G01*
X153958407Y-109940971D02*
G75*
G02*
X155358407Y-109940971I700000J0D01*
G01*
%TO.C,SDA*%
X151604000Y-102303471D02*
G75*
G02*
X150204000Y-102303471I-700000J0D01*
G01*
X150204000Y-102303471D02*
G75*
G02*
X151604000Y-102303471I700000J0D01*
G01*
%TO.C,GND*%
X139004000Y-94703471D02*
G75*
G02*
X137604000Y-94703471I-700000J0D01*
G01*
X137604000Y-94703471D02*
G75*
G02*
X139004000Y-94703471I700000J0D01*
G01*
%TO.C,3V*%
X139004000Y-90703471D02*
G75*
G02*
X137604000Y-90703471I-700000J0D01*
G01*
X137604000Y-90703471D02*
G75*
G02*
X139004000Y-90703471I700000J0D01*
G01*
%TO.C,LEFT*%
X143983407Y-119503471D02*
G75*
G02*
X142583407Y-119503471I-700000J0D01*
G01*
X142583407Y-119503471D02*
G75*
G02*
X143983407Y-119503471I700000J0D01*
G01*
%TO.C,SCL*%
X154604000Y-102303471D02*
G75*
G02*
X153204000Y-102303471I-700000J0D01*
G01*
X153204000Y-102303471D02*
G75*
G02*
X154604000Y-102303471I700000J0D01*
G01*
%TO.C,OK*%
X155358407Y-119503471D02*
G75*
G02*
X153958407Y-119503471I-700000J0D01*
G01*
X153958407Y-119503471D02*
G75*
G02*
X155358407Y-119503471I700000J0D01*
G01*
%TO.C,BT1*%
X169594000Y-75503471D02*
X169594000Y-77613471D01*
X171814000Y-73393471D02*
X170704000Y-73393471D01*
X171814000Y-74503471D02*
X171814000Y-73393471D01*
X171814000Y-75503471D02*
X169594000Y-75503471D01*
X171814000Y-75503471D02*
X171814000Y-77613471D01*
X171814000Y-77613471D02*
X169594000Y-77613471D01*
%TO.C,SW7*%
X172804000Y-71403471D02*
X172804000Y-80003471D01*
X177404000Y-71403471D02*
X177404000Y-73603471D01*
X177404000Y-77703471D02*
X177404000Y-80003471D01*
%TO.C,BACK*%
X143983407Y-129065971D02*
G75*
G02*
X142583407Y-129065971I-700000J0D01*
G01*
X142583407Y-129065971D02*
G75*
G02*
X143983407Y-129065971I700000J0D01*
G01*
%TD*%
M02*
