M48
; DRILL file KiCad 10.0.5 date 2026-08-08T19:23:43
; FORMAT={-:-/ absolute / metric / decimal}
; #@! TF.CreationDate,2026-08-08T19:23:43+03:00
; #@! TF.GenerationSoftware,Kicad,Pcbnew,10.0.5
; #@! TF.FileFunction,Plated,1,2,PTH
FMAT,2
METRIC
; #@! TA.AperFunction,Plated,PTH,ViaDrill
T1C0.300
; #@! TA.AperFunction,Plated,PTH,ComponentDrill
T2C0.800
; #@! TA.AperFunction,Plated,PTH,ComponentDrill
T3C0.900
; #@! TA.AperFunction,Plated,PTH,ComponentDrill
T4C1.000
; #@! TA.AperFunction,Plated,PTH,ComponentDrill
T5C1.500
%
G90
G05
T1
X139.304Y-119.903
X141.904Y-77.503
X142.904Y-73.903
X142.904Y-83.903
X143.304Y-78.303
X144.304Y-81.303
X144.304Y-129.703
X146.104Y-116.303
X146.304Y-129.103
X148.304Y-114.903
X148.304Y-123.303
X149.704Y-85.303
X152.504Y-119.703
X153.304Y-130.503
X154.504Y-103.703
X155.429Y-117.628
X155.704Y-110.103
X156.104Y-129.903
X158.304Y-77.703
X159.004Y-110.403
X160.104Y-117.628
X161.104Y-121.503
X164.804Y-75.003
X164.904Y-72.925
X165.004Y-76.403
X165.504Y-65.305
X165.504Y-70.385
X166.104Y-117.503
X166.904Y-67.903
X168.904Y-122.903
X170.304Y-117.903
T2
X134.104Y-114.903
X134.104Y-118.303
X134.104Y-121.703
X134.104Y-125.103
X134.104Y-128.503
X134.104Y-131.903
X134.504Y-81.103
X134.504Y-83.103
X134.504Y-85.103
X136.104Y-114.903
X136.104Y-118.303
X136.104Y-121.703
X136.104Y-125.103
X136.104Y-128.503
X136.104Y-131.903
X138.304Y-81.103
X138.304Y-83.103
X138.304Y-85.103
X170.704Y-74.503
X170.704Y-76.503
T3
X175.104Y-73.703
X175.104Y-75.703
X175.104Y-77.703
T4
X150.943Y-99.003
X153.483Y-99.003
X156.023Y-99.003
X158.563Y-99.003
T5
X175.104Y-71.603
X175.104Y-79.803
M30
