%TF.GenerationSoftware,KiCad,Pcbnew,10.0.4*%
%TF.CreationDate,2026-07-23T18:22:28+03:00*%
%TF.ProjectId,ESP32C5 Cold Wallet,45535033-3243-4352-9043-6f6c64205761,rev?*%
%TF.SameCoordinates,Original*%
%TF.FileFunction,Legend,Top*%
%TF.FilePolarity,Positive*%
%FSLAX46Y46*%
G04 Gerber Fmt 4.6, Leading zero omitted, Abs format (unit mm)*
G04 Created by KiCad (PCBNEW 10.0.4) date 2026-07-23 18:22:28*
%MOMM*%
%LPD*%
G01*
G04 APERTURE LIST*
%ADD10C,0.100000*%
%ADD11C,0.200000*%
%ADD12C,0.150000*%
%ADD13C,0.120000*%
%ADD14C,0.127000*%
G04 APERTURE END LIST*
D10*
X93006265Y-132768324D02*
X93053884Y-132720705D01*
X93053884Y-132720705D02*
X93149122Y-132673086D01*
X93149122Y-132673086D02*
X93387217Y-132673086D01*
X93387217Y-132673086D02*
X93482455Y-132720705D01*
X93482455Y-132720705D02*
X93530074Y-132768324D01*
X93530074Y-132768324D02*
X93577693Y-132863562D01*
X93577693Y-132863562D02*
X93577693Y-132958800D01*
X93577693Y-132958800D02*
X93530074Y-133101657D01*
X93530074Y-133101657D02*
X92958646Y-133673086D01*
X92958646Y-133673086D02*
X93577693Y-133673086D01*
X93958646Y-132768324D02*
X94006265Y-132720705D01*
X94006265Y-132720705D02*
X94101503Y-132673086D01*
X94101503Y-132673086D02*
X94339598Y-132673086D01*
X94339598Y-132673086D02*
X94434836Y-132720705D01*
X94434836Y-132720705D02*
X94482455Y-132768324D01*
X94482455Y-132768324D02*
X94530074Y-132863562D01*
X94530074Y-132863562D02*
X94530074Y-132958800D01*
X94530074Y-132958800D02*
X94482455Y-133101657D01*
X94482455Y-133101657D02*
X93911027Y-133673086D01*
X93911027Y-133673086D02*
X94530074Y-133673086D01*
X94958646Y-133577847D02*
X95006265Y-133625467D01*
X95006265Y-133625467D02*
X94958646Y-133673086D01*
X94958646Y-133673086D02*
X94911027Y-133625467D01*
X94911027Y-133625467D02*
X94958646Y-133577847D01*
X94958646Y-133577847D02*
X94958646Y-133673086D01*
X95625312Y-132673086D02*
X95720550Y-132673086D01*
X95720550Y-132673086D02*
X95815788Y-132720705D01*
X95815788Y-132720705D02*
X95863407Y-132768324D01*
X95863407Y-132768324D02*
X95911026Y-132863562D01*
X95911026Y-132863562D02*
X95958645Y-133054038D01*
X95958645Y-133054038D02*
X95958645Y-133292133D01*
X95958645Y-133292133D02*
X95911026Y-133482609D01*
X95911026Y-133482609D02*
X95863407Y-133577847D01*
X95863407Y-133577847D02*
X95815788Y-133625467D01*
X95815788Y-133625467D02*
X95720550Y-133673086D01*
X95720550Y-133673086D02*
X95625312Y-133673086D01*
X95625312Y-133673086D02*
X95530074Y-133625467D01*
X95530074Y-133625467D02*
X95482455Y-133577847D01*
X95482455Y-133577847D02*
X95434836Y-133482609D01*
X95434836Y-133482609D02*
X95387217Y-133292133D01*
X95387217Y-133292133D02*
X95387217Y-133054038D01*
X95387217Y-133054038D02*
X95434836Y-132863562D01*
X95434836Y-132863562D02*
X95482455Y-132768324D01*
X95482455Y-132768324D02*
X95530074Y-132720705D01*
X95530074Y-132720705D02*
X95625312Y-132673086D01*
X96291979Y-132673086D02*
X96958645Y-132673086D01*
X96958645Y-132673086D02*
X96530074Y-133673086D01*
X97339598Y-133577847D02*
X97387217Y-133625467D01*
X97387217Y-133625467D02*
X97339598Y-133673086D01*
X97339598Y-133673086D02*
X97291979Y-133625467D01*
X97291979Y-133625467D02*
X97339598Y-133577847D01*
X97339598Y-133577847D02*
X97339598Y-133673086D01*
X97768169Y-132768324D02*
X97815788Y-132720705D01*
X97815788Y-132720705D02*
X97911026Y-132673086D01*
X97911026Y-132673086D02*
X98149121Y-132673086D01*
X98149121Y-132673086D02*
X98244359Y-132720705D01*
X98244359Y-132720705D02*
X98291978Y-132768324D01*
X98291978Y-132768324D02*
X98339597Y-132863562D01*
X98339597Y-132863562D02*
X98339597Y-132958800D01*
X98339597Y-132958800D02*
X98291978Y-133101657D01*
X98291978Y-133101657D02*
X97720550Y-133673086D01*
X97720550Y-133673086D02*
X98339597Y-133673086D01*
X99196740Y-132673086D02*
X99006264Y-132673086D01*
X99006264Y-132673086D02*
X98911026Y-132720705D01*
X98911026Y-132720705D02*
X98863407Y-132768324D01*
X98863407Y-132768324D02*
X98768169Y-132911181D01*
X98768169Y-132911181D02*
X98720550Y-133101657D01*
X98720550Y-133101657D02*
X98720550Y-133482609D01*
X98720550Y-133482609D02*
X98768169Y-133577847D01*
X98768169Y-133577847D02*
X98815788Y-133625467D01*
X98815788Y-133625467D02*
X98911026Y-133673086D01*
X98911026Y-133673086D02*
X99101502Y-133673086D01*
X99101502Y-133673086D02*
X99196740Y-133625467D01*
X99196740Y-133625467D02*
X99244359Y-133577847D01*
X99244359Y-133577847D02*
X99291978Y-133482609D01*
X99291978Y-133482609D02*
X99291978Y-133244514D01*
X99291978Y-133244514D02*
X99244359Y-133149276D01*
X99244359Y-133149276D02*
X99196740Y-133101657D01*
X99196740Y-133101657D02*
X99101502Y-133054038D01*
X99101502Y-133054038D02*
X98911026Y-133054038D01*
X98911026Y-133054038D02*
X98815788Y-133101657D01*
X98815788Y-133101657D02*
X98768169Y-133149276D01*
X98768169Y-133149276D02*
X98720550Y-133244514D01*
X100339598Y-132673086D02*
X100911026Y-132673086D01*
X100625312Y-133673086D02*
X100625312Y-132673086D01*
X101672931Y-133673086D02*
X101672931Y-133149276D01*
X101672931Y-133149276D02*
X101625312Y-133054038D01*
X101625312Y-133054038D02*
X101530074Y-133006419D01*
X101530074Y-133006419D02*
X101339598Y-133006419D01*
X101339598Y-133006419D02*
X101244360Y-133054038D01*
X101672931Y-133625467D02*
X101577693Y-133673086D01*
X101577693Y-133673086D02*
X101339598Y-133673086D01*
X101339598Y-133673086D02*
X101244360Y-133625467D01*
X101244360Y-133625467D02*
X101196741Y-133530228D01*
X101196741Y-133530228D02*
X101196741Y-133434990D01*
X101196741Y-133434990D02*
X101244360Y-133339752D01*
X101244360Y-133339752D02*
X101339598Y-133292133D01*
X101339598Y-133292133D02*
X101577693Y-133292133D01*
X101577693Y-133292133D02*
X101672931Y-133244514D01*
X102291979Y-133673086D02*
X102196741Y-133625467D01*
X102196741Y-133625467D02*
X102149122Y-133530228D01*
X102149122Y-133530228D02*
X102149122Y-132673086D01*
X102815789Y-133673086D02*
X102720551Y-133625467D01*
X102720551Y-133625467D02*
X102672932Y-133530228D01*
X102672932Y-133530228D02*
X102672932Y-132673086D01*
X103196742Y-133673086D02*
X103196742Y-133006419D01*
X103196742Y-132673086D02*
X103149123Y-132720705D01*
X103149123Y-132720705D02*
X103196742Y-132768324D01*
X103196742Y-132768324D02*
X103244361Y-132720705D01*
X103244361Y-132720705D02*
X103196742Y-132673086D01*
X103196742Y-132673086D02*
X103196742Y-132768324D01*
X103672932Y-133006419D02*
X103672932Y-133673086D01*
X103672932Y-133101657D02*
X103720551Y-133054038D01*
X103720551Y-133054038D02*
X103815789Y-133006419D01*
X103815789Y-133006419D02*
X103958646Y-133006419D01*
X103958646Y-133006419D02*
X104053884Y-133054038D01*
X104053884Y-133054038D02*
X104101503Y-133149276D01*
X104101503Y-133149276D02*
X104101503Y-133673086D01*
X104577694Y-133006419D02*
X104577694Y-133673086D01*
X104577694Y-133101657D02*
X104625313Y-133054038D01*
X104625313Y-133054038D02*
X104720551Y-133006419D01*
X104720551Y-133006419D02*
X104863408Y-133006419D01*
X104863408Y-133006419D02*
X104958646Y-133054038D01*
X104958646Y-133054038D02*
X105006265Y-133149276D01*
X105006265Y-133149276D02*
X105006265Y-133673086D01*
X105530075Y-133625467D02*
X105530075Y-133673086D01*
X105530075Y-133673086D02*
X105482456Y-133768324D01*
X105482456Y-133768324D02*
X105434837Y-133815943D01*
X106720551Y-133149276D02*
X107053884Y-133149276D01*
X107196741Y-133673086D02*
X106720551Y-133673086D01*
X106720551Y-133673086D02*
X106720551Y-132673086D01*
X106720551Y-132673086D02*
X107196741Y-132673086D01*
X107577694Y-133625467D02*
X107672932Y-133673086D01*
X107672932Y-133673086D02*
X107863408Y-133673086D01*
X107863408Y-133673086D02*
X107958646Y-133625467D01*
X107958646Y-133625467D02*
X108006265Y-133530228D01*
X108006265Y-133530228D02*
X108006265Y-133482609D01*
X108006265Y-133482609D02*
X107958646Y-133387371D01*
X107958646Y-133387371D02*
X107863408Y-133339752D01*
X107863408Y-133339752D02*
X107720551Y-133339752D01*
X107720551Y-133339752D02*
X107625313Y-133292133D01*
X107625313Y-133292133D02*
X107577694Y-133196895D01*
X107577694Y-133196895D02*
X107577694Y-133149276D01*
X107577694Y-133149276D02*
X107625313Y-133054038D01*
X107625313Y-133054038D02*
X107720551Y-133006419D01*
X107720551Y-133006419D02*
X107863408Y-133006419D01*
X107863408Y-133006419D02*
X107958646Y-133054038D01*
X108291980Y-133006419D02*
X108672932Y-133006419D01*
X108434837Y-132673086D02*
X108434837Y-133530228D01*
X108434837Y-133530228D02*
X108482456Y-133625467D01*
X108482456Y-133625467D02*
X108577694Y-133673086D01*
X108577694Y-133673086D02*
X108672932Y-133673086D01*
X109149123Y-133673086D02*
X109053885Y-133625467D01*
X109053885Y-133625467D02*
X109006266Y-133577847D01*
X109006266Y-133577847D02*
X108958647Y-133482609D01*
X108958647Y-133482609D02*
X108958647Y-133196895D01*
X108958647Y-133196895D02*
X109006266Y-133101657D01*
X109006266Y-133101657D02*
X109053885Y-133054038D01*
X109053885Y-133054038D02*
X109149123Y-133006419D01*
X109149123Y-133006419D02*
X109291980Y-133006419D01*
X109291980Y-133006419D02*
X109387218Y-133054038D01*
X109387218Y-133054038D02*
X109434837Y-133101657D01*
X109434837Y-133101657D02*
X109482456Y-133196895D01*
X109482456Y-133196895D02*
X109482456Y-133482609D01*
X109482456Y-133482609D02*
X109434837Y-133577847D01*
X109434837Y-133577847D02*
X109387218Y-133625467D01*
X109387218Y-133625467D02*
X109291980Y-133673086D01*
X109291980Y-133673086D02*
X109149123Y-133673086D01*
X109911028Y-133006419D02*
X109911028Y-133673086D01*
X109911028Y-133101657D02*
X109958647Y-133054038D01*
X109958647Y-133054038D02*
X110053885Y-133006419D01*
X110053885Y-133006419D02*
X110196742Y-133006419D01*
X110196742Y-133006419D02*
X110291980Y-133054038D01*
X110291980Y-133054038D02*
X110339599Y-133149276D01*
X110339599Y-133149276D02*
X110339599Y-133673086D01*
X110815790Y-133673086D02*
X110815790Y-133006419D01*
X110815790Y-132673086D02*
X110768171Y-132720705D01*
X110768171Y-132720705D02*
X110815790Y-132768324D01*
X110815790Y-132768324D02*
X110863409Y-132720705D01*
X110863409Y-132720705D02*
X110815790Y-132673086D01*
X110815790Y-132673086D02*
X110815790Y-132768324D01*
X111720551Y-133673086D02*
X111720551Y-133149276D01*
X111720551Y-133149276D02*
X111672932Y-133054038D01*
X111672932Y-133054038D02*
X111577694Y-133006419D01*
X111577694Y-133006419D02*
X111387218Y-133006419D01*
X111387218Y-133006419D02*
X111291980Y-133054038D01*
X111720551Y-133625467D02*
X111625313Y-133673086D01*
X111625313Y-133673086D02*
X111387218Y-133673086D01*
X111387218Y-133673086D02*
X111291980Y-133625467D01*
X111291980Y-133625467D02*
X111244361Y-133530228D01*
X111244361Y-133530228D02*
X111244361Y-133434990D01*
X111244361Y-133434990D02*
X111291980Y-133339752D01*
X111291980Y-133339752D02*
X111387218Y-133292133D01*
X111387218Y-133292133D02*
X111625313Y-133292133D01*
X111625313Y-133292133D02*
X111720551Y-133244514D01*
X93053884Y-134705752D02*
X93053884Y-135705752D01*
X93053884Y-134753371D02*
X93149122Y-134705752D01*
X93149122Y-134705752D02*
X93339598Y-134705752D01*
X93339598Y-134705752D02*
X93434836Y-134753371D01*
X93434836Y-134753371D02*
X93482455Y-134800990D01*
X93482455Y-134800990D02*
X93530074Y-134896228D01*
X93530074Y-134896228D02*
X93530074Y-135181942D01*
X93530074Y-135181942D02*
X93482455Y-135277180D01*
X93482455Y-135277180D02*
X93434836Y-135324800D01*
X93434836Y-135324800D02*
X93339598Y-135372419D01*
X93339598Y-135372419D02*
X93149122Y-135372419D01*
X93149122Y-135372419D02*
X93053884Y-135324800D01*
X94101503Y-135372419D02*
X94006265Y-135324800D01*
X94006265Y-135324800D02*
X93958646Y-135229561D01*
X93958646Y-135229561D02*
X93958646Y-134372419D01*
X94911027Y-135372419D02*
X94911027Y-134848609D01*
X94911027Y-134848609D02*
X94863408Y-134753371D01*
X94863408Y-134753371D02*
X94768170Y-134705752D01*
X94768170Y-134705752D02*
X94577694Y-134705752D01*
X94577694Y-134705752D02*
X94482456Y-134753371D01*
X94911027Y-135324800D02*
X94815789Y-135372419D01*
X94815789Y-135372419D02*
X94577694Y-135372419D01*
X94577694Y-135372419D02*
X94482456Y-135324800D01*
X94482456Y-135324800D02*
X94434837Y-135229561D01*
X94434837Y-135229561D02*
X94434837Y-135134323D01*
X94434837Y-135134323D02*
X94482456Y-135039085D01*
X94482456Y-135039085D02*
X94577694Y-134991466D01*
X94577694Y-134991466D02*
X94815789Y-134991466D01*
X94815789Y-134991466D02*
X94911027Y-134943847D01*
X95387218Y-134705752D02*
X95387218Y-135372419D01*
X95387218Y-134800990D02*
X95434837Y-134753371D01*
X95434837Y-134753371D02*
X95530075Y-134705752D01*
X95530075Y-134705752D02*
X95672932Y-134705752D01*
X95672932Y-134705752D02*
X95768170Y-134753371D01*
X95768170Y-134753371D02*
X95815789Y-134848609D01*
X95815789Y-134848609D02*
X95815789Y-135372419D01*
X96291980Y-135372419D02*
X96291980Y-134705752D01*
X96291980Y-134800990D02*
X96339599Y-134753371D01*
X96339599Y-134753371D02*
X96434837Y-134705752D01*
X96434837Y-134705752D02*
X96577694Y-134705752D01*
X96577694Y-134705752D02*
X96672932Y-134753371D01*
X96672932Y-134753371D02*
X96720551Y-134848609D01*
X96720551Y-134848609D02*
X96720551Y-135372419D01*
X96720551Y-134848609D02*
X96768170Y-134753371D01*
X96768170Y-134753371D02*
X96863408Y-134705752D01*
X96863408Y-134705752D02*
X97006265Y-134705752D01*
X97006265Y-134705752D02*
X97101504Y-134753371D01*
X97101504Y-134753371D02*
X97149123Y-134848609D01*
X97149123Y-134848609D02*
X97149123Y-135372419D01*
X98053884Y-135372419D02*
X98053884Y-134848609D01*
X98053884Y-134848609D02*
X98006265Y-134753371D01*
X98006265Y-134753371D02*
X97911027Y-134705752D01*
X97911027Y-134705752D02*
X97720551Y-134705752D01*
X97720551Y-134705752D02*
X97625313Y-134753371D01*
X98053884Y-135324800D02*
X97958646Y-135372419D01*
X97958646Y-135372419D02*
X97720551Y-135372419D01*
X97720551Y-135372419D02*
X97625313Y-135324800D01*
X97625313Y-135324800D02*
X97577694Y-135229561D01*
X97577694Y-135229561D02*
X97577694Y-135134323D01*
X97577694Y-135134323D02*
X97625313Y-135039085D01*
X97625313Y-135039085D02*
X97720551Y-134991466D01*
X97720551Y-134991466D02*
X97958646Y-134991466D01*
X97958646Y-134991466D02*
X98053884Y-134943847D01*
X98530075Y-135372419D02*
X98530075Y-134705752D01*
X98530075Y-134896228D02*
X98577694Y-134800990D01*
X98577694Y-134800990D02*
X98625313Y-134753371D01*
X98625313Y-134753371D02*
X98720551Y-134705752D01*
X98720551Y-134705752D02*
X98815789Y-134705752D01*
X99149123Y-135372419D02*
X99149123Y-134372419D01*
X99244361Y-134991466D02*
X99530075Y-135372419D01*
X99530075Y-134705752D02*
X99149123Y-135086704D01*
X99911028Y-135324800D02*
X100006266Y-135372419D01*
X100006266Y-135372419D02*
X100196742Y-135372419D01*
X100196742Y-135372419D02*
X100291980Y-135324800D01*
X100291980Y-135324800D02*
X100339599Y-135229561D01*
X100339599Y-135229561D02*
X100339599Y-135181942D01*
X100339599Y-135181942D02*
X100291980Y-135086704D01*
X100291980Y-135086704D02*
X100196742Y-135039085D01*
X100196742Y-135039085D02*
X100053885Y-135039085D01*
X100053885Y-135039085D02*
X99958647Y-134991466D01*
X99958647Y-134991466D02*
X99911028Y-134896228D01*
X99911028Y-134896228D02*
X99911028Y-134848609D01*
X99911028Y-134848609D02*
X99958647Y-134753371D01*
X99958647Y-134753371D02*
X100053885Y-134705752D01*
X100053885Y-134705752D02*
X100196742Y-134705752D01*
X100196742Y-134705752D02*
X100291980Y-134753371D01*
X100768171Y-135277180D02*
X100815790Y-135324800D01*
X100815790Y-135324800D02*
X100768171Y-135372419D01*
X100768171Y-135372419D02*
X100720552Y-135324800D01*
X100720552Y-135324800D02*
X100768171Y-135277180D01*
X100768171Y-135277180D02*
X100768171Y-135372419D01*
X101625313Y-135324800D02*
X101530075Y-135372419D01*
X101530075Y-135372419D02*
X101339599Y-135372419D01*
X101339599Y-135372419D02*
X101244361Y-135324800D01*
X101244361Y-135324800D02*
X101196742Y-135229561D01*
X101196742Y-135229561D02*
X101196742Y-134848609D01*
X101196742Y-134848609D02*
X101244361Y-134753371D01*
X101244361Y-134753371D02*
X101339599Y-134705752D01*
X101339599Y-134705752D02*
X101530075Y-134705752D01*
X101530075Y-134705752D02*
X101625313Y-134753371D01*
X101625313Y-134753371D02*
X101672932Y-134848609D01*
X101672932Y-134848609D02*
X101672932Y-134943847D01*
X101672932Y-134943847D02*
X101196742Y-135039085D01*
X102530075Y-134705752D02*
X102530075Y-135372419D01*
X102101504Y-134705752D02*
X102101504Y-135229561D01*
X102101504Y-135229561D02*
X102149123Y-135324800D01*
X102149123Y-135324800D02*
X102244361Y-135372419D01*
X102244361Y-135372419D02*
X102387218Y-135372419D01*
X102387218Y-135372419D02*
X102482456Y-135324800D01*
X102482456Y-135324800D02*
X102530075Y-135277180D01*
X102208646Y-76205752D02*
X102446741Y-76872419D01*
X102684836Y-76205752D02*
X102446741Y-76872419D01*
X102446741Y-76872419D02*
X102351503Y-77110514D01*
X102351503Y-77110514D02*
X102303884Y-77158133D01*
X102303884Y-77158133D02*
X102208646Y-77205752D01*
X103208646Y-76872419D02*
X103113408Y-76824800D01*
X103113408Y-76824800D02*
X103065789Y-76777180D01*
X103065789Y-76777180D02*
X103018170Y-76681942D01*
X103018170Y-76681942D02*
X103018170Y-76396228D01*
X103018170Y-76396228D02*
X103065789Y-76300990D01*
X103065789Y-76300990D02*
X103113408Y-76253371D01*
X103113408Y-76253371D02*
X103208646Y-76205752D01*
X103208646Y-76205752D02*
X103351503Y-76205752D01*
X103351503Y-76205752D02*
X103446741Y-76253371D01*
X103446741Y-76253371D02*
X103494360Y-76300990D01*
X103494360Y-76300990D02*
X103541979Y-76396228D01*
X103541979Y-76396228D02*
X103541979Y-76681942D01*
X103541979Y-76681942D02*
X103494360Y-76777180D01*
X103494360Y-76777180D02*
X103446741Y-76824800D01*
X103446741Y-76824800D02*
X103351503Y-76872419D01*
X103351503Y-76872419D02*
X103208646Y-76872419D01*
X104399122Y-76205752D02*
X104399122Y-76872419D01*
X103970551Y-76205752D02*
X103970551Y-76729561D01*
X103970551Y-76729561D02*
X104018170Y-76824800D01*
X104018170Y-76824800D02*
X104113408Y-76872419D01*
X104113408Y-76872419D02*
X104256265Y-76872419D01*
X104256265Y-76872419D02*
X104351503Y-76824800D01*
X104351503Y-76824800D02*
X104399122Y-76777180D01*
X105637218Y-76872419D02*
X105637218Y-75872419D01*
X106065789Y-76872419D02*
X106065789Y-76348609D01*
X106065789Y-76348609D02*
X106018170Y-76253371D01*
X106018170Y-76253371D02*
X105922932Y-76205752D01*
X105922932Y-76205752D02*
X105780075Y-76205752D01*
X105780075Y-76205752D02*
X105684837Y-76253371D01*
X105684837Y-76253371D02*
X105637218Y-76300990D01*
X106970551Y-76872419D02*
X106970551Y-76348609D01*
X106970551Y-76348609D02*
X106922932Y-76253371D01*
X106922932Y-76253371D02*
X106827694Y-76205752D01*
X106827694Y-76205752D02*
X106637218Y-76205752D01*
X106637218Y-76205752D02*
X106541980Y-76253371D01*
X106970551Y-76824800D02*
X106875313Y-76872419D01*
X106875313Y-76872419D02*
X106637218Y-76872419D01*
X106637218Y-76872419D02*
X106541980Y-76824800D01*
X106541980Y-76824800D02*
X106494361Y-76729561D01*
X106494361Y-76729561D02*
X106494361Y-76634323D01*
X106494361Y-76634323D02*
X106541980Y-76539085D01*
X106541980Y-76539085D02*
X106637218Y-76491466D01*
X106637218Y-76491466D02*
X106875313Y-76491466D01*
X106875313Y-76491466D02*
X106970551Y-76443847D01*
X107351504Y-76205752D02*
X107589599Y-76872419D01*
X107589599Y-76872419D02*
X107827694Y-76205752D01*
X108589599Y-76824800D02*
X108494361Y-76872419D01*
X108494361Y-76872419D02*
X108303885Y-76872419D01*
X108303885Y-76872419D02*
X108208647Y-76824800D01*
X108208647Y-76824800D02*
X108161028Y-76729561D01*
X108161028Y-76729561D02*
X108161028Y-76348609D01*
X108161028Y-76348609D02*
X108208647Y-76253371D01*
X108208647Y-76253371D02*
X108303885Y-76205752D01*
X108303885Y-76205752D02*
X108494361Y-76205752D01*
X108494361Y-76205752D02*
X108589599Y-76253371D01*
X108589599Y-76253371D02*
X108637218Y-76348609D01*
X108637218Y-76348609D02*
X108637218Y-76443847D01*
X108637218Y-76443847D02*
X108161028Y-76539085D01*
X109732457Y-76205752D02*
X109970552Y-76872419D01*
X109970552Y-76872419D02*
X110208647Y-76205752D01*
X110732457Y-76872419D02*
X110637219Y-76824800D01*
X110637219Y-76824800D02*
X110589600Y-76777180D01*
X110589600Y-76777180D02*
X110541981Y-76681942D01*
X110541981Y-76681942D02*
X110541981Y-76396228D01*
X110541981Y-76396228D02*
X110589600Y-76300990D01*
X110589600Y-76300990D02*
X110637219Y-76253371D01*
X110637219Y-76253371D02*
X110732457Y-76205752D01*
X110732457Y-76205752D02*
X110875314Y-76205752D01*
X110875314Y-76205752D02*
X110970552Y-76253371D01*
X110970552Y-76253371D02*
X111018171Y-76300990D01*
X111018171Y-76300990D02*
X111065790Y-76396228D01*
X111065790Y-76396228D02*
X111065790Y-76681942D01*
X111065790Y-76681942D02*
X111018171Y-76777180D01*
X111018171Y-76777180D02*
X110970552Y-76824800D01*
X110970552Y-76824800D02*
X110875314Y-76872419D01*
X110875314Y-76872419D02*
X110732457Y-76872419D01*
X111494362Y-76872419D02*
X111494362Y-76205752D01*
X111494362Y-75872419D02*
X111446743Y-75920038D01*
X111446743Y-75920038D02*
X111494362Y-75967657D01*
X111494362Y-75967657D02*
X111541981Y-75920038D01*
X111541981Y-75920038D02*
X111494362Y-75872419D01*
X111494362Y-75872419D02*
X111494362Y-75967657D01*
X112399123Y-76872419D02*
X112399123Y-75872419D01*
X112399123Y-76824800D02*
X112303885Y-76872419D01*
X112303885Y-76872419D02*
X112113409Y-76872419D01*
X112113409Y-76872419D02*
X112018171Y-76824800D01*
X112018171Y-76824800D02*
X111970552Y-76777180D01*
X111970552Y-76777180D02*
X111922933Y-76681942D01*
X111922933Y-76681942D02*
X111922933Y-76396228D01*
X111922933Y-76396228D02*
X111970552Y-76300990D01*
X111970552Y-76300990D02*
X112018171Y-76253371D01*
X112018171Y-76253371D02*
X112113409Y-76205752D01*
X112113409Y-76205752D02*
X112303885Y-76205752D01*
X112303885Y-76205752D02*
X112399123Y-76253371D01*
X113256266Y-76824800D02*
X113161028Y-76872419D01*
X113161028Y-76872419D02*
X112970552Y-76872419D01*
X112970552Y-76872419D02*
X112875314Y-76824800D01*
X112875314Y-76824800D02*
X112827695Y-76729561D01*
X112827695Y-76729561D02*
X112827695Y-76348609D01*
X112827695Y-76348609D02*
X112875314Y-76253371D01*
X112875314Y-76253371D02*
X112970552Y-76205752D01*
X112970552Y-76205752D02*
X113161028Y-76205752D01*
X113161028Y-76205752D02*
X113256266Y-76253371D01*
X113256266Y-76253371D02*
X113303885Y-76348609D01*
X113303885Y-76348609D02*
X113303885Y-76443847D01*
X113303885Y-76443847D02*
X112827695Y-76539085D01*
X114161028Y-76872419D02*
X114161028Y-75872419D01*
X114161028Y-76824800D02*
X114065790Y-76872419D01*
X114065790Y-76872419D02*
X113875314Y-76872419D01*
X113875314Y-76872419D02*
X113780076Y-76824800D01*
X113780076Y-76824800D02*
X113732457Y-76777180D01*
X113732457Y-76777180D02*
X113684838Y-76681942D01*
X113684838Y-76681942D02*
X113684838Y-76396228D01*
X113684838Y-76396228D02*
X113732457Y-76300990D01*
X113732457Y-76300990D02*
X113780076Y-76253371D01*
X113780076Y-76253371D02*
X113875314Y-76205752D01*
X113875314Y-76205752D02*
X114065790Y-76205752D01*
X114065790Y-76205752D02*
X114161028Y-76253371D01*
X115256267Y-76205752D02*
X115637219Y-76205752D01*
X115399124Y-75872419D02*
X115399124Y-76729561D01*
X115399124Y-76729561D02*
X115446743Y-76824800D01*
X115446743Y-76824800D02*
X115541981Y-76872419D01*
X115541981Y-76872419D02*
X115637219Y-76872419D01*
X115970553Y-76872419D02*
X115970553Y-75872419D01*
X116399124Y-76872419D02*
X116399124Y-76348609D01*
X116399124Y-76348609D02*
X116351505Y-76253371D01*
X116351505Y-76253371D02*
X116256267Y-76205752D01*
X116256267Y-76205752D02*
X116113410Y-76205752D01*
X116113410Y-76205752D02*
X116018172Y-76253371D01*
X116018172Y-76253371D02*
X115970553Y-76300990D01*
X117256267Y-76824800D02*
X117161029Y-76872419D01*
X117161029Y-76872419D02*
X116970553Y-76872419D01*
X116970553Y-76872419D02*
X116875315Y-76824800D01*
X116875315Y-76824800D02*
X116827696Y-76729561D01*
X116827696Y-76729561D02*
X116827696Y-76348609D01*
X116827696Y-76348609D02*
X116875315Y-76253371D01*
X116875315Y-76253371D02*
X116970553Y-76205752D01*
X116970553Y-76205752D02*
X117161029Y-76205752D01*
X117161029Y-76205752D02*
X117256267Y-76253371D01*
X117256267Y-76253371D02*
X117303886Y-76348609D01*
X117303886Y-76348609D02*
X117303886Y-76443847D01*
X117303886Y-76443847D02*
X116827696Y-76539085D01*
X118399125Y-76205752D02*
X118589601Y-76872419D01*
X118589601Y-76872419D02*
X118780077Y-76396228D01*
X118780077Y-76396228D02*
X118970553Y-76872419D01*
X118970553Y-76872419D02*
X119161029Y-76205752D01*
X119970553Y-76872419D02*
X119970553Y-76348609D01*
X119970553Y-76348609D02*
X119922934Y-76253371D01*
X119922934Y-76253371D02*
X119827696Y-76205752D01*
X119827696Y-76205752D02*
X119637220Y-76205752D01*
X119637220Y-76205752D02*
X119541982Y-76253371D01*
X119970553Y-76824800D02*
X119875315Y-76872419D01*
X119875315Y-76872419D02*
X119637220Y-76872419D01*
X119637220Y-76872419D02*
X119541982Y-76824800D01*
X119541982Y-76824800D02*
X119494363Y-76729561D01*
X119494363Y-76729561D02*
X119494363Y-76634323D01*
X119494363Y-76634323D02*
X119541982Y-76539085D01*
X119541982Y-76539085D02*
X119637220Y-76491466D01*
X119637220Y-76491466D02*
X119875315Y-76491466D01*
X119875315Y-76491466D02*
X119970553Y-76443847D01*
X120446744Y-76872419D02*
X120446744Y-76205752D01*
X120446744Y-76396228D02*
X120494363Y-76300990D01*
X120494363Y-76300990D02*
X120541982Y-76253371D01*
X120541982Y-76253371D02*
X120637220Y-76205752D01*
X120637220Y-76205752D02*
X120732458Y-76205752D01*
X121065792Y-76872419D02*
X121065792Y-76205752D01*
X121065792Y-76396228D02*
X121113411Y-76300990D01*
X121113411Y-76300990D02*
X121161030Y-76253371D01*
X121161030Y-76253371D02*
X121256268Y-76205752D01*
X121256268Y-76205752D02*
X121351506Y-76205752D01*
X122113411Y-76872419D02*
X122113411Y-76348609D01*
X122113411Y-76348609D02*
X122065792Y-76253371D01*
X122065792Y-76253371D02*
X121970554Y-76205752D01*
X121970554Y-76205752D02*
X121780078Y-76205752D01*
X121780078Y-76205752D02*
X121684840Y-76253371D01*
X122113411Y-76824800D02*
X122018173Y-76872419D01*
X122018173Y-76872419D02*
X121780078Y-76872419D01*
X121780078Y-76872419D02*
X121684840Y-76824800D01*
X121684840Y-76824800D02*
X121637221Y-76729561D01*
X121637221Y-76729561D02*
X121637221Y-76634323D01*
X121637221Y-76634323D02*
X121684840Y-76539085D01*
X121684840Y-76539085D02*
X121780078Y-76491466D01*
X121780078Y-76491466D02*
X122018173Y-76491466D01*
X122018173Y-76491466D02*
X122113411Y-76443847D01*
X122589602Y-76205752D02*
X122589602Y-76872419D01*
X122589602Y-76300990D02*
X122637221Y-76253371D01*
X122637221Y-76253371D02*
X122732459Y-76205752D01*
X122732459Y-76205752D02*
X122875316Y-76205752D01*
X122875316Y-76205752D02*
X122970554Y-76253371D01*
X122970554Y-76253371D02*
X123018173Y-76348609D01*
X123018173Y-76348609D02*
X123018173Y-76872419D01*
X123351507Y-76205752D02*
X123732459Y-76205752D01*
X123494364Y-75872419D02*
X123494364Y-76729561D01*
X123494364Y-76729561D02*
X123541983Y-76824800D01*
X123541983Y-76824800D02*
X123637221Y-76872419D01*
X123637221Y-76872419D02*
X123732459Y-76872419D01*
X123970555Y-76205752D02*
X124208650Y-76872419D01*
X124446745Y-76205752D02*
X124208650Y-76872419D01*
X124208650Y-76872419D02*
X124113412Y-77110514D01*
X124113412Y-77110514D02*
X124065793Y-77158133D01*
X124065793Y-77158133D02*
X123970555Y-77205752D01*
X105303884Y-74872419D02*
X105303884Y-73872419D01*
X105637217Y-74205752D02*
X106018169Y-74205752D01*
X105780074Y-74872419D02*
X105780074Y-74015276D01*
X105780074Y-74015276D02*
X105827693Y-73920038D01*
X105827693Y-73920038D02*
X105922931Y-73872419D01*
X105922931Y-73872419D02*
X106018169Y-73872419D01*
X107018170Y-74205752D02*
X107256265Y-74872419D01*
X107494360Y-74205752D02*
X107256265Y-74872419D01*
X107256265Y-74872419D02*
X107161027Y-75110514D01*
X107161027Y-75110514D02*
X107113408Y-75158133D01*
X107113408Y-75158133D02*
X107018170Y-75205752D01*
X108018170Y-74872419D02*
X107922932Y-74824800D01*
X107922932Y-74824800D02*
X107875313Y-74777180D01*
X107875313Y-74777180D02*
X107827694Y-74681942D01*
X107827694Y-74681942D02*
X107827694Y-74396228D01*
X107827694Y-74396228D02*
X107875313Y-74300990D01*
X107875313Y-74300990D02*
X107922932Y-74253371D01*
X107922932Y-74253371D02*
X108018170Y-74205752D01*
X108018170Y-74205752D02*
X108161027Y-74205752D01*
X108161027Y-74205752D02*
X108256265Y-74253371D01*
X108256265Y-74253371D02*
X108303884Y-74300990D01*
X108303884Y-74300990D02*
X108351503Y-74396228D01*
X108351503Y-74396228D02*
X108351503Y-74681942D01*
X108351503Y-74681942D02*
X108303884Y-74777180D01*
X108303884Y-74777180D02*
X108256265Y-74824800D01*
X108256265Y-74824800D02*
X108161027Y-74872419D01*
X108161027Y-74872419D02*
X108018170Y-74872419D01*
X109208646Y-74205752D02*
X109208646Y-74872419D01*
X108780075Y-74205752D02*
X108780075Y-74729561D01*
X108780075Y-74729561D02*
X108827694Y-74824800D01*
X108827694Y-74824800D02*
X108922932Y-74872419D01*
X108922932Y-74872419D02*
X109065789Y-74872419D01*
X109065789Y-74872419D02*
X109161027Y-74824800D01*
X109161027Y-74824800D02*
X109208646Y-74777180D01*
X109732456Y-73872419D02*
X109637218Y-74062895D01*
X110161027Y-74872419D02*
X110161027Y-74205752D01*
X110161027Y-74396228D02*
X110208646Y-74300990D01*
X110208646Y-74300990D02*
X110256265Y-74253371D01*
X110256265Y-74253371D02*
X110351503Y-74205752D01*
X110351503Y-74205752D02*
X110446741Y-74205752D01*
X111161027Y-74824800D02*
X111065789Y-74872419D01*
X111065789Y-74872419D02*
X110875313Y-74872419D01*
X110875313Y-74872419D02*
X110780075Y-74824800D01*
X110780075Y-74824800D02*
X110732456Y-74729561D01*
X110732456Y-74729561D02*
X110732456Y-74348609D01*
X110732456Y-74348609D02*
X110780075Y-74253371D01*
X110780075Y-74253371D02*
X110875313Y-74205752D01*
X110875313Y-74205752D02*
X111065789Y-74205752D01*
X111065789Y-74205752D02*
X111161027Y-74253371D01*
X111161027Y-74253371D02*
X111208646Y-74348609D01*
X111208646Y-74348609D02*
X111208646Y-74443847D01*
X111208646Y-74443847D02*
X110732456Y-74539085D01*
X112399123Y-74872419D02*
X112399123Y-74205752D01*
X112399123Y-74396228D02*
X112446742Y-74300990D01*
X112446742Y-74300990D02*
X112494361Y-74253371D01*
X112494361Y-74253371D02*
X112589599Y-74205752D01*
X112589599Y-74205752D02*
X112684837Y-74205752D01*
X113399123Y-74824800D02*
X113303885Y-74872419D01*
X113303885Y-74872419D02*
X113113409Y-74872419D01*
X113113409Y-74872419D02*
X113018171Y-74824800D01*
X113018171Y-74824800D02*
X112970552Y-74729561D01*
X112970552Y-74729561D02*
X112970552Y-74348609D01*
X112970552Y-74348609D02*
X113018171Y-74253371D01*
X113018171Y-74253371D02*
X113113409Y-74205752D01*
X113113409Y-74205752D02*
X113303885Y-74205752D01*
X113303885Y-74205752D02*
X113399123Y-74253371D01*
X113399123Y-74253371D02*
X113446742Y-74348609D01*
X113446742Y-74348609D02*
X113446742Y-74443847D01*
X113446742Y-74443847D02*
X112970552Y-74539085D01*
X114303885Y-74872419D02*
X114303885Y-74348609D01*
X114303885Y-74348609D02*
X114256266Y-74253371D01*
X114256266Y-74253371D02*
X114161028Y-74205752D01*
X114161028Y-74205752D02*
X113970552Y-74205752D01*
X113970552Y-74205752D02*
X113875314Y-74253371D01*
X114303885Y-74824800D02*
X114208647Y-74872419D01*
X114208647Y-74872419D02*
X113970552Y-74872419D01*
X113970552Y-74872419D02*
X113875314Y-74824800D01*
X113875314Y-74824800D02*
X113827695Y-74729561D01*
X113827695Y-74729561D02*
X113827695Y-74634323D01*
X113827695Y-74634323D02*
X113875314Y-74539085D01*
X113875314Y-74539085D02*
X113970552Y-74491466D01*
X113970552Y-74491466D02*
X114208647Y-74491466D01*
X114208647Y-74491466D02*
X114303885Y-74443847D01*
X115208647Y-74872419D02*
X115208647Y-73872419D01*
X115208647Y-74824800D02*
X115113409Y-74872419D01*
X115113409Y-74872419D02*
X114922933Y-74872419D01*
X114922933Y-74872419D02*
X114827695Y-74824800D01*
X114827695Y-74824800D02*
X114780076Y-74777180D01*
X114780076Y-74777180D02*
X114732457Y-74681942D01*
X114732457Y-74681942D02*
X114732457Y-74396228D01*
X114732457Y-74396228D02*
X114780076Y-74300990D01*
X114780076Y-74300990D02*
X114827695Y-74253371D01*
X114827695Y-74253371D02*
X114922933Y-74205752D01*
X114922933Y-74205752D02*
X115113409Y-74205752D01*
X115113409Y-74205752D02*
X115208647Y-74253371D01*
X115684838Y-74872419D02*
X115684838Y-74205752D01*
X115684838Y-73872419D02*
X115637219Y-73920038D01*
X115637219Y-73920038D02*
X115684838Y-73967657D01*
X115684838Y-73967657D02*
X115732457Y-73920038D01*
X115732457Y-73920038D02*
X115684838Y-73872419D01*
X115684838Y-73872419D02*
X115684838Y-73967657D01*
X116161028Y-74205752D02*
X116161028Y-74872419D01*
X116161028Y-74300990D02*
X116208647Y-74253371D01*
X116208647Y-74253371D02*
X116303885Y-74205752D01*
X116303885Y-74205752D02*
X116446742Y-74205752D01*
X116446742Y-74205752D02*
X116541980Y-74253371D01*
X116541980Y-74253371D02*
X116589599Y-74348609D01*
X116589599Y-74348609D02*
X116589599Y-74872419D01*
X117494361Y-74205752D02*
X117494361Y-75015276D01*
X117494361Y-75015276D02*
X117446742Y-75110514D01*
X117446742Y-75110514D02*
X117399123Y-75158133D01*
X117399123Y-75158133D02*
X117303885Y-75205752D01*
X117303885Y-75205752D02*
X117161028Y-75205752D01*
X117161028Y-75205752D02*
X117065790Y-75158133D01*
X117494361Y-74824800D02*
X117399123Y-74872419D01*
X117399123Y-74872419D02*
X117208647Y-74872419D01*
X117208647Y-74872419D02*
X117113409Y-74824800D01*
X117113409Y-74824800D02*
X117065790Y-74777180D01*
X117065790Y-74777180D02*
X117018171Y-74681942D01*
X117018171Y-74681942D02*
X117018171Y-74396228D01*
X117018171Y-74396228D02*
X117065790Y-74300990D01*
X117065790Y-74300990D02*
X117113409Y-74253371D01*
X117113409Y-74253371D02*
X117208647Y-74205752D01*
X117208647Y-74205752D02*
X117399123Y-74205752D01*
X117399123Y-74205752D02*
X117494361Y-74253371D01*
X118589600Y-74205752D02*
X118970552Y-74205752D01*
X118732457Y-73872419D02*
X118732457Y-74729561D01*
X118732457Y-74729561D02*
X118780076Y-74824800D01*
X118780076Y-74824800D02*
X118875314Y-74872419D01*
X118875314Y-74872419D02*
X118970552Y-74872419D01*
X119303886Y-74872419D02*
X119303886Y-73872419D01*
X119732457Y-74872419D02*
X119732457Y-74348609D01*
X119732457Y-74348609D02*
X119684838Y-74253371D01*
X119684838Y-74253371D02*
X119589600Y-74205752D01*
X119589600Y-74205752D02*
X119446743Y-74205752D01*
X119446743Y-74205752D02*
X119351505Y-74253371D01*
X119351505Y-74253371D02*
X119303886Y-74300990D01*
X120208648Y-74872419D02*
X120208648Y-74205752D01*
X120208648Y-73872419D02*
X120161029Y-73920038D01*
X120161029Y-73920038D02*
X120208648Y-73967657D01*
X120208648Y-73967657D02*
X120256267Y-73920038D01*
X120256267Y-73920038D02*
X120208648Y-73872419D01*
X120208648Y-73872419D02*
X120208648Y-73967657D01*
X120637219Y-74824800D02*
X120732457Y-74872419D01*
X120732457Y-74872419D02*
X120922933Y-74872419D01*
X120922933Y-74872419D02*
X121018171Y-74824800D01*
X121018171Y-74824800D02*
X121065790Y-74729561D01*
X121065790Y-74729561D02*
X121065790Y-74681942D01*
X121065790Y-74681942D02*
X121018171Y-74586704D01*
X121018171Y-74586704D02*
X120922933Y-74539085D01*
X120922933Y-74539085D02*
X120780076Y-74539085D01*
X120780076Y-74539085D02*
X120684838Y-74491466D01*
X120684838Y-74491466D02*
X120637219Y-74396228D01*
X120637219Y-74396228D02*
X120637219Y-74348609D01*
X120637219Y-74348609D02*
X120684838Y-74253371D01*
X120684838Y-74253371D02*
X120780076Y-74205752D01*
X120780076Y-74205752D02*
X120922933Y-74205752D01*
X120922933Y-74205752D02*
X121018171Y-74253371D01*
D11*
X93072054Y-129819600D02*
X93214911Y-129867219D01*
X93214911Y-129867219D02*
X93453006Y-129867219D01*
X93453006Y-129867219D02*
X93548244Y-129819600D01*
X93548244Y-129819600D02*
X93595863Y-129771980D01*
X93595863Y-129771980D02*
X93643482Y-129676742D01*
X93643482Y-129676742D02*
X93643482Y-129581504D01*
X93643482Y-129581504D02*
X93595863Y-129486266D01*
X93595863Y-129486266D02*
X93548244Y-129438647D01*
X93548244Y-129438647D02*
X93453006Y-129391028D01*
X93453006Y-129391028D02*
X93262530Y-129343409D01*
X93262530Y-129343409D02*
X93167292Y-129295790D01*
X93167292Y-129295790D02*
X93119673Y-129248171D01*
X93119673Y-129248171D02*
X93072054Y-129152933D01*
X93072054Y-129152933D02*
X93072054Y-129057695D01*
X93072054Y-129057695D02*
X93119673Y-128962457D01*
X93119673Y-128962457D02*
X93167292Y-128914838D01*
X93167292Y-128914838D02*
X93262530Y-128867219D01*
X93262530Y-128867219D02*
X93500625Y-128867219D01*
X93500625Y-128867219D02*
X93643482Y-128914838D01*
X94453006Y-129819600D02*
X94357768Y-129867219D01*
X94357768Y-129867219D02*
X94167292Y-129867219D01*
X94167292Y-129867219D02*
X94072054Y-129819600D01*
X94072054Y-129819600D02*
X94024435Y-129724361D01*
X94024435Y-129724361D02*
X94024435Y-129343409D01*
X94024435Y-129343409D02*
X94072054Y-129248171D01*
X94072054Y-129248171D02*
X94167292Y-129200552D01*
X94167292Y-129200552D02*
X94357768Y-129200552D01*
X94357768Y-129200552D02*
X94453006Y-129248171D01*
X94453006Y-129248171D02*
X94500625Y-129343409D01*
X94500625Y-129343409D02*
X94500625Y-129438647D01*
X94500625Y-129438647D02*
X94024435Y-129533885D01*
X94929197Y-129200552D02*
X94929197Y-129867219D01*
X94929197Y-129295790D02*
X94976816Y-129248171D01*
X94976816Y-129248171D02*
X95072054Y-129200552D01*
X95072054Y-129200552D02*
X95214911Y-129200552D01*
X95214911Y-129200552D02*
X95310149Y-129248171D01*
X95310149Y-129248171D02*
X95357768Y-129343409D01*
X95357768Y-129343409D02*
X95357768Y-129867219D01*
X95691102Y-129200552D02*
X96072054Y-129200552D01*
X95833959Y-128867219D02*
X95833959Y-129724361D01*
X95833959Y-129724361D02*
X95881578Y-129819600D01*
X95881578Y-129819600D02*
X95976816Y-129867219D01*
X95976816Y-129867219D02*
X96072054Y-129867219D01*
X96405388Y-129867219D02*
X96405388Y-129200552D01*
X96405388Y-128867219D02*
X96357769Y-128914838D01*
X96357769Y-128914838D02*
X96405388Y-128962457D01*
X96405388Y-128962457D02*
X96453007Y-128914838D01*
X96453007Y-128914838D02*
X96405388Y-128867219D01*
X96405388Y-128867219D02*
X96405388Y-128962457D01*
X96881578Y-129200552D02*
X96881578Y-129867219D01*
X96881578Y-129295790D02*
X96929197Y-129248171D01*
X96929197Y-129248171D02*
X97024435Y-129200552D01*
X97024435Y-129200552D02*
X97167292Y-129200552D01*
X97167292Y-129200552D02*
X97262530Y-129248171D01*
X97262530Y-129248171D02*
X97310149Y-129343409D01*
X97310149Y-129343409D02*
X97310149Y-129867219D01*
X98167292Y-129819600D02*
X98072054Y-129867219D01*
X98072054Y-129867219D02*
X97881578Y-129867219D01*
X97881578Y-129867219D02*
X97786340Y-129819600D01*
X97786340Y-129819600D02*
X97738721Y-129724361D01*
X97738721Y-129724361D02*
X97738721Y-129343409D01*
X97738721Y-129343409D02*
X97786340Y-129248171D01*
X97786340Y-129248171D02*
X97881578Y-129200552D01*
X97881578Y-129200552D02*
X98072054Y-129200552D01*
X98072054Y-129200552D02*
X98167292Y-129248171D01*
X98167292Y-129248171D02*
X98214911Y-129343409D01*
X98214911Y-129343409D02*
X98214911Y-129438647D01*
X98214911Y-129438647D02*
X97738721Y-129533885D01*
X98786340Y-129867219D02*
X98691102Y-129819600D01*
X98691102Y-129819600D02*
X98643483Y-129724361D01*
X98643483Y-129724361D02*
X98643483Y-128867219D01*
X99786341Y-128867219D02*
X100119674Y-129867219D01*
X100119674Y-129867219D02*
X100453007Y-128867219D01*
X101310150Y-129867219D02*
X100738722Y-129867219D01*
X101024436Y-129867219D02*
X101024436Y-128867219D01*
X101024436Y-128867219D02*
X100929198Y-129010076D01*
X100929198Y-129010076D02*
X100833960Y-129105314D01*
X100833960Y-129105314D02*
X100738722Y-129152933D01*
X101691103Y-129581504D02*
X102167293Y-129581504D01*
X101595865Y-129867219D02*
X101929198Y-128867219D01*
X101929198Y-128867219D02*
X102262531Y-129867219D01*
X93119673Y-131617219D02*
X93119673Y-130617219D01*
X93119673Y-130617219D02*
X93357768Y-130617219D01*
X93357768Y-130617219D02*
X93500625Y-130664838D01*
X93500625Y-130664838D02*
X93595863Y-130760076D01*
X93595863Y-130760076D02*
X93643482Y-130855314D01*
X93643482Y-130855314D02*
X93691101Y-131045790D01*
X93691101Y-131045790D02*
X93691101Y-131188647D01*
X93691101Y-131188647D02*
X93643482Y-131379123D01*
X93643482Y-131379123D02*
X93595863Y-131474361D01*
X93595863Y-131474361D02*
X93500625Y-131569600D01*
X93500625Y-131569600D02*
X93357768Y-131617219D01*
X93357768Y-131617219D02*
X93119673Y-131617219D01*
X94500625Y-131569600D02*
X94405387Y-131617219D01*
X94405387Y-131617219D02*
X94214911Y-131617219D01*
X94214911Y-131617219D02*
X94119673Y-131569600D01*
X94119673Y-131569600D02*
X94072054Y-131474361D01*
X94072054Y-131474361D02*
X94072054Y-131093409D01*
X94072054Y-131093409D02*
X94119673Y-130998171D01*
X94119673Y-130998171D02*
X94214911Y-130950552D01*
X94214911Y-130950552D02*
X94405387Y-130950552D01*
X94405387Y-130950552D02*
X94500625Y-130998171D01*
X94500625Y-130998171D02*
X94548244Y-131093409D01*
X94548244Y-131093409D02*
X94548244Y-131188647D01*
X94548244Y-131188647D02*
X94072054Y-131283885D01*
X94929197Y-131569600D02*
X95024435Y-131617219D01*
X95024435Y-131617219D02*
X95214911Y-131617219D01*
X95214911Y-131617219D02*
X95310149Y-131569600D01*
X95310149Y-131569600D02*
X95357768Y-131474361D01*
X95357768Y-131474361D02*
X95357768Y-131426742D01*
X95357768Y-131426742D02*
X95310149Y-131331504D01*
X95310149Y-131331504D02*
X95214911Y-131283885D01*
X95214911Y-131283885D02*
X95072054Y-131283885D01*
X95072054Y-131283885D02*
X94976816Y-131236266D01*
X94976816Y-131236266D02*
X94929197Y-131141028D01*
X94929197Y-131141028D02*
X94929197Y-131093409D01*
X94929197Y-131093409D02*
X94976816Y-130998171D01*
X94976816Y-130998171D02*
X95072054Y-130950552D01*
X95072054Y-130950552D02*
X95214911Y-130950552D01*
X95214911Y-130950552D02*
X95310149Y-130998171D01*
X95786340Y-131617219D02*
X95786340Y-130950552D01*
X95786340Y-130617219D02*
X95738721Y-130664838D01*
X95738721Y-130664838D02*
X95786340Y-130712457D01*
X95786340Y-130712457D02*
X95833959Y-130664838D01*
X95833959Y-130664838D02*
X95786340Y-130617219D01*
X95786340Y-130617219D02*
X95786340Y-130712457D01*
X96691101Y-130950552D02*
X96691101Y-131760076D01*
X96691101Y-131760076D02*
X96643482Y-131855314D01*
X96643482Y-131855314D02*
X96595863Y-131902933D01*
X96595863Y-131902933D02*
X96500625Y-131950552D01*
X96500625Y-131950552D02*
X96357768Y-131950552D01*
X96357768Y-131950552D02*
X96262530Y-131902933D01*
X96691101Y-131569600D02*
X96595863Y-131617219D01*
X96595863Y-131617219D02*
X96405387Y-131617219D01*
X96405387Y-131617219D02*
X96310149Y-131569600D01*
X96310149Y-131569600D02*
X96262530Y-131521980D01*
X96262530Y-131521980D02*
X96214911Y-131426742D01*
X96214911Y-131426742D02*
X96214911Y-131141028D01*
X96214911Y-131141028D02*
X96262530Y-131045790D01*
X96262530Y-131045790D02*
X96310149Y-130998171D01*
X96310149Y-130998171D02*
X96405387Y-130950552D01*
X96405387Y-130950552D02*
X96595863Y-130950552D01*
X96595863Y-130950552D02*
X96691101Y-130998171D01*
X97167292Y-130950552D02*
X97167292Y-131617219D01*
X97167292Y-131045790D02*
X97214911Y-130998171D01*
X97214911Y-130998171D02*
X97310149Y-130950552D01*
X97310149Y-130950552D02*
X97453006Y-130950552D01*
X97453006Y-130950552D02*
X97548244Y-130998171D01*
X97548244Y-130998171D02*
X97595863Y-131093409D01*
X97595863Y-131093409D02*
X97595863Y-131617219D01*
X98453006Y-131569600D02*
X98357768Y-131617219D01*
X98357768Y-131617219D02*
X98167292Y-131617219D01*
X98167292Y-131617219D02*
X98072054Y-131569600D01*
X98072054Y-131569600D02*
X98024435Y-131474361D01*
X98024435Y-131474361D02*
X98024435Y-131093409D01*
X98024435Y-131093409D02*
X98072054Y-130998171D01*
X98072054Y-130998171D02*
X98167292Y-130950552D01*
X98167292Y-130950552D02*
X98357768Y-130950552D01*
X98357768Y-130950552D02*
X98453006Y-130998171D01*
X98453006Y-130998171D02*
X98500625Y-131093409D01*
X98500625Y-131093409D02*
X98500625Y-131188647D01*
X98500625Y-131188647D02*
X98024435Y-131283885D01*
X99357768Y-131617219D02*
X99357768Y-130617219D01*
X99357768Y-131569600D02*
X99262530Y-131617219D01*
X99262530Y-131617219D02*
X99072054Y-131617219D01*
X99072054Y-131617219D02*
X98976816Y-131569600D01*
X98976816Y-131569600D02*
X98929197Y-131521980D01*
X98929197Y-131521980D02*
X98881578Y-131426742D01*
X98881578Y-131426742D02*
X98881578Y-131141028D01*
X98881578Y-131141028D02*
X98929197Y-131045790D01*
X98929197Y-131045790D02*
X98976816Y-130998171D01*
X98976816Y-130998171D02*
X99072054Y-130950552D01*
X99072054Y-130950552D02*
X99262530Y-130950552D01*
X99262530Y-130950552D02*
X99357768Y-130998171D01*
X100595864Y-131617219D02*
X100595864Y-130617219D01*
X100595864Y-130998171D02*
X100691102Y-130950552D01*
X100691102Y-130950552D02*
X100881578Y-130950552D01*
X100881578Y-130950552D02*
X100976816Y-130998171D01*
X100976816Y-130998171D02*
X101024435Y-131045790D01*
X101024435Y-131045790D02*
X101072054Y-131141028D01*
X101072054Y-131141028D02*
X101072054Y-131426742D01*
X101072054Y-131426742D02*
X101024435Y-131521980D01*
X101024435Y-131521980D02*
X100976816Y-131569600D01*
X100976816Y-131569600D02*
X100881578Y-131617219D01*
X100881578Y-131617219D02*
X100691102Y-131617219D01*
X100691102Y-131617219D02*
X100595864Y-131569600D01*
X101405388Y-130950552D02*
X101643483Y-131617219D01*
X101881578Y-130950552D02*
X101643483Y-131617219D01*
X101643483Y-131617219D02*
X101548245Y-131855314D01*
X101548245Y-131855314D02*
X101500626Y-131902933D01*
X101500626Y-131902933D02*
X101405388Y-131950552D01*
X103024436Y-131617219D02*
X103024436Y-130617219D01*
X103024436Y-130617219D02*
X103405388Y-130617219D01*
X103405388Y-130617219D02*
X103500626Y-130664838D01*
X103500626Y-130664838D02*
X103548245Y-130712457D01*
X103548245Y-130712457D02*
X103595864Y-130807695D01*
X103595864Y-130807695D02*
X103595864Y-130950552D01*
X103595864Y-130950552D02*
X103548245Y-131045790D01*
X103548245Y-131045790D02*
X103500626Y-131093409D01*
X103500626Y-131093409D02*
X103405388Y-131141028D01*
X103405388Y-131141028D02*
X103024436Y-131141028D01*
X104453007Y-131617219D02*
X104453007Y-131093409D01*
X104453007Y-131093409D02*
X104405388Y-130998171D01*
X104405388Y-130998171D02*
X104310150Y-130950552D01*
X104310150Y-130950552D02*
X104119674Y-130950552D01*
X104119674Y-130950552D02*
X104024436Y-130998171D01*
X104453007Y-131569600D02*
X104357769Y-131617219D01*
X104357769Y-131617219D02*
X104119674Y-131617219D01*
X104119674Y-131617219D02*
X104024436Y-131569600D01*
X104024436Y-131569600D02*
X103976817Y-131474361D01*
X103976817Y-131474361D02*
X103976817Y-131379123D01*
X103976817Y-131379123D02*
X104024436Y-131283885D01*
X104024436Y-131283885D02*
X104119674Y-131236266D01*
X104119674Y-131236266D02*
X104357769Y-131236266D01*
X104357769Y-131236266D02*
X104453007Y-131188647D01*
X104929198Y-130950552D02*
X104929198Y-131950552D01*
X104929198Y-130998171D02*
X105024436Y-130950552D01*
X105024436Y-130950552D02*
X105214912Y-130950552D01*
X105214912Y-130950552D02*
X105310150Y-130998171D01*
X105310150Y-130998171D02*
X105357769Y-131045790D01*
X105357769Y-131045790D02*
X105405388Y-131141028D01*
X105405388Y-131141028D02*
X105405388Y-131426742D01*
X105405388Y-131426742D02*
X105357769Y-131521980D01*
X105357769Y-131521980D02*
X105310150Y-131569600D01*
X105310150Y-131569600D02*
X105214912Y-131617219D01*
X105214912Y-131617219D02*
X105024436Y-131617219D01*
X105024436Y-131617219D02*
X104929198Y-131569600D01*
X106262531Y-131617219D02*
X106262531Y-131093409D01*
X106262531Y-131093409D02*
X106214912Y-130998171D01*
X106214912Y-130998171D02*
X106119674Y-130950552D01*
X106119674Y-130950552D02*
X105929198Y-130950552D01*
X105929198Y-130950552D02*
X105833960Y-130998171D01*
X106262531Y-131569600D02*
X106167293Y-131617219D01*
X106167293Y-131617219D02*
X105929198Y-131617219D01*
X105929198Y-131617219D02*
X105833960Y-131569600D01*
X105833960Y-131569600D02*
X105786341Y-131474361D01*
X105786341Y-131474361D02*
X105786341Y-131379123D01*
X105786341Y-131379123D02*
X105833960Y-131283885D01*
X105833960Y-131283885D02*
X105929198Y-131236266D01*
X105929198Y-131236266D02*
X106167293Y-131236266D01*
X106167293Y-131236266D02*
X106262531Y-131188647D01*
X106595865Y-130950552D02*
X106976817Y-130950552D01*
X106738722Y-130617219D02*
X106738722Y-131474361D01*
X106738722Y-131474361D02*
X106786341Y-131569600D01*
X106786341Y-131569600D02*
X106881579Y-131617219D01*
X106881579Y-131617219D02*
X106976817Y-131617219D01*
X107310151Y-131617219D02*
X107310151Y-130617219D01*
X107738722Y-131617219D02*
X107738722Y-131093409D01*
X107738722Y-131093409D02*
X107691103Y-130998171D01*
X107691103Y-130998171D02*
X107595865Y-130950552D01*
X107595865Y-130950552D02*
X107453008Y-130950552D01*
X107453008Y-130950552D02*
X107357770Y-130998171D01*
X107357770Y-130998171D02*
X107310151Y-131045790D01*
X108357770Y-131617219D02*
X108262532Y-131569600D01*
X108262532Y-131569600D02*
X108214913Y-131521980D01*
X108214913Y-131521980D02*
X108167294Y-131426742D01*
X108167294Y-131426742D02*
X108167294Y-131141028D01*
X108167294Y-131141028D02*
X108214913Y-131045790D01*
X108214913Y-131045790D02*
X108262532Y-130998171D01*
X108262532Y-130998171D02*
X108357770Y-130950552D01*
X108357770Y-130950552D02*
X108500627Y-130950552D01*
X108500627Y-130950552D02*
X108595865Y-130998171D01*
X108595865Y-130998171D02*
X108643484Y-131045790D01*
X108643484Y-131045790D02*
X108691103Y-131141028D01*
X108691103Y-131141028D02*
X108691103Y-131426742D01*
X108691103Y-131426742D02*
X108643484Y-131521980D01*
X108643484Y-131521980D02*
X108595865Y-131569600D01*
X108595865Y-131569600D02*
X108500627Y-131617219D01*
X108500627Y-131617219D02*
X108357770Y-131617219D01*
X109548246Y-130950552D02*
X109548246Y-131617219D01*
X109119675Y-130950552D02*
X109119675Y-131474361D01*
X109119675Y-131474361D02*
X109167294Y-131569600D01*
X109167294Y-131569600D02*
X109262532Y-131617219D01*
X109262532Y-131617219D02*
X109405389Y-131617219D01*
X109405389Y-131617219D02*
X109500627Y-131569600D01*
X109500627Y-131569600D02*
X109548246Y-131521980D01*
X110453008Y-130950552D02*
X110453008Y-131760076D01*
X110453008Y-131760076D02*
X110405389Y-131855314D01*
X110405389Y-131855314D02*
X110357770Y-131902933D01*
X110357770Y-131902933D02*
X110262532Y-131950552D01*
X110262532Y-131950552D02*
X110119675Y-131950552D01*
X110119675Y-131950552D02*
X110024437Y-131902933D01*
X110453008Y-131569600D02*
X110357770Y-131617219D01*
X110357770Y-131617219D02*
X110167294Y-131617219D01*
X110167294Y-131617219D02*
X110072056Y-131569600D01*
X110072056Y-131569600D02*
X110024437Y-131521980D01*
X110024437Y-131521980D02*
X109976818Y-131426742D01*
X109976818Y-131426742D02*
X109976818Y-131141028D01*
X109976818Y-131141028D02*
X110024437Y-131045790D01*
X110024437Y-131045790D02*
X110072056Y-130998171D01*
X110072056Y-130998171D02*
X110167294Y-130950552D01*
X110167294Y-130950552D02*
X110357770Y-130950552D01*
X110357770Y-130950552D02*
X110453008Y-130998171D01*
X110929199Y-131617219D02*
X110929199Y-130617219D01*
X111357770Y-131617219D02*
X111357770Y-131093409D01*
X111357770Y-131093409D02*
X111310151Y-130998171D01*
X111310151Y-130998171D02*
X111214913Y-130950552D01*
X111214913Y-130950552D02*
X111072056Y-130950552D01*
X111072056Y-130950552D02*
X110976818Y-130998171D01*
X110976818Y-130998171D02*
X110929199Y-131045790D01*
X111691104Y-130950552D02*
X112072056Y-130950552D01*
X111833961Y-130617219D02*
X111833961Y-131474361D01*
X111833961Y-131474361D02*
X111881580Y-131569600D01*
X111881580Y-131569600D02*
X111976818Y-131617219D01*
X111976818Y-131617219D02*
X112072056Y-131617219D01*
X100203006Y-125343409D02*
X100345863Y-125391028D01*
X100345863Y-125391028D02*
X100393482Y-125438647D01*
X100393482Y-125438647D02*
X100441101Y-125533885D01*
X100441101Y-125533885D02*
X100441101Y-125676742D01*
X100441101Y-125676742D02*
X100393482Y-125771980D01*
X100393482Y-125771980D02*
X100345863Y-125819600D01*
X100345863Y-125819600D02*
X100250625Y-125867219D01*
X100250625Y-125867219D02*
X99869673Y-125867219D01*
X99869673Y-125867219D02*
X99869673Y-124867219D01*
X99869673Y-124867219D02*
X100203006Y-124867219D01*
X100203006Y-124867219D02*
X100298244Y-124914838D01*
X100298244Y-124914838D02*
X100345863Y-124962457D01*
X100345863Y-124962457D02*
X100393482Y-125057695D01*
X100393482Y-125057695D02*
X100393482Y-125152933D01*
X100393482Y-125152933D02*
X100345863Y-125248171D01*
X100345863Y-125248171D02*
X100298244Y-125295790D01*
X100298244Y-125295790D02*
X100203006Y-125343409D01*
X100203006Y-125343409D02*
X99869673Y-125343409D01*
X101298244Y-125867219D02*
X101298244Y-125343409D01*
X101298244Y-125343409D02*
X101250625Y-125248171D01*
X101250625Y-125248171D02*
X101155387Y-125200552D01*
X101155387Y-125200552D02*
X100964911Y-125200552D01*
X100964911Y-125200552D02*
X100869673Y-125248171D01*
X101298244Y-125819600D02*
X101203006Y-125867219D01*
X101203006Y-125867219D02*
X100964911Y-125867219D01*
X100964911Y-125867219D02*
X100869673Y-125819600D01*
X100869673Y-125819600D02*
X100822054Y-125724361D01*
X100822054Y-125724361D02*
X100822054Y-125629123D01*
X100822054Y-125629123D02*
X100869673Y-125533885D01*
X100869673Y-125533885D02*
X100964911Y-125486266D01*
X100964911Y-125486266D02*
X101203006Y-125486266D01*
X101203006Y-125486266D02*
X101298244Y-125438647D01*
X102203006Y-125819600D02*
X102107768Y-125867219D01*
X102107768Y-125867219D02*
X101917292Y-125867219D01*
X101917292Y-125867219D02*
X101822054Y-125819600D01*
X101822054Y-125819600D02*
X101774435Y-125771980D01*
X101774435Y-125771980D02*
X101726816Y-125676742D01*
X101726816Y-125676742D02*
X101726816Y-125391028D01*
X101726816Y-125391028D02*
X101774435Y-125295790D01*
X101774435Y-125295790D02*
X101822054Y-125248171D01*
X101822054Y-125248171D02*
X101917292Y-125200552D01*
X101917292Y-125200552D02*
X102107768Y-125200552D01*
X102107768Y-125200552D02*
X102203006Y-125248171D01*
X102631578Y-125867219D02*
X102631578Y-124867219D01*
X102726816Y-125486266D02*
X103012530Y-125867219D01*
X103012530Y-125200552D02*
X102631578Y-125581504D01*
X100845863Y-108117219D02*
X100369673Y-108117219D01*
X100369673Y-108117219D02*
X100369673Y-107117219D01*
X101560149Y-108069600D02*
X101464911Y-108117219D01*
X101464911Y-108117219D02*
X101274435Y-108117219D01*
X101274435Y-108117219D02*
X101179197Y-108069600D01*
X101179197Y-108069600D02*
X101131578Y-107974361D01*
X101131578Y-107974361D02*
X101131578Y-107593409D01*
X101131578Y-107593409D02*
X101179197Y-107498171D01*
X101179197Y-107498171D02*
X101274435Y-107450552D01*
X101274435Y-107450552D02*
X101464911Y-107450552D01*
X101464911Y-107450552D02*
X101560149Y-107498171D01*
X101560149Y-107498171D02*
X101607768Y-107593409D01*
X101607768Y-107593409D02*
X101607768Y-107688647D01*
X101607768Y-107688647D02*
X101131578Y-107783885D01*
X101893483Y-107450552D02*
X102274435Y-107450552D01*
X102036340Y-108117219D02*
X102036340Y-107260076D01*
X102036340Y-107260076D02*
X102083959Y-107164838D01*
X102083959Y-107164838D02*
X102179197Y-107117219D01*
X102179197Y-107117219D02*
X102274435Y-107117219D01*
X102464912Y-107450552D02*
X102845864Y-107450552D01*
X102607769Y-107117219D02*
X102607769Y-107974361D01*
X102607769Y-107974361D02*
X102655388Y-108069600D01*
X102655388Y-108069600D02*
X102750626Y-108117219D01*
X102750626Y-108117219D02*
X102845864Y-108117219D01*
X111369673Y-125867219D02*
X111369673Y-124867219D01*
X111369673Y-124867219D02*
X111607768Y-124867219D01*
X111607768Y-124867219D02*
X111750625Y-124914838D01*
X111750625Y-124914838D02*
X111845863Y-125010076D01*
X111845863Y-125010076D02*
X111893482Y-125105314D01*
X111893482Y-125105314D02*
X111941101Y-125295790D01*
X111941101Y-125295790D02*
X111941101Y-125438647D01*
X111941101Y-125438647D02*
X111893482Y-125629123D01*
X111893482Y-125629123D02*
X111845863Y-125724361D01*
X111845863Y-125724361D02*
X111750625Y-125819600D01*
X111750625Y-125819600D02*
X111607768Y-125867219D01*
X111607768Y-125867219D02*
X111369673Y-125867219D01*
X112512530Y-125867219D02*
X112417292Y-125819600D01*
X112417292Y-125819600D02*
X112369673Y-125771980D01*
X112369673Y-125771980D02*
X112322054Y-125676742D01*
X112322054Y-125676742D02*
X112322054Y-125391028D01*
X112322054Y-125391028D02*
X112369673Y-125295790D01*
X112369673Y-125295790D02*
X112417292Y-125248171D01*
X112417292Y-125248171D02*
X112512530Y-125200552D01*
X112512530Y-125200552D02*
X112655387Y-125200552D01*
X112655387Y-125200552D02*
X112750625Y-125248171D01*
X112750625Y-125248171D02*
X112798244Y-125295790D01*
X112798244Y-125295790D02*
X112845863Y-125391028D01*
X112845863Y-125391028D02*
X112845863Y-125676742D01*
X112845863Y-125676742D02*
X112798244Y-125771980D01*
X112798244Y-125771980D02*
X112750625Y-125819600D01*
X112750625Y-125819600D02*
X112655387Y-125867219D01*
X112655387Y-125867219D02*
X112512530Y-125867219D01*
X113179197Y-125200552D02*
X113369673Y-125867219D01*
X113369673Y-125867219D02*
X113560149Y-125391028D01*
X113560149Y-125391028D02*
X113750625Y-125867219D01*
X113750625Y-125867219D02*
X113941101Y-125200552D01*
X114322054Y-125200552D02*
X114322054Y-125867219D01*
X114322054Y-125295790D02*
X114369673Y-125248171D01*
X114369673Y-125248171D02*
X114464911Y-125200552D01*
X114464911Y-125200552D02*
X114607768Y-125200552D01*
X114607768Y-125200552D02*
X114703006Y-125248171D01*
X114703006Y-125248171D02*
X114750625Y-125343409D01*
X114750625Y-125343409D02*
X114750625Y-125867219D01*
X112464911Y-107117219D02*
X112655387Y-107117219D01*
X112655387Y-107117219D02*
X112750625Y-107164838D01*
X112750625Y-107164838D02*
X112845863Y-107260076D01*
X112845863Y-107260076D02*
X112893482Y-107450552D01*
X112893482Y-107450552D02*
X112893482Y-107783885D01*
X112893482Y-107783885D02*
X112845863Y-107974361D01*
X112845863Y-107974361D02*
X112750625Y-108069600D01*
X112750625Y-108069600D02*
X112655387Y-108117219D01*
X112655387Y-108117219D02*
X112464911Y-108117219D01*
X112464911Y-108117219D02*
X112369673Y-108069600D01*
X112369673Y-108069600D02*
X112274435Y-107974361D01*
X112274435Y-107974361D02*
X112226816Y-107783885D01*
X112226816Y-107783885D02*
X112226816Y-107450552D01*
X112226816Y-107450552D02*
X112274435Y-107260076D01*
X112274435Y-107260076D02*
X112369673Y-107164838D01*
X112369673Y-107164838D02*
X112464911Y-107117219D01*
X113322054Y-108117219D02*
X113322054Y-107117219D01*
X113893482Y-108117219D02*
X113464911Y-107545790D01*
X113893482Y-107117219D02*
X113322054Y-107688647D01*
X112322054Y-97367219D02*
X112322054Y-98176742D01*
X112322054Y-98176742D02*
X112369673Y-98271980D01*
X112369673Y-98271980D02*
X112417292Y-98319600D01*
X112417292Y-98319600D02*
X112512530Y-98367219D01*
X112512530Y-98367219D02*
X112703006Y-98367219D01*
X112703006Y-98367219D02*
X112798244Y-98319600D01*
X112798244Y-98319600D02*
X112845863Y-98271980D01*
X112845863Y-98271980D02*
X112893482Y-98176742D01*
X112893482Y-98176742D02*
X112893482Y-97367219D01*
X113369673Y-97700552D02*
X113369673Y-98700552D01*
X113369673Y-97748171D02*
X113464911Y-97700552D01*
X113464911Y-97700552D02*
X113655387Y-97700552D01*
X113655387Y-97700552D02*
X113750625Y-97748171D01*
X113750625Y-97748171D02*
X113798244Y-97795790D01*
X113798244Y-97795790D02*
X113845863Y-97891028D01*
X113845863Y-97891028D02*
X113845863Y-98176742D01*
X113845863Y-98176742D02*
X113798244Y-98271980D01*
X113798244Y-98271980D02*
X113750625Y-98319600D01*
X113750625Y-98319600D02*
X113655387Y-98367219D01*
X113655387Y-98367219D02*
X113464911Y-98367219D01*
X113464911Y-98367219D02*
X113369673Y-98319600D01*
X123191101Y-108117219D02*
X122857768Y-107641028D01*
X122619673Y-108117219D02*
X122619673Y-107117219D01*
X122619673Y-107117219D02*
X123000625Y-107117219D01*
X123000625Y-107117219D02*
X123095863Y-107164838D01*
X123095863Y-107164838D02*
X123143482Y-107212457D01*
X123143482Y-107212457D02*
X123191101Y-107307695D01*
X123191101Y-107307695D02*
X123191101Y-107450552D01*
X123191101Y-107450552D02*
X123143482Y-107545790D01*
X123143482Y-107545790D02*
X123095863Y-107593409D01*
X123095863Y-107593409D02*
X123000625Y-107641028D01*
X123000625Y-107641028D02*
X122619673Y-107641028D01*
X123619673Y-108117219D02*
X123619673Y-107450552D01*
X123619673Y-107117219D02*
X123572054Y-107164838D01*
X123572054Y-107164838D02*
X123619673Y-107212457D01*
X123619673Y-107212457D02*
X123667292Y-107164838D01*
X123667292Y-107164838D02*
X123619673Y-107117219D01*
X123619673Y-107117219D02*
X123619673Y-107212457D01*
X124524434Y-107450552D02*
X124524434Y-108260076D01*
X124524434Y-108260076D02*
X124476815Y-108355314D01*
X124476815Y-108355314D02*
X124429196Y-108402933D01*
X124429196Y-108402933D02*
X124333958Y-108450552D01*
X124333958Y-108450552D02*
X124191101Y-108450552D01*
X124191101Y-108450552D02*
X124095863Y-108402933D01*
X124524434Y-108069600D02*
X124429196Y-108117219D01*
X124429196Y-108117219D02*
X124238720Y-108117219D01*
X124238720Y-108117219D02*
X124143482Y-108069600D01*
X124143482Y-108069600D02*
X124095863Y-108021980D01*
X124095863Y-108021980D02*
X124048244Y-107926742D01*
X124048244Y-107926742D02*
X124048244Y-107641028D01*
X124048244Y-107641028D02*
X124095863Y-107545790D01*
X124095863Y-107545790D02*
X124143482Y-107498171D01*
X124143482Y-107498171D02*
X124238720Y-107450552D01*
X124238720Y-107450552D02*
X124429196Y-107450552D01*
X124429196Y-107450552D02*
X124524434Y-107498171D01*
X125000625Y-108117219D02*
X125000625Y-107117219D01*
X125429196Y-108117219D02*
X125429196Y-107593409D01*
X125429196Y-107593409D02*
X125381577Y-107498171D01*
X125381577Y-107498171D02*
X125286339Y-107450552D01*
X125286339Y-107450552D02*
X125143482Y-107450552D01*
X125143482Y-107450552D02*
X125048244Y-107498171D01*
X125048244Y-107498171D02*
X125000625Y-107545790D01*
X125762530Y-107450552D02*
X126143482Y-107450552D01*
X125905387Y-107117219D02*
X125905387Y-107974361D01*
X125905387Y-107974361D02*
X125953006Y-108069600D01*
X125953006Y-108069600D02*
X126048244Y-108117219D01*
X126048244Y-108117219D02*
X126143482Y-108117219D01*
D12*
X100247024Y-121719700D02*
X100389881Y-121767319D01*
X100389881Y-121767319D02*
X100627976Y-121767319D01*
X100627976Y-121767319D02*
X100723214Y-121719700D01*
X100723214Y-121719700D02*
X100770833Y-121672080D01*
X100770833Y-121672080D02*
X100818452Y-121576842D01*
X100818452Y-121576842D02*
X100818452Y-121481604D01*
X100818452Y-121481604D02*
X100770833Y-121386366D01*
X100770833Y-121386366D02*
X100723214Y-121338747D01*
X100723214Y-121338747D02*
X100627976Y-121291128D01*
X100627976Y-121291128D02*
X100437500Y-121243509D01*
X100437500Y-121243509D02*
X100342262Y-121195890D01*
X100342262Y-121195890D02*
X100294643Y-121148271D01*
X100294643Y-121148271D02*
X100247024Y-121053033D01*
X100247024Y-121053033D02*
X100247024Y-120957795D01*
X100247024Y-120957795D02*
X100294643Y-120862557D01*
X100294643Y-120862557D02*
X100342262Y-120814938D01*
X100342262Y-120814938D02*
X100437500Y-120767319D01*
X100437500Y-120767319D02*
X100675595Y-120767319D01*
X100675595Y-120767319D02*
X100818452Y-120814938D01*
X101151786Y-120767319D02*
X101389881Y-121767319D01*
X101389881Y-121767319D02*
X101580357Y-121053033D01*
X101580357Y-121053033D02*
X101770833Y-121767319D01*
X101770833Y-121767319D02*
X102008929Y-120767319D01*
X102818452Y-121100652D02*
X102818452Y-121767319D01*
X102580357Y-120719700D02*
X102342262Y-121433985D01*
X102342262Y-121433985D02*
X102961309Y-121433985D01*
X111747024Y-112157200D02*
X111889881Y-112204819D01*
X111889881Y-112204819D02*
X112127976Y-112204819D01*
X112127976Y-112204819D02*
X112223214Y-112157200D01*
X112223214Y-112157200D02*
X112270833Y-112109580D01*
X112270833Y-112109580D02*
X112318452Y-112014342D01*
X112318452Y-112014342D02*
X112318452Y-111919104D01*
X112318452Y-111919104D02*
X112270833Y-111823866D01*
X112270833Y-111823866D02*
X112223214Y-111776247D01*
X112223214Y-111776247D02*
X112127976Y-111728628D01*
X112127976Y-111728628D02*
X111937500Y-111681009D01*
X111937500Y-111681009D02*
X111842262Y-111633390D01*
X111842262Y-111633390D02*
X111794643Y-111585771D01*
X111794643Y-111585771D02*
X111747024Y-111490533D01*
X111747024Y-111490533D02*
X111747024Y-111395295D01*
X111747024Y-111395295D02*
X111794643Y-111300057D01*
X111794643Y-111300057D02*
X111842262Y-111252438D01*
X111842262Y-111252438D02*
X111937500Y-111204819D01*
X111937500Y-111204819D02*
X112175595Y-111204819D01*
X112175595Y-111204819D02*
X112318452Y-111252438D01*
X112651786Y-111204819D02*
X112889881Y-112204819D01*
X112889881Y-112204819D02*
X113080357Y-111490533D01*
X113080357Y-111490533D02*
X113270833Y-112204819D01*
X113270833Y-112204819D02*
X113508929Y-111204819D01*
X113794643Y-111204819D02*
X114413690Y-111204819D01*
X114413690Y-111204819D02*
X114080357Y-111585771D01*
X114080357Y-111585771D02*
X114223214Y-111585771D01*
X114223214Y-111585771D02*
X114318452Y-111633390D01*
X114318452Y-111633390D02*
X114366071Y-111681009D01*
X114366071Y-111681009D02*
X114413690Y-111776247D01*
X114413690Y-111776247D02*
X114413690Y-112014342D01*
X114413690Y-112014342D02*
X114366071Y-112109580D01*
X114366071Y-112109580D02*
X114318452Y-112157200D01*
X114318452Y-112157200D02*
X114223214Y-112204819D01*
X114223214Y-112204819D02*
X113937500Y-112204819D01*
X113937500Y-112204819D02*
X113842262Y-112157200D01*
X113842262Y-112157200D02*
X113794643Y-112109580D01*
X111622024Y-102594700D02*
X111764881Y-102642319D01*
X111764881Y-102642319D02*
X112002976Y-102642319D01*
X112002976Y-102642319D02*
X112098214Y-102594700D01*
X112098214Y-102594700D02*
X112145833Y-102547080D01*
X112145833Y-102547080D02*
X112193452Y-102451842D01*
X112193452Y-102451842D02*
X112193452Y-102356604D01*
X112193452Y-102356604D02*
X112145833Y-102261366D01*
X112145833Y-102261366D02*
X112098214Y-102213747D01*
X112098214Y-102213747D02*
X112002976Y-102166128D01*
X112002976Y-102166128D02*
X111812500Y-102118509D01*
X111812500Y-102118509D02*
X111717262Y-102070890D01*
X111717262Y-102070890D02*
X111669643Y-102023271D01*
X111669643Y-102023271D02*
X111622024Y-101928033D01*
X111622024Y-101928033D02*
X111622024Y-101832795D01*
X111622024Y-101832795D02*
X111669643Y-101737557D01*
X111669643Y-101737557D02*
X111717262Y-101689938D01*
X111717262Y-101689938D02*
X111812500Y-101642319D01*
X111812500Y-101642319D02*
X112050595Y-101642319D01*
X112050595Y-101642319D02*
X112193452Y-101689938D01*
X112526786Y-101642319D02*
X112764881Y-102642319D01*
X112764881Y-102642319D02*
X112955357Y-101928033D01*
X112955357Y-101928033D02*
X113145833Y-102642319D01*
X113145833Y-102642319D02*
X113383929Y-101642319D01*
X114288690Y-102642319D02*
X113717262Y-102642319D01*
X114002976Y-102642319D02*
X114002976Y-101642319D01*
X114002976Y-101642319D02*
X113907738Y-101785176D01*
X113907738Y-101785176D02*
X113812500Y-101880414D01*
X113812500Y-101880414D02*
X113717262Y-101928033D01*
X123122024Y-112157200D02*
X123264881Y-112204819D01*
X123264881Y-112204819D02*
X123502976Y-112204819D01*
X123502976Y-112204819D02*
X123598214Y-112157200D01*
X123598214Y-112157200D02*
X123645833Y-112109580D01*
X123645833Y-112109580D02*
X123693452Y-112014342D01*
X123693452Y-112014342D02*
X123693452Y-111919104D01*
X123693452Y-111919104D02*
X123645833Y-111823866D01*
X123645833Y-111823866D02*
X123598214Y-111776247D01*
X123598214Y-111776247D02*
X123502976Y-111728628D01*
X123502976Y-111728628D02*
X123312500Y-111681009D01*
X123312500Y-111681009D02*
X123217262Y-111633390D01*
X123217262Y-111633390D02*
X123169643Y-111585771D01*
X123169643Y-111585771D02*
X123122024Y-111490533D01*
X123122024Y-111490533D02*
X123122024Y-111395295D01*
X123122024Y-111395295D02*
X123169643Y-111300057D01*
X123169643Y-111300057D02*
X123217262Y-111252438D01*
X123217262Y-111252438D02*
X123312500Y-111204819D01*
X123312500Y-111204819D02*
X123550595Y-111204819D01*
X123550595Y-111204819D02*
X123693452Y-111252438D01*
X124026786Y-111204819D02*
X124264881Y-112204819D01*
X124264881Y-112204819D02*
X124455357Y-111490533D01*
X124455357Y-111490533D02*
X124645833Y-112204819D01*
X124645833Y-112204819D02*
X124883929Y-111204819D01*
X125693452Y-111204819D02*
X125502976Y-111204819D01*
X125502976Y-111204819D02*
X125407738Y-111252438D01*
X125407738Y-111252438D02*
X125360119Y-111300057D01*
X125360119Y-111300057D02*
X125264881Y-111442914D01*
X125264881Y-111442914D02*
X125217262Y-111633390D01*
X125217262Y-111633390D02*
X125217262Y-112014342D01*
X125217262Y-112014342D02*
X125264881Y-112109580D01*
X125264881Y-112109580D02*
X125312500Y-112157200D01*
X125312500Y-112157200D02*
X125407738Y-112204819D01*
X125407738Y-112204819D02*
X125598214Y-112204819D01*
X125598214Y-112204819D02*
X125693452Y-112157200D01*
X125693452Y-112157200D02*
X125741071Y-112109580D01*
X125741071Y-112109580D02*
X125788690Y-112014342D01*
X125788690Y-112014342D02*
X125788690Y-111776247D01*
X125788690Y-111776247D02*
X125741071Y-111681009D01*
X125741071Y-111681009D02*
X125693452Y-111633390D01*
X125693452Y-111633390D02*
X125598214Y-111585771D01*
X125598214Y-111585771D02*
X125407738Y-111585771D01*
X125407738Y-111585771D02*
X125312500Y-111633390D01*
X125312500Y-111633390D02*
X125264881Y-111681009D01*
X125264881Y-111681009D02*
X125217262Y-111776247D01*
X104988095Y-69704819D02*
X104988095Y-70514342D01*
X104988095Y-70514342D02*
X105035714Y-70609580D01*
X105035714Y-70609580D02*
X105083333Y-70657200D01*
X105083333Y-70657200D02*
X105178571Y-70704819D01*
X105178571Y-70704819D02*
X105369047Y-70704819D01*
X105369047Y-70704819D02*
X105464285Y-70657200D01*
X105464285Y-70657200D02*
X105511904Y-70609580D01*
X105511904Y-70609580D02*
X105559523Y-70514342D01*
X105559523Y-70514342D02*
X105559523Y-69704819D01*
X105988095Y-69800057D02*
X106035714Y-69752438D01*
X106035714Y-69752438D02*
X106130952Y-69704819D01*
X106130952Y-69704819D02*
X106369047Y-69704819D01*
X106369047Y-69704819D02*
X106464285Y-69752438D01*
X106464285Y-69752438D02*
X106511904Y-69800057D01*
X106511904Y-69800057D02*
X106559523Y-69895295D01*
X106559523Y-69895295D02*
X106559523Y-69990533D01*
X106559523Y-69990533D02*
X106511904Y-70133390D01*
X106511904Y-70133390D02*
X105940476Y-70704819D01*
X105940476Y-70704819D02*
X106559523Y-70704819D01*
X100372024Y-112157200D02*
X100514881Y-112204819D01*
X100514881Y-112204819D02*
X100752976Y-112204819D01*
X100752976Y-112204819D02*
X100848214Y-112157200D01*
X100848214Y-112157200D02*
X100895833Y-112109580D01*
X100895833Y-112109580D02*
X100943452Y-112014342D01*
X100943452Y-112014342D02*
X100943452Y-111919104D01*
X100943452Y-111919104D02*
X100895833Y-111823866D01*
X100895833Y-111823866D02*
X100848214Y-111776247D01*
X100848214Y-111776247D02*
X100752976Y-111728628D01*
X100752976Y-111728628D02*
X100562500Y-111681009D01*
X100562500Y-111681009D02*
X100467262Y-111633390D01*
X100467262Y-111633390D02*
X100419643Y-111585771D01*
X100419643Y-111585771D02*
X100372024Y-111490533D01*
X100372024Y-111490533D02*
X100372024Y-111395295D01*
X100372024Y-111395295D02*
X100419643Y-111300057D01*
X100419643Y-111300057D02*
X100467262Y-111252438D01*
X100467262Y-111252438D02*
X100562500Y-111204819D01*
X100562500Y-111204819D02*
X100800595Y-111204819D01*
X100800595Y-111204819D02*
X100943452Y-111252438D01*
X101276786Y-111204819D02*
X101514881Y-112204819D01*
X101514881Y-112204819D02*
X101705357Y-111490533D01*
X101705357Y-111490533D02*
X101895833Y-112204819D01*
X101895833Y-112204819D02*
X102133929Y-111204819D01*
X102991071Y-111204819D02*
X102514881Y-111204819D01*
X102514881Y-111204819D02*
X102467262Y-111681009D01*
X102467262Y-111681009D02*
X102514881Y-111633390D01*
X102514881Y-111633390D02*
X102610119Y-111585771D01*
X102610119Y-111585771D02*
X102848214Y-111585771D01*
X102848214Y-111585771D02*
X102943452Y-111633390D01*
X102943452Y-111633390D02*
X102991071Y-111681009D01*
X102991071Y-111681009D02*
X103038690Y-111776247D01*
X103038690Y-111776247D02*
X103038690Y-112014342D01*
X103038690Y-112014342D02*
X102991071Y-112109580D01*
X102991071Y-112109580D02*
X102943452Y-112157200D01*
X102943452Y-112157200D02*
X102848214Y-112204819D01*
X102848214Y-112204819D02*
X102610119Y-112204819D01*
X102610119Y-112204819D02*
X102514881Y-112157200D01*
X102514881Y-112157200D02*
X102467262Y-112109580D01*
X111622024Y-121719700D02*
X111764881Y-121767319D01*
X111764881Y-121767319D02*
X112002976Y-121767319D01*
X112002976Y-121767319D02*
X112098214Y-121719700D01*
X112098214Y-121719700D02*
X112145833Y-121672080D01*
X112145833Y-121672080D02*
X112193452Y-121576842D01*
X112193452Y-121576842D02*
X112193452Y-121481604D01*
X112193452Y-121481604D02*
X112145833Y-121386366D01*
X112145833Y-121386366D02*
X112098214Y-121338747D01*
X112098214Y-121338747D02*
X112002976Y-121291128D01*
X112002976Y-121291128D02*
X111812500Y-121243509D01*
X111812500Y-121243509D02*
X111717262Y-121195890D01*
X111717262Y-121195890D02*
X111669643Y-121148271D01*
X111669643Y-121148271D02*
X111622024Y-121053033D01*
X111622024Y-121053033D02*
X111622024Y-120957795D01*
X111622024Y-120957795D02*
X111669643Y-120862557D01*
X111669643Y-120862557D02*
X111717262Y-120814938D01*
X111717262Y-120814938D02*
X111812500Y-120767319D01*
X111812500Y-120767319D02*
X112050595Y-120767319D01*
X112050595Y-120767319D02*
X112193452Y-120814938D01*
X112526786Y-120767319D02*
X112764881Y-121767319D01*
X112764881Y-121767319D02*
X112955357Y-121053033D01*
X112955357Y-121053033D02*
X113145833Y-121767319D01*
X113145833Y-121767319D02*
X113383929Y-120767319D01*
X113717262Y-120862557D02*
X113764881Y-120814938D01*
X113764881Y-120814938D02*
X113860119Y-120767319D01*
X113860119Y-120767319D02*
X114098214Y-120767319D01*
X114098214Y-120767319D02*
X114193452Y-120814938D01*
X114193452Y-120814938D02*
X114241071Y-120862557D01*
X114241071Y-120862557D02*
X114288690Y-120957795D01*
X114288690Y-120957795D02*
X114288690Y-121053033D01*
X114288690Y-121053033D02*
X114241071Y-121195890D01*
X114241071Y-121195890D02*
X113669643Y-121767319D01*
X113669643Y-121767319D02*
X114288690Y-121767319D01*
%TO.C,SW4*%
D13*
X98830357Y-120312500D02*
X98830357Y-122312500D01*
X99830357Y-119012500D02*
X100280357Y-118562500D01*
X99830357Y-123612500D02*
X100280357Y-124062500D01*
X100280357Y-118562500D02*
X102880357Y-118562500D01*
X100280357Y-124062500D02*
X102880357Y-124062500D01*
X103330357Y-119012500D02*
X102880357Y-118562500D01*
X103330357Y-123612500D02*
X102880357Y-124062500D01*
X104330357Y-120312500D02*
X104330357Y-122312500D01*
%TO.C,SW3*%
X110330357Y-110750000D02*
X110330357Y-112750000D01*
X111330357Y-109450000D02*
X111780357Y-109000000D01*
X111330357Y-114050000D02*
X111780357Y-114500000D01*
X111780357Y-109000000D02*
X114380357Y-109000000D01*
X111780357Y-114500000D02*
X114380357Y-114500000D01*
X114830357Y-109450000D02*
X114380357Y-109000000D01*
X114830357Y-114050000D02*
X114380357Y-114500000D01*
X115830357Y-110750000D02*
X115830357Y-112750000D01*
%TO.C,SW1*%
X110205357Y-101187500D02*
X110205357Y-103187500D01*
X111205357Y-99887500D02*
X111655357Y-99437500D01*
X111205357Y-104487500D02*
X111655357Y-104937500D01*
X111655357Y-99437500D02*
X114255357Y-99437500D01*
X111655357Y-104937500D02*
X114255357Y-104937500D01*
X114705357Y-99887500D02*
X114255357Y-99437500D01*
X114705357Y-104487500D02*
X114255357Y-104937500D01*
X115705357Y-101187500D02*
X115705357Y-103187500D01*
%TO.C,SW6*%
X121705357Y-110750000D02*
X121705357Y-112750000D01*
X122705357Y-109450000D02*
X123155357Y-109000000D01*
X122705357Y-114050000D02*
X123155357Y-114500000D01*
X123155357Y-109000000D02*
X125755357Y-109000000D01*
X123155357Y-114500000D02*
X125755357Y-114500000D01*
X126205357Y-109450000D02*
X125755357Y-109000000D01*
X126205357Y-114050000D02*
X125755357Y-114500000D01*
X127205357Y-110750000D02*
X127205357Y-112750000D01*
%TO.C,U2*%
D14*
X100125000Y-68000000D02*
X126125000Y-68000000D01*
X100125000Y-94000000D02*
X100125000Y-68000000D01*
X106125000Y-92000000D02*
X106125000Y-94000000D01*
X106125000Y-94000000D02*
X100125000Y-94000000D01*
X120125000Y-92000000D02*
X106125000Y-92000000D01*
X120125000Y-94000000D02*
X120125000Y-92000000D01*
X126125000Y-68000000D02*
X126125000Y-94000000D01*
X126125000Y-94000000D02*
X120125000Y-94000000D01*
D11*
X109225000Y-67500000D02*
G75*
G02*
X109025000Y-67500000I-100000J0D01*
G01*
X109025000Y-67500000D02*
G75*
G02*
X109225000Y-67500000I100000J0D01*
G01*
%TO.C,SW5*%
D13*
X98955357Y-110750000D02*
X98955357Y-112750000D01*
X99955357Y-109450000D02*
X100405357Y-109000000D01*
X99955357Y-114050000D02*
X100405357Y-114500000D01*
X100405357Y-109000000D02*
X103005357Y-109000000D01*
X100405357Y-114500000D02*
X103005357Y-114500000D01*
X103455357Y-109450000D02*
X103005357Y-109000000D01*
X103455357Y-114050000D02*
X103005357Y-114500000D01*
X104455357Y-110750000D02*
X104455357Y-112750000D01*
%TO.C,SW2*%
X110205357Y-120312500D02*
X110205357Y-122312500D01*
X111205357Y-119012500D02*
X111655357Y-118562500D01*
X111205357Y-123612500D02*
X111655357Y-124062500D01*
X111655357Y-118562500D02*
X114255357Y-118562500D01*
X111655357Y-124062500D02*
X114255357Y-124062500D01*
X114705357Y-119012500D02*
X114255357Y-118562500D01*
X114705357Y-123612500D02*
X114255357Y-124062500D01*
X115705357Y-120312500D02*
X115705357Y-122312500D01*
%TD*%
M02*
