M48
; DRILL file KiCad 10.0.4 date 2026-07-23T18:22:32
; FORMAT={-:-/ absolute / metric / decimal}
; #@! TF.CreationDate,2026-07-23T18:22:32+03:00
; #@! TF.GenerationSoftware,Kicad,Pcbnew,10.0.4
; #@! TF.FileFunction,Plated,1,2,PTH
FMAT,2
METRIC
; #@! TA.AperFunction,Plated,PTH,ViaDrill
T1C0.300
; #@! TA.AperFunction,Plated,PTH,ComponentDrill
T2C0.800
; #@! TA.AperFunction,Plated,PTH,ComponentDrill
T3C0.900
; #@! TA.AperFunction,Plated,PTH,ComponentDrill
T4C1.000
; #@! TA.AperFunction,Plated,PTH,ComponentDrill
T5C1.500
; #@! TA.AperFunction,Plated,PTH,ComponentDrill
T6C2.000
%
G90
G05
T1
X96.0Y-76.5
X98.0Y-77.5
X98.5Y-125.0
X100.25Y-115.25
X108.5Y-104.25
X108.75Y-115.5
X110.0Y-124.25
X111.5Y-117.75
X111.75Y-115.5
X118.0Y-112.5
X119.5Y-113.25
X123.5Y-116.25
X128.375Y-74.125
X128.5Y-119.0
X128.75Y-76.0
T2
X131.5Y-125.25
X131.5Y-127.25
T3
X131.25Y-74.0
X131.25Y-76.0
X131.25Y-78.0
T4
X109.315Y-69.5
X111.855Y-69.5
X114.395Y-69.5
X116.935Y-69.5
T5
X131.25Y-71.9
X131.25Y-80.1
T6
X102.125Y-70.0
X102.125Y-92.0
X124.125Y-70.0
X124.125Y-92.0
M30
