%TF.GenerationSoftware,KiCad,Pcbnew,10.0.4*%
%TF.CreationDate,2026-07-23T18:22:28+03:00*%
%TF.ProjectId,ESP32C5 Cold Wallet,45535033-3243-4352-9043-6f6c64205761,rev?*%
%TF.SameCoordinates,Original*%
%TF.FileFunction,Soldermask,Top*%
%TF.FilePolarity,Negative*%
%FSLAX46Y46*%
G04 Gerber Fmt 4.6, Leading zero omitted, Abs format (unit mm)*
G04 Created by KiCad (PCBNEW 10.0.4) date 2026-07-23 18:22:28*
%MOMM*%
%LPD*%
G01*
G04 APERTURE LIST*
G04 Aperture macros list*
%AMRoundRect*
0 Rectangle with rounded corners*
0 $1 Rounding radius*
0 $2 $3 $4 $5 $6 $7 $8 $9 X,Y pos of 4 corners*
0 Add a 4 corners polygon primitive as box body*
4,1,4,$2,$3,$4,$5,$6,$7,$8,$9,$2,$3,0*
0 Add four circle primitives for the rounded corners*
1,1,$1+$1,$2,$3*
1,1,$1+$1,$4,$5*
1,1,$1+$1,$6,$7*
1,1,$1+$1,$8,$9*
0 Add four rect primitives between the rounded corners*
20,1,$1+$1,$2,$3,$4,$5,0*
20,1,$1+$1,$4,$5,$6,$7,0*
20,1,$1+$1,$6,$7,$8,$9,0*
20,1,$1+$1,$8,$9,$2,$3,0*%
G04 Aperture macros list end*
%ADD10R,1.000000X0.750000*%
%ADD11RoundRect,0.102000X-0.754000X-0.754000X0.754000X-0.754000X0.754000X0.754000X-0.754000X0.754000X0*%
%ADD12C,1.712000*%
%ADD13C,3.204000*%
%ADD14C,2.100000*%
%ADD15R,1.350000X1.350000*%
%ADD16C,1.350000*%
%ADD17O,3.500000X2.200000*%
%ADD18R,2.500000X1.500000*%
%ADD19O,2.500000X1.500000*%
G04 APERTURE END LIST*
D10*
%TO.C,SW4*%
X98580357Y-119437500D03*
X104580357Y-119437500D03*
X98580357Y-123187500D03*
X104580357Y-123187500D03*
%TD*%
%TO.C,SW3*%
X110080357Y-109875000D03*
X116080357Y-109875000D03*
X110080357Y-113625000D03*
X116080357Y-113625000D03*
%TD*%
%TO.C,SW1*%
X109955357Y-100312500D03*
X115955357Y-100312500D03*
X109955357Y-104062500D03*
X115955357Y-104062500D03*
%TD*%
%TO.C,SW6*%
X121455357Y-109875000D03*
X127455357Y-109875000D03*
X121455357Y-113625000D03*
X127455357Y-113625000D03*
%TD*%
D11*
%TO.C,U2*%
X109315000Y-69500000D03*
D12*
X111855000Y-69500000D03*
X114395000Y-69500000D03*
X116935000Y-69500000D03*
D13*
X102125000Y-70000000D03*
X124125000Y-70000000D03*
X124125000Y-92000000D03*
X102125000Y-92000000D03*
%TD*%
D10*
%TO.C,SW5*%
X98705357Y-109875000D03*
X104705357Y-109875000D03*
X98705357Y-113625000D03*
X104705357Y-113625000D03*
%TD*%
D14*
%TO.C,MNT*%
X131500000Y-134000000D03*
%TD*%
%TO.C,MNT*%
X94750000Y-69250000D03*
%TD*%
D10*
%TO.C,SW2*%
X109955357Y-119437500D03*
X115955357Y-119437500D03*
X109955357Y-123187500D03*
X115955357Y-123187500D03*
%TD*%
D15*
%TO.C,BT1*%
X131500000Y-127250000D03*
D16*
X131500000Y-125250000D03*
%TD*%
D17*
%TO.C,SW7*%
X131250000Y-71900000D03*
X131250000Y-80100000D03*
D18*
X131250000Y-74000000D03*
D19*
X131250000Y-76000000D03*
X131250000Y-78000000D03*
%TD*%
M02*
