%TF.GenerationSoftware,KiCad,Pcbnew,10.0.4*%
%TF.CreationDate,2026-07-23T18:22:28+03:00*%
%TF.ProjectId,ESP32C5 Cold Wallet,45535033-3243-4352-9043-6f6c64205761,rev?*%
%TF.SameCoordinates,Original*%
%TF.FileFunction,Copper,L1,Top*%
%TF.FilePolarity,Positive*%
%FSLAX46Y46*%
G04 Gerber Fmt 4.6, Leading zero omitted, Abs format (unit mm)*
G04 Created by KiCad (PCBNEW 10.0.4) date 2026-07-23 18:22:28*
%MOMM*%
%LPD*%
G01*
G04 APERTURE LIST*
%TA.AperFunction,SMDPad,CuDef*%
%ADD10R,1.000000X0.750000*%
%TD*%
%TA.AperFunction,ComponentPad*%
%ADD11R,1.508000X1.508000*%
%TD*%
%TA.AperFunction,ComponentPad*%
%ADD12C,1.508000*%
%TD*%
%TA.AperFunction,ComponentPad*%
%ADD13C,3.000000*%
%TD*%
%TA.AperFunction,ComponentPad*%
%ADD14R,1.350000X1.350000*%
%TD*%
%TA.AperFunction,ComponentPad*%
%ADD15C,1.350000*%
%TD*%
%TA.AperFunction,ComponentPad*%
%ADD16O,3.500000X2.200000*%
%TD*%
%TA.AperFunction,ComponentPad*%
%ADD17R,2.500000X1.500000*%
%TD*%
%TA.AperFunction,ComponentPad*%
%ADD18O,2.500000X1.500000*%
%TD*%
%TA.AperFunction,ViaPad*%
%ADD19C,0.600000*%
%TD*%
%TA.AperFunction,Conductor*%
%ADD20C,0.200000*%
%TD*%
%TA.AperFunction,Conductor*%
%ADD21C,0.600000*%
%TD*%
G04 APERTURE END LIST*
D10*
%TO.P,SW4,1,1_1*%
%TO.N,GND*%
X98580357Y-119437500D03*
X104580357Y-119437500D03*
%TO.P,SW4,2,2_2*%
%TO.N,D3-SW4*%
X98580357Y-123187500D03*
X104580357Y-123187500D03*
%TD*%
%TO.P,SW3,1,1_1*%
%TO.N,GND*%
X110080357Y-109875000D03*
X116080357Y-109875000D03*
%TO.P,SW3,2,2_2*%
%TO.N,D2-SW3*%
X110080357Y-113625000D03*
X116080357Y-113625000D03*
%TD*%
%TO.P,SW1,1,1_1*%
%TO.N,GND*%
X109955357Y-100312500D03*
X115955357Y-100312500D03*
%TO.P,SW1,2,2_2*%
%TO.N,D0-SW1*%
X109955357Y-104062500D03*
X115955357Y-104062500D03*
%TD*%
%TO.P,SW6,1,1_1*%
%TO.N,GND*%
X121455357Y-109875000D03*
X127455357Y-109875000D03*
%TO.P,SW6,2,2_2*%
%TO.N,D9-SW6*%
X121455357Y-113625000D03*
X127455357Y-113625000D03*
%TD*%
D11*
%TO.P,U2,1,GND_1*%
%TO.N,GND*%
X109315000Y-69500000D03*
D12*
%TO.P,U2,2,VCC_IN_2*%
%TO.N,+3.3V*%
X111855000Y-69500000D03*
%TO.P,U2,3,SCL_3*%
%TO.N,D5-SCL*%
X114395000Y-69500000D03*
%TO.P,U2,4,SDA_4*%
%TO.N,D4-SDA*%
X116935000Y-69500000D03*
D13*
%TO.P,U2,S1*%
%TO.N,N/C*%
X102125000Y-70000000D03*
%TO.P,U2,S2*%
X124125000Y-70000000D03*
%TO.P,U2,S3*%
X124125000Y-92000000D03*
%TO.P,U2,S4*%
X102125000Y-92000000D03*
%TD*%
D10*
%TO.P,SW5,1,1_1*%
%TO.N,GND*%
X98705357Y-109875000D03*
X104705357Y-109875000D03*
%TO.P,SW5,2,2_2*%
%TO.N,D8-SW5*%
X98705357Y-113625000D03*
X104705357Y-113625000D03*
%TD*%
%TO.P,SW2,1,1_1*%
%TO.N,GND*%
X109955357Y-119437500D03*
X115955357Y-119437500D03*
%TO.P,SW2,2,2_2*%
%TO.N,D1-SW2*%
X109955357Y-123187500D03*
X115955357Y-123187500D03*
%TD*%
D14*
%TO.P,BT1,1,+_1*%
%TO.N,Net-(BT1-+)*%
X131500000Y-127250000D03*
D15*
%TO.P,BT1,2,-_2*%
%TO.N,GND*%
X131500000Y-125250000D03*
%TD*%
D16*
%TO.P,SW7,*%
%TO.N,*%
X131250000Y-71900000D03*
X131250000Y-80100000D03*
D17*
%TO.P,SW7,1,A_1*%
%TO.N,VBAT*%
X131250000Y-74000000D03*
D18*
%TO.P,SW7,2,B_2*%
%TO.N,Net-(BT1-+)*%
X131250000Y-76000000D03*
%TO.P,SW7,3,C_3*%
%TO.N,unconnected-(SW7-C-Pad3)*%
X131250000Y-78000000D03*
%TD*%
D19*
%TO.N,D3-SW4*%
X98500000Y-125000000D03*
%TO.N,D2-SW3*%
X108750000Y-115500000D03*
X118000000Y-112500000D03*
%TO.N,D0-SW1*%
X108500000Y-104250000D03*
%TO.N,Net-(BT1-+)*%
X128500000Y-119000000D03*
X128750000Y-76000000D03*
%TO.N,D5-SCL*%
X98000000Y-77500000D03*
%TO.N,D4-SDA*%
X96000000Y-76500000D03*
%TO.N,D1-SW2*%
X110000000Y-124250000D03*
%TO.N,VBAT*%
X111500000Y-117750000D03*
X128375000Y-74125000D03*
%TO.N,D8-SW5*%
X100250000Y-115250000D03*
X111750000Y-115500000D03*
%TO.N,D9-SW6*%
X119500000Y-113250000D03*
X123500000Y-116250000D03*
%TD*%
%TO.N,D3-SW4*%
D20*
X98500000Y-123267857D02*
X98580357Y-123187500D01*
X98500000Y-125000000D02*
X98500000Y-123267857D01*
X98580357Y-123187500D02*
X104580357Y-123187500D01*
%TO.N,D2-SW3*%
X118000000Y-112500000D02*
X116875000Y-113625000D01*
X110080357Y-113625000D02*
X116080357Y-113625000D01*
X116875000Y-113625000D02*
X116080357Y-113625000D01*
X108750000Y-115500000D02*
X108750000Y-114955357D01*
X108750000Y-114955357D02*
X110080357Y-113625000D01*
%TO.N,D0-SW1*%
X109767857Y-104250000D02*
X109955357Y-104062500D01*
X109955357Y-104062500D02*
X115955357Y-104062500D01*
X108500000Y-104250000D02*
X109767857Y-104250000D01*
%TO.N,Net-(BT1-+)*%
D21*
X132000000Y-87000000D02*
X128250000Y-83250000D01*
X132000000Y-118250000D02*
X132000000Y-87000000D01*
X130000000Y-127250000D02*
X128750000Y-126000000D01*
X128750000Y-126000000D02*
X128750000Y-121500000D01*
X131500000Y-127250000D02*
X130000000Y-127250000D01*
X130125000Y-120125000D02*
X132000000Y-118250000D01*
X128250000Y-83250000D02*
X128250000Y-76500000D01*
X128250000Y-76500000D02*
X128750000Y-76000000D01*
D20*
X128500000Y-119000000D02*
X129000000Y-119000000D01*
X129000000Y-119000000D02*
X130125000Y-120125000D01*
D21*
X128750000Y-121500000D02*
X130125000Y-120125000D01*
%TO.N,D5-SCL*%
D20*
X107250000Y-77500000D02*
X114395000Y-70355000D01*
X98000000Y-77500000D02*
X107250000Y-77500000D01*
X114395000Y-70355000D02*
X114395000Y-69500000D01*
%TO.N,D4-SDA*%
X96000000Y-77250000D02*
X97500000Y-78750000D01*
X107685000Y-78750000D02*
X116935000Y-69500000D01*
X96000000Y-76500000D02*
X96000000Y-77250000D01*
X97500000Y-78750000D02*
X107685000Y-78750000D01*
%TO.N,D1-SW2*%
X110000000Y-124250000D02*
X110000000Y-123232143D01*
X110000000Y-123232143D02*
X109955357Y-123187500D01*
X109955357Y-123187500D02*
X115955357Y-123187500D01*
%TO.N,VBAT*%
D21*
X112000000Y-117250000D02*
X111500000Y-117750000D01*
X126500000Y-76000000D02*
X126500000Y-84000000D01*
X126500000Y-84000000D02*
X130750000Y-88250000D01*
X128375000Y-74125000D02*
X126500000Y-76000000D01*
X130750000Y-88250000D02*
X130750000Y-116250000D01*
X129750000Y-117250000D02*
X112000000Y-117250000D01*
X130750000Y-116250000D02*
X129750000Y-117250000D01*
%TO.N,D8-SW5*%
D20*
X98705357Y-113705357D02*
X98705357Y-113625000D01*
X107000000Y-116500000D02*
X104705357Y-114205357D01*
X104705357Y-114205357D02*
X104705357Y-113625000D01*
X111750000Y-115500000D02*
X110750000Y-116500000D01*
X100250000Y-115250000D02*
X98705357Y-113705357D01*
X104705357Y-113625000D02*
X98705357Y-113625000D01*
X110750000Y-116500000D02*
X107000000Y-116500000D01*
%TO.N,D9-SW6*%
X121455357Y-113625000D02*
X127455357Y-113625000D01*
X123500000Y-116250000D02*
X121455357Y-114205357D01*
X119875000Y-113625000D02*
X121455357Y-113625000D01*
X121455357Y-114205357D02*
X121455357Y-113625000D01*
X119500000Y-113250000D02*
X119875000Y-113625000D01*
%TD*%
%TA.AperFunction,Conductor*%
%TO.N,GND*%
G36*
X133443039Y-67269685D02*
G01*
X133488794Y-67322489D01*
X133500000Y-67374000D01*
X133500000Y-70998653D01*
X133480315Y-71065692D01*
X133427511Y-71111447D01*
X133358353Y-71121391D01*
X133294797Y-71092366D01*
X133270275Y-71063447D01*
X133268868Y-71061151D01*
X133120798Y-70857350D01*
X133120794Y-70857345D01*
X132942654Y-70679205D01*
X132942649Y-70679201D01*
X132738848Y-70531132D01*
X132738847Y-70531131D01*
X132738845Y-70531130D01*
X132668747Y-70495413D01*
X132514383Y-70416760D01*
X132274785Y-70338910D01*
X132025962Y-70299500D01*
X130474038Y-70299500D01*
X130371232Y-70315783D01*
X130225214Y-70338910D01*
X129985616Y-70416760D01*
X129761151Y-70531132D01*
X129557350Y-70679201D01*
X129557345Y-70679205D01*
X129379205Y-70857345D01*
X129379201Y-70857350D01*
X129231132Y-71061151D01*
X129116760Y-71285616D01*
X129038910Y-71525214D01*
X128999500Y-71774038D01*
X128999500Y-72025961D01*
X129038910Y-72274785D01*
X129116760Y-72514383D01*
X129195413Y-72668747D01*
X129229965Y-72736559D01*
X129231132Y-72738848D01*
X129379201Y-72942649D01*
X129379205Y-72942654D01*
X129471061Y-73034510D01*
X129504546Y-73095833D01*
X129506669Y-73135446D01*
X129499501Y-73202116D01*
X129499500Y-73202135D01*
X129499500Y-74797870D01*
X129499501Y-74797876D01*
X129505908Y-74857483D01*
X129556202Y-74992328D01*
X129556206Y-74992335D01*
X129642451Y-75107543D01*
X129642452Y-75107544D01*
X129642454Y-75107546D01*
X129680777Y-75136234D01*
X129681053Y-75136603D01*
X129681485Y-75136768D01*
X129701952Y-75164521D01*
X129722647Y-75192167D01*
X129722680Y-75192628D01*
X129722954Y-75193000D01*
X129725167Y-75227405D01*
X129727631Y-75261859D01*
X129727419Y-75262420D01*
X129727439Y-75262726D01*
X129726628Y-75264517D01*
X129714869Y-75295705D01*
X129711210Y-75302292D01*
X129680476Y-75344595D01*
X129600029Y-75502480D01*
X129598941Y-75504441D01*
X129575578Y-75527470D01*
X129553047Y-75551327D01*
X129550817Y-75551879D01*
X129549182Y-75553491D01*
X129517080Y-75560233D01*
X129485226Y-75568122D01*
X129483051Y-75567381D01*
X129480805Y-75567853D01*
X129450147Y-75556167D01*
X129419091Y-75545584D01*
X129417144Y-75543588D01*
X129415517Y-75542968D01*
X129412346Y-75538668D01*
X129387434Y-75513126D01*
X129371787Y-75489708D01*
X129260291Y-75378212D01*
X129260288Y-75378210D01*
X129129185Y-75290609D01*
X129129175Y-75290604D01*
X128983497Y-75230262D01*
X128983489Y-75230260D01*
X128828847Y-75199500D01*
X128828843Y-75199500D01*
X128731940Y-75199500D01*
X128664901Y-75179815D01*
X128619146Y-75127011D01*
X128609202Y-75057853D01*
X128638227Y-74994297D01*
X128644259Y-74987819D01*
X128996788Y-74635290D01*
X128996790Y-74635287D01*
X129084390Y-74504185D01*
X129084390Y-74504184D01*
X129084394Y-74504179D01*
X129144737Y-74358497D01*
X129175500Y-74203842D01*
X129175500Y-74046158D01*
X129175500Y-74046155D01*
X129175499Y-74046153D01*
X129144738Y-73891510D01*
X129144737Y-73891503D01*
X129144735Y-73891498D01*
X129084397Y-73745827D01*
X129084390Y-73745814D01*
X128996789Y-73614711D01*
X128996786Y-73614707D01*
X128885291Y-73503212D01*
X128885288Y-73503210D01*
X128754185Y-73415609D01*
X128754172Y-73415602D01*
X128608501Y-73355264D01*
X128608489Y-73355261D01*
X128453845Y-73324500D01*
X128453842Y-73324500D01*
X128296157Y-73324500D01*
X128296154Y-73324500D01*
X128141509Y-73355261D01*
X128141497Y-73355264D01*
X128098832Y-73372936D01*
X128098833Y-73372937D01*
X127995823Y-73415604D01*
X127995814Y-73415609D01*
X127864712Y-73503209D01*
X127864711Y-73503211D01*
X127864710Y-73503212D01*
X125989711Y-75378211D01*
X125933960Y-75433962D01*
X125878209Y-75489712D01*
X125790609Y-75620814D01*
X125790602Y-75620827D01*
X125730264Y-75766498D01*
X125730261Y-75766510D01*
X125699500Y-75921153D01*
X125699500Y-84078846D01*
X125730261Y-84233489D01*
X125730264Y-84233501D01*
X125790602Y-84379172D01*
X125790609Y-84379185D01*
X125878210Y-84510288D01*
X125878213Y-84510292D01*
X129913181Y-88545259D01*
X129946666Y-88606582D01*
X129949500Y-88632940D01*
X129949500Y-115867060D01*
X129929815Y-115934099D01*
X129913181Y-115954741D01*
X129454741Y-116413181D01*
X129393418Y-116446666D01*
X129367060Y-116449500D01*
X124424500Y-116449500D01*
X124357461Y-116429815D01*
X124311706Y-116377011D01*
X124300500Y-116325500D01*
X124300500Y-116171155D01*
X124300499Y-116171153D01*
X124269738Y-116016510D01*
X124269737Y-116016503D01*
X124244155Y-115954741D01*
X124209397Y-115870827D01*
X124209390Y-115870814D01*
X124121789Y-115739711D01*
X124121786Y-115739707D01*
X124010292Y-115628213D01*
X124010288Y-115628210D01*
X123879185Y-115540609D01*
X123879172Y-115540602D01*
X123733501Y-115480264D01*
X123733491Y-115480261D01*
X123578149Y-115449361D01*
X123516238Y-115416976D01*
X123514660Y-115415425D01*
X122536416Y-114437181D01*
X122502931Y-114375858D01*
X122507915Y-114306166D01*
X122549787Y-114250233D01*
X122615251Y-114225816D01*
X122624097Y-114225500D01*
X126436892Y-114225500D01*
X126503931Y-114245185D01*
X126536157Y-114275187D01*
X126597811Y-114357546D01*
X126644000Y-114392123D01*
X126713021Y-114443793D01*
X126713028Y-114443797D01*
X126847874Y-114494091D01*
X126847873Y-114494091D01*
X126854801Y-114494835D01*
X126907484Y-114500500D01*
X128003229Y-114500499D01*
X128062840Y-114494091D01*
X128197688Y-114443796D01*
X128312903Y-114357546D01*
X128399153Y-114242331D01*
X128449448Y-114107483D01*
X128455857Y-114047873D01*
X128455856Y-113202128D01*
X128449448Y-113142517D01*
X128441741Y-113121854D01*
X128399154Y-113007671D01*
X128399150Y-113007664D01*
X128312904Y-112892455D01*
X128312901Y-112892452D01*
X128197692Y-112806206D01*
X128197685Y-112806202D01*
X128062839Y-112755908D01*
X128062840Y-112755908D01*
X128003240Y-112749501D01*
X128003238Y-112749500D01*
X128003230Y-112749500D01*
X128003221Y-112749500D01*
X126907486Y-112749500D01*
X126907480Y-112749501D01*
X126847873Y-112755908D01*
X126713028Y-112806202D01*
X126713021Y-112806206D01*
X126597813Y-112892452D01*
X126597812Y-112892453D01*
X126597811Y-112892454D01*
X126553227Y-112952011D01*
X126536159Y-112974811D01*
X126480225Y-113016682D01*
X126436892Y-113024500D01*
X122473822Y-113024500D01*
X122406783Y-113004815D01*
X122374555Y-112974811D01*
X122357487Y-112952011D01*
X122312903Y-112892454D01*
X122283996Y-112870814D01*
X122197692Y-112806206D01*
X122197685Y-112806202D01*
X122062839Y-112755908D01*
X122062840Y-112755908D01*
X122003240Y-112749501D01*
X122003238Y-112749500D01*
X122003230Y-112749500D01*
X122003221Y-112749500D01*
X120907486Y-112749500D01*
X120907480Y-112749501D01*
X120847873Y-112755908D01*
X120713028Y-112806202D01*
X120713021Y-112806206D01*
X120597813Y-112892452D01*
X120597812Y-112892453D01*
X120597811Y-112892454D01*
X120553227Y-112952011D01*
X120536159Y-112974811D01*
X120532502Y-112977548D01*
X120530605Y-112981703D01*
X120504790Y-112998293D01*
X120480225Y-113016682D01*
X120474595Y-113017697D01*
X120471827Y-113019477D01*
X120436892Y-113024500D01*
X120355904Y-113024500D01*
X120288865Y-113004815D01*
X120243110Y-112952011D01*
X120241343Y-112947952D01*
X120209397Y-112870827D01*
X120209390Y-112870814D01*
X120121789Y-112739711D01*
X120121786Y-112739707D01*
X120010292Y-112628213D01*
X120010288Y-112628210D01*
X119879185Y-112540609D01*
X119879172Y-112540602D01*
X119733501Y-112480264D01*
X119733489Y-112480261D01*
X119578845Y-112449500D01*
X119578842Y-112449500D01*
X119421158Y-112449500D01*
X119421155Y-112449500D01*
X119266510Y-112480261D01*
X119266498Y-112480264D01*
X119120827Y-112540602D01*
X119120814Y-112540609D01*
X118993391Y-112625751D01*
X118926713Y-112646629D01*
X118859333Y-112628144D01*
X118812643Y-112576165D01*
X118800500Y-112522649D01*
X118800500Y-112421155D01*
X118800499Y-112421153D01*
X118769738Y-112266510D01*
X118769738Y-112266508D01*
X118769737Y-112266503D01*
X118769735Y-112266498D01*
X118709397Y-112120827D01*
X118709390Y-112120814D01*
X118621789Y-111989711D01*
X118621786Y-111989707D01*
X118510292Y-111878213D01*
X118510288Y-111878210D01*
X118379185Y-111790609D01*
X118379172Y-111790602D01*
X118233501Y-111730264D01*
X118233489Y-111730261D01*
X118078845Y-111699500D01*
X118078842Y-111699500D01*
X117921158Y-111699500D01*
X117921155Y-111699500D01*
X117766510Y-111730261D01*
X117766498Y-111730264D01*
X117620827Y-111790602D01*
X117620814Y-111790609D01*
X117489711Y-111878210D01*
X117489707Y-111878213D01*
X117378213Y-111989707D01*
X117378210Y-111989711D01*
X117290609Y-112120814D01*
X117290602Y-112120827D01*
X117230264Y-112266498D01*
X117230261Y-112266508D01*
X117199361Y-112421850D01*
X117166976Y-112483761D01*
X117165425Y-112485339D01*
X116894967Y-112755796D01*
X116833644Y-112789281D01*
X116763953Y-112784297D01*
X116687839Y-112755908D01*
X116687840Y-112755908D01*
X116628240Y-112749501D01*
X116628238Y-112749500D01*
X116628230Y-112749500D01*
X116628221Y-112749500D01*
X115532486Y-112749500D01*
X115532480Y-112749501D01*
X115472873Y-112755908D01*
X115338028Y-112806202D01*
X115338021Y-112806206D01*
X115222813Y-112892452D01*
X115222812Y-112892453D01*
X115222811Y-112892454D01*
X115178227Y-112952011D01*
X115161159Y-112974811D01*
X115105225Y-113016682D01*
X115061892Y-113024500D01*
X111098822Y-113024500D01*
X111031783Y-113004815D01*
X110999555Y-112974811D01*
X110982487Y-112952011D01*
X110937903Y-112892454D01*
X110908996Y-112870814D01*
X110822692Y-112806206D01*
X110822685Y-112806202D01*
X110687839Y-112755908D01*
X110687840Y-112755908D01*
X110628240Y-112749501D01*
X110628238Y-112749500D01*
X110628230Y-112749500D01*
X110628221Y-112749500D01*
X109532486Y-112749500D01*
X109532480Y-112749501D01*
X109472873Y-112755908D01*
X109338028Y-112806202D01*
X109338021Y-112806206D01*
X109222812Y-112892452D01*
X109222809Y-112892455D01*
X109136563Y-113007664D01*
X109136559Y-113007671D01*
X109086265Y-113142517D01*
X109079858Y-113202116D01*
X109079858Y-113202123D01*
X109079857Y-113202135D01*
X109079857Y-113724902D01*
X109060172Y-113791941D01*
X109043538Y-113812583D01*
X108269481Y-114586639D01*
X108269479Y-114586641D01*
X108254116Y-114613251D01*
X108247623Y-114624499D01*
X108190423Y-114723572D01*
X108149499Y-114876300D01*
X108149499Y-114876302D01*
X108149499Y-114920235D01*
X108129814Y-114987274D01*
X108128601Y-114989126D01*
X108040609Y-115120814D01*
X108040602Y-115120827D01*
X107980264Y-115266498D01*
X107980261Y-115266510D01*
X107949500Y-115421153D01*
X107949500Y-115578846D01*
X107980261Y-115733489D01*
X107982031Y-115739324D01*
X107979279Y-115740158D01*
X107985503Y-115797359D01*
X107954309Y-115859878D01*
X107894266Y-115895608D01*
X107863445Y-115899500D01*
X107300097Y-115899500D01*
X107233058Y-115879815D01*
X107212416Y-115863181D01*
X105689858Y-114340623D01*
X105656373Y-114279300D01*
X105661356Y-114209610D01*
X105699448Y-114107483D01*
X105705857Y-114047873D01*
X105705856Y-113202128D01*
X105699448Y-113142517D01*
X105691741Y-113121854D01*
X105649154Y-113007671D01*
X105649150Y-113007664D01*
X105562904Y-112892455D01*
X105562901Y-112892452D01*
X105447692Y-112806206D01*
X105447685Y-112806202D01*
X105312839Y-112755908D01*
X105312840Y-112755908D01*
X105253240Y-112749501D01*
X105253238Y-112749500D01*
X105253230Y-112749500D01*
X105253221Y-112749500D01*
X104157486Y-112749500D01*
X104157480Y-112749501D01*
X104097873Y-112755908D01*
X103963028Y-112806202D01*
X103963021Y-112806206D01*
X103847813Y-112892452D01*
X103847812Y-112892453D01*
X103847811Y-112892454D01*
X103803227Y-112952011D01*
X103786159Y-112974811D01*
X103730225Y-113016682D01*
X103686892Y-113024500D01*
X99723822Y-113024500D01*
X99656783Y-113004815D01*
X99624555Y-112974811D01*
X99607487Y-112952011D01*
X99562903Y-112892454D01*
X99533996Y-112870814D01*
X99447692Y-112806206D01*
X99447685Y-112806202D01*
X99312839Y-112755908D01*
X99312840Y-112755908D01*
X99253240Y-112749501D01*
X99253238Y-112749500D01*
X99253230Y-112749500D01*
X99253221Y-112749500D01*
X98157486Y-112749500D01*
X98157480Y-112749501D01*
X98097873Y-112755908D01*
X97963028Y-112806202D01*
X97963021Y-112806206D01*
X97847812Y-112892452D01*
X97847809Y-112892455D01*
X97761563Y-113007664D01*
X97761559Y-113007671D01*
X97711265Y-113142517D01*
X97704858Y-113202116D01*
X97704858Y-113202123D01*
X97704857Y-113202135D01*
X97704857Y-114047870D01*
X97704858Y-114047876D01*
X97711265Y-114107483D01*
X97761559Y-114242328D01*
X97761563Y-114242335D01*
X97847809Y-114357544D01*
X97847812Y-114357547D01*
X97963021Y-114443793D01*
X97963028Y-114443797D01*
X97978319Y-114449500D01*
X98097874Y-114494091D01*
X98157484Y-114500500D01*
X98599902Y-114500499D01*
X98666941Y-114520183D01*
X98687583Y-114536818D01*
X99415425Y-115264660D01*
X99448910Y-115325983D01*
X99449361Y-115328149D01*
X99480261Y-115483491D01*
X99480264Y-115483501D01*
X99540602Y-115629172D01*
X99540609Y-115629185D01*
X99628210Y-115760288D01*
X99628213Y-115760292D01*
X99739707Y-115871786D01*
X99739711Y-115871789D01*
X99870814Y-115959390D01*
X99870827Y-115959397D01*
X100008683Y-116016498D01*
X100016503Y-116019737D01*
X100171153Y-116050499D01*
X100171156Y-116050500D01*
X100171158Y-116050500D01*
X100328844Y-116050500D01*
X100328845Y-116050499D01*
X100483497Y-116019737D01*
X100629179Y-115959394D01*
X100760289Y-115871789D01*
X100871789Y-115760289D01*
X100959394Y-115629179D01*
X101019737Y-115483497D01*
X101050500Y-115328842D01*
X101050500Y-115171158D01*
X101050500Y-115171155D01*
X101050499Y-115171153D01*
X101019738Y-115016510D01*
X101019737Y-115016503D01*
X101019735Y-115016498D01*
X100959397Y-114870827D01*
X100959390Y-114870814D01*
X100871789Y-114739711D01*
X100871786Y-114739707D01*
X100760292Y-114628213D01*
X100760288Y-114628210D01*
X100629185Y-114540609D01*
X100629172Y-114540602D01*
X100483501Y-114480264D01*
X100483489Y-114480261D01*
X100437520Y-114471117D01*
X100375609Y-114438732D01*
X100341035Y-114378016D01*
X100344774Y-114308247D01*
X100385641Y-114251575D01*
X100450659Y-114225994D01*
X100461711Y-114225500D01*
X103686892Y-114225500D01*
X103753931Y-114245185D01*
X103786157Y-114275187D01*
X103847811Y-114357546D01*
X103894000Y-114392123D01*
X103963021Y-114443793D01*
X103963028Y-114443797D01*
X103978319Y-114449500D01*
X104097874Y-114494091D01*
X104121372Y-114496617D01*
X104185921Y-114523353D01*
X104199357Y-114535935D01*
X104208644Y-114546026D01*
X104224837Y-114574073D01*
X104336641Y-114685877D01*
X104336643Y-114685878D01*
X104345539Y-114694774D01*
X106515139Y-116864374D01*
X106515149Y-116864385D01*
X106519479Y-116868715D01*
X106519480Y-116868716D01*
X106631284Y-116980520D01*
X106718095Y-117030639D01*
X106718097Y-117030641D01*
X106768213Y-117059576D01*
X106768215Y-117059577D01*
X106920942Y-117100500D01*
X106920943Y-117100500D01*
X110663333Y-117100500D01*
X110670939Y-117100500D01*
X110670943Y-117100501D01*
X110739242Y-117100501D01*
X110806281Y-117120186D01*
X110852035Y-117172991D01*
X110861978Y-117242150D01*
X110861973Y-117242160D01*
X110842342Y-117293392D01*
X110790609Y-117370814D01*
X110790602Y-117370827D01*
X110730264Y-117516498D01*
X110730261Y-117516510D01*
X110699500Y-117671153D01*
X110699500Y-117828846D01*
X110730261Y-117983489D01*
X110730264Y-117983501D01*
X110790602Y-118129172D01*
X110790609Y-118129185D01*
X110878210Y-118260288D01*
X110878213Y-118260292D01*
X110989707Y-118371786D01*
X110989711Y-118371789D01*
X111120814Y-118459390D01*
X111120827Y-118459397D01*
X111265885Y-118519481D01*
X111266503Y-118519737D01*
X111421153Y-118550499D01*
X111421156Y-118550500D01*
X111421158Y-118550500D01*
X111578844Y-118550500D01*
X111578845Y-118550499D01*
X111733497Y-118519737D01*
X111879179Y-118459394D01*
X112010289Y-118371789D01*
X112121789Y-118260289D01*
X112295259Y-118086819D01*
X112356582Y-118053334D01*
X112382940Y-118050500D01*
X128077098Y-118050500D01*
X128144137Y-118070185D01*
X128189892Y-118122989D01*
X128199836Y-118192147D01*
X128170811Y-118255703D01*
X128124549Y-118289062D01*
X128120821Y-118290605D01*
X128120814Y-118290609D01*
X127989711Y-118378210D01*
X127989707Y-118378213D01*
X127878213Y-118489707D01*
X127878210Y-118489711D01*
X127790609Y-118620814D01*
X127790602Y-118620827D01*
X127730264Y-118766498D01*
X127730261Y-118766510D01*
X127699500Y-118921153D01*
X127699500Y-119078846D01*
X127730261Y-119233489D01*
X127730264Y-119233501D01*
X127790602Y-119379172D01*
X127790609Y-119379185D01*
X127878210Y-119510288D01*
X127878213Y-119510292D01*
X127989707Y-119621786D01*
X127989711Y-119621789D01*
X128120814Y-119709390D01*
X128120827Y-119709397D01*
X128224647Y-119752400D01*
X128266503Y-119769737D01*
X128421153Y-119800499D01*
X128421156Y-119800500D01*
X128421158Y-119800500D01*
X128578844Y-119800500D01*
X128578845Y-119800499D01*
X128733497Y-119769737D01*
X128789182Y-119746670D01*
X128809059Y-119744533D01*
X128827789Y-119737548D01*
X128843085Y-119740875D01*
X128858651Y-119739202D01*
X128876527Y-119748150D01*
X128896062Y-119752400D01*
X128918352Y-119769086D01*
X128921130Y-119770477D01*
X128924316Y-119773551D01*
X129046662Y-119895897D01*
X129080147Y-119957220D01*
X129075163Y-120026912D01*
X129046661Y-120071259D01*
X128239711Y-120878211D01*
X128183960Y-120933962D01*
X128128209Y-120989712D01*
X128040609Y-121120814D01*
X128040602Y-121120827D01*
X127980264Y-121266498D01*
X127980261Y-121266510D01*
X127949500Y-121421153D01*
X127949500Y-126078846D01*
X127980261Y-126233489D01*
X127980264Y-126233501D01*
X128040602Y-126379172D01*
X128040609Y-126379185D01*
X128128210Y-126510288D01*
X128128213Y-126510292D01*
X129378211Y-127760289D01*
X129489711Y-127871789D01*
X129489712Y-127871790D01*
X129620814Y-127959390D01*
X129620827Y-127959397D01*
X129766498Y-128019735D01*
X129766503Y-128019737D01*
X129921153Y-128050499D01*
X129921156Y-128050500D01*
X129921158Y-128050500D01*
X130251533Y-128050500D01*
X130318572Y-128070185D01*
X130364327Y-128122989D01*
X130367715Y-128131166D01*
X130381203Y-128167330D01*
X130381206Y-128167335D01*
X130467452Y-128282544D01*
X130467455Y-128282547D01*
X130582664Y-128368793D01*
X130582671Y-128368797D01*
X130717517Y-128419091D01*
X130717516Y-128419091D01*
X130724444Y-128419835D01*
X130777127Y-128425500D01*
X132222872Y-128425499D01*
X132282483Y-128419091D01*
X132417331Y-128368796D01*
X132532546Y-128282546D01*
X132618796Y-128167331D01*
X132669091Y-128032483D01*
X132675500Y-127972873D01*
X132675499Y-126527128D01*
X132669091Y-126467517D01*
X132636145Y-126379185D01*
X132618797Y-126332671D01*
X132618793Y-126332664D01*
X132532547Y-126217455D01*
X132447059Y-126153458D01*
X132405189Y-126097524D01*
X132400205Y-126027832D01*
X132421054Y-125981306D01*
X132504947Y-125865838D01*
X132588915Y-125701043D01*
X132588916Y-125701040D01*
X132646066Y-125525147D01*
X132675000Y-125342473D01*
X132675000Y-125157526D01*
X132646066Y-124974852D01*
X132588916Y-124798959D01*
X132588915Y-124798956D01*
X132504949Y-124634165D01*
X132489983Y-124613568D01*
X131900000Y-125203551D01*
X131900000Y-125197339D01*
X131872741Y-125095606D01*
X131820080Y-125004394D01*
X131745606Y-124929920D01*
X131654394Y-124877259D01*
X131552661Y-124850000D01*
X131546447Y-124850000D01*
X132136431Y-124260016D01*
X132136430Y-124260015D01*
X132115834Y-124245050D01*
X131951043Y-124161084D01*
X131951040Y-124161083D01*
X131775147Y-124103933D01*
X131592473Y-124075000D01*
X131407527Y-124075000D01*
X131224852Y-124103933D01*
X131048959Y-124161083D01*
X131048956Y-124161084D01*
X130884167Y-124245049D01*
X130863568Y-124260015D01*
X131453554Y-124850000D01*
X131447339Y-124850000D01*
X131345606Y-124877259D01*
X131254394Y-124929920D01*
X131179920Y-125004394D01*
X131127259Y-125095606D01*
X131100000Y-125197339D01*
X131100000Y-125203553D01*
X130510015Y-124613568D01*
X130495049Y-124634167D01*
X130411084Y-124798956D01*
X130411083Y-124798959D01*
X130353933Y-124974852D01*
X130325000Y-125157526D01*
X130325000Y-125342473D01*
X130353933Y-125525147D01*
X130411083Y-125701040D01*
X130411084Y-125701043D01*
X130495049Y-125865833D01*
X130578946Y-125981308D01*
X130602425Y-126047115D01*
X130586599Y-126115169D01*
X130552939Y-126153459D01*
X130467454Y-126217454D01*
X130395699Y-126313305D01*
X130339765Y-126355175D01*
X130270073Y-126360159D01*
X130208752Y-126326674D01*
X129586819Y-125704741D01*
X129553334Y-125643418D01*
X129550500Y-125617060D01*
X129550500Y-121882940D01*
X129570185Y-121815901D01*
X129586819Y-121795259D01*
X132621788Y-118760290D01*
X132621790Y-118760287D01*
X132658526Y-118705309D01*
X132709394Y-118629179D01*
X132754832Y-118519481D01*
X132769737Y-118483498D01*
X132800500Y-118328843D01*
X132800500Y-118171158D01*
X132800500Y-86921158D01*
X132800500Y-86921155D01*
X132800499Y-86921153D01*
X132769738Y-86766510D01*
X132769737Y-86766503D01*
X132769735Y-86766498D01*
X132709397Y-86620827D01*
X132709390Y-86620814D01*
X132621790Y-86489712D01*
X132621789Y-86489711D01*
X132510289Y-86378211D01*
X129086819Y-82954741D01*
X129053334Y-82893418D01*
X129050500Y-82867060D01*
X129050500Y-81071862D01*
X129070185Y-81004823D01*
X129122989Y-80959068D01*
X129192147Y-80949124D01*
X129255703Y-80978149D01*
X129274818Y-80998977D01*
X129379201Y-81142649D01*
X129379205Y-81142654D01*
X129557345Y-81320794D01*
X129557350Y-81320798D01*
X129735117Y-81449952D01*
X129761155Y-81468870D01*
X129904184Y-81541747D01*
X129985616Y-81583239D01*
X129985618Y-81583239D01*
X129985621Y-81583241D01*
X130225215Y-81661090D01*
X130474038Y-81700500D01*
X130474039Y-81700500D01*
X132025961Y-81700500D01*
X132025962Y-81700500D01*
X132274785Y-81661090D01*
X132514379Y-81583241D01*
X132738845Y-81468870D01*
X132942656Y-81320793D01*
X133120793Y-81142656D01*
X133268870Y-80938845D01*
X133268872Y-80938839D01*
X133270271Y-80936559D01*
X133271031Y-80935870D01*
X133271734Y-80934904D01*
X133271937Y-80935051D01*
X133322081Y-80889682D01*
X133391010Y-80878258D01*
X133455174Y-80905913D01*
X133494200Y-80963867D01*
X133500000Y-81001346D01*
X133500000Y-135376000D01*
X133480315Y-135443039D01*
X133427511Y-135488794D01*
X133376000Y-135500000D01*
X131874886Y-135500000D01*
X131807847Y-135480315D01*
X131762092Y-135427511D01*
X131752148Y-135358353D01*
X131781173Y-135294797D01*
X131836567Y-135258069D01*
X131865903Y-135248536D01*
X131999219Y-135205220D01*
X132181610Y-135112287D01*
X132274590Y-135044732D01*
X132347213Y-134991971D01*
X132347215Y-134991968D01*
X132347219Y-134991966D01*
X132491966Y-134847219D01*
X132491968Y-134847215D01*
X132491971Y-134847213D01*
X132544732Y-134774590D01*
X132612287Y-134681610D01*
X132705220Y-134499219D01*
X132768477Y-134304534D01*
X132800500Y-134102352D01*
X132800500Y-133897648D01*
X132768477Y-133695466D01*
X132705220Y-133500781D01*
X132705218Y-133500778D01*
X132705218Y-133500776D01*
X132671503Y-133434607D01*
X132612287Y-133318390D01*
X132604556Y-133307749D01*
X132491971Y-133152786D01*
X132347213Y-133008028D01*
X132181613Y-132887715D01*
X132181612Y-132887714D01*
X132181610Y-132887713D01*
X132124653Y-132858691D01*
X131999223Y-132794781D01*
X131804534Y-132731522D01*
X131629995Y-132703878D01*
X131602352Y-132699500D01*
X131397648Y-132699500D01*
X131373329Y-132703351D01*
X131195465Y-132731522D01*
X131000776Y-132794781D01*
X130818386Y-132887715D01*
X130652786Y-133008028D01*
X130508028Y-133152786D01*
X130387715Y-133318386D01*
X130294781Y-133500776D01*
X130231522Y-133695465D01*
X130199500Y-133897648D01*
X130199500Y-134102351D01*
X130231522Y-134304534D01*
X130294781Y-134499223D01*
X130387715Y-134681613D01*
X130508028Y-134847213D01*
X130652786Y-134991971D01*
X130807749Y-135104556D01*
X130818390Y-135112287D01*
X130934607Y-135171503D01*
X131000776Y-135205218D01*
X131000778Y-135205218D01*
X131000781Y-135205220D01*
X131116095Y-135242687D01*
X131163433Y-135258069D01*
X131221108Y-135297507D01*
X131248306Y-135361866D01*
X131236391Y-135430712D01*
X131189147Y-135482188D01*
X131125114Y-135500000D01*
X92874000Y-135500000D01*
X92806961Y-135480315D01*
X92761206Y-135427511D01*
X92750000Y-135376000D01*
X92750000Y-122764635D01*
X97579857Y-122764635D01*
X97579857Y-123610370D01*
X97579858Y-123610376D01*
X97586265Y-123669983D01*
X97636559Y-123804828D01*
X97636563Y-123804835D01*
X97722809Y-123920044D01*
X97722812Y-123920047D01*
X97845126Y-124011612D01*
X97843759Y-124013437D01*
X97884330Y-124054005D01*
X97899500Y-124113436D01*
X97899500Y-124420234D01*
X97879815Y-124487273D01*
X97878602Y-124489125D01*
X97790609Y-124620814D01*
X97790602Y-124620827D01*
X97730264Y-124766498D01*
X97730261Y-124766510D01*
X97699500Y-124921153D01*
X97699500Y-125078846D01*
X97730261Y-125233489D01*
X97730264Y-125233501D01*
X97790602Y-125379172D01*
X97790609Y-125379185D01*
X97878210Y-125510288D01*
X97878213Y-125510292D01*
X97989707Y-125621786D01*
X97989711Y-125621789D01*
X98120814Y-125709390D01*
X98120827Y-125709397D01*
X98266498Y-125769735D01*
X98266503Y-125769737D01*
X98421153Y-125800499D01*
X98421156Y-125800500D01*
X98421158Y-125800500D01*
X98578844Y-125800500D01*
X98578845Y-125800499D01*
X98733497Y-125769737D01*
X98879179Y-125709394D01*
X99010289Y-125621789D01*
X99121789Y-125510289D01*
X99209394Y-125379179D01*
X99269737Y-125233497D01*
X99300500Y-125078842D01*
X99300500Y-124921158D01*
X99300500Y-124921155D01*
X99300499Y-124921153D01*
X99269738Y-124766510D01*
X99269737Y-124766503D01*
X99267163Y-124760288D01*
X99209397Y-124620827D01*
X99209390Y-124620814D01*
X99121398Y-124489125D01*
X99115747Y-124471078D01*
X99105523Y-124455169D01*
X99101071Y-124424207D01*
X99100520Y-124422447D01*
X99100500Y-124420234D01*
X99100500Y-124175262D01*
X99120185Y-124108223D01*
X99172989Y-124062468D01*
X99181167Y-124059080D01*
X99264609Y-124027958D01*
X99322688Y-124006296D01*
X99437903Y-123920046D01*
X99499556Y-123837688D01*
X99555489Y-123795818D01*
X99598822Y-123788000D01*
X103561892Y-123788000D01*
X103628931Y-123807685D01*
X103661157Y-123837687D01*
X103722811Y-123920046D01*
X103745169Y-123936783D01*
X103838021Y-124006293D01*
X103838028Y-124006297D01*
X103972874Y-124056591D01*
X103972873Y-124056591D01*
X103979801Y-124057335D01*
X104032484Y-124063000D01*
X105128229Y-124062999D01*
X105187840Y-124056591D01*
X105322688Y-124006296D01*
X105437903Y-123920046D01*
X105524153Y-123804831D01*
X105574448Y-123669983D01*
X105580857Y-123610373D01*
X105580856Y-122764635D01*
X108954857Y-122764635D01*
X108954857Y-123610370D01*
X108954858Y-123610376D01*
X108961265Y-123669983D01*
X109011559Y-123804828D01*
X109011563Y-123804835D01*
X109097808Y-123920043D01*
X109097809Y-123920044D01*
X109097811Y-123920046D01*
X109167247Y-123972026D01*
X109209117Y-124027958D01*
X109214552Y-124095482D01*
X109199500Y-124171153D01*
X109199500Y-124328846D01*
X109230261Y-124483489D01*
X109230264Y-124483501D01*
X109290602Y-124629172D01*
X109290609Y-124629185D01*
X109378210Y-124760288D01*
X109378213Y-124760292D01*
X109489707Y-124871786D01*
X109489711Y-124871789D01*
X109620814Y-124959390D01*
X109620827Y-124959397D01*
X109729461Y-125004394D01*
X109766503Y-125019737D01*
X109921153Y-125050499D01*
X109921156Y-125050500D01*
X109921158Y-125050500D01*
X110078844Y-125050500D01*
X110078845Y-125050499D01*
X110233497Y-125019737D01*
X110379179Y-124959394D01*
X110510289Y-124871789D01*
X110621789Y-124760289D01*
X110709394Y-124629179D01*
X110712854Y-124620827D01*
X110767163Y-124489711D01*
X110769737Y-124483497D01*
X110800500Y-124328842D01*
X110800500Y-124171158D01*
X110800500Y-124171155D01*
X110773826Y-124037059D01*
X110773826Y-124037050D01*
X110773822Y-124037041D01*
X110777012Y-124001456D01*
X110780053Y-123967467D01*
X110780059Y-123967455D01*
X110780060Y-123967450D01*
X110780080Y-123967418D01*
X110797529Y-123936783D01*
X110807241Y-123924284D01*
X110812903Y-123920046D01*
X110875218Y-123836803D01*
X110875908Y-123835916D01*
X110903369Y-123816119D01*
X110930489Y-123795818D01*
X110931877Y-123795567D01*
X110932586Y-123795057D01*
X110935599Y-123794895D01*
X110973822Y-123788000D01*
X114936892Y-123788000D01*
X115003931Y-123807685D01*
X115036157Y-123837687D01*
X115097811Y-123920046D01*
X115120169Y-123936783D01*
X115213021Y-124006293D01*
X115213028Y-124006297D01*
X115347874Y-124056591D01*
X115347873Y-124056591D01*
X115354801Y-124057335D01*
X115407484Y-124063000D01*
X116503229Y-124062999D01*
X116562840Y-124056591D01*
X116697688Y-124006296D01*
X116812903Y-123920046D01*
X116899153Y-123804831D01*
X116949448Y-123669983D01*
X116955857Y-123610373D01*
X116955856Y-122764628D01*
X116949448Y-122705017D01*
X116899153Y-122570169D01*
X116899152Y-122570168D01*
X116899150Y-122570164D01*
X116812904Y-122454955D01*
X116812901Y-122454952D01*
X116697692Y-122368706D01*
X116697685Y-122368702D01*
X116562839Y-122318408D01*
X116562840Y-122318408D01*
X116503240Y-122312001D01*
X116503238Y-122312000D01*
X116503230Y-122312000D01*
X116503221Y-122312000D01*
X115407486Y-122312000D01*
X115407480Y-122312001D01*
X115347873Y-122318408D01*
X115213028Y-122368702D01*
X115213021Y-122368706D01*
X115097813Y-122454952D01*
X115097812Y-122454953D01*
X115097811Y-122454954D01*
X115036159Y-122537311D01*
X114980225Y-122579182D01*
X114936892Y-122587000D01*
X110973822Y-122587000D01*
X110906783Y-122567315D01*
X110874555Y-122537311D01*
X110812903Y-122454954D01*
X110790066Y-122437858D01*
X110697692Y-122368706D01*
X110697685Y-122368702D01*
X110562839Y-122318408D01*
X110562840Y-122318408D01*
X110503240Y-122312001D01*
X110503238Y-122312000D01*
X110503230Y-122312000D01*
X110503221Y-122312000D01*
X109407486Y-122312000D01*
X109407480Y-122312001D01*
X109347873Y-122318408D01*
X109213028Y-122368702D01*
X109213021Y-122368706D01*
X109097812Y-122454952D01*
X109097809Y-122454955D01*
X109011563Y-122570164D01*
X109011559Y-122570171D01*
X108961265Y-122705017D01*
X108954858Y-122764616D01*
X108954858Y-122764623D01*
X108954857Y-122764635D01*
X105580856Y-122764635D01*
X105580856Y-122764628D01*
X105574448Y-122705017D01*
X105524153Y-122570169D01*
X105524152Y-122570168D01*
X105524150Y-122570164D01*
X105437904Y-122454955D01*
X105437901Y-122454952D01*
X105322692Y-122368706D01*
X105322685Y-122368702D01*
X105187839Y-122318408D01*
X105187840Y-122318408D01*
X105128240Y-122312001D01*
X105128238Y-122312000D01*
X105128230Y-122312000D01*
X105128221Y-122312000D01*
X104032486Y-122312000D01*
X104032480Y-122312001D01*
X103972873Y-122318408D01*
X103838028Y-122368702D01*
X103838021Y-122368706D01*
X103722813Y-122454952D01*
X103722812Y-122454953D01*
X103722811Y-122454954D01*
X103661159Y-122537311D01*
X103605225Y-122579182D01*
X103561892Y-122587000D01*
X99598822Y-122587000D01*
X99531783Y-122567315D01*
X99499555Y-122537311D01*
X99437903Y-122454954D01*
X99415066Y-122437858D01*
X99322692Y-122368706D01*
X99322685Y-122368702D01*
X99187839Y-122318408D01*
X99187840Y-122318408D01*
X99128240Y-122312001D01*
X99128238Y-122312000D01*
X99128230Y-122312000D01*
X99128221Y-122312000D01*
X98032486Y-122312000D01*
X98032480Y-122312001D01*
X97972873Y-122318408D01*
X97838028Y-122368702D01*
X97838021Y-122368706D01*
X97722812Y-122454952D01*
X97722809Y-122454955D01*
X97636563Y-122570164D01*
X97636559Y-122570171D01*
X97586265Y-122705017D01*
X97579858Y-122764616D01*
X97579858Y-122764623D01*
X97579857Y-122764635D01*
X92750000Y-122764635D01*
X92750000Y-119860344D01*
X97580357Y-119860344D01*
X97586758Y-119919872D01*
X97586760Y-119919879D01*
X97637002Y-120054586D01*
X97637006Y-120054593D01*
X97723166Y-120169687D01*
X97723169Y-120169690D01*
X97838263Y-120255850D01*
X97838270Y-120255854D01*
X97972977Y-120306096D01*
X97972984Y-120306098D01*
X98032512Y-120312499D01*
X98032529Y-120312500D01*
X98330357Y-120312500D01*
X98830357Y-120312500D01*
X99128185Y-120312500D01*
X99128201Y-120312499D01*
X99187729Y-120306098D01*
X99187736Y-120306096D01*
X99322443Y-120255854D01*
X99322450Y-120255850D01*
X99437544Y-120169690D01*
X99437547Y-120169687D01*
X99523707Y-120054593D01*
X99523711Y-120054586D01*
X99573953Y-119919879D01*
X99573955Y-119919872D01*
X99580356Y-119860344D01*
X103580357Y-119860344D01*
X103586758Y-119919872D01*
X103586760Y-119919879D01*
X103637002Y-120054586D01*
X103637006Y-120054593D01*
X103723166Y-120169687D01*
X103723169Y-120169690D01*
X103838263Y-120255850D01*
X103838270Y-120255854D01*
X103972977Y-120306096D01*
X103972984Y-120306098D01*
X104032512Y-120312499D01*
X104032529Y-120312500D01*
X104330357Y-120312500D01*
X104830357Y-120312500D01*
X105128185Y-120312500D01*
X105128201Y-120312499D01*
X105187729Y-120306098D01*
X105187736Y-120306096D01*
X105322443Y-120255854D01*
X105322450Y-120255850D01*
X105437544Y-120169690D01*
X105437547Y-120169687D01*
X105523707Y-120054593D01*
X105523711Y-120054586D01*
X105573953Y-119919879D01*
X105573955Y-119919872D01*
X105580356Y-119860344D01*
X108955357Y-119860344D01*
X108961758Y-119919872D01*
X108961760Y-119919879D01*
X109012002Y-120054586D01*
X109012006Y-120054593D01*
X109098166Y-120169687D01*
X109098169Y-120169690D01*
X109213263Y-120255850D01*
X109213270Y-120255854D01*
X109347977Y-120306096D01*
X109347984Y-120306098D01*
X109407512Y-120312499D01*
X109407529Y-120312500D01*
X109705357Y-120312500D01*
X110205357Y-120312500D01*
X110503185Y-120312500D01*
X110503201Y-120312499D01*
X110562729Y-120306098D01*
X110562736Y-120306096D01*
X110697443Y-120255854D01*
X110697450Y-120255850D01*
X110812544Y-120169690D01*
X110812547Y-120169687D01*
X110898707Y-120054593D01*
X110898711Y-120054586D01*
X110948953Y-119919879D01*
X110948955Y-119919872D01*
X110955356Y-119860344D01*
X114955357Y-119860344D01*
X114961758Y-119919872D01*
X114961760Y-119919879D01*
X115012002Y-120054586D01*
X115012006Y-120054593D01*
X115098166Y-120169687D01*
X115098169Y-120169690D01*
X115213263Y-120255850D01*
X115213270Y-120255854D01*
X115347977Y-120306096D01*
X115347984Y-120306098D01*
X115407512Y-120312499D01*
X115407529Y-120312500D01*
X115705357Y-120312500D01*
X116205357Y-120312500D01*
X116503185Y-120312500D01*
X116503201Y-120312499D01*
X116562729Y-120306098D01*
X116562736Y-120306096D01*
X116697443Y-120255854D01*
X116697450Y-120255850D01*
X116812544Y-120169690D01*
X116812547Y-120169687D01*
X116898707Y-120054593D01*
X116898711Y-120054586D01*
X116948953Y-119919879D01*
X116948955Y-119919872D01*
X116955356Y-119860344D01*
X116955357Y-119860327D01*
X116955357Y-119687500D01*
X116205357Y-119687500D01*
X116205357Y-120312500D01*
X115705357Y-120312500D01*
X115705357Y-119687500D01*
X114955357Y-119687500D01*
X114955357Y-119860344D01*
X110955356Y-119860344D01*
X110955357Y-119860327D01*
X110955357Y-119687500D01*
X110205357Y-119687500D01*
X110205357Y-120312500D01*
X109705357Y-120312500D01*
X109705357Y-119687500D01*
X108955357Y-119687500D01*
X108955357Y-119860344D01*
X105580356Y-119860344D01*
X105580357Y-119860327D01*
X105580357Y-119687500D01*
X104830357Y-119687500D01*
X104830357Y-120312500D01*
X104330357Y-120312500D01*
X104330357Y-119687500D01*
X103580357Y-119687500D01*
X103580357Y-119860344D01*
X99580356Y-119860344D01*
X99580357Y-119860327D01*
X99580357Y-119687500D01*
X98830357Y-119687500D01*
X98830357Y-120312500D01*
X98330357Y-120312500D01*
X98330357Y-119687500D01*
X97580357Y-119687500D01*
X97580357Y-119860344D01*
X92750000Y-119860344D01*
X92750000Y-119014655D01*
X97580357Y-119014655D01*
X97580357Y-119187500D01*
X98330357Y-119187500D01*
X98830357Y-119187500D01*
X99580357Y-119187500D01*
X99580357Y-119014672D01*
X99580356Y-119014655D01*
X103580357Y-119014655D01*
X103580357Y-119187500D01*
X104330357Y-119187500D01*
X104830357Y-119187500D01*
X105580357Y-119187500D01*
X105580357Y-119014672D01*
X105580356Y-119014655D01*
X108955357Y-119014655D01*
X108955357Y-119187500D01*
X109705357Y-119187500D01*
X110205357Y-119187500D01*
X110955357Y-119187500D01*
X110955357Y-119014672D01*
X110955356Y-119014655D01*
X114955357Y-119014655D01*
X114955357Y-119187500D01*
X115705357Y-119187500D01*
X116205357Y-119187500D01*
X116955357Y-119187500D01*
X116955357Y-119014672D01*
X116955356Y-119014655D01*
X116948955Y-118955127D01*
X116948953Y-118955120D01*
X116898711Y-118820413D01*
X116898707Y-118820406D01*
X116812547Y-118705312D01*
X116812544Y-118705309D01*
X116697450Y-118619149D01*
X116697443Y-118619145D01*
X116562736Y-118568903D01*
X116562729Y-118568901D01*
X116503201Y-118562500D01*
X116205357Y-118562500D01*
X116205357Y-119187500D01*
X115705357Y-119187500D01*
X115705357Y-118562500D01*
X115407512Y-118562500D01*
X115347984Y-118568901D01*
X115347977Y-118568903D01*
X115213270Y-118619145D01*
X115213263Y-118619149D01*
X115098169Y-118705309D01*
X115098166Y-118705312D01*
X115012006Y-118820406D01*
X115012002Y-118820413D01*
X114961760Y-118955120D01*
X114961758Y-118955127D01*
X114955357Y-119014655D01*
X110955356Y-119014655D01*
X110948955Y-118955127D01*
X110948953Y-118955120D01*
X110898711Y-118820413D01*
X110898707Y-118820406D01*
X110812547Y-118705312D01*
X110812544Y-118705309D01*
X110697450Y-118619149D01*
X110697443Y-118619145D01*
X110562736Y-118568903D01*
X110562729Y-118568901D01*
X110503201Y-118562500D01*
X110205357Y-118562500D01*
X110205357Y-119187500D01*
X109705357Y-119187500D01*
X109705357Y-118562500D01*
X109407512Y-118562500D01*
X109347984Y-118568901D01*
X109347977Y-118568903D01*
X109213270Y-118619145D01*
X109213263Y-118619149D01*
X109098169Y-118705309D01*
X109098166Y-118705312D01*
X109012006Y-118820406D01*
X109012002Y-118820413D01*
X108961760Y-118955120D01*
X108961758Y-118955127D01*
X108955357Y-119014655D01*
X105580356Y-119014655D01*
X105573955Y-118955127D01*
X105573953Y-118955120D01*
X105523711Y-118820413D01*
X105523707Y-118820406D01*
X105437547Y-118705312D01*
X105437544Y-118705309D01*
X105322450Y-118619149D01*
X105322443Y-118619145D01*
X105187736Y-118568903D01*
X105187729Y-118568901D01*
X105128201Y-118562500D01*
X104830357Y-118562500D01*
X104830357Y-119187500D01*
X104330357Y-119187500D01*
X104330357Y-118562500D01*
X104032512Y-118562500D01*
X103972984Y-118568901D01*
X103972977Y-118568903D01*
X103838270Y-118619145D01*
X103838263Y-118619149D01*
X103723169Y-118705309D01*
X103723166Y-118705312D01*
X103637006Y-118820406D01*
X103637002Y-118820413D01*
X103586760Y-118955120D01*
X103586758Y-118955127D01*
X103580357Y-119014655D01*
X99580356Y-119014655D01*
X99573955Y-118955127D01*
X99573953Y-118955120D01*
X99523711Y-118820413D01*
X99523707Y-118820406D01*
X99437547Y-118705312D01*
X99437544Y-118705309D01*
X99322450Y-118619149D01*
X99322443Y-118619145D01*
X99187736Y-118568903D01*
X99187729Y-118568901D01*
X99128201Y-118562500D01*
X98830357Y-118562500D01*
X98830357Y-119187500D01*
X98330357Y-119187500D01*
X98330357Y-118562500D01*
X98032512Y-118562500D01*
X97972984Y-118568901D01*
X97972977Y-118568903D01*
X97838270Y-118619145D01*
X97838263Y-118619149D01*
X97723169Y-118705309D01*
X97723166Y-118705312D01*
X97637006Y-118820406D01*
X97637002Y-118820413D01*
X97586760Y-118955120D01*
X97586758Y-118955127D01*
X97580357Y-119014655D01*
X92750000Y-119014655D01*
X92750000Y-110297844D01*
X97705357Y-110297844D01*
X97711758Y-110357372D01*
X97711760Y-110357379D01*
X97762002Y-110492086D01*
X97762006Y-110492093D01*
X97848166Y-110607187D01*
X97848169Y-110607190D01*
X97963263Y-110693350D01*
X97963270Y-110693354D01*
X98097977Y-110743596D01*
X98097984Y-110743598D01*
X98157512Y-110749999D01*
X98157529Y-110750000D01*
X98455357Y-110750000D01*
X98955357Y-110750000D01*
X99253185Y-110750000D01*
X99253201Y-110749999D01*
X99312729Y-110743598D01*
X99312736Y-110743596D01*
X99447443Y-110693354D01*
X99447450Y-110693350D01*
X99562544Y-110607190D01*
X99562547Y-110607187D01*
X99648707Y-110492093D01*
X99648711Y-110492086D01*
X99698953Y-110357379D01*
X99698955Y-110357372D01*
X99705356Y-110297844D01*
X103705357Y-110297844D01*
X103711758Y-110357372D01*
X103711760Y-110357379D01*
X103762002Y-110492086D01*
X103762006Y-110492093D01*
X103848166Y-110607187D01*
X103848169Y-110607190D01*
X103963263Y-110693350D01*
X103963270Y-110693354D01*
X104097977Y-110743596D01*
X104097984Y-110743598D01*
X104157512Y-110749999D01*
X104157529Y-110750000D01*
X104455357Y-110750000D01*
X104955357Y-110750000D01*
X105253185Y-110750000D01*
X105253201Y-110749999D01*
X105312729Y-110743598D01*
X105312736Y-110743596D01*
X105447443Y-110693354D01*
X105447450Y-110693350D01*
X105562544Y-110607190D01*
X105562547Y-110607187D01*
X105648707Y-110492093D01*
X105648711Y-110492086D01*
X105698953Y-110357379D01*
X105698955Y-110357372D01*
X105705356Y-110297844D01*
X109080357Y-110297844D01*
X109086758Y-110357372D01*
X109086760Y-110357379D01*
X109137002Y-110492086D01*
X109137006Y-110492093D01*
X109223166Y-110607187D01*
X109223169Y-110607190D01*
X109338263Y-110693350D01*
X109338270Y-110693354D01*
X109472977Y-110743596D01*
X109472984Y-110743598D01*
X109532512Y-110749999D01*
X109532529Y-110750000D01*
X109830357Y-110750000D01*
X110330357Y-110750000D01*
X110628185Y-110750000D01*
X110628201Y-110749999D01*
X110687729Y-110743598D01*
X110687736Y-110743596D01*
X110822443Y-110693354D01*
X110822450Y-110693350D01*
X110937544Y-110607190D01*
X110937547Y-110607187D01*
X111023707Y-110492093D01*
X111023711Y-110492086D01*
X111073953Y-110357379D01*
X111073955Y-110357372D01*
X111080356Y-110297844D01*
X115080357Y-110297844D01*
X115086758Y-110357372D01*
X115086760Y-110357379D01*
X115137002Y-110492086D01*
X115137006Y-110492093D01*
X115223166Y-110607187D01*
X115223169Y-110607190D01*
X115338263Y-110693350D01*
X115338270Y-110693354D01*
X115472977Y-110743596D01*
X115472984Y-110743598D01*
X115532512Y-110749999D01*
X115532529Y-110750000D01*
X115830357Y-110750000D01*
X116330357Y-110750000D01*
X116628185Y-110750000D01*
X116628201Y-110749999D01*
X116687729Y-110743598D01*
X116687736Y-110743596D01*
X116822443Y-110693354D01*
X116822450Y-110693350D01*
X116937544Y-110607190D01*
X116937547Y-110607187D01*
X117023707Y-110492093D01*
X117023711Y-110492086D01*
X117073953Y-110357379D01*
X117073955Y-110357372D01*
X117080356Y-110297844D01*
X120455357Y-110297844D01*
X120461758Y-110357372D01*
X120461760Y-110357379D01*
X120512002Y-110492086D01*
X120512006Y-110492093D01*
X120598166Y-110607187D01*
X120598169Y-110607190D01*
X120713263Y-110693350D01*
X120713270Y-110693354D01*
X120847977Y-110743596D01*
X120847984Y-110743598D01*
X120907512Y-110749999D01*
X120907529Y-110750000D01*
X121205357Y-110750000D01*
X121705357Y-110750000D01*
X122003185Y-110750000D01*
X122003201Y-110749999D01*
X122062729Y-110743598D01*
X122062736Y-110743596D01*
X122197443Y-110693354D01*
X122197450Y-110693350D01*
X122312544Y-110607190D01*
X122312547Y-110607187D01*
X122398707Y-110492093D01*
X122398711Y-110492086D01*
X122448953Y-110357379D01*
X122448955Y-110357372D01*
X122455356Y-110297844D01*
X126455357Y-110297844D01*
X126461758Y-110357372D01*
X126461760Y-110357379D01*
X126512002Y-110492086D01*
X126512006Y-110492093D01*
X126598166Y-110607187D01*
X126598169Y-110607190D01*
X126713263Y-110693350D01*
X126713270Y-110693354D01*
X126847977Y-110743596D01*
X126847984Y-110743598D01*
X126907512Y-110749999D01*
X126907529Y-110750000D01*
X127205357Y-110750000D01*
X127705357Y-110750000D01*
X128003185Y-110750000D01*
X128003201Y-110749999D01*
X128062729Y-110743598D01*
X128062736Y-110743596D01*
X128197443Y-110693354D01*
X128197450Y-110693350D01*
X128312544Y-110607190D01*
X128312547Y-110607187D01*
X128398707Y-110492093D01*
X128398711Y-110492086D01*
X128448953Y-110357379D01*
X128448955Y-110357372D01*
X128455356Y-110297844D01*
X128455357Y-110297827D01*
X128455357Y-110125000D01*
X127705357Y-110125000D01*
X127705357Y-110750000D01*
X127205357Y-110750000D01*
X127205357Y-110125000D01*
X126455357Y-110125000D01*
X126455357Y-110297844D01*
X122455356Y-110297844D01*
X122455357Y-110297827D01*
X122455357Y-110125000D01*
X121705357Y-110125000D01*
X121705357Y-110750000D01*
X121205357Y-110750000D01*
X121205357Y-110125000D01*
X120455357Y-110125000D01*
X120455357Y-110297844D01*
X117080356Y-110297844D01*
X117080357Y-110297827D01*
X117080357Y-110125000D01*
X116330357Y-110125000D01*
X116330357Y-110750000D01*
X115830357Y-110750000D01*
X115830357Y-110125000D01*
X115080357Y-110125000D01*
X115080357Y-110297844D01*
X111080356Y-110297844D01*
X111080357Y-110297827D01*
X111080357Y-110125000D01*
X110330357Y-110125000D01*
X110330357Y-110750000D01*
X109830357Y-110750000D01*
X109830357Y-110125000D01*
X109080357Y-110125000D01*
X109080357Y-110297844D01*
X105705356Y-110297844D01*
X105705357Y-110297827D01*
X105705357Y-110125000D01*
X104955357Y-110125000D01*
X104955357Y-110750000D01*
X104455357Y-110750000D01*
X104455357Y-110125000D01*
X103705357Y-110125000D01*
X103705357Y-110297844D01*
X99705356Y-110297844D01*
X99705357Y-110297827D01*
X99705357Y-110125000D01*
X98955357Y-110125000D01*
X98955357Y-110750000D01*
X98455357Y-110750000D01*
X98455357Y-110125000D01*
X97705357Y-110125000D01*
X97705357Y-110297844D01*
X92750000Y-110297844D01*
X92750000Y-109452155D01*
X97705357Y-109452155D01*
X97705357Y-109625000D01*
X98455357Y-109625000D01*
X98955357Y-109625000D01*
X99705357Y-109625000D01*
X99705357Y-109452172D01*
X99705356Y-109452155D01*
X103705357Y-109452155D01*
X103705357Y-109625000D01*
X104455357Y-109625000D01*
X104955357Y-109625000D01*
X105705357Y-109625000D01*
X105705357Y-109452172D01*
X105705356Y-109452155D01*
X109080357Y-109452155D01*
X109080357Y-109625000D01*
X109830357Y-109625000D01*
X110330357Y-109625000D01*
X111080357Y-109625000D01*
X111080357Y-109452172D01*
X111080356Y-109452155D01*
X115080357Y-109452155D01*
X115080357Y-109625000D01*
X115830357Y-109625000D01*
X116330357Y-109625000D01*
X117080357Y-109625000D01*
X117080357Y-109452172D01*
X117080356Y-109452155D01*
X120455357Y-109452155D01*
X120455357Y-109625000D01*
X121205357Y-109625000D01*
X121705357Y-109625000D01*
X122455357Y-109625000D01*
X122455357Y-109452172D01*
X122455356Y-109452155D01*
X126455357Y-109452155D01*
X126455357Y-109625000D01*
X127205357Y-109625000D01*
X127705357Y-109625000D01*
X128455357Y-109625000D01*
X128455357Y-109452172D01*
X128455356Y-109452155D01*
X128448955Y-109392627D01*
X128448953Y-109392620D01*
X128398711Y-109257913D01*
X128398707Y-109257906D01*
X128312547Y-109142812D01*
X128312544Y-109142809D01*
X128197450Y-109056649D01*
X128197443Y-109056645D01*
X128062736Y-109006403D01*
X128062729Y-109006401D01*
X128003201Y-109000000D01*
X127705357Y-109000000D01*
X127705357Y-109625000D01*
X127205357Y-109625000D01*
X127205357Y-109000000D01*
X126907512Y-109000000D01*
X126847984Y-109006401D01*
X126847977Y-109006403D01*
X126713270Y-109056645D01*
X126713263Y-109056649D01*
X126598169Y-109142809D01*
X126598166Y-109142812D01*
X126512006Y-109257906D01*
X126512002Y-109257913D01*
X126461760Y-109392620D01*
X126461758Y-109392627D01*
X126455357Y-109452155D01*
X122455356Y-109452155D01*
X122448955Y-109392627D01*
X122448953Y-109392620D01*
X122398711Y-109257913D01*
X122398707Y-109257906D01*
X122312547Y-109142812D01*
X122312544Y-109142809D01*
X122197450Y-109056649D01*
X122197443Y-109056645D01*
X122062736Y-109006403D01*
X122062729Y-109006401D01*
X122003201Y-109000000D01*
X121705357Y-109000000D01*
X121705357Y-109625000D01*
X121205357Y-109625000D01*
X121205357Y-109000000D01*
X120907512Y-109000000D01*
X120847984Y-109006401D01*
X120847977Y-109006403D01*
X120713270Y-109056645D01*
X120713263Y-109056649D01*
X120598169Y-109142809D01*
X120598166Y-109142812D01*
X120512006Y-109257906D01*
X120512002Y-109257913D01*
X120461760Y-109392620D01*
X120461758Y-109392627D01*
X120455357Y-109452155D01*
X117080356Y-109452155D01*
X117073955Y-109392627D01*
X117073953Y-109392620D01*
X117023711Y-109257913D01*
X117023707Y-109257906D01*
X116937547Y-109142812D01*
X116937544Y-109142809D01*
X116822450Y-109056649D01*
X116822443Y-109056645D01*
X116687736Y-109006403D01*
X116687729Y-109006401D01*
X116628201Y-109000000D01*
X116330357Y-109000000D01*
X116330357Y-109625000D01*
X115830357Y-109625000D01*
X115830357Y-109000000D01*
X115532512Y-109000000D01*
X115472984Y-109006401D01*
X115472977Y-109006403D01*
X115338270Y-109056645D01*
X115338263Y-109056649D01*
X115223169Y-109142809D01*
X115223166Y-109142812D01*
X115137006Y-109257906D01*
X115137002Y-109257913D01*
X115086760Y-109392620D01*
X115086758Y-109392627D01*
X115080357Y-109452155D01*
X111080356Y-109452155D01*
X111073955Y-109392627D01*
X111073953Y-109392620D01*
X111023711Y-109257913D01*
X111023707Y-109257906D01*
X110937547Y-109142812D01*
X110937544Y-109142809D01*
X110822450Y-109056649D01*
X110822443Y-109056645D01*
X110687736Y-109006403D01*
X110687729Y-109006401D01*
X110628201Y-109000000D01*
X110330357Y-109000000D01*
X110330357Y-109625000D01*
X109830357Y-109625000D01*
X109830357Y-109000000D01*
X109532512Y-109000000D01*
X109472984Y-109006401D01*
X109472977Y-109006403D01*
X109338270Y-109056645D01*
X109338263Y-109056649D01*
X109223169Y-109142809D01*
X109223166Y-109142812D01*
X109137006Y-109257906D01*
X109137002Y-109257913D01*
X109086760Y-109392620D01*
X109086758Y-109392627D01*
X109080357Y-109452155D01*
X105705356Y-109452155D01*
X105698955Y-109392627D01*
X105698953Y-109392620D01*
X105648711Y-109257913D01*
X105648707Y-109257906D01*
X105562547Y-109142812D01*
X105562544Y-109142809D01*
X105447450Y-109056649D01*
X105447443Y-109056645D01*
X105312736Y-109006403D01*
X105312729Y-109006401D01*
X105253201Y-109000000D01*
X104955357Y-109000000D01*
X104955357Y-109625000D01*
X104455357Y-109625000D01*
X104455357Y-109000000D01*
X104157512Y-109000000D01*
X104097984Y-109006401D01*
X104097977Y-109006403D01*
X103963270Y-109056645D01*
X103963263Y-109056649D01*
X103848169Y-109142809D01*
X103848166Y-109142812D01*
X103762006Y-109257906D01*
X103762002Y-109257913D01*
X103711760Y-109392620D01*
X103711758Y-109392627D01*
X103705357Y-109452155D01*
X99705356Y-109452155D01*
X99698955Y-109392627D01*
X99698953Y-109392620D01*
X99648711Y-109257913D01*
X99648707Y-109257906D01*
X99562547Y-109142812D01*
X99562544Y-109142809D01*
X99447450Y-109056649D01*
X99447443Y-109056645D01*
X99312736Y-109006403D01*
X99312729Y-109006401D01*
X99253201Y-109000000D01*
X98955357Y-109000000D01*
X98955357Y-109625000D01*
X98455357Y-109625000D01*
X98455357Y-109000000D01*
X98157512Y-109000000D01*
X98097984Y-109006401D01*
X98097977Y-109006403D01*
X97963270Y-109056645D01*
X97963263Y-109056649D01*
X97848169Y-109142809D01*
X97848166Y-109142812D01*
X97762006Y-109257906D01*
X97762002Y-109257913D01*
X97711760Y-109392620D01*
X97711758Y-109392627D01*
X97705357Y-109452155D01*
X92750000Y-109452155D01*
X92750000Y-104171153D01*
X107699500Y-104171153D01*
X107699500Y-104328846D01*
X107730261Y-104483489D01*
X107730264Y-104483501D01*
X107790602Y-104629172D01*
X107790609Y-104629185D01*
X107878210Y-104760288D01*
X107878213Y-104760292D01*
X107989707Y-104871786D01*
X107989711Y-104871789D01*
X108120814Y-104959390D01*
X108120827Y-104959397D01*
X108266498Y-105019735D01*
X108266503Y-105019737D01*
X108421153Y-105050499D01*
X108421156Y-105050500D01*
X108421158Y-105050500D01*
X108578844Y-105050500D01*
X108578845Y-105050499D01*
X108733497Y-105019737D01*
X108879179Y-104959394D01*
X108879185Y-104959390D01*
X109010875Y-104871398D01*
X109028921Y-104865747D01*
X109044831Y-104855523D01*
X109075792Y-104851071D01*
X109077553Y-104850520D01*
X109079766Y-104850500D01*
X109130616Y-104850500D01*
X109197655Y-104870185D01*
X109204927Y-104875233D01*
X109213026Y-104881296D01*
X109213028Y-104881297D01*
X109347874Y-104931591D01*
X109347873Y-104931591D01*
X109354801Y-104932335D01*
X109407484Y-104938000D01*
X110503229Y-104937999D01*
X110562840Y-104931591D01*
X110697688Y-104881296D01*
X110812903Y-104795046D01*
X110874556Y-104712688D01*
X110930489Y-104670818D01*
X110973822Y-104663000D01*
X114936892Y-104663000D01*
X115003931Y-104682685D01*
X115036157Y-104712687D01*
X115097811Y-104795046D01*
X115144000Y-104829623D01*
X115213021Y-104881293D01*
X115213028Y-104881297D01*
X115347874Y-104931591D01*
X115347873Y-104931591D01*
X115354801Y-104932335D01*
X115407484Y-104938000D01*
X116503229Y-104937999D01*
X116562840Y-104931591D01*
X116697688Y-104881296D01*
X116812903Y-104795046D01*
X116899153Y-104679831D01*
X116949448Y-104544983D01*
X116955857Y-104485373D01*
X116955856Y-103639628D01*
X116949448Y-103580017D01*
X116934747Y-103540602D01*
X116899154Y-103445171D01*
X116899150Y-103445164D01*
X116812904Y-103329955D01*
X116812901Y-103329952D01*
X116697692Y-103243706D01*
X116697685Y-103243702D01*
X116562839Y-103193408D01*
X116562840Y-103193408D01*
X116503240Y-103187001D01*
X116503238Y-103187000D01*
X116503230Y-103187000D01*
X116503221Y-103187000D01*
X115407486Y-103187000D01*
X115407480Y-103187001D01*
X115347873Y-103193408D01*
X115213028Y-103243702D01*
X115213021Y-103243706D01*
X115097813Y-103329952D01*
X115097812Y-103329953D01*
X115097811Y-103329954D01*
X115036159Y-103412311D01*
X114980225Y-103454182D01*
X114936892Y-103462000D01*
X110973822Y-103462000D01*
X110906783Y-103442315D01*
X110874555Y-103412311D01*
X110812903Y-103329954D01*
X110790066Y-103312858D01*
X110697692Y-103243706D01*
X110697685Y-103243702D01*
X110562839Y-103193408D01*
X110562840Y-103193408D01*
X110503240Y-103187001D01*
X110503238Y-103187000D01*
X110503230Y-103187000D01*
X110503221Y-103187000D01*
X109407486Y-103187000D01*
X109407480Y-103187001D01*
X109347873Y-103193408D01*
X109213028Y-103243702D01*
X109213021Y-103243706D01*
X109097812Y-103329952D01*
X109097809Y-103329955D01*
X109011563Y-103445164D01*
X109011557Y-103445174D01*
X109007919Y-103454930D01*
X108966046Y-103510862D01*
X108900581Y-103535276D01*
X108844287Y-103526153D01*
X108733501Y-103480264D01*
X108733489Y-103480261D01*
X108578845Y-103449500D01*
X108578842Y-103449500D01*
X108421158Y-103449500D01*
X108421155Y-103449500D01*
X108266510Y-103480261D01*
X108266498Y-103480264D01*
X108120827Y-103540602D01*
X108120814Y-103540609D01*
X107989711Y-103628210D01*
X107989707Y-103628213D01*
X107878213Y-103739707D01*
X107878210Y-103739711D01*
X107790609Y-103870814D01*
X107790602Y-103870827D01*
X107730264Y-104016498D01*
X107730261Y-104016510D01*
X107699500Y-104171153D01*
X92750000Y-104171153D01*
X92750000Y-100735344D01*
X108955357Y-100735344D01*
X108961758Y-100794872D01*
X108961760Y-100794879D01*
X109012002Y-100929586D01*
X109012006Y-100929593D01*
X109098166Y-101044687D01*
X109098169Y-101044690D01*
X109213263Y-101130850D01*
X109213270Y-101130854D01*
X109347977Y-101181096D01*
X109347984Y-101181098D01*
X109407512Y-101187499D01*
X109407529Y-101187500D01*
X109705357Y-101187500D01*
X110205357Y-101187500D01*
X110503185Y-101187500D01*
X110503201Y-101187499D01*
X110562729Y-101181098D01*
X110562736Y-101181096D01*
X110697443Y-101130854D01*
X110697450Y-101130850D01*
X110812544Y-101044690D01*
X110812547Y-101044687D01*
X110898707Y-100929593D01*
X110898711Y-100929586D01*
X110948953Y-100794879D01*
X110948955Y-100794872D01*
X110955356Y-100735344D01*
X114955357Y-100735344D01*
X114961758Y-100794872D01*
X114961760Y-100794879D01*
X115012002Y-100929586D01*
X115012006Y-100929593D01*
X115098166Y-101044687D01*
X115098169Y-101044690D01*
X115213263Y-101130850D01*
X115213270Y-101130854D01*
X115347977Y-101181096D01*
X115347984Y-101181098D01*
X115407512Y-101187499D01*
X115407529Y-101187500D01*
X115705357Y-101187500D01*
X116205357Y-101187500D01*
X116503185Y-101187500D01*
X116503201Y-101187499D01*
X116562729Y-101181098D01*
X116562736Y-101181096D01*
X116697443Y-101130854D01*
X116697450Y-101130850D01*
X116812544Y-101044690D01*
X116812547Y-101044687D01*
X116898707Y-100929593D01*
X116898711Y-100929586D01*
X116948953Y-100794879D01*
X116948955Y-100794872D01*
X116955356Y-100735344D01*
X116955357Y-100735327D01*
X116955357Y-100562500D01*
X116205357Y-100562500D01*
X116205357Y-101187500D01*
X115705357Y-101187500D01*
X115705357Y-100562500D01*
X114955357Y-100562500D01*
X114955357Y-100735344D01*
X110955356Y-100735344D01*
X110955357Y-100735327D01*
X110955357Y-100562500D01*
X110205357Y-100562500D01*
X110205357Y-101187500D01*
X109705357Y-101187500D01*
X109705357Y-100562500D01*
X108955357Y-100562500D01*
X108955357Y-100735344D01*
X92750000Y-100735344D01*
X92750000Y-99889655D01*
X108955357Y-99889655D01*
X108955357Y-100062500D01*
X109705357Y-100062500D01*
X110205357Y-100062500D01*
X110955357Y-100062500D01*
X110955357Y-99889672D01*
X110955356Y-99889655D01*
X114955357Y-99889655D01*
X114955357Y-100062500D01*
X115705357Y-100062500D01*
X116205357Y-100062500D01*
X116955357Y-100062500D01*
X116955357Y-99889672D01*
X116955356Y-99889655D01*
X116948955Y-99830127D01*
X116948953Y-99830120D01*
X116898711Y-99695413D01*
X116898707Y-99695406D01*
X116812547Y-99580312D01*
X116812544Y-99580309D01*
X116697450Y-99494149D01*
X116697443Y-99494145D01*
X116562736Y-99443903D01*
X116562729Y-99443901D01*
X116503201Y-99437500D01*
X116205357Y-99437500D01*
X116205357Y-100062500D01*
X115705357Y-100062500D01*
X115705357Y-99437500D01*
X115407512Y-99437500D01*
X115347984Y-99443901D01*
X115347977Y-99443903D01*
X115213270Y-99494145D01*
X115213263Y-99494149D01*
X115098169Y-99580309D01*
X115098166Y-99580312D01*
X115012006Y-99695406D01*
X115012002Y-99695413D01*
X114961760Y-99830120D01*
X114961758Y-99830127D01*
X114955357Y-99889655D01*
X110955356Y-99889655D01*
X110948955Y-99830127D01*
X110948953Y-99830120D01*
X110898711Y-99695413D01*
X110898707Y-99695406D01*
X110812547Y-99580312D01*
X110812544Y-99580309D01*
X110697450Y-99494149D01*
X110697443Y-99494145D01*
X110562736Y-99443903D01*
X110562729Y-99443901D01*
X110503201Y-99437500D01*
X110205357Y-99437500D01*
X110205357Y-100062500D01*
X109705357Y-100062500D01*
X109705357Y-99437500D01*
X109407512Y-99437500D01*
X109347984Y-99443901D01*
X109347977Y-99443903D01*
X109213270Y-99494145D01*
X109213263Y-99494149D01*
X109098169Y-99580309D01*
X109098166Y-99580312D01*
X109012006Y-99695406D01*
X109012002Y-99695413D01*
X108961760Y-99830120D01*
X108961758Y-99830127D01*
X108955357Y-99889655D01*
X92750000Y-99889655D01*
X92750000Y-91868872D01*
X100124500Y-91868872D01*
X100124500Y-92131127D01*
X100151123Y-92333339D01*
X100158730Y-92391116D01*
X100226602Y-92644418D01*
X100226605Y-92644428D01*
X100326953Y-92886690D01*
X100326958Y-92886700D01*
X100458075Y-93113803D01*
X100617718Y-93321851D01*
X100617726Y-93321860D01*
X100803140Y-93507274D01*
X100803148Y-93507281D01*
X101011196Y-93666924D01*
X101238299Y-93798041D01*
X101238309Y-93798046D01*
X101480571Y-93898394D01*
X101480581Y-93898398D01*
X101733884Y-93966270D01*
X101993880Y-94000500D01*
X101993887Y-94000500D01*
X102256113Y-94000500D01*
X102256120Y-94000500D01*
X102516116Y-93966270D01*
X102769419Y-93898398D01*
X103011697Y-93798043D01*
X103238803Y-93666924D01*
X103446851Y-93507282D01*
X103446855Y-93507277D01*
X103446860Y-93507274D01*
X103632274Y-93321860D01*
X103632277Y-93321855D01*
X103632282Y-93321851D01*
X103791924Y-93113803D01*
X103923043Y-92886697D01*
X104023398Y-92644419D01*
X104091270Y-92391116D01*
X104125500Y-92131120D01*
X104125500Y-91868880D01*
X104125499Y-91868872D01*
X122124500Y-91868872D01*
X122124500Y-92131127D01*
X122151123Y-92333339D01*
X122158730Y-92391116D01*
X122226602Y-92644418D01*
X122226605Y-92644428D01*
X122326953Y-92886690D01*
X122326958Y-92886700D01*
X122458075Y-93113803D01*
X122617718Y-93321851D01*
X122617726Y-93321860D01*
X122803140Y-93507274D01*
X122803148Y-93507281D01*
X123011196Y-93666924D01*
X123238299Y-93798041D01*
X123238309Y-93798046D01*
X123480571Y-93898394D01*
X123480581Y-93898398D01*
X123733884Y-93966270D01*
X123993880Y-94000500D01*
X123993887Y-94000500D01*
X124256113Y-94000500D01*
X124256120Y-94000500D01*
X124516116Y-93966270D01*
X124769419Y-93898398D01*
X125011697Y-93798043D01*
X125238803Y-93666924D01*
X125446851Y-93507282D01*
X125446855Y-93507277D01*
X125446860Y-93507274D01*
X125632274Y-93321860D01*
X125632277Y-93321855D01*
X125632282Y-93321851D01*
X125791924Y-93113803D01*
X125923043Y-92886697D01*
X126023398Y-92644419D01*
X126091270Y-92391116D01*
X126125500Y-92131120D01*
X126125500Y-91868880D01*
X126091270Y-91608884D01*
X126023398Y-91355581D01*
X126023394Y-91355571D01*
X125923046Y-91113309D01*
X125923041Y-91113299D01*
X125791924Y-90886196D01*
X125632281Y-90678148D01*
X125632274Y-90678140D01*
X125446860Y-90492726D01*
X125446851Y-90492718D01*
X125238803Y-90333075D01*
X125011700Y-90201958D01*
X125011690Y-90201953D01*
X124769428Y-90101605D01*
X124769421Y-90101603D01*
X124769419Y-90101602D01*
X124516116Y-90033730D01*
X124458339Y-90026123D01*
X124256127Y-89999500D01*
X124256120Y-89999500D01*
X123993880Y-89999500D01*
X123993872Y-89999500D01*
X123762772Y-90029926D01*
X123733884Y-90033730D01*
X123480581Y-90101602D01*
X123480571Y-90101605D01*
X123238309Y-90201953D01*
X123238299Y-90201958D01*
X123011196Y-90333075D01*
X122803148Y-90492718D01*
X122617718Y-90678148D01*
X122458075Y-90886196D01*
X122326958Y-91113299D01*
X122326953Y-91113309D01*
X122226605Y-91355571D01*
X122226602Y-91355581D01*
X122158730Y-91608885D01*
X122124500Y-91868872D01*
X104125499Y-91868872D01*
X104091270Y-91608884D01*
X104023398Y-91355581D01*
X104023394Y-91355571D01*
X103923046Y-91113309D01*
X103923041Y-91113299D01*
X103791924Y-90886196D01*
X103632281Y-90678148D01*
X103632274Y-90678140D01*
X103446860Y-90492726D01*
X103446851Y-90492718D01*
X103238803Y-90333075D01*
X103011700Y-90201958D01*
X103011690Y-90201953D01*
X102769428Y-90101605D01*
X102769421Y-90101603D01*
X102769419Y-90101602D01*
X102516116Y-90033730D01*
X102458339Y-90026123D01*
X102256127Y-89999500D01*
X102256120Y-89999500D01*
X101993880Y-89999500D01*
X101993872Y-89999500D01*
X101762772Y-90029926D01*
X101733884Y-90033730D01*
X101480581Y-90101602D01*
X101480571Y-90101605D01*
X101238309Y-90201953D01*
X101238299Y-90201958D01*
X101011196Y-90333075D01*
X100803148Y-90492718D01*
X100617718Y-90678148D01*
X100458075Y-90886196D01*
X100326958Y-91113299D01*
X100326953Y-91113309D01*
X100226605Y-91355571D01*
X100226602Y-91355581D01*
X100158730Y-91608885D01*
X100124500Y-91868872D01*
X92750000Y-91868872D01*
X92750000Y-76421153D01*
X95199500Y-76421153D01*
X95199500Y-76578846D01*
X95230261Y-76733489D01*
X95230264Y-76733501D01*
X95290602Y-76879172D01*
X95290609Y-76879185D01*
X95378602Y-77010874D01*
X95384252Y-77028920D01*
X95394477Y-77044830D01*
X95398928Y-77075789D01*
X95399480Y-77077551D01*
X95399500Y-77079765D01*
X95399500Y-77163330D01*
X95399499Y-77163348D01*
X95399499Y-77329054D01*
X95399498Y-77329054D01*
X95399499Y-77329057D01*
X95440423Y-77481785D01*
X95462472Y-77519975D01*
X95519477Y-77618712D01*
X95519481Y-77618717D01*
X95638349Y-77737585D01*
X95638355Y-77737590D01*
X97015139Y-79114374D01*
X97015149Y-79114385D01*
X97019479Y-79118715D01*
X97019480Y-79118716D01*
X97131284Y-79230520D01*
X97131286Y-79230521D01*
X97131290Y-79230524D01*
X97238405Y-79292366D01*
X97268216Y-79309577D01*
X97380019Y-79339534D01*
X97420942Y-79350500D01*
X97420943Y-79350500D01*
X107598331Y-79350500D01*
X107598347Y-79350501D01*
X107605943Y-79350501D01*
X107764054Y-79350501D01*
X107764057Y-79350501D01*
X107916785Y-79309577D01*
X107966904Y-79280639D01*
X108053716Y-79230520D01*
X108165520Y-79118716D01*
X108165520Y-79118714D01*
X108175728Y-79108507D01*
X108175730Y-79108504D01*
X116527128Y-70757105D01*
X116588449Y-70723622D01*
X116636221Y-70724133D01*
X116636425Y-70722848D01*
X116836264Y-70754500D01*
X116836269Y-70754500D01*
X117033736Y-70754500D01*
X117228763Y-70723610D01*
X117231108Y-70722848D01*
X117416561Y-70662591D01*
X117592501Y-70572944D01*
X117725454Y-70476349D01*
X117752246Y-70456884D01*
X117752248Y-70456881D01*
X117752252Y-70456879D01*
X117891879Y-70317252D01*
X117891881Y-70317248D01*
X117891884Y-70317246D01*
X117946577Y-70241966D01*
X118007944Y-70157501D01*
X118097591Y-69981561D01*
X118134206Y-69868872D01*
X122124500Y-69868872D01*
X122124500Y-70131127D01*
X122146977Y-70301844D01*
X122158730Y-70391116D01*
X122218496Y-70614166D01*
X122226602Y-70644418D01*
X122226605Y-70644428D01*
X122326953Y-70886690D01*
X122326958Y-70886700D01*
X122458075Y-71113803D01*
X122617718Y-71321851D01*
X122617726Y-71321860D01*
X122803140Y-71507274D01*
X122803148Y-71507281D01*
X123011196Y-71666924D01*
X123238299Y-71798041D01*
X123238309Y-71798046D01*
X123480571Y-71898394D01*
X123480581Y-71898398D01*
X123733884Y-71966270D01*
X123993880Y-72000500D01*
X123993887Y-72000500D01*
X124256113Y-72000500D01*
X124256120Y-72000500D01*
X124516116Y-71966270D01*
X124769419Y-71898398D01*
X125011697Y-71798043D01*
X125238803Y-71666924D01*
X125446851Y-71507282D01*
X125446855Y-71507277D01*
X125446860Y-71507274D01*
X125632274Y-71321860D01*
X125632277Y-71321855D01*
X125632282Y-71321851D01*
X125791924Y-71113803D01*
X125923043Y-70886697D01*
X126023398Y-70644419D01*
X126091270Y-70391116D01*
X126125500Y-70131120D01*
X126125500Y-69868880D01*
X126091270Y-69608884D01*
X126023398Y-69355581D01*
X125961538Y-69206237D01*
X125923046Y-69113309D01*
X125923041Y-69113299D01*
X125791924Y-68886196D01*
X125632281Y-68678148D01*
X125632274Y-68678140D01*
X125446860Y-68492726D01*
X125446851Y-68492718D01*
X125238803Y-68333075D01*
X125011700Y-68201958D01*
X125011690Y-68201953D01*
X124769428Y-68101605D01*
X124769421Y-68101603D01*
X124769419Y-68101602D01*
X124516116Y-68033730D01*
X124458339Y-68026123D01*
X124256127Y-67999500D01*
X124256120Y-67999500D01*
X123993880Y-67999500D01*
X123993872Y-67999500D01*
X123762772Y-68029926D01*
X123733884Y-68033730D01*
X123480581Y-68101602D01*
X123480571Y-68101605D01*
X123238309Y-68201953D01*
X123238299Y-68201958D01*
X123011196Y-68333075D01*
X122803148Y-68492718D01*
X122617718Y-68678148D01*
X122458075Y-68886196D01*
X122326958Y-69113299D01*
X122326953Y-69113309D01*
X122226605Y-69355571D01*
X122226602Y-69355581D01*
X122161451Y-69598731D01*
X122158730Y-69608885D01*
X122124500Y-69868872D01*
X118134206Y-69868872D01*
X118158610Y-69793763D01*
X118171113Y-69714823D01*
X118189500Y-69598736D01*
X118189500Y-69401263D01*
X118158610Y-69206236D01*
X118102671Y-69034075D01*
X118097591Y-69018439D01*
X118007944Y-68842499D01*
X117996681Y-68826997D01*
X117891884Y-68682753D01*
X117752246Y-68543115D01*
X117592504Y-68427058D01*
X117592503Y-68427057D01*
X117592501Y-68427056D01*
X117416561Y-68337409D01*
X117416558Y-68337408D01*
X117228763Y-68276389D01*
X117033736Y-68245500D01*
X117033731Y-68245500D01*
X116836269Y-68245500D01*
X116836264Y-68245500D01*
X116641236Y-68276389D01*
X116453441Y-68337408D01*
X116277495Y-68427058D01*
X116117753Y-68543115D01*
X115978115Y-68682753D01*
X115862058Y-68842495D01*
X115862056Y-68842499D01*
X115781805Y-69000000D01*
X115775485Y-69012403D01*
X115727510Y-69063199D01*
X115659689Y-69079994D01*
X115593554Y-69057456D01*
X115554515Y-69012403D01*
X115467944Y-68842499D01*
X115456681Y-68826997D01*
X115351884Y-68682753D01*
X115212246Y-68543115D01*
X115052504Y-68427058D01*
X115052503Y-68427057D01*
X115052501Y-68427056D01*
X114876561Y-68337409D01*
X114876558Y-68337408D01*
X114688763Y-68276389D01*
X114493736Y-68245500D01*
X114493731Y-68245500D01*
X114296269Y-68245500D01*
X114296264Y-68245500D01*
X114101236Y-68276389D01*
X113913441Y-68337408D01*
X113737495Y-68427058D01*
X113577753Y-68543115D01*
X113438115Y-68682753D01*
X113322058Y-68842495D01*
X113322056Y-68842499D01*
X113241805Y-69000000D01*
X113235485Y-69012403D01*
X113187510Y-69063199D01*
X113119689Y-69079994D01*
X113053554Y-69057456D01*
X113014515Y-69012403D01*
X112927944Y-68842499D01*
X112916681Y-68826997D01*
X112811884Y-68682753D01*
X112672246Y-68543115D01*
X112512504Y-68427058D01*
X112512503Y-68427057D01*
X112512501Y-68427056D01*
X112336561Y-68337409D01*
X112336558Y-68337408D01*
X112148763Y-68276389D01*
X111953736Y-68245500D01*
X111953731Y-68245500D01*
X111756269Y-68245500D01*
X111756264Y-68245500D01*
X111561236Y-68276389D01*
X111373441Y-68337408D01*
X111197495Y-68427058D01*
X111037753Y-68543115D01*
X110898115Y-68682753D01*
X110793318Y-68826997D01*
X110737989Y-68869663D01*
X110668375Y-68875642D01*
X110606580Y-68843037D01*
X110572223Y-68782198D01*
X110569000Y-68754112D01*
X110569000Y-68698172D01*
X110568999Y-68698155D01*
X110562598Y-68638627D01*
X110562596Y-68638620D01*
X110512354Y-68503913D01*
X110512350Y-68503906D01*
X110426190Y-68388812D01*
X110426187Y-68388809D01*
X110311093Y-68302649D01*
X110311086Y-68302645D01*
X110176379Y-68252403D01*
X110176372Y-68252401D01*
X110116844Y-68246000D01*
X109565000Y-68246000D01*
X109565000Y-69066988D01*
X109507993Y-69034075D01*
X109380826Y-69000000D01*
X109249174Y-69000000D01*
X109122007Y-69034075D01*
X109065000Y-69066988D01*
X109065000Y-68246000D01*
X108513155Y-68246000D01*
X108453627Y-68252401D01*
X108453620Y-68252403D01*
X108318913Y-68302645D01*
X108318906Y-68302649D01*
X108203812Y-68388809D01*
X108203809Y-68388812D01*
X108117649Y-68503906D01*
X108117645Y-68503913D01*
X108067403Y-68638620D01*
X108067401Y-68638627D01*
X108061000Y-68698155D01*
X108061000Y-69250000D01*
X108881988Y-69250000D01*
X108849075Y-69307007D01*
X108815000Y-69434174D01*
X108815000Y-69565826D01*
X108849075Y-69692993D01*
X108881988Y-69750000D01*
X108061000Y-69750000D01*
X108061000Y-70301844D01*
X108067401Y-70361372D01*
X108067403Y-70361379D01*
X108117645Y-70496086D01*
X108117649Y-70496093D01*
X108203809Y-70611187D01*
X108203812Y-70611190D01*
X108318906Y-70697350D01*
X108318913Y-70697354D01*
X108453620Y-70747596D01*
X108453627Y-70747598D01*
X108513155Y-70753999D01*
X108513172Y-70754000D01*
X109065000Y-70754000D01*
X109065000Y-69933012D01*
X109122007Y-69965925D01*
X109249174Y-70000000D01*
X109380826Y-70000000D01*
X109507993Y-69965925D01*
X109565000Y-69933012D01*
X109565000Y-70754000D01*
X110116828Y-70754000D01*
X110116844Y-70753999D01*
X110176372Y-70747598D01*
X110176379Y-70747596D01*
X110311086Y-70697354D01*
X110311093Y-70697350D01*
X110426187Y-70611190D01*
X110426190Y-70611187D01*
X110512350Y-70496093D01*
X110512354Y-70496086D01*
X110562596Y-70361379D01*
X110562598Y-70361372D01*
X110568999Y-70301844D01*
X110569000Y-70301827D01*
X110569000Y-70245887D01*
X110588685Y-70178848D01*
X110641489Y-70133093D01*
X110710647Y-70123149D01*
X110774203Y-70152174D01*
X110793314Y-70172997D01*
X110843423Y-70241966D01*
X110898121Y-70317252D01*
X111037753Y-70456884D01*
X111139949Y-70531132D01*
X111197499Y-70572944D01*
X111373439Y-70662591D01*
X111463468Y-70691843D01*
X111561236Y-70723610D01*
X111756264Y-70754500D01*
X111756269Y-70754500D01*
X111953736Y-70754500D01*
X112148763Y-70723610D01*
X112151108Y-70722848D01*
X112336561Y-70662591D01*
X112512501Y-70572944D01*
X112645454Y-70476349D01*
X112672246Y-70456884D01*
X112672248Y-70456881D01*
X112672252Y-70456879D01*
X112811879Y-70317252D01*
X112811881Y-70317248D01*
X112811884Y-70317246D01*
X112927941Y-70157505D01*
X112927942Y-70157504D01*
X112927944Y-70157501D01*
X113014517Y-69987593D01*
X113062490Y-69936800D01*
X113130311Y-69920005D01*
X113196446Y-69942542D01*
X113235482Y-69987593D01*
X113291337Y-70097213D01*
X113322055Y-70157500D01*
X113437053Y-70315783D01*
X113460532Y-70381590D01*
X113444706Y-70449644D01*
X113424415Y-70476349D01*
X107037584Y-76863181D01*
X106976261Y-76896666D01*
X106949903Y-76899500D01*
X98579766Y-76899500D01*
X98512727Y-76879815D01*
X98510875Y-76878602D01*
X98379185Y-76790609D01*
X98379172Y-76790602D01*
X98233501Y-76730264D01*
X98233489Y-76730261D01*
X98078845Y-76699500D01*
X98078842Y-76699500D01*
X97921158Y-76699500D01*
X97921155Y-76699500D01*
X97766510Y-76730261D01*
X97766498Y-76730264D01*
X97620827Y-76790602D01*
X97620814Y-76790609D01*
X97489711Y-76878210D01*
X97489707Y-76878213D01*
X97378213Y-76989707D01*
X97378210Y-76989711D01*
X97290609Y-77120814D01*
X97290602Y-77120827D01*
X97230264Y-77266498D01*
X97230261Y-77266508D01*
X97215042Y-77343020D01*
X97182657Y-77404931D01*
X97121941Y-77439505D01*
X97052171Y-77435764D01*
X97005744Y-77406509D01*
X96688834Y-77089599D01*
X96655349Y-77028276D01*
X96660333Y-76958584D01*
X96673410Y-76933032D01*
X96709394Y-76879179D01*
X96769737Y-76733497D01*
X96800500Y-76578842D01*
X96800500Y-76421158D01*
X96800500Y-76421155D01*
X96800499Y-76421153D01*
X96769738Y-76266510D01*
X96769737Y-76266503D01*
X96754725Y-76230260D01*
X96709397Y-76120827D01*
X96709390Y-76120814D01*
X96621789Y-75989711D01*
X96621786Y-75989707D01*
X96510292Y-75878213D01*
X96510288Y-75878210D01*
X96379185Y-75790609D01*
X96379172Y-75790602D01*
X96233501Y-75730264D01*
X96233489Y-75730261D01*
X96078845Y-75699500D01*
X96078842Y-75699500D01*
X95921158Y-75699500D01*
X95921155Y-75699500D01*
X95766510Y-75730261D01*
X95766498Y-75730264D01*
X95620827Y-75790602D01*
X95620814Y-75790609D01*
X95489711Y-75878210D01*
X95489707Y-75878213D01*
X95378213Y-75989707D01*
X95378210Y-75989711D01*
X95290609Y-76120814D01*
X95290602Y-76120827D01*
X95230264Y-76266498D01*
X95230261Y-76266510D01*
X95199500Y-76421153D01*
X92750000Y-76421153D01*
X92750000Y-69147648D01*
X93449500Y-69147648D01*
X93449500Y-69352352D01*
X93453878Y-69379995D01*
X93481522Y-69554534D01*
X93544781Y-69749223D01*
X93584158Y-69826503D01*
X93621657Y-69900099D01*
X93637715Y-69931613D01*
X93758028Y-70097213D01*
X93902786Y-70241971D01*
X94006404Y-70317252D01*
X94068390Y-70362287D01*
X94175297Y-70416759D01*
X94250776Y-70455218D01*
X94250778Y-70455218D01*
X94250781Y-70455220D01*
X94355137Y-70489127D01*
X94445465Y-70518477D01*
X94525365Y-70531132D01*
X94647648Y-70550500D01*
X94647649Y-70550500D01*
X94852351Y-70550500D01*
X94852352Y-70550500D01*
X95054534Y-70518477D01*
X95249219Y-70455220D01*
X95431610Y-70362287D01*
X95524590Y-70294732D01*
X95597213Y-70241971D01*
X95597215Y-70241968D01*
X95597219Y-70241966D01*
X95741966Y-70097219D01*
X95741968Y-70097215D01*
X95741971Y-70097213D01*
X95821611Y-69987596D01*
X95862287Y-69931610D01*
X95894254Y-69868872D01*
X100124500Y-69868872D01*
X100124500Y-70131127D01*
X100146977Y-70301844D01*
X100158730Y-70391116D01*
X100218496Y-70614166D01*
X100226602Y-70644418D01*
X100226605Y-70644428D01*
X100326953Y-70886690D01*
X100326958Y-70886700D01*
X100458075Y-71113803D01*
X100617718Y-71321851D01*
X100617726Y-71321860D01*
X100803140Y-71507274D01*
X100803148Y-71507281D01*
X101011196Y-71666924D01*
X101238299Y-71798041D01*
X101238309Y-71798046D01*
X101480571Y-71898394D01*
X101480581Y-71898398D01*
X101733884Y-71966270D01*
X101993880Y-72000500D01*
X101993887Y-72000500D01*
X102256113Y-72000500D01*
X102256120Y-72000500D01*
X102516116Y-71966270D01*
X102769419Y-71898398D01*
X103011697Y-71798043D01*
X103238803Y-71666924D01*
X103446851Y-71507282D01*
X103446855Y-71507277D01*
X103446860Y-71507274D01*
X103632274Y-71321860D01*
X103632277Y-71321855D01*
X103632282Y-71321851D01*
X103791924Y-71113803D01*
X103923043Y-70886697D01*
X104023398Y-70644419D01*
X104091270Y-70391116D01*
X104125500Y-70131120D01*
X104125500Y-69868880D01*
X104109747Y-69749226D01*
X104105218Y-69714823D01*
X104100892Y-69681973D01*
X104091270Y-69608884D01*
X104023398Y-69355581D01*
X103961538Y-69206237D01*
X103923046Y-69113309D01*
X103923041Y-69113299D01*
X103791927Y-68886201D01*
X103712122Y-68782198D01*
X103632282Y-68678149D01*
X103632281Y-68678148D01*
X103632274Y-68678140D01*
X103446860Y-68492726D01*
X103446851Y-68492718D01*
X103238803Y-68333075D01*
X103011700Y-68201958D01*
X103011690Y-68201953D01*
X102769428Y-68101605D01*
X102769421Y-68101603D01*
X102769419Y-68101602D01*
X102516116Y-68033730D01*
X102458339Y-68026123D01*
X102256127Y-67999500D01*
X102256120Y-67999500D01*
X101993880Y-67999500D01*
X101993872Y-67999500D01*
X101762772Y-68029926D01*
X101733884Y-68033730D01*
X101480581Y-68101602D01*
X101480571Y-68101605D01*
X101238309Y-68201953D01*
X101238299Y-68201958D01*
X101011196Y-68333075D01*
X100803148Y-68492718D01*
X100617718Y-68678148D01*
X100458075Y-68886196D01*
X100326958Y-69113299D01*
X100326953Y-69113309D01*
X100226605Y-69355571D01*
X100226602Y-69355581D01*
X100161451Y-69598731D01*
X100158730Y-69608885D01*
X100124500Y-69868872D01*
X95894254Y-69868872D01*
X95925003Y-69808524D01*
X95955217Y-69749226D01*
X95955217Y-69749222D01*
X95955220Y-69749219D01*
X96018477Y-69554534D01*
X96050500Y-69352352D01*
X96050500Y-69147648D01*
X96045060Y-69113299D01*
X96018477Y-68945465D01*
X95955218Y-68750776D01*
X95918212Y-68678148D01*
X95862287Y-68568390D01*
X95843924Y-68543115D01*
X95741971Y-68402786D01*
X95597213Y-68258028D01*
X95431613Y-68137715D01*
X95431612Y-68137714D01*
X95431610Y-68137713D01*
X95360744Y-68101605D01*
X95249223Y-68044781D01*
X95054534Y-67981522D01*
X94879995Y-67953878D01*
X94852352Y-67949500D01*
X94647648Y-67949500D01*
X94623329Y-67953351D01*
X94445465Y-67981522D01*
X94250776Y-68044781D01*
X94068386Y-68137715D01*
X93902786Y-68258028D01*
X93758028Y-68402786D01*
X93637715Y-68568386D01*
X93544781Y-68750776D01*
X93481522Y-68945465D01*
X93454940Y-69113299D01*
X93449500Y-69147648D01*
X92750000Y-69147648D01*
X92750000Y-67374000D01*
X92769685Y-67306961D01*
X92822489Y-67261206D01*
X92874000Y-67250000D01*
X133376000Y-67250000D01*
X133443039Y-67269685D01*
G37*
%TD.AperFunction*%
%TD*%
M02*
